<?xml version="1.0" encoding="UTF-8" standalone="no"?>
<svg width="600px" height="640px" viewBox="0 0 600 640" version="1.1" xmlns="http://www.w3.org/2000/svg" xmlns:xlink="http://www.w3.org/1999/xlink" style="background: #FF1C54;">
    <!-- Generator: Sketch 39.1 (31720) - http://www.bohemiancoding.com/sketch -->
    <title>600x640</title>
    <desc>Created with Sketch.</desc>
    <defs>
        <path d="M242.690422,42.7657945 C242.690413,48.453622 189.82344,91.92206 176.475173,91.9220636 C163.126906,91.9220672 115.986947,80.0448806 114.05072,72.8010886 C112.114493,65.5572965 166.177459,30.1891961 179.834061,28.2336342 C193.490662,26.2780722 242.690432,37.0779669 242.690422,42.7657945 Z" id="path-1"></path>
        <mask id="mask-2" maskContentUnits="userSpaceOnUse" maskUnits="objectBoundingBox" x="0" y="0" width="128.690422" height="63.9220636" fill="white">
            <use xlink:href="#path-1"></use>
        </mask>
        <path d="M168.748932,42.9805214 C161.149419,56.1071623 166.617982,80.4429588 166.617982,80.4429588 C166.617982,80.4429588 81.65014,44.7855697 51.0631596,37.0155259 C17.6042597,28.5159253 -2.65784621,45.0065836 0.281965441,29.5575789 C3.64435679,11.8878755 -5.25768054,10.994758 6.74599593,1.40769696 C18.7496724,-8.17936407 149.223516,36.8019793 168.748932,42.9805214 Z" id="path-3"></path>
        <mask id="mask-4" maskContentUnits="userSpaceOnUse" maskUnits="objectBoundingBox" x="0" y="0" width="168.748932" height="80.3702514" fill="white">
            <use xlink:href="#path-3"></use>
        </mask>
        <path d="M164.245037,77.7935549 C164.245037,77.7935549 160.569717,91.2558302 160.569717,112.514927 C126.881403,109.617816 113.847154,113.450982 85.332313,99.0458291 C56.8174725,84.6406761 10.8466648,88.9936481 4.08393235,73.7228618 C-3.34202028,56.9544718 1.62877265,53.625064 1.6287726,35.5179893 C1.62877256,17.4109146 164.245037,77.7935549 164.245037,77.7935549 Z" id="path-5"></path>
        <mask id="mask-6" maskContentUnits="userSpaceOnUse" maskUnits="objectBoundingBox" x="0" y="0" width="164.245037" height="80.3843978" fill="white">
            <use xlink:href="#path-5"></use>
        </mask>
        <path d="M79.1980542,100.560755 C91.4802601,104.038171 96.2482414,108.866084 108.034406,111.703053 C137.143019,118.709594 159.238627,119.038474 159.238627,119.038474 C159.238627,119.038474 161.022957,131.172458 161.022957,152.431555 C114.9809,148.472053 37.022011,119.038474 17.434375,113.089202 C15.70506,108.295918 13.1432552,104.052179 11.9695752,100.357716 C8.60194294,89.7572185 8.43368308,83.6788212 7.89498591,82.116144 C7.73978023,81.6659164 46.4180903,91.2798834 79.1980542,100.560755 Z" id="path-7"></path>
        <mask id="mask-8" maskContentUnits="userSpaceOnUse" maskUnits="objectBoundingBox" x="0" y="0" width="153.128437" height="70.3306352" fill="white">
            <use xlink:href="#path-7"></use>
        </mask>
        <path d="M160.82259,153.511394 C160.82259,153.511394 164.235705,153.407694 164.235705,174.666791 C118.193648,170.707289 49.2164054,151.019797 29.6287694,145.070525 C19.6493966,117.409879 14.656395,109.107445 25.2601605,114.93937 C35.8639259,120.771294 160.82259,153.511394 160.82259,153.511394 Z" id="path-9"></path>
        <mask id="mask-10" maskContentUnits="userSpaceOnUse" maskUnits="objectBoundingBox" x="0" y="0" width="144.894721" height="61.4887085" fill="white">
            <use xlink:href="#path-9"></use>
        </mask>
    </defs>
    <g id="Challenge-Yourself" stroke="none" stroke-width="1" fill="none" fill-rule="evenodd">
        <g id="600x640">
            <text id="CHALLENGE-" font-family="Anton" font-size="78" font-weight="normal" line-spacing="69" fill="#FFC61C">
                <tspan x="134.083496" y="498.289062">CHALLENGE </tspan>
                <tspan x="154.192871" y="567.289062">YOURSELF</tspan>
            </text>
            <g id="book" transform="translate(129.000000, 94.000000)">
                <path d="M326.386707,35.3222655 C327.386707,25.1191422 191.039063,-3.30859385 177.310553,1.07641267 C163.582042,5.4614192 26.6070566,95.479345 7.01562481,101.742186 C-12.575807,108.005027 14.5664065,233.992165 29.4999999,251.476555 C44.4335934,268.960945 162.027347,292.218748 171.902134,287.798052 C201.834114,274.398251 341.759754,176.699216 341.759754,169.23242 C346.316395,158.384763 326.386707,160.246091 326.386707,160.246091 L318.449207,42.9824221 C318.449207,42.9824221 321.798816,42.9824234 326.386707,35.3222655 Z" stroke="#FFC61C" stroke-width="2" fill="#FFC61C"></path>
                <use id="Rectangle-41" stroke="#FF1C54" mask="url(#mask-2)" stroke-width="4" fill="#FFC61C" opacity="0.973472481" xlink:href="#path-1"></use>
                <path d="M236,44.3978165 C235.999992,49.5586949 188.346337,88.9999967 176.31437,89 C164.282402,89.0000033 121.79101,78.2231794 120.045718,71.6504889 C118.300426,65.0777984 167.032135,32.9863779 179.342031,31.2119891 C191.651927,29.4376003 236.000008,39.2369381 236,44.3978165 Z" id="Rectangle-41" fill="#FF1C54" opacity="0.973472481"></path>
                <g id="Group-2" transform="translate(10.239344, 105.972603)" stroke="#FF1C54" stroke-width="2" fill="#FFC61C">
                    <use id="Rectangle-41" mask="url(#mask-4)" xlink:href="#path-3"></use>
                    <use id="Rectangle-41-Copy" mask="url(#mask-6)" xlink:href="#path-5"></use>
                    <use id="Rectangle-41-Copy-2" mask="url(#mask-8)" xlink:href="#path-7"></use>
                    <use id="Rectangle-41-Copy-4" mask="url(#mask-10)" xlink:href="#path-9"></use>
                </g>
                <g id="pages" transform="translate(19.340984, 188.410959)" stroke="#FF1C54" stroke-linecap="square">
                    <path d="M0.292203509,0.724555865 C2.36534639,6.88236097 62.2113479,13.540753 80.0937596,24.6021511 C97.9761713,35.6635492 146.689495,41.7486087 151.883607,37.9784621" id="Line"></path>
                    <path d="M1.42990843,3.51907641 C3.50305131,9.67688152 63.3490528,16.3352736 81.2314645,27.3966717 C99.1138762,38.4580698 147.8272,44.5431293 153.021311,40.7729827" id="Line"></path>
                    <path d="M1.42990843,6.31359696 C3.50305131,12.4714021 63.3490528,19.1297941 81.2314645,30.1911922 C99.1138762,41.2525903 147.8272,47.3376498 153.021311,43.5675032" id="Line"></path>
                    <path d="M2.56761335,9.10811751 C4.64075623,15.2659226 64.4867578,21.9243147 82.3691694,32.9857128 C100.251581,44.0471108 148.964905,50.1321704 154.159016,46.3620238" id="Line"></path>
                    <path d="M3.70531826,11.9026381 C5.77846114,18.0604432 65.6244627,24.7188352 83.5068744,35.7802333 C101.389286,46.8416314 150.10261,52.9266909 155.296721,49.1565443" id="Line"></path>
                    <path d="M3.70531826,14.6971586 C5.77846114,20.8549637 65.6244627,27.5133558 83.5068744,38.5747539 C101.389286,49.6361519 150.10261,55.7212115 155.296721,51.9510649" id="Line"></path>
                    <path d="M4.84302318,17.4916792 C6.91616606,23.6494843 66.7621676,30.3078763 84.6445793,41.3692744 C102.526991,52.4306725 151.240314,58.515732 156.434426,54.7455854" id="Line"></path>
                    <path d="M5.9807281,20.2861997 C8.05387098,26.4440048 67.8998725,33.1023969 85.7822842,44.1637949 C103.664696,55.225193 152.378019,61.3102526 157.572131,57.540106" id="Line"></path>
                    <path d="M7.11843302,23.0807202 C9.1915759,29.2385254 69.0375774,35.8969174 86.9199891,46.9583155 C104.802401,58.0197136 153.515724,64.1047731 158.709836,60.3346265" id="Line"></path>
                    <path d="M9.30829278,25.8752408 C10.1283313,28.310981 27.2028959,30.3449627 52.9866067,37.7860659 C86.8604439,47.5619559 131.586196,61.6864725 145.461559,64.0082665 C147.72526,64.3870565 149.167835,64.4517003 149.608197,64.1320634" id="Line"></path>
                    <path d="M9.30829278,28.6697613 C10.1283313,31.1055016 27.2028959,33.1394832 52.9866067,40.5805865 C86.8604439,50.3564764 131.586196,64.4809931 145.461559,66.8027871 C147.72526,67.181577 149.167835,67.2462208 149.608197,66.9265839" id="Line"></path>
                    <polyline id="Line" points="20.2653689 59.3521779 90.7361658 77.2357483 153.021311 88.7260274"></polyline>
                    <polyline id="Line" points="19.2653689 61.3521779 89.7361658 79.2357483 152.021311 90.7260274"></polyline>
                    <polyline id="Line" points="19.1276639 56.5576573 89.5984609 74.4412277 151.883607 85.9315068"></polyline>
                    <polyline id="Line" points="19.1276639 53.7631368 89.5984609 71.6467072 151.883607 83.1369863"></polyline>
                    <polyline id="Line" points="16.8522541 50.9686162 87.323051 68.8521866 149.608197 80.3424658"></polyline>
                    <polyline id="Line" points="15.7145492 48.1740957 86.1853461 66.0576661 148.470492 77.5479452"></polyline>
                    <polyline id="Line" points="15.3645716 45.6934129 90.7361658 64.6604058 153.021311 76.1506849"></polyline>
                    <polyline id="Line" points="14.2268667 42.8988923 89.5984609 61.8658853 151.883607 73.3561644"></polyline>
                    <polyline id="Line" points="14.2268667 40.1043718 89.5984609 59.0713647 151.883607 70.5616438"></polyline>
                    <polyline id="Line" points="11.8136879 35.3640571 85.2945377 56.7555116 151.883607 71.9589041"></polyline>
                </g>
                <g id="Group-3" transform="translate(167.104918, 45.493151)" stroke="#FF1C54" fill="#FFC61C">
                    <path d="M11.1569352,104.561804 L153.940205,0.150096318 C153.940205,0.150096318 157.766499,30.6007331 160.468548,48.8442583 C160.468548,48.8442583 1.84426203,141.796179 8.37273309,141.796179 C1.84426192,131.191192 11.1569352,104.561804 11.1569352,104.561804 Z" id="Path-126"></path>
                    <path d="M8.25718494,140.409835 C8.25718494,140.409835 1.8442623,140.409835 1.8442623,173.643889 C1.8442623,173.643889 166.641486,79.4625428 161.786242,76.291417 C157.973153,61.609268 159.57305,51.8148009 159.57305,51.8148009 L8.25718494,140.409835 Z" id="Path-127"></path>
                    <path d="M4.70741215,179.762361 C4.70741215,179.762361 -2.28214019,189.630512 3.51971055,209.552387 C3.51971055,209.552387 157.489844,96.7345355 162.158434,92.8238442 C162.158434,85.8484589 162.158434,77.2629495 162.158434,77.2629495 L4.70741215,179.762361 Z" id="Path-128"></path>
                    <path d="M1.8442623,214.584707 C1.8442623,214.584707 -4.85975291,223.230255 8.05497567,234.381047 C8.05497567,234.381047 159.534155,131.929393 167.409207,121.318948 C169.705726,105.074433 162.839499,93.6684771 162.839499,93.6684771 L1.8442623,214.584707 Z" id="Path-129"></path>
                </g>
                <g id="pages" transform="translate(10.239344, 45.890411)" stroke="#FF1C54" stroke-linecap="square">
                    <path d="M0.568852459,115.273973 C0.568852459,115.273973 4.34806021,111.456249 8.95053791,110.511826 C12.712249,109.739927 17.0099549,111.68173 20.3598072,112.592707 C66.0042853,125.005501 158.709836,155.799976 158.709836,155.799976" id="Line"></path>
                    <path d="M0.568852459,118.068493 C0.568852459,118.068493 4.34806021,114.25077 8.95053791,113.306346 C12.712249,112.534447 17.0099549,114.476251 20.3598072,115.387227 C66.0042853,127.800022 158.709836,158.594497 158.709836,158.594497" id="Line"></path>
                    <path d="M0.568852459,120.863014 C0.568852459,120.863014 4.34806021,117.04529 8.95053791,116.100867 C12.712249,115.328968 17.0099549,117.270772 20.3598072,118.181748 C66.0042853,130.594543 158.709836,161.389017 158.709836,161.389017" id="Line"></path>
                    <path d="M1.70655738,123.657534 C1.70655738,123.657534 5.48576513,119.839811 10.0882428,118.895387 C13.849954,118.123488 18.1476598,120.065292 21.4975122,120.976268 C67.1419902,133.389063 158.709836,164.183538 158.709836,164.183538" id="Line"></path>
                    <path d="M2.8442623,126.452055 C2.8442623,126.452055 6.62347005,122.634332 11.2259477,121.689908 C14.9876589,120.918009 19.2853648,122.859813 22.6352171,123.770789 C68.2796951,136.183584 158.709836,166.065203 158.709836,166.065203" id="Line"></path>
                    <path d="M3.98196721,129.246575 C3.98196721,129.246575 7.76117497,125.428852 12.3636527,124.484429 C16.1253638,123.712529 20.4230697,125.654333 23.772922,126.565309 C69.4174,138.978104 158.709836,168.78331 158.709836,168.78331" id="Line"></path>
                    <path d="M3.98196721,132.041096 C3.98196721,132.041096 7.76117497,128.223373 12.3636527,127.278949 C16.1253638,126.50705 20.4230697,128.448854 23.772922,129.35983 C69.4174,141.772625 158.709836,171.577831 158.709836,171.577831" id="Line"></path>
                    <path d="M9.6704918,137.630137 C9.6704918,137.630137 13.5824635,137.630137 28.2126373,141.427574 C42.8428111,145.22501 77.0017354,150.404698 85.2867604,153.69863 C93.5717853,156.992562 96.1727299,161.075182 108.787478,164.209466 C121.402225,167.34375 149.608197,169.767123 149.608197,169.767123" id="Line"></path>
                    <path d="M6.74845671,135.788046 C24.4417681,136.486676 59.0748454,142.635826 84.8912275,151.362586 C97.7407372,155.706129 102.427212,158.874674 105.612125,160.068172 C115.195956,163.659568 154.735643,168.77103 154.735643,168.77103" id="Line"></path>
                    <path d="M5.8974001,135.000722 C5.8974001,135.000722 12.1459813,131.471951 21.936373,133.254147 C62.9837442,140.726215 71.149345,147.236658 109.747417,158.096452 C136.400564,165.595472 158.709836,169.024829 158.709836,169.024829" id="Line"></path>
                    <path d="M2.84870645,66.2006636 C9.25496286,57.4896192 161.185233,102.446198 165.942706,109.624894" id="Line"></path>
                    <path d="M6.26182121,63.406143 C12.6680776,54.6950987 162.749577,103.118901 167.403724,103.118901" id="Line"></path>
                    <path d="M1.71100154,70.3924444 C8.11725794,61.6814 155.570037,101.298643 164.805001,115.213935" id="Line-Copy-2"></path>
                    <path d="M1.71100154,74.5842252 C8.11725794,65.8731809 154.432332,104.093163 163.667296,118.008456" id="Line-Copy-3"></path>
                    <path d="M1.71100154,78.776006 C8.11725794,70.0649617 154.432332,108.284944 163.667296,122.200237" id="Line-Copy-4"></path>
                    <path d="M1.71100154,82.9677868 C8.11725794,74.2567425 153.294627,112.476725 162.529591,126.392018" id="Line-Copy-4"></path>
                    <path d="M1.71100154,85.7623074 C8.11725794,77.0512631 153.294627,115.271246 162.529591,129.186538" id="Line-Copy-4"></path>
                    <path d="M1.71100154,88.5568279 C8.11725794,79.8457836 153.294627,118.065766 162.529591,131.981059" id="Line-Copy-4"></path>
                    <path d="M1.71100154,92.7486088 C8.11725794,84.0375644 154.432332,122.257547 163.667296,136.17284" id="Line-Copy-4"></path>
                    <path d="M3.00425206,97.9951573 C3.00425206,97.9951573 1.52990173,96.597897 17.5777629,96.597897 C33.6256241,96.597897 162.520703,142.179419 162.520703,142.179419" id="Line"></path>
                    <path d="M1.91209977,101.30137 C1.91209977,101.30137 1.98765049,98.300808 14.0724321,98.300808 C26.1572138,98.300808 159.847541,144.616438 159.847541,144.616438" id="Line"></path>
                    <path d="M1.70655738,105.493151 C1.70655738,105.493151 5.41080057,99.1806454 15.542338,101.935868 C58.5036967,113.619002 159.847541,147.410959 159.847541,147.410959" id="Line"></path>
                    <path d="M1.70655738,109.684932 C1.70655738,109.684932 5.45635321,102.193488 15.5878906,104.94871 C58.5492494,116.631844 159.847541,149.587354 159.847541,149.587354" id="Line"></path>
                    <path d="M1.33213691,110.780635 C1.33213691,110.780635 5.96854263,104.857015 16.10008,107.612238 C59.0614388,119.295371 158.709836,151.735098 158.709836,151.735098" id="Line"></path>
                    <path d="M167.811475,104.09589 L310.02459,4.89041096" id="Line"></path>
                    <path d="M167.811475,106.890411 L311.162295,6.28767123" id="Line"></path>
                    <path d="M165.536066,111.082192 L310.61233,11.0648277" id="Line"></path>
                    <path d="M167.94918,103.30137 L310.02459,0.698630137" id="Line"></path>
                    <path d="M165.536066,115.273973 L310.947864,13.9030126" id="Line"></path>
                    <path d="M165.536066,118.068493 L310.947864,18.0947935" id="Line"></path>
                    <path d="M164.398361,122.260274 L312.305555,20.9534461" id="Line"></path>
                    <path d="M164.398361,126.452055 L312.305555,25.1452269" id="Line"></path>
                    <path d="M164.398361,129.246575 L313.53881,29.090031" id="Line"></path>
                    <path d="M164.398361,132.041096 L313.994336,32.557256" id="Line"></path>
                    <path d="M164.398361,134.835616 L314.699846,35.9576199" id="Line"></path>
                    <path d="M164.398361,137.630137 L315.435355,40.7989084" id="Line"></path>
                    <path d="M164.912772,139.026033 L316.390849,44.5745131" id="Line"></path>
                    <path d="M162.411821,144.002408 L316.714162,54.3730736" id="Line"></path>
                    <path d="M161.274116,146.796929 L316.011985,57.2112586" id="Line"></path>
                    <path d="M160.136411,149.591449 L315.873105,59.1174818" id="Line"></path>
                    <path d="M160.136411,152.38597 L316.378628,61.697774" id="Line"></path>
                    <path d="M160.136411,155.18049 L316.291967,63.5616973" id="Line"></path>
                    <path d="M160.136411,157.975011 L316.291967,66.3562179" id="Line"></path>
                    <path d="M158.998706,160.769531 L317.01192,68.4125375" id="Line"></path>
                    <path d="M158.998706,163.564052 L317.441893,70.2082352" id="Line"></path>
                    <path d="M158.998706,163.564052 L317.441893,71.6054955" id="Line"></path>
                    <path d="M158.998706,169.153093 L318.579598,74.4000161" id="Line"></path>
                    <polyline id="Line" points="158.998706 171.947613 246.431199 120.033518 317.625215 75.9501017"></polyline>
                    <path d="M319.12623,78.9452055 L159.847541,183.739726" id="Line"></path>
                    <path d="M320.772791,95.7082352 L157.572131,215.876712" id="Line"></path>
                    <path d="M321.910496,98.5027558 L157.572131,218.491117" id="Line"></path>
                    <path d="M323.048201,101.297276 L157.572131,221.285638" id="Line"></path>
                    <path d="M324.185905,104.091797 L157.572131,224.080158" id="Line"></path>
                    <path d="M324.167018,109.10092 L158.709836,226.874679" id="Line"></path>
                    <polyline id="Line" points="324.552549 113.220382 167.386292 223.769509 160.985246 228.271939"></polyline>
                    <polyline id="Line" points="325.690254 116.014903 168.523997 226.56403 162.122951 231.06646"></polyline>
                    <polyline id="Line" points="325.690254 118.809423 168.523997 229.35855 162.122951 233.86098"></polyline>
                    <path d="M319.12623,78.9452055 L159.847541,183.739726" id="Path"></path>
                    <path d="M319.12623,81.739726 L159.847541,186.534247" id="Path"></path>
                    <path d="M317.988525,84.5342466 L158.709836,189.328767" id="Line"></path>
                    <path d="M317.988525,90.1232877 L159.847541,206.09589" id="Line"></path>
                    <path d="M319.12623,87.3287671 L158.709836,203.60975" id="Line"></path>
                    <path d="M319.12623,85.9315068 L158.709836,200.815229" id="Line"></path>
                    <path d="M319.12623,83.1369863 L158.709836,198.020708" id="Line"></path>
                    <path d="M319.12623,83.1369863 L158.709836,193.226188" id="Line"></path>
                    <path d="M319.12623,85.3424658 L158.709836,197.431667" id="Line"></path>
                    <polyline id="Path" points="158.998706 166.358572 300.848446 82.2831875 317.311901 72.5251766"></polyline>
                </g>
                <path d="M38.6601562,250.101562 C38.6601562,250.101562 -3.91015597,166.042969 13.9570312,111.109375" id="Line" stroke="#FF1C54" stroke-width="2" stroke-linecap="square"></path>
                <path d="M200.498048,41.3761951 C185.748405,35.2084735 162.206272,37.727834 146.117676,47.0033442 C129.135453,56.2788544 126.994684,68.7980673 142.311194,74.9657888 C157.984666,81.1335104 184.563616,78.6141499 201.061201,69.3386397 C216.813173,60.0631295 215.917125,47.5439166 200.498048,41.3761951 Z" id="Oval-1" fill="#FFC61C" transform="translate(172.237584, 58.170992) rotate(-10.000000) translate(-172.237584, -58.170992) "></path>
                <path d="M197.284239,43.0128172 C184.087941,37.5089239 163.025126,39.7571271 148.630886,48.0343196 C133.43713,56.3115121 131.521815,67.4832895 145.22528,72.9871828 C159.248115,78.4910761 183.027927,76.2428729 197.788084,67.9656804 C211.881151,59.6884879 211.07947,48.5167105 197.284239,43.0128172 Z" id="Oval-1-Copy" stroke="#FF1C54" stroke-width="0.9" transform="translate(172.000000, 58.000000) rotate(-10.000000) translate(-172.000000, -58.000000) "></path>
                <path d="M183.264084,46.7960672 L184.455123,45 L186.417299,45.2105481 L185.776889,46.8400923 C185.776889,46.8400923 189.994267,49.1275931 189.060445,49.4460559 C188.126623,49.7645187 186.128499,49.1560425 186.128499,49.1560425 L183.264083,50.606404 L181.887224,52.8247812 L186.895865,55.1807555 L189.060445,50.6064039 C189.060445,50.6064039 191,49.6062765 191,50.6064039 C191,51.0408218 188.661064,54.9107279 188.661064,54.9107279 L189.060446,55.8681643 L187.297964,56.9379203 L179.786761,69.9583705 L178.56053,69.9583705 L186.112442,56.6806299 L181.314096,55.6180579 L179.876672,53.9963011 L178.560529,54.2574408 L174.55145,56.6843478 L172.773601,61.4053633 L171.544684,64.2149881 L170.59706,67.9351816 L171.856506,69.975 L170.431953,69.9583706 L165.442873,66.9933789 L167.781577,65.1390057 L169.262355,61.6065341 L168.80406,59.5073659 L162.743526,61.3052409 L158.714261,62.1469582 L159.146194,63.8841591 L157.247672,63.8648966 L154,61.2181597 L155.814607,60.441159 L168.710366,56.3292781 L168.941319,54.1452343 L170.072491,53.063912 L179.876672,49.1560425 L182.362649,47.3691081 C182.362649,47.3691081 179.627977,46.6967786 179.876672,45.8418851 C180.125367,44.9869915 183.264084,46.7960672 183.264084,46.7960672 Z" id="Path-100" fill="#FF1C54"></path>
            </g>
        </g>
    </g>
</svg>