<?xml version="1.0" encoding="UTF-8" standalone="no"?>
<svg width="600px" height="700px" viewBox="0 0 600 700" version="1.1" xmlns="http://www.w3.org/2000/svg" xmlns:xlink="http://www.w3.org/1999/xlink" style="background: #FF1C54;">
    <!-- Generator: Sketch 41 (35326) - http://www.bohemiancoding.com/sketch -->
    <title>hardWay</title>
    <desc>Created with Sketch.</desc>
    <defs></defs>
    <g id="Do-Things-the-Hard-Way" stroke="none" stroke-width="1" fill="none" fill-rule="evenodd">
        <g id="hardWay" fill="#FFC61C">
            <text id="DO-THINGS-THE" font-family="Anton" font-size="72" font-weight="normal" line-spacing="69">
                <tspan x="110" y="543">DO THINGS THE</tspan>
                <tspan x="169.712891" y="612">HARD WAY</tspan>
            </text>
            <g id="mountain-shapes" transform="translate(50.000000, 81.000000)">
                <polygon id="Path-459" points="183.5 262 135.5 209.5 131.546875 180.980469 188.5 257"></polygon>
                <polygon id="Path-460" points="171 152.769537 190.500004 106.500003 195 90.0000014 211.000004 84.9999994 235.605472 21.5000003 232.500004 2.5 187 37.9999983 150.731224 113.999998 112 140 112 176.000006 135 176.000006"></polygon>
                <polygon id="Path-461" points="247 -3.16635607e-13 236.5 -3.6114443e-08 240.5 24.5000008 261 49 273 30"></polygon>
                <polygon id="Path-463" points="236.730469 37.2421875 236.730469 27.7421875 215.970703 81.2421875 218.970703 86.2421875"></polygon>
                <polygon id="Path-465" points="191.735352 120.75 213.485352 87 238.735352 95.25 261.5 182.613281 207.78125 222.410156 180 161.070312"></polygon>
                <polygon id="Path-467" points="419.949219 122 365.460938 78.9765625 352.5 165 400.5 201 415 231.5 440 189.5"></polygon>
                <polygon id="Path-468" points="275.917969 28.5039062 315.28125 78.546875 312.503906 133.46875"></polygon>
                <polygon id="Path-469" points="276.5 181 261.5 176.5 240.5 76 240.5 26.5 268 67 302 143.5 295 161.5"></polygon>
                <polygon id="Path-470" points="315 176.5 349.964844 155.148438 351.007812 170.648438 328 194"></polygon>
                <polygon id="Path-23" points="308.816406 206.132812 324.359375 244.59375 305.425781 259.832031 260.839844 285.09375 230.324219 291.347656 219.4375 277.84375"></polygon>
                <polygon id="Path-24" points="317.109375 220.980469 330.304688 252.453125 360.347656 286.054688 338.820312 246.246094"></polygon>
                <polygon id="Path-25" points="326.652344 248.230469 359.433594 291.554688 334.863281 307.179688 309.554688 261.507812"></polygon>
                <polygon id="Path-26" points="309.652344 272.84375 327.929688 311.832031 319.636719 319.734375 313.902344 311.566406"></polygon>
                <polygon id="Path-27" points="267 283 303.171875 307.140625 292.960938 312.917969 282.015625 305.015625"></polygon>
                <polygon id="Path-28" points="264.089844 286.761719 233 293.5 245.5 308.166016 273.117188 329.570312 301.675781 328.613281"></polygon>
                <polygon id="Path-29" points="161.984375 293.636719 164 278.5 185.210937 269.191406 222.542969 283.609375 243.644531 312.347656 234.085937 324.804688 242.683594 335.054688 255.589844 336.054688 188.777344 339.179688"></polygon>
                <polygon id="Path-30" points="287 39 365.769531 75.3359375 338 76.3359375"></polygon>
                <polygon id="Path-32" points="310.488281 144.921875 321.515625 135.9375 347.90625 141.144531 346.90625 151.480469 332.488281 147.3125"></polygon>
                <polygon id="Path-33" points="447.105469 186.980469 460.355469 169.785156 499.859375 205.203125 496.816406 213.414062 478.96875 222.703125"></polygon>
                <polygon id="Path-34" points="445.328125 193.800781 470.289062 229.789062 431.339844 253.191406 426.828125 217.855469"></polygon>
                <polygon id="Path-34" points="181 44 141 90.2361534 123 101.236153 91 134.000001 111 134.000001 149 109"></polygon>
                <polygon id="Path-35" points="364.5 182.5 390.5 204 408 239.5 413.5 263.5 399 264.5"></polygon>
                <polygon id="Path-36" points="361.5 263.5 351.5 224.5 370.5 211.5 395.5 263.5 376.5 281.5"></polygon>
                <polygon id="Path-37" points="355.5 168 358 175.5 350 212 335.5 221 327 213.5"></polygon>
                <polygon id="Path-38" points="426 124 454.5 158.5 451 178 443 188.5"></polygon>
                <polygon id="Path-38" points="282.5 194.5 296.5 182.5 309.970703 199.242188 252 246 229.5 243 262.5 230.242188 276.470703 214.25"></polygon>
                <polygon id="Path-39" points="227 248 205.5 267.5 210 274.5 246.5 247.5"></polygon>
                <polygon id="Path-40" points="158 195 165 177 198.5 246.5 193 251.5"></polygon>
                <polygon id="Path-42" points="308 203 312.5 199.5 333.5 222 334 235.5"></polygon>
                <polygon id="Path-43" points="298 180 315 178.5 328 196 311.5 196.5"></polygon>
                <polygon id="Path-44" points="340 77.5 363 76.5 353.5 142 329.5 134"></polygon>
                <polygon id="Path-45" points="222.155273 81.4824219 236.973684 84.5789474 241.5 93.4210526 221.155273 87.4517373"></polygon>
                <polygon id="Path-47" points="86.9414062 169.484375 82 143.484375 109.5 143.484375 109.5 175.484375"></polygon>
                <polygon id="Path-47" points="317 75.5 337 77.5 328 132 316 130.5"></polygon>
                <polygon id="Path-48" points="55.5234375 223 83.5234375 227 109.523438 273 67.5234375 291"></polygon>
                <polygon id="Path-49" points="89.5234375 301 117.523438 279 149.523438 293 89.5234375 325"></polygon>
                <polygon id="Path-50" points="36.5234375 238 0.3984375 322.460938 57.5234375 326 50.5234375 230"></polygon>
            </g>
        </g>
    </g>
</svg>