<?xml version="1.0" encoding="UTF-8" standalone="no"?>
<svg width="600px" height="640px" viewBox="0 0 600 640" version="1.1" xmlns="http://www.w3.org/2000/svg" xmlns:xlink="http://www.w3.org/1999/xlink" style="background: #FF1C54;">
    <!-- Generator: Sketch 39.1 (31720) - http://www.bohemiancoding.com/sketch -->
    <title>600x640</title>
    <desc>Created with Sketch.</desc>
    <defs></defs>
    <g id="Do-Things-the-Hard-Way" stroke="none" stroke-width="1" fill="none" fill-rule="evenodd">
        <g id="600x640" fill="#FFC61C">
            <text id="DO-THINGS-THE" font-family="Anton" font-size="78" font-weight="normal" line-spacing="69">
                <tspan x="94" y="519">DO THINGS THE</tspan>
                <tspan x="158.688965" y="588">HARD WAY</tspan>
            </text>
            <g id="mountain" transform="translate(89.000000, 70.000000)">
                <polygon id="Path-459" points="133.842485 235.480469 103.080346 197.572943 100.546875 176.980469 137.046875 231.870228"></polygon>
                <polygon id="Path-460" points="125 150.769537 144.500004 104.500003 149 88.0000014 165.000004 82.9999994 189.605472 19.5000003 186.500004 0.499999999 141 35.9999983 104.731224 111.999998 66 138 66 174.000006 88.9999999 174.000006"></polygon>
                <polygon id="Path-461" points="195 1 184.5 0.999999964 188.5 25.5000008 209 50 221 31"></polygon>
                <polygon id="Path-463" points="183.730469 37.2421875 183.730469 27.7421875 162.970703 81.2421875 165.970703 86.2421875"></polygon>
                <polygon id="Path-465" points="138.735352 120.75 160.485352 87 185.735352 95.25 208.5 182.613281 154.78125 222.410156 127 161.070312"></polygon>
                <polygon id="Path-467" points="366.949219 120 312.460938 76.9765625 299.5 163 347.5 199 362 229.5 387 187.5"></polygon>
                <polygon id="Path-468" points="222.917969 30.5039062 262.28125 80.546875 259.503906 135.46875"></polygon>
                <polygon id="Path-469" points="224.5 180 209.5 175.5 188.5 75 188.5 25.5 216 66 250 142.5 243 160.5"></polygon>
                <polygon id="Path-470" points="259 169.5 293.964844 148.148438 295.007812 163.648438 272 187"></polygon>
                <polygon id="Path-23" points="254.816406 201.132812 270.359375 239.59375 251.425781 254.832031 206.839844 280.09375 176.324219 286.347656 165.4375 272.84375"></polygon>
                <polygon id="Path-24" points="258.109375 205.980469 271.304688 237.453125 301.347656 271.054688 279.820312 231.246094"></polygon>
                <polygon id="Path-25" points="272.652344 248.230469 305.433594 291.554688 280.863281 307.179688 255.554688 261.507812"></polygon>
                <polygon id="Path-26" points="255.652344 260.84375 273.929688 299.832031 265.636719 307.734375 259.902344 299.566406"></polygon>
                <polygon id="Path-27" points="225 278 261.171875 302.140625 250.960938 307.917969 240.015625 300.015625"></polygon>
                <polygon id="Path-28" points="210.089844 286.761719 179 293.5 191.5 308.166016 219.117188 329.570312 247.675781 328.613281"></polygon>
                <polygon id="Path-29" points="107.984375 292.636719 110 277.5 131.210937 268.191406 168.542969 282.609375 189.644531 311.347656 180.085937 323.804688 188.683594 334.054688 201.589844 335.054688 134.777344 338.179688"></polygon>
                <polygon id="Path-30" points="230 35 308.769531 71.3359375 281 72.3359375"></polygon>
                <polygon id="Path-32" points="250.488281 145.921875 261.515625 136.9375 287.90625 142.144531 286.90625 152.480469 272.488281 148.3125"></polygon>
                <polygon id="Path-33" points="393.105469 185.980469 406.355469 168.785156 445.859375 204.203125 442.816406 212.414062 424.96875 221.703125"></polygon>
                <polygon id="Path-34" points="390.328125 189.800781 415.289062 225.789062 376.339844 249.191406 371.828125 213.855469"></polygon>
                <polygon id="Path-34" points="135 47 95 93.2361534 77 104.236153 45 137.000001 65 137.000001 103 112"></polygon>
                <polygon id="Path-35" points="302.5 168.5 328.5 190 346 225.5 351.5 249.5 337 250.5"></polygon>
                <polygon id="Path-36" points="297.5 260.5 287.5 221.5 306.5 208.5 331.5 260.5 312.5 278.5"></polygon>
                <polygon id="Path-37" points="306.5 167 309 174.5 301 211 286.5 220 278 212.5"></polygon>
                <polygon id="Path-38" points="374 129 402.5 163.5 399 183 391 193.5"></polygon>
                <polygon id="Path-38" points="215.5 199.5 229.5 187.5 242.970703 204.242188 185 251 162.5 248 195.5 235.242188 209.470703 219.25"></polygon>
                <polygon id="Path-39" points="169 249 147.5 268.5 152 275.5 188.5 248.5"></polygon>
                <polygon id="Path-40" points="113 185 120 167 153.5 236.5 148 241.5"></polygon>
                <polygon id="Path-42" points="256 196 260.5 192.5 281.5 215 282 228.5"></polygon>
                <polygon id="Path-43" points="241 174 258 172.5 271 190 254.5 190.5"></polygon>
                <polygon id="Path-44" points="288 77.5 311 76.5 301.5 142 277.5 134"></polygon>
                <polygon id="Path-45" points="75.5 327 78.8289474 325 96.0789474 329 98.5 340 76.1052632 331.5"></polygon>
                <polygon id="Path-47" points="43.9414062 164.484375 39 138.484375 66.5 138.484375 66.5 170.484375"></polygon>
                <polygon id="Path-47" points="264 79.5 284 81.5 275 136 263 134.5"></polygon>
                <polygon id="Path-48" points="21.5234375 203 49.5234375 207 75.5234375 253 33.5234375 271"></polygon>
                <polygon id="Path-49" points="35.5234375 290 63.5234375 268 95.5234375 282 35.5234375 314"></polygon>
                <polygon id="Path-50" points="0.9921875 199.171875 11.9648438 292.617188 32.5898438 274.601562 19.5234375 201"></polygon>
                <polygon id="Path-95" points="41.2109375 165.109375 69.9335938 174.488281 49.5703125 204.835938 2.25 194.847656"></polygon>
                <polygon id="Path-96" points="91.2109375 193.660156 132.585938 243.203125 109.585938 261.402344 78.7226562 250.125 53.9570312 211.152344 53.9570312 197.269531"></polygon>
                <polygon id="Path-97" points="315.53177 315.236496 436.648453 270.394531 443.103677 288.639474 328.401269 319.394531"></polygon>
            </g>
            <polygon id="climber" points="229.14735 312.214816 229.770148 311.445079 230.418864 311.560195 231.062082 312.321179 230.992184 313.129642 230.165713 313.430428 230.351846 314.635696 232.560829 314.706516 233.040951 314.246318 233.797786 314.293531 233.500916 315.116848 237 327.858625 236.505741 328 233.020532 315.293235 231.03407 315.950509 230.000785 315.558213 229.613598 315.950509 229.031901 317.94912 230.158121 320.696514 230.344254 322.948699 231.988294 324.666948 233.094095 325.280191 232.727327 325.775136 230.245559 325.898739 230.106025 324.088981 228.953626 322.66197 228.144695 320.742667 226.960619 323.354256 226.134149 325.037758 227.126332 326.072209 226.596731 326.676964 224.222035 325.736675 224.353454 324.654746 226.84072 319.054391 226.052208 317.834004 226.052208 317.049413 224.390628 316.692661 224.184076 315.469622 223 313.948184 223.136654 312.851401 224.175437 312.084582 225.633345 312.084582 226.564269 311 228.63241 311.259408 228.446277 312.497566"></polygon>
        </g>
    </g>
</svg>