<?xml version="1.0" encoding="UTF-8" standalone="no"?>
<svg width="600px" height="700px" viewBox="0 0 600 700" version="1.1" xmlns="http://www.w3.org/2000/svg" xmlns:xlink="http://www.w3.org/1999/xlink" style="background: #FFC61C;">
    <!-- Generator: Sketch 41 (35326) - http://www.bohemiancoding.com/sketch -->
    <title>network</title>
    <desc>Created with Sketch.</desc>
    <defs>
        <style type="text/css">

            #networktext {
                font-family: 'LucidaGrande-Bold', 'Lucida Grande', 'Helvetica Neue', 'Helvetica', 'Arial';
                font-size: 68px;
                font-weight: bold;
                letter-spacing: -2px;
            }
        </style>

    </defs>
    <g id="Network" stroke="none" stroke-width="1" fill="none" fill-rule="evenodd">
        <g id="network">
            <text id="networktext" fill="#FF1C54">
                <tspan x="130" y="570">NETWORK</tspan>
            </text>
            <g id="Group" transform="translate(64.000000, 148.000000)">
                <path d="M4.18800669,193.82553 L0.551674883,138.612384 C0.551674883,138.612384 7.22329195,113.259496 12.3590203,108.855151 C17.4947487,104.450806 48.9616837,84.4938853 48.9616837,84.4938853 L53.3514704,72.9249669 L45.7632573,60.7808221 C45.7632573,60.7808221 44.1427012,53.0807258 44.2262953,49.0723899 C44.3337481,43.9200312 46.3363981,33.2987384 46.3363981,33.2987384 C46.3363981,33.2987384 50.1013728,27.2301562 52.2524138,25.1403973 C55.0167174,22.4548472 54.0793928,21.2337288 64.3796018,17.8738716 C74.6798108,14.5140144 85.1725936,15.8595061 85.1725936,15.8595061 L102.157526,18.9728115 C102.157526,18.9728115 105.667691,21.8629558 106.91116,24.4535598 C107.854392,26.418659 106.536309,27.8991573 106.91116,29.6155725 C107.515419,32.3824267 110.871628,38.2439681 110.871628,38.2439681 L114.512253,45.4643468 L112.457962,52.3176968 C112.457962,52.3176968 116.588533,56.1419015 118.00691,58.5593322 C118.949787,60.1663397 118.442668,63.2920716 118.442668,63.2920716 L114.984504,64.4833053 L114.434976,70.8022099 L111.687334,74.33513 L104.337393,73.8543438 L105.893796,76.5544157 L110.161105,77.3658003 L110.734246,83.2125041 L110.200945,85.4295959 C110.200945,85.4295959 112.692278,89.111844 111.970685,90.9437183 C111.249092,92.7755925 106.91116,93.7812155 106.91116,93.7812155 L94.7828991,97.0265225 L99.2692825,100.917886 L97.6679227,108.977494 L91.8205981,112.029628 L96.6676094,119.020346 L104.041163,109.885407 L146.31191,79.235286 L146.333376,69.7633682 L140.273539,53.897423 C140.273539,53.897423 141.009645,42.7188457 143.268039,38.2439681 C145.884562,33.0594785 150.184196,27.997918 154.89829,24.9193214 C159.612385,21.8407249 163.628053,22.4475097 168.220058,21.9487494 C173.067347,21.4222617 176.839757,21.4651244 183.21617,22.8435775 C189.592584,24.2220305 191.765485,24.5324621 194.451448,27.6194512 C197.137412,30.7064403 194.451448,35.7563287 194.451448,35.7563287 L194.655377,40.4767209 L199.725632,53.0796571 L198.244482,58.5593322 L202.159871,67.9861763 L197.48244,69.5122433 L197.458828,73.2361901 L192.588204,75.288117 L197.817309,76.837794 L196.168724,80.6540346 C196.168724,80.6540346 197.935433,85.6178582 196.375111,87.211186 C194.814789,88.8045137 189.254955,87.7140515 189.254955,87.7140515 L187.543706,89.4541395 L202.159871,108.855151 C202.159871,108.855151 206.720429,114.718398 207.466253,119.020346 C207.867989,121.337577 207.77382,125.259282 208.559544,128.18873 C209.146215,130.376038 210.709758,132.010159 210.709758,132.010159 C210.709758,132.010159 217.959135,105.069428 222.558962,91.544701 C225.44932,83.0462716 227.30079,69.8299056 231.824739,66.4311334 C236.348688,63.0323611 273.091953,63.2233878 273.091953,63.2233878 L276.04572,54.94442 L274.596717,46.7371425 L270.801537,43.3501753 L268.343686,33.2064446 L268.340486,30.1000919 L270.801537,26.2393372 C270.801537,26.2393372 270.412293,19.7706513 271.617835,16.19192 C272.823377,12.6131887 276.457814,9.44830775 276.457814,9.44830775 L280.676204,4.60772392 C280.676204,4.60772392 285.359233,1.21714822 289.006808,0.61815371 C292.654383,0.0191591956 297.031638,1.92188028 297.031638,1.92188028 L304.226166,5.17489096 L309.012848,7.22217022 L313.340608,12.9511788 L316.721108,19.894899 L317.110029,26.2393372 L314.248618,37.9756722 L311.644798,55.1251449 L307.11119,63.6419294 L344.612203,79.8148051 L353.726645,138.612384 L362.313025,94.1546834 L361.475074,86.1786225 L362.886166,76.6467673 L366.589042,71.0919694 L372.93867,69.9930295 L372.48012,62.2069267 L369.738907,53.9981789 L370.191029,49.0723899 L370.573122,42.0602087 L369.046893,35.4493982 L373.538483,22.8132912 C373.538483,22.8132912 374.114508,18.5214555 378.22788,14.6983216 C382.341252,10.8751876 382.868055,10.4970086 389.148602,8.30461471 C395.42915,6.11222084 403.302255,5.94543673 403.302255,5.94543673 C403.302255,5.94543673 412.495496,6.74875475 419.238576,10.929301 C425.981656,15.1098473 427.19218,16.3085237 429.115059,21.9487494 C431.037939,27.5889752 429.6882,38.2439681 429.6882,38.2439681 L424.154278,49.0723899 L420.170198,61.9334212 L427.567364,75.9599299 L452.646033,94.2083425 L462.402307,107.756211 L465.218639,132.467335 L465.598587,172.801865 L457.226867,200.545805 C457.226867,200.545805 454.140441,206.261846 450.564909,208.38863 C447.689929,210.098715 444.520617,208.297295 442.218948,208.38863 C432.959451,208.756068 412.805231,206.67583 412.805231,206.67583 L397.933621,204.412486 C397.933621,204.412486 390.865496,204.87692 387.450385,206.041349 C383.565045,207.366109 383.113963,209.273438 380.144789,206.67583 C374.565789,201.794991 366.589042,203.801844 366.589042,203.801844 C366.589042,203.801844 367.0551,190.223655 362.886166,186.170512 C360.875053,184.215258 357.107532,181.183428 357.107532,181.183428 L353.533452,173.634655 C353.533452,173.634655 355.341701,169.516598 357.107532,167.698877 C358.491164,166.274587 359.584431,166.915663 361.525225,167.698877 C365.942917,169.481653 361.525225,162.16447 361.525225,162.16447 L361.525225,154.959116 L357.107532,157.775149 L354.063542,165.916109 L345.558852,175.710192 L338.260429,177.236259 L331.292582,171.368092 L326.042011,176.236052 L325.716002,184.563219 L325.943267,197.751235 L328.712375,218.006501 C328.712375,218.006501 161.902172,259.593792 80.3685141,281.335061 C79.1208856,281.667746 80.3685141,284.228364 80.3685141,284.228364 L76.8953235,295.797282 L69.579728,297.951162 L66.1165445,287.986217 L67.2088139,281.335061 C67.2088139,281.335061 64.1102041,283.18666 64.1102041,285.537648 C64.1102041,288.007401 67.2088139,295.797282 67.2088139,295.797282 L67.2088139,301.463691 L62.4208339,305.962477 C62.4208339,305.962477 57.4768974,304.468189 56.3223577,302.596973 C53.6423633,298.253383 50.9172317,287.318059 50.9172317,287.318059 L53.2681116,305.404697 L50.9172317,308.7549 C50.9172317,308.7549 44.8224046,312.054775 42.9147258,309.710033 C40.5102532,306.754679 37.9807774,292.854613 37.9807774,292.854613 L39.0873471,309.710033 L31.7524322,309.710033 L27.9808649,306.962684 L28.4617022,294.056579 L28.966152,288.424511 L24.0847951,292.854613 L21.8909751,301.498033 C21.8909751,301.498033 19.559773,304.139138 18.4693028,304.139138 C17.2693562,304.139138 15.0197247,302.596973 15.0197247,302.596973 L17.3702462,288.424511 L27.8670954,281.335061 C27.8670954,281.335061 32.8928195,279.563928 35.049602,277.774238 C36.2640469,276.766496 37.9807774,272.942766 37.9807774,272.942766 L4.18800669,193.82553 Z" id="Path-1" fill="#FF1C54"></path>
                <path d="M48.6378611,84.0560264 L51.643094,76.5179853 L74.2163731,83.158845 L88.9591871,97.9473139 L98.365566,98.7114206 L98.365566,111.791381 L87.6197118,108.447342 L92.6556235,118.741318 L106.316554,155.246729 L101.992238,217.60835 C101.992238,217.60835 100.688601,218.242433 99.8091511,217.60835 C98.1899642,216.440916 96.532374,208.519559 96.532374,208.519559 L92.6556235,220.745266 L81.3570211,219.066807 L98.3827388,192.250097 L91.2345777,147.314829 L77.4362655,117.303252 L48.6378611,84.0560264 Z" id="Path-2" fill="#FFC61C"></path>
                <polygon id="Path-3" fill="#FFC61C" points="175.368219 210.541437 184.718787 188.476783 185.100881 176.976549 181.140413 170.153248 204.564057 159.84854 205.16081 176.952939 201.938771 180.410736 203.061441 185.516943 203.488613 205.939626 193.062601 199.161399"></polygon>
                <polygon id="Path-4" fill="#FFC61C" points="175.439057 152.881432 144.648299 79.7289504 145.747356 75.4791437 170.890422 92.6736901 186.781665 88.994817 186.399571 101.495259 197.611236 127.758206 189.284594 132.336407 181.552559 137.869741"></polygon>
                <path d="M259.522254,181.927144 L271.937085,189.219426 L282.17205,175.862584 L290.545917,191.913117 L294.673819,190.739054 L288.828641,168.835378 L297.606068,117.356911 L286.26346,116.807441 L291.393822,111.701234 L284.973356,97.7884828 L280.989276,86.4020056 L302.040933,86.4020056 L302.613,81.5555088 L306.967368,78.6933283 L303.746402,74.0872246 L304.319543,65.0241898 L289.423248,72.8702345 L275.658208,56.1833039 L272.1013,64.2729613 L269.120753,97.0791085 L267.509733,133.144514 L264.552799,161.217922 L261.892094,175.398969 C263.005938,176.931457 259.522254,181.927144 259.522254,181.927144 Z" id="Path-5" fill="#FFC61C" opacity="0.998542444"></path>
                <polygon id="Path-6" fill="#FFC61C" points="416.355648 71.306512 418.397111 63.2877788 403.529794 71.5684629 390.714623 82.9935747 386.20248 79.0077711 381.570128 80.1303211 377.869399 79.1773341 374.694585 83.4271408 378.959869 92.731642 383.80688 93.281112 380.261445 95.3884423 365.060667 140.507626 364.511138 158.70238 372.075739 163.997467 394.78242 106.972787"></polygon>
                <polygon id="Path-7" fill="#FFC61C" points="112.29804 144.625431 114.446782 144.625431 115.008117 141.595834 119.137092 140.748019 114.652855 155.275705 112.622176 155.00097"></polygon>
                <polygon id="Path-8" fill="#FFC61C" points="401.114875 142.328819 405.469243 136.78046 412.197745 137.077732 417.792844 143.518979"></polygon>
                <polygon id="Path-9" fill="#FFC61C" points="310.416946 92.0287068 312.768541 88.3423214 323.408139 87.7810464 326.24701 91.4674318 322.667563 98.8745445 319.863037 94.1503906 318.252018 97.9086793 313.134535 93.7458004"></polygon>
            </g>
        </g>
    </g>
</svg>