<?xml version="1.0" encoding="UTF-8" standalone="no"?>
<svg width="600px" height="700px" viewBox="0 0 600 700" version="1.1" xmlns="http://www.w3.org/2000/svg" xmlns:xlink="http://www.w3.org/1999/xlink" style="background: #FFC61C;">
    <!-- Generator: Sketch 41 (35326) - http://www.bohemiancoding.com/sketch -->
    <title>seeknovelty copy</title>
    <desc>Created with Sketch.</desc>
    <defs>
        <style type="text/css">

             #seektext {
                font-family: 'LucidaGrande-Bold', 'Lucida Grande', 'Helvetica Neue', 'Helvetica', 'Arial';
                font-size: 68px;
                font-weight: bold;
                letter-spacing: -5px;
            }

        </style>
    </defs>
    <g id="Seek-Novelty" stroke="none" stroke-width="1" fill="none" fill-rule="evenodd">
        <g id="seeknovelty-copy">
            <text class="advice_text" id="seektext" fill="#FF1C54">
                <tspan x="68" y="550">SEEK NOVELTY</tspan>
            </text>
            <g id="Group" transform="translate(91.000000, 135.000000)">
                <path d="M5.74687625,191.336723 C-12.8760459,191.336723 10.6753931,250.466242 179.661358,250.466242" id="rim" fill="#FF1C54"></path>
                <path d="M10.514774,175.23713 C10.514774,175.23713 11.5077782,86.6939351 38.7234491,71.4471855 C42.0799341,55.8582453 65.8294503,33.8617491 78.5651229,33.8617487 C83.4149514,21.3327977 131.81478,3.34172103 160.846961,11.0625193 C154.512545,-1.97273283 225.489483,-23.8354446 314.297213,91.6245199 C328.240798,112.015546 312.971247,227.930572 354.225581,205.976719 C382.220003,189.503557 450.363099,221.134459 402.29434,240.365679 C354.225581,259.596899 338.017271,301.719944 176.913908,246.863344 C-46.3911992,228.318024 10.514774,175.23713 10.514774,175.23713 Z" id="hat" stroke="#FFC61C" stroke-width="2.2" fill="#FF1C54"></path>
                <g id="headlight" transform="translate(296.791667, 85.960784)">
                    <ellipse id="Oval-1" stroke="#FF1C54" stroke-width="2.2" fill="#FFC61C" cx="38.9455128" cy="65.8137255" rx="38.9455128" ry="63.127451"></ellipse>
                    <ellipse id="Oval-1-Copy" stroke="#FF1C54" stroke-width="2.2" fill="#FFC61C" cx="52.375" cy="63.127451" rx="38.9455128" ry="63.127451"></ellipse>
                    <ellipse id="Oval-1-Copy-2" fill="#FF1C54" cx="52.375" cy="61.7843137" rx="34.9166667" ry="56.4117647"></ellipse>
                    <ellipse id="Oval-1-Copy-2" stroke="#FFC61C" stroke-width="1.782" cx="53.0464744" cy="61.7843137" rx="31.5592949" ry="52.3823529"></ellipse>
                    <ellipse id="Oval-1-Copy-3" stroke="#FFC61C" stroke-width="1.6038" cx="53.0464744" cy="62.4558824" rx="26.1875" ry="46.3382353"></ellipse>
                    <ellipse id="Oval-1-Copy-3" fill="#FFC61C" cx="52.375" cy="63.7990196" rx="22.8301282" ry="40.9656863"></ellipse>
                </g>
                <path d="M41.8937049,71.0865885 C41.8937049,71.0865885 104.506066,-15.1916186 281.696608,110.638308" id="Path-454" stroke="#FFC61C" stroke-width="2.2"></path>
                <path d="M42.9219,72.6104012 C20.6609506,60.8943424 107.000485,-40.136715 285.447422,106.627259" id="Path-454-Copy" stroke="#FFC61C" stroke-width="2.2"></path>
                <path d="M160.580144,10.9371345 C155.964642,8.23274601 208.828526,-35.9877178 302.865933,94.8317163" id="Path-456" stroke="#FFC61C" stroke-width="2.2"></path>
                <path d="M161.58087,12.5528369 C201.127839,6.55634583 240.968678,21.3558036 299.015921,96.6193132" id="Path-456-Copy" stroke="#FFC61C" stroke-width="2.2"></path>
            </g>
        </g>
    </g>
</svg>