<?xml version="1.0" encoding="UTF-8" standalone="no"?>
<svg width="600px" height="640px" viewBox="0 0 600 640" version="1.1" xmlns="http://www.w3.org/2000/svg" xmlns:xlink="http://www.w3.org/1999/xlink" style="background: #FFC61C;">
    <!-- Generator: Sketch 39.1 (31720) - http://www.bohemiancoding.com/sketch -->
    <title>600x640</title>
    <desc>Created with Sketch.</desc>
    <defs></defs>
    <g id="Think-Creatively" stroke="none" stroke-width="1" fill="none" fill-rule="evenodd">
        <g id="600x640">
            <g id="poster" transform="translate(144.000000, 54.000000)">
                <g id="head" fill="#FF1C54">
                    <g id="hair">
                        <path d="M301.825151,149 C323.657633,71.4137606 257.697916,10.0969932 154.5,12.0451669 C51.3020842,13.9933406 -14.6576325,75.3101079 7.17484929,149 C29.0073311,222.689892 94.9670478,284.006659 154.5,285.954833 C214.032952,287.903007 279.992669,226.586239 301.825151,149 Z" id="Oval-1-Copy" transform="translate(154.500000, 149.000000) scale(1, -1) translate(-154.500000, -149.000000) "></path>
                        <path d="M308.687367,138 C331.240393,59.8474377 263.103788,-1.91689732 156.5,0.045496597 C49.8962124,2.00789052 -18.2403927,63.7722255 4.3126331,138 C26.8656589,212.227774 95.0022639,273.992109 156.5,275.954503 C217.997736,277.916897 286.134341,216.152562 308.687367,138 Z" id="Oval-1"></path>
                    </g>
                    <path d="M155.212022,35 C211.101257,35 247.120946,67.6912838 258.657916,101.394954 C270.194886,135.098625 265.578032,177.261647 266.966583,184.299732 C268.355135,191.337817 273.075431,181.683514 276.563393,188.220965 C280.051354,194.758415 279.121142,194.896934 277.893377,209.17804 C276.665612,223.459145 275.236951,225.224669 272.343307,237.308101 C269.449663,249.391533 267.462978,255.505082 265.502106,260.922169 C263.541234,266.339257 263.023011,268.259706 260.283785,270.623633 C257.544559,272.987561 251.762929,275.495291 251.762929,270.399482 C251.762929,265.303673 248.338268,284.948212 241.143964,296.799056 C233.94966,308.649899 232.425887,308.866822 227.563179,316.42614 C222.70047,323.985458 221.495945,324.982294 219.655001,335.72745 C217.814058,346.472606 218.160331,351.562967 218.857011,358.310402 C219.553691,365.057838 225.267839,367.683104 220.984986,373.133733 C216.702132,373.995332 211.261506,378.536544 197.870155,384.058434 C184.478803,389.580324 184.634493,390.089422 170.60099,392.561412 C156.567488,395.033401 156.914019,395.905427 142.234962,393.858527 C127.555906,391.811627 124.776164,389.567579 113.202448,384.557554 C101.628732,379.547529 89.1431784,373.068821 89.1431784,373.068821 C89.1431784,373.068821 94.3994367,363.113797 94.9239137,353.843076 C95.3724605,345.914507 92.6573512,337.367211 92.3949157,332.941941 C91.8256195,323.342289 81.5981782,312.874016 73.3656785,301.894861 C65.1331789,290.915707 63.8270492,275.23336 61.0431473,270.399478 C58.2592453,265.565596 56.7734461,276.883629 49.3123855,264.810526 C41.8513249,252.737423 29.5688409,193.890609 33.9024982,187.189848 C38.2361554,180.489087 42.8869896,187.954013 46.7268049,183.718004 C47.8005407,182.53348 43.0778399,123.786356 54.6592219,101.341157 C66.2406039,78.8959578 99.322788,35 155.212022,35 Z" id="heada"></path>
                </g>
                <g id="stars" transform="translate(86.000000, 75.000000)" stroke-width="0.765" stroke="#FFC61C" fill="#FFC61C">
                    <polygon id="Path-125-Copy-7" points="133 33.3344251 139.036364 33.3344251 134.518991 29 136.018182 37.3285714 138.407851 29"></polygon>
                    <polygon id="Path-125-Copy-2" points="53 41.3344251 59.0363636 41.3344251 54.5189907 37 56.0181818 45.3285714 58.4078508 37"></polygon>
                    <polygon id="Path-125-Copy-3" points="78 9.33442511 84.0363636 9.33442511 79.5189907 5 81.0181818 13.3285714 83.4078508 5"></polygon>
                    <polygon id="Path-125-Copy-5" points="0 37.3344251 6.03636364 37.3344251 1.51899075 33 3.01818182 41.3285714 5.40785075 33"></polygon>
                </g>
                <g id="waves" transform="translate(79.000000, 125.000000)" stroke-linecap="square" stroke="#FFC61C" stroke-width="1.5">
                    <g id="Group-2" transform="translate(30.000000, 77.000000)">
                        <path d="M15,0 C15,0 7.88769531,12.3056641 0,0" id="Line"></path>
                        <path d="M30,0 C30,0 22.8876953,12.3056641 15,0" id="Line"></path>
                        <path d="M45,0 C45,0 37.8876953,12.3056641 30,0" id="Line-Copy-2"></path>
                        <path d="M60,0 C60,0 52.8876953,12.3056641 45,0" id="Line-Copy"></path>
                        <path d="M75,0 C75,0 67.8876953,12.3056641 60,0" id="Line-Copy-4"></path>
                        <path d="M90,0 C90,0 82.8876953,12.3056641 75,0" id="Line-Copy-3"></path>
                    </g>
                    <g id="Group-3" transform="translate(14.000000, 65.000000)">
                        <path d="M15,0 C15,0 7.88769531,12.3056641 0,0" id="Line-Copy-3"></path>
                        <path d="M30,0 C30,0 22.8876953,12.3056641 15,0" id="Line-Copy-3"></path>
                        <path d="M45,0 C45,0 37.8876953,12.3056641 30,0" id="Line-Copy-3"></path>
                        <path d="M60,0 C60,0 52.8876953,12.3056641 45,0" id="Line-Copy-3"></path>
                        <path d="M75,0 C75,0 67.8876953,12.3056641 60,0" id="Line-Copy-3"></path>
                        <path d="M90,0 C90,0 82.8876953,12.3056641 75,0" id="Line-Copy-3"></path>
                        <path d="M105,0 C105,0 97.8876953,12.3056641 90,0" id="Line-Copy-3"></path>
                        <path d="M120,0 C120,0 112.887695,12.3056641 105,0" id="Line-Copy-3"></path>
                    </g>
                    <g id="Group-3-Copy" transform="translate(1.000000, 53.000000)">
                        <path d="M15,0 C15,0 7.88769531,12.3056641 0,0" id="Line-Copy-3"></path>
                        <path d="M30,0 C30,0 22.8876953,12.3056641 15,0" id="Line-Copy-3"></path>
                        <path d="M45,0 C45,0 37.8876953,12.3056641 30,0" id="Line-Copy-3"></path>
                        <path d="M60,0 C60,0 52.8876953,12.3056641 45,0" id="Line-Copy-3"></path>
                        <path d="M75,0 C75,0 67.8876953,12.3056641 60,0" id="Line-Copy-3"></path>
                        <path d="M90,0 C90,0 82.8876953,12.3056641 75,0" id="Line-Copy-3"></path>
                        <path d="M105,0 C105,0 97.8876953,12.3056641 90,0" id="Line-Copy-3"></path>
                        <path d="M120,0 C120,0 112.887695,12.3056641 105,0" id="Line-Copy-3"></path>
                        <path d="M135,0 C135,0 127.887695,12.3056641 120,0" id="Line-Copy-3"></path>
                        <path d="M150,0 C150,0 142.887695,12.3056641 135,0" id="Line-Copy-3"></path>
                    </g>
                    <g id="Group-3-Copy-2" transform="translate(1.000000, 40.000000)">
                        <path d="M30,0 C30,0 22.8876953,12.3056641 15,0" id="Line-Copy-3"></path>
                        <path d="M15,0 C15,0 7.88769531,12.3056641 0,0" id="Line-Copy-3"></path>
                        <path d="M45,0 C45,0 37.8876953,12.3056641 30,0" id="Line-Copy-3"></path>
                        <path d="M60,0 C60,0 52.8876953,12.3056641 45,0" id="Line-Copy-3"></path>
                        <path d="M75,0 C75,0 67.8876953,12.3056641 60,0" id="Line-Copy-3"></path>
                        <path d="M90,0 C90,0 82.8876953,12.3056641 75,0" id="Line-Copy-3"></path>
                        <path d="M105,0 C105,0 97.8876953,12.3056641 90,0" id="Line-Copy-3"></path>
                        <path d="M120,0 C120,0 112.887695,12.3056641 105,0" id="Line-Copy-3"></path>
                        <path d="M135,0 C135,0 127.887695,12.3056641 120,0" id="Line-Copy-3"></path>
                        <path d="M151,0 C151,0 143.887695,12.3056641 136,0" id="Line-Copy-3"></path>
                    </g>
                    <g id="Group-3-Copy-3" transform="translate(0.000000, 26.000000)">
                        <path d="M15,0 C15,0 7.88769531,12.3056641 0,0" id="Line-Copy-3"></path>
                        <path d="M30,0 C30,0 22.8876953,12.3056641 15,0" id="Line-Copy-3"></path>
                        <path d="M45,0 C45,0 37.8876953,12.3056641 30,0" id="Line-Copy-3"></path>
                        <path d="M60,0 C60,0 52.8876953,12.3056641 45,0" id="Line-Copy-3"></path>
                        <path d="M75,0 C75,0 67.8876953,12.3056641 60,0" id="Line-Copy-3"></path>
                        <path d="M90,0 C90,0 82.8876953,12.3056641 75,0" id="Line-Copy-3"></path>
                        <path d="M105,0 C105,0 97.8876953,12.3056641 90,0" id="Line-Copy-3"></path>
                        <path d="M121,0 C121,0 113.887695,12.3056641 106,0" id="Line-Copy-3"></path>
                        <path d="M136,0 C136,0 128.887695,12.3056641 121,0" id="Line-Copy-3"></path>
                        <path d="M152,0 C152,0 144.887695,12.3056641 137,0" id="Line-Copy-3"></path>
                    </g>
                    <g id="Group-3-Copy-4" transform="translate(15.000000, 14.000000)">
                        <path d="M15,0 C15,0 7.88769531,12.3056641 0,0" id="Line-Copy-3"></path>
                        <path d="M30,0 C30,0 22.8876953,12.3056641 15,0" id="Line-Copy-3"></path>
                        <path d="M45,0 C45,0 37.8876953,12.3056641 30,0" id="Line-Copy-3"></path>
                        <path d="M60,0 C60,0 52.8876953,12.3056641 45,0" id="Line-Copy-3"></path>
                        <path d="M75,0 C75,0 67.8876953,12.3056641 60,0" id="Line-Copy-3"></path>
                        <path d="M90,0 C90,0 82.8876953,12.3056641 75,0" id="Line-Copy-3"></path>
                        <path d="M106,0 C106,0 98.8876953,12.3056641 91,0" id="Line-Copy-3"></path>
                        <path d="M121,0 C121,0 113.887695,12.3056641 106,0" id="Line-Copy-3"></path>
                    </g>
                </g>
                <path d="M227.829693,135.784026 L228.110317,135.21295 L227.791208,133.117142 L226.333215,132.966102 L226.167466,135.13725 L224.283994,135.13725 L224.390791,132.568497 L223.203208,131.931536 L222.671359,134.936104 L220.680235,135.21295 C220.680235,135.21295 220.893404,133.751127 220.680235,133.33523 C220.47775,132.940176 219.433273,132.780096 219.433273,132.780096 L219.408924,135.428154 C219.408924,135.428154 216.316779,137.467384 214.609039,138.147226 C212.667596,138.920103 208.461375,139.786311 208.461375,139.786311 L208.321976,133.812392 C209.208903,133.583913 209.736242,132.989554 210.415333,132.833086 C212.611178,132.327148 213.710662,132.157194 213.710662,132.157194 L217.337489,126.853147 L208.155527,126.679235 L208.124324,125.342031 L209.392645,125.249749 L209.848455,123.330935 L208.309723,122.625843 L208.309723,118.848413 L212.549138,116.128621 L208.285373,115.263478 L208.019663,113.776514 L207.235772,113.684232 L206.907692,123.073194 L205.39331,123.830915 L206.480931,125.253714 L206.49847,126.64785 L204.299454,126.606199 C204.774801,124.596439 205.234396,122.946307 205.234396,122.946307 L196.604283,122.533901 L196.586401,121.704827 L198.015345,121.111483 L198.234065,119.400302 L196.344613,119.128503 L196.364986,117.49205 C197.891809,117.011507 198.749124,115.859853 199.937264,116.388524 C200.664638,116.712174 200.96641,115.633921 201.743843,114.435846 C202.621997,113.082551 203.93489,111.566795 203.93489,111.566795 L196.44108,111.38015 L196.487293,107.668245 L201.709668,107.247569 L201.895067,103.515199 C201.895067,103.515199 200.454593,104.176798 199.060912,104.119907 C197.667231,104.063017 195.964842,103.290983 195.964842,103.290983 L195.831132,101.771936 L195.267671,101.270874 L195.182661,103.328112 L194.955552,111.343151 L188.477517,111.181806 C188.477517,111.181806 188.745992,113.447682 189.131542,114.435846 C189.333518,114.953511 190.240095,115.699294 190.240095,115.699294 C190.240095,115.699294 190.474422,115.195836 191.372143,115.699294 C192.159619,116.140923 193.526494,117.590593 194.760599,117.678308 C194.765743,117.678673 194.770881,117.67903 194.776013,117.679378 L194.726851,119.414361 L192.9694,119.666694 C192.9694,119.666694 193.285188,120.755477 193.598648,121.111483 C193.866022,121.415148 194.7119,121.645708 194.7119,121.645708 L194.697077,122.442761 L187.88853,122.117402 C187.896783,120.891761 187.832462,119.517818 187.832462,119.517818 L181.678454,119.351938 L181.537847,112.946337 L186.127983,110.547008 L181.504099,109.297237 L181.504099,108.443629 L180.421177,108.2551 L180.157437,119.310939 L173.69681,119.136794 C173.69681,119.136794 171.588562,120.695499 172.161496,124.028095 C172.513702,126.076782 173.69681,128.919397 173.69681,128.919397 C173.69681,128.919397 177.657413,128.177537 179.801755,128.177537 C179.848848,128.177537 179.896915,128.177786 179.945905,128.178276 L179.927348,128.956165 L179.548005,132.473331 L178.194246,133.038558 L179.219924,135.230613 L179.232897,135.647042 L171.406227,135.086423 C171.406227,135.086423 171.081359,138.312062 171.406227,139.500814 C171.613066,140.257672 173.147019,142.060195 173.147019,142.060195 L176.440212,142.060195 C176.440212,142.060195 177.754112,143.80686 179.503894,144.346458 L179.532626,145.268793 L173.01459,145.525092 L167.973994,140.819673 C168.389749,139.883241 168.565427,138.773373 168.565427,138.773373 L165.774034,138.766 L165.111184,138.147226 L156.462334,131.514104 L163.245519,138.759321 L159.831139,138.750303 C159.831139,138.750303 158.824663,140.345087 159.831139,141.493526 C160.188361,141.901134 161.135492,141.733153 161.674456,141.902306 C162.65403,142.209744 163.239246,142.63912 163.239246,142.63912 C163.239246,142.63912 165.230402,142.619375 166.493597,142.22864 L167.361183,143.155322 L170.816708,147.422278 L170.339442,148.38243 C170.154958,148.453668 170.022703,148.531858 169.957633,148.618698 C169.782922,148.851861 169.762247,149.102632 169.853983,149.359066 L169.753437,149.561344 L169.454405,151.768539 L171.319508,154.933159 L174.04924,158.150409 L176.119393,158.972295 L173.27133,155.935644 L171.855629,151.809633 L174.723343,152.623589 L175.069792,154.702455 L177.524415,159.509044 L179.376275,160.622915 L189.544206,160.651393 L199.328094,160.170518 L209.667754,158.33245 L220.680235,154.743549 L223.549022,150.082614 L223.583833,150.075022 L223.811102,149.905172 L225.560859,149.121563 L225.646486,148.533497 L226.038455,148.240559 L225.846221,147.161773 L226.12133,145.272398 L225.351108,144.383284 L225.207575,143.5778 L210.715037,145.214554 L224.283994,142.999596 L227.608457,136.234245 C227.969118,135.966446 228.192338,135.796201 228.192338,135.796201 L227.829693,135.784026 Z M210.252103,145.331978 L209.629734,145.391716 L210.265803,145.287886 L210.252103,145.331978 Z M198.693542,144.343474 L198.129404,146.126006 L197.113124,146.126006 L196.975565,139.748165 L204.380875,140.435168 C204.380875,140.435168 203.12883,135.314266 203.271894,132.382852 C203.279989,132.216981 203.293586,132.039186 203.312028,131.851377 C204.224948,132.77636 205.320202,133.528988 206.588411,133.797154 L206.594563,134.286166 L205.8111,141.646008 L200.255947,142.090835 L200.142314,143.353223 L198.926964,143.605917 L198.709693,144.292439 L198.68304,144.2901 L198.693542,144.343474 Z M185.391201,136.088157 C185.011511,134.308298 184.569861,132.121687 184.482454,131.194902 C184.40519,130.375654 184.363331,129.446737 184.34471,128.501415 C183.536446,128.415568 182.677672,128.333138 181.874275,128.272921 L181.959909,132.174136 L183.545631,133.131561 L183.13254,134.76596 L182.044919,135.338756 L182.048576,135.848727 L185.391201,136.088157 Z M189.08387,139.016039 L194.379723,139.507344 L194.26976,145.420193 L182.116259,145.287899 L182.107889,144.120512 C183.072879,143.655768 183.676777,142.933989 183.676777,142.933989 C183.676777,142.933989 185.171865,143.473031 185.897301,143.34349 C186.353467,143.262033 187.221584,142.300993 187.221584,142.300993 L189.08387,139.016039 Z" id="ship" fill="#FFC61C" transform="translate(192.327336, 130.961134) rotate(15.000000) translate(-192.327336, -130.961134) "></path>
            </g>
            <text id="THINK-CREATIVELY" font-family="Anton" font-size="78" font-weight="normal" fill="#FF1C54">
                <tspan x="47.2045898" y="570">THINK CREATIVELY</tspan>
            </text>
        </g>
    </g>
</svg>