<?xml version="1.0" encoding="UTF-8" standalone="no"?>
<svg width="600px" height="700px" viewBox="0 0 600 700" version="1.1" xmlns="http://www.w3.org/2000/svg" xmlns:xlink="http://www.w3.org/1999/xlink" style="background: #FFC61C;">
    <!-- Generator: Sketch 41 (35326) - http://www.bohemiancoding.com/sketch -->
    <title>thinkcreatively</title>
    <desc>Created with Sketch.</desc>
    <defs>
        <style>
        @import url('https://fonts.googleapis.com/css?family=Oswald:700');


         .advice_text {
                font-family: "Oswald", "LucidaGrande-Bold", "Lucida Grande", "Helvetica Neue", Helvetica, Arial, sans-serif;
                font-size: 76px;
                font-weight: 700;
                letter-spacing: -2px;
            }
        </style>

    </defs>
    <g id="Think-Creatively" stroke="none" stroke-width="1" fill="none" fill-rule="evenodd">
        <g id="thinkcreatively">
            <g id="poster" transform="translate(144.000000, 66.000000)">
                <g id="head" fill="#FF1C54">
                    <g id="hair">
                        <path d="M301.825151,149 C323.657633,71.4137606 257.697916,10.0969932 154.5,12.0451669 C51.3020842,13.9933406 -14.6576325,75.3101079 7.17484929,149 C29.0073311,222.689892 94.9670478,284.006659 154.5,285.954833 C214.032952,287.903007 279.992669,226.586239 301.825151,149 Z" id="Oval-1-Copy" transform="translate(154.500000, 149.000000) scale(1, -1) translate(-154.500000, -149.000000) "></path>
                        <path d="M308.687367,138 C331.240393,59.8474377 263.103788,-1.91689732 156.5,0.045496597 C49.8962124,2.00789052 -18.2403927,63.7722255 4.3126331,138 C26.8656589,212.227774 95.0022639,273.992109 156.5,275.954503 C217.997736,277.916897 286.134341,216.152562 308.687367,138 Z" id="Oval-1"></path>
                    </g>
                    <path d="M155.212022,35 C211.101257,35 247.120946,67.6912838 258.657916,101.394954 C270.194886,135.098625 265.578032,177.261647 266.966583,184.299732 C268.355135,191.337817 273.075431,181.683514 276.563393,188.220965 C280.051354,194.758415 279.121142,194.896934 277.893377,209.17804 C276.665612,223.459145 275.236951,225.224669 272.343307,237.308101 C269.449663,249.391533 267.462978,255.505082 265.502106,260.922169 C263.541234,266.339257 263.023011,268.259706 260.283785,270.623633 C257.544559,272.987561 251.762929,275.495291 251.762929,270.399482 C251.762929,265.303673 248.338268,284.948212 241.143964,296.799056 C233.94966,308.649899 232.425887,308.866822 227.563179,316.42614 C222.70047,323.985458 221.495945,324.982294 219.655001,335.72745 C217.814058,346.472606 218.160331,351.562967 218.857011,358.310402 C219.553691,365.057838 225.267839,367.683104 220.984986,373.133733 C216.702132,373.995332 211.261506,378.536544 197.870155,384.058434 C184.478803,389.580324 184.634493,390.089422 170.60099,392.561412 C156.567488,395.033401 156.914019,395.905427 142.234962,393.858527 C127.555906,391.811627 124.776164,389.567579 113.202448,384.557554 C101.628732,379.547529 89.1431784,373.068821 89.1431784,373.068821 C89.1431784,373.068821 94.3994367,363.113797 94.9239137,353.843076 C95.3724605,345.914507 92.6573512,337.367211 92.3949157,332.941941 C91.8256195,323.342289 81.5981782,312.874016 73.3656785,301.894861 C65.1331789,290.915707 63.8270492,275.23336 61.0431473,270.399478 C58.2592453,265.565596 56.7734461,276.883629 49.3123855,264.810526 C41.8513249,252.737423 29.5688409,193.890609 33.9024982,187.189848 C38.2361554,180.489087 42.8869896,187.954013 46.7268049,183.718004 C47.8005407,182.53348 43.0778399,123.786356 54.6592219,101.341157 C66.2406039,78.8959578 99.322788,35 155.212022,35 Z" id="heada"></path>
                </g>
                <g id="stars" transform="translate(90.000000, 62.000000)" stroke-width="0.765" stroke="#FFC61C" fill="#FFC61C">
                    <polygon id="Path-125" points="38.7545455 14.991568 44.7909091 14.991568 40.2735362 10.6571429 41.7727273 18.9857143 44.1623962 10.6571429"></polygon>
                    <polygon id="Path-125-Copy-7" points="94 4.33442511 100.036364 4.33442511 95.5189907 3.55271368e-15 97.0181818 8.32857143 99.4078508 3.55271368e-15"></polygon>
                    <polygon id="Path-125-Copy" transform="translate(5.520000, 20.097194) scale(-1, -1) translate(-5.520000, -20.097194) " points="4 20.1828791 7.03999996 20.1828791 4.76498569 18 5.51999998 22.1943889 6.72347179 18"></polygon>
                    <polygon id="Path-125-Copy-2" points="49 54.3344251 55.0363636 54.3344251 50.5189907 50 52.0181818 58.3285714 54.4078508 50"></polygon>
                    <polygon id="Path-125-Copy-3" points="74 22.3344251 80.0363636 22.3344251 75.5189907 18 77.0181818 26.3285714 79.4078508 18"></polygon>
                    <polygon id="Path-125-Copy-4" transform="translate(112.250000, 21.724667) scale(-1, -1) translate(-112.250000, -21.724667) " points="111 21.7951309 113.5 21.7951309 111.6291 20 112.25 23.449333 113.239697 20"></polygon>
                    <polygon id="Path-125-Copy-5" points="0 50.3344251 6.03636364 50.3344251 1.51899075 46 3.01818182 54.3285714 5.40785075 46"></polygon>
                    <polygon id="Path-125-Copy-6" transform="translate(33.520000, 35.097194) scale(-1, -1) rotate(31.000000) translate(-33.520000, -35.097194) " points="32 35.1828791 35.04 35.1828791 32.7649857 33 33.52 37.1943889 34.7234718 33"></polygon>
                </g>
                <g id="ship-copy" transform="translate(192.997201, 128.502672) rotate(4.000000) translate(-192.997201, -128.502672) translate(147.997201, 84.002672)" stroke="#FF1C54">
                    <path d="M79.193121,50.2961099 L79.4642386,49.648419 L79.1559396,47.2714393 L77.7473392,47.1001365 L77.5872054,49.5625632 L75.7675397,49.5625632 L75.8707187,46.6491891 L74.7233678,45.9267737 L74.2095361,49.334432 L72.285866,49.648419 C72.285866,49.648419 72.4918131,47.9904796 72.285866,47.5187859 C72.0902403,47.0707321 71.0811474,46.8891765 71.0811474,46.8891765 L71.0576226,49.8924948 C71.0576226,49.8924948 68.0702304,52.2053057 66.4203436,52.976354 C64.5446711,53.8529197 60.4809449,54.8353369 60.4809449,54.8353369 L60.3462684,48.0599635 C61.2031485,47.8008317 61.712623,47.1267346 62.3687088,46.9492756 C64.4901649,46.3754613 65.5524014,46.1827058 65.5524014,46.1827058 L69.0563618,40.1670748 L60.1854579,39.9698312 L60.1553119,38.4532292 L61.3806662,38.3485669 L61.8210344,36.1723263 L60.3344307,35.3726407 L60.3344307,31.0884354 L64.4302261,28.0037585 L60.3109059,27.0225491 L60.0541964,25.3360956 L59.2968622,25.2314333 L58.9798962,35.8800077 L57.5168173,36.7393835 L58.5675927,38.3530641 L58.5845373,39.9342349 L56.4600173,39.8869964 C56.9192616,37.6076093 57.3632869,35.736097 57.3632869,35.736097 L49.0255364,35.2683631 L49.0082604,34.3280616 L50.3887961,33.6551155 L50.6001068,31.7143652 L48.7746631,31.4061019 L48.7943468,29.5501039 C50.2694453,29.0050913 51.0977164,27.6989334 52.2456062,28.2985301 C52.9483383,28.6656001 53.2398876,27.4426906 53.9909829,26.0838832 C54.8393885,24.5490317 56.1078042,22.8299234 56.1078042,22.8299234 L48.8678624,22.6182391 L48.9125103,18.4083488 L53.9579656,17.9312357 L54.1370845,13.6981351 C54.1370845,13.6981351 52.745409,14.4484928 51.398942,14.3839702 C50.052475,14.3194477 48.4077584,13.4438383 48.4077584,13.4438383 L48.2785782,11.7209982 L47.7342056,11.1527145 L47.6520751,13.4859486 L47.4326598,22.576276 L41.1740818,22.3932852 C41.1740818,22.3932852 41.4334618,24.9631483 41.8059503,26.0838832 C42.0010842,26.6709977 42.8769488,27.5168334 42.8769488,27.5168334 C42.8769488,27.5168334 43.1033376,26.9458324 43.9706467,27.5168334 C44.7314446,28.0177117 46.052014,29.6618675 47.2443115,29.7613497 C47.2492813,29.7617644 47.2542451,29.7621689 47.2592028,29.7625634 L47.2117069,31.7303098 L45.5137925,32.0164959 C45.5137925,32.0164959 45.8188831,33.2513481 46.1217234,33.6551155 C46.3800396,33.9995202 47.1972618,34.2610123 47.1972618,34.2610123 L47.182941,35.1649966 L40.6050476,34.7959878 C40.6130216,33.405916 40.5508797,31.8476461 40.5508797,31.8476461 L34.6053509,31.6595119 L34.4695074,24.3945434 L38.9041428,21.6733229 L34.4369028,20.2558842 L34.4369028,19.2877576 L33.3906673,19.0739358 L33.1358621,31.613013 L26.8941018,31.4155051 C26.8941018,31.4155051 24.8572753,33.1833243 25.4107999,36.9630175 C25.7510747,39.2865537 26.8941019,42.5105298 26.8941019,42.5105298 C26.8941019,42.5105298 30.7205313,41.6691428 32.7922289,41.6691428 C32.8377266,41.6691428 32.8841654,41.6694259 32.9314955,41.6699816 L32.9135674,42.5522312 L32.5470754,46.5412561 L31.2391778,47.1823128 L32.2301094,49.668452 L32.2426422,50.1407478 L24.6811176,49.5049171 C24.6811176,49.5049171 24.3672547,53.163304 24.6811176,54.5115378 C24.8809487,55.3699348 26.3629361,57.4142821 26.3629361,57.4142821 L29.5445652,57.4142821 C29.5445652,57.4142821 30.8139543,59.3952775 32.5044591,60.007268 L32.5322176,61.0533423 L26.2349941,61.3440255 L21.3651588,56.0073329 C21.766829,54.9452708 21.936555,53.6865043 21.936555,53.6865043 L19.2397271,53.678142 L18.599332,52.976354 L10.2434801,45.4533402 L16.7968705,53.6705673 L13.4981599,53.6603387 C13.4981599,53.6603387 12.5257797,55.4690773 13.4981599,56.77159 C13.8432801,57.2338818 14.7583245,57.0433652 15.2790303,57.2352114 C16.2254194,57.5838942 16.7908096,58.0708747 16.7908096,58.0708747 C16.7908096,58.0708747 18.7145113,58.0484809 19.9349131,57.6053258 L20.7731081,58.6563296 L24.1115693,63.4957359 L23.6504724,64.5847007 C23.4722381,64.6654964 23.3444634,64.7541754 23.2815971,64.8526666 C23.1128047,65.1171097 23.0928306,65.4015245 23.1814592,65.692361 L23.0843187,65.921776 L22.7954174,68.4250863 L24.5973363,72.0142683 L27.2345927,75.6631406 L29.2346153,76.5952895 L26.4830365,73.1512447 L25.1152951,68.4716938 L27.8858588,69.3948482 L28.2205716,71.7526125 L30.5920388,77.2040481 L32.3811635,78.4673551 L42.2046341,78.4996533 L51.6570729,77.9542644 L61.6464554,75.8696034 L72.285866,71.79922 L75.0574662,66.5129797 L75.0910979,66.504369 L75.3106678,66.3117325 L77.0011484,65.4229946 L77.0838749,64.7560348 L77.4625651,64.4237964 L77.276843,63.2002817 L77.542632,61.0574306 L76.7985029,60.0490339 L76.6598321,59.1354868 L62.6582599,60.9918261 L75.7675397,58.4797119 L78.97938,50.8067302 C79.3278223,50.503003 79.5434801,50.3099176 79.5434801,50.3099176 L79.193121,50.2961099 Z M62.2110081,61.1250039 L61.6097237,61.1927558 L62.2242444,61.074996 L62.2110081,61.1250039 Z M51.0440173,60.0038831 L50.4989913,62.0255572 L49.5171395,62.0255572 L49.3842405,54.7920731 L56.5386799,55.5712439 C56.5386799,55.5712439 55.3290513,49.7633274 55.4672687,46.4386379 C55.4750896,46.250514 55.4882257,46.048867 55.5060431,45.8358612 C56.3880359,46.8849385 57.446186,47.738539 58.6714316,48.0426811 L58.6773752,48.5972985 L57.9204537,56.9445281 L52.5534925,57.4490333 L52.44371,58.8807812 L51.2695324,59.1673761 L51.0596218,59.9460012 L51.0338715,59.9433492 L51.0440173,60.0038831 Z M38.1923208,50.6410422 C37.8254936,48.6224003 37.3988055,46.1424358 37.3143601,45.0913148 C37.239713,44.1621569 37.1992724,43.1086179 37.1812822,42.0364722 C36.4003998,41.9391081 35.5707188,41.8456198 34.794538,41.7773241 L34.877271,46.2019212 L36.4092735,47.2877928 L36.0101769,49.1414608 L34.9594015,49.7911032 L34.9629344,50.3694907 L38.1923208,50.6410422 Z M41.759893,53.961726 L46.876338,54.5189442 L46.7701006,61.2250539 L35.0283251,61.0750106 L35.0202379,59.7510086 C35.9525369,59.2239149 36.5359773,58.4053035 36.5359773,58.4053035 C36.5359773,58.4053035 37.9804152,59.016663 38.6812763,58.8697426 C39.1219882,58.7773569 39.9606962,57.6873854 39.9606962,57.6873854 L41.759893,53.961726 Z" id="ship" fill="#FFC61C" transform="translate(44.893480, 44.826184) rotate(21.000000) translate(-44.893480, -44.826184) "></path>
                    <g id="ship-details" transform="translate(10.800000, 23.448980)">
                        <path d="M23.3964844,3.6356824 C23.3964844,3.6356824 19.1135742,6.38392857 20.0926758,12.859933" id="Path-101"></path>
                        <path d="M40.05,0.448979592 L38.25,4.93877551" id="Line" stroke-linecap="square"></path>
                        <path d="M45.45,3.14285714 L42.75,8.53061224" id="Line" stroke-linecap="square"></path>
                        <path d="M15.75,21.1020408 C12.2264647,22.6392698 13.05,27.3877551 13.05,27.3877551" id="Line" stroke-linecap="square"></path>
                        <path d="M22.95,23.7959184 C19.35,27.3877551 19.35,30.9795918 19.35,30.9795918" id="Line" stroke-linecap="square"></path>
                        <path d="M33.75,12.122449 C26.7574219,21.6930804 27.2671875,29.0617825 27.2671875,29.0617825" id="Line" stroke-linecap="square"></path>
                        <path d="M42.75,14.8163265 C37.0072266,22.8979592 34.65,32.7755102 34.65,32.7755102" id="Line" stroke-linecap="square"></path>
                        <path d="M50.85,23.7959184 C47.0012695,28.1611926 48.15,30.0816327 48.15,30.0816327" id="Line" stroke-linecap="square"></path>
                        <path d="M45.45,22 C42.3474609,23.375 42.75,27.3877551 42.75,27.3877551" id="Line" stroke-linecap="square"></path>
                        <path d="M42.75,42.6530612 L33.6462891,37.6555325" id="Line" stroke-linecap="square"></path>
                        <path d="M27.4324219,43.2888233 L9.73476563,37.8510842 C9.73476563,37.8510842 5.06162109,35.7684151 6.384375,33.0552455 C7.70712891,30.342076 9.60908203,31.4364636 9.60908203,31.4364636 L27.4640625,38.2185108 L26.4665039,40.6449298 L29.4890625,41.9225925 L30.4857422,39.2418686" id="Line" stroke-linecap="square"></path>
                        <path d="M5.00449219,32.5668048 C1.69541012,37.5020727 14.85,40.8571429 14.85,40.8571429 L27.1116211,44.3753189 C27.1116211,44.3753189 26.6785302,46.8365203 28.0494141,47.7672194 C29.4202979,48.6979185 34.5823237,50.2637915 36.5044916,48.0785236 C38.4266596,45.8932557 42.7245117,42.5355548 42.7245117,42.5355548 L46.2999023,40.1871811 L62.6414063,38.5315689" id="Line" stroke-linecap="square"></path>
                        <path d="M29.4029297,6.58561862 C29.4029297,6.58561862 25.5638672,10.9232701 25.5638672,15.2609216" id="Path-102"></path>
                        <path d="M4.05,23.7959184 L4.95,21.1020408" id="Line" stroke-linecap="square"></path>
                        <path d="M0.45,22 L2.06542969,19.7209024" id="Line" stroke-linecap="square"></path>
                        <path d="M28.35,48.0408163 C27.1054688,53.4794324 24.75,54.3265306 24.75,54.3265306" id="Line" stroke-linecap="square"></path>
                        <path d="M31.05,49.8367347 C29.8054688,55.2753508 27.45,56.122449 27.45,56.122449" id="Line" stroke-linecap="square"></path>
                        <path d="M32.85,49.8367347 C31.6054688,55.2753508 29.25,56.122449 29.25,56.122449" id="Line" stroke-linecap="square"></path>
                        <path d="M29.25,48.9387755 C28.0054688,54.3773916 25.65,55.2244898 25.65,55.2244898" id="Line" stroke-linecap="square"></path>
                    </g>
                </g>
                <g id="waves" transform="translate(79.000000, 125.000000)" stroke-linecap="square" stroke="#FFC61C" stroke-width="1.5">
                    <g id="Group-2" transform="translate(30.000000, 77.000000)">
                        <path d="M15,0 C15,0 7.88769531,12.3056641 0,0" id="Line"></path>
                        <path d="M30,0 C30,0 22.8876953,12.3056641 15,0" id="Line"></path>
                        <path d="M45,0 C45,0 37.8876953,12.3056641 30,0" id="Line-Copy-2"></path>
                        <path d="M60,0 C60,0 52.8876953,12.3056641 45,0" id="Line-Copy"></path>
                        <path d="M75,0 C75,0 67.8876953,12.3056641 60,0" id="Line-Copy-4"></path>
                        <path d="M90,0 C90,0 82.8876953,12.3056641 75,0" id="Line-Copy-3"></path>
                    </g>
                    <g id="Group-3" transform="translate(14.000000, 65.000000)">
                        <path d="M15,0 C15,0 7.88769531,12.3056641 0,0" id="Line-Copy-3"></path>
                        <path d="M30,0 C30,0 22.8876953,12.3056641 15,0" id="Line-Copy-3"></path>
                        <path d="M45,0 C45,0 37.8876953,12.3056641 30,0" id="Line-Copy-3"></path>
                        <path d="M60,0 C60,0 52.8876953,12.3056641 45,0" id="Line-Copy-3"></path>
                        <path d="M75,0 C75,0 67.8876953,12.3056641 60,0" id="Line-Copy-3"></path>
                        <path d="M90,0 C90,0 82.8876953,12.3056641 75,0" id="Line-Copy-3"></path>
                        <path d="M105,0 C105,0 97.8876953,12.3056641 90,0" id="Line-Copy-3"></path>
                        <path d="M120,0 C120,0 112.887695,12.3056641 105,0" id="Line-Copy-3"></path>
                    </g>
                    <g id="Group-3-Copy" transform="translate(1.000000, 53.000000)">
                        <path d="M15,0 C15,0 7.88769531,12.3056641 0,0" id="Line-Copy-3"></path>
                        <path d="M30,0 C30,0 22.8876953,12.3056641 15,0" id="Line-Copy-3"></path>
                        <path d="M45,0 C45,0 37.8876953,12.3056641 30,0" id="Line-Copy-3"></path>
                        <path d="M60,0 C60,0 52.8876953,12.3056641 45,0" id="Line-Copy-3"></path>
                        <path d="M75,0 C75,0 67.8876953,12.3056641 60,0" id="Line-Copy-3"></path>
                        <path d="M90,0 C90,0 82.8876953,12.3056641 75,0" id="Line-Copy-3"></path>
                        <path d="M105,0 C105,0 97.8876953,12.3056641 90,0" id="Line-Copy-3"></path>
                        <path d="M120,0 C120,0 112.887695,12.3056641 105,0" id="Line-Copy-3"></path>
                        <path d="M135,0 C135,0 127.887695,12.3056641 120,0" id="Line-Copy-3"></path>
                        <path d="M150,0 C150,0 142.887695,12.3056641 135,0" id="Line-Copy-3"></path>
                    </g>
                    <g id="Group-3-Copy-2" transform="translate(1.000000, 40.000000)">
                        <path d="M30,0 C30,0 22.8876953,12.3056641 15,0" id="Line-Copy-3"></path>
                        <path d="M15,0 C15,0 7.88769531,12.3056641 0,0" id="Line-Copy-3"></path>
                        <path d="M45,0 C45,0 37.8876953,12.3056641 30,0" id="Line-Copy-3"></path>
                        <path d="M60,0 C60,0 52.8876953,12.3056641 45,0" id="Line-Copy-3"></path>
                        <path d="M75,0 C75,0 67.8876953,12.3056641 60,0" id="Line-Copy-3"></path>
                        <path d="M90,0 C90,0 82.8876953,12.3056641 75,0" id="Line-Copy-3"></path>
                        <path d="M105,0 C105,0 97.8876953,12.3056641 90,0" id="Line-Copy-3"></path>
                        <path d="M120,0 C120,0 112.887695,12.3056641 105,0" id="Line-Copy-3"></path>
                        <path d="M135,0 C135,0 127.887695,12.3056641 120,0" id="Line-Copy-3"></path>
                        <path d="M151,0 C151,0 143.887695,12.3056641 136,0" id="Line-Copy-3"></path>
                    </g>
                    <g id="Group-3-Copy-3" transform="translate(0.000000, 26.000000)">
                        <path d="M15,0 C15,0 7.88769531,12.3056641 0,0" id="Line-Copy-3"></path>
                        <path d="M30,0 C30,0 22.8876953,12.3056641 15,0" id="Line-Copy-3"></path>
                        <path d="M45,0 C45,0 37.8876953,12.3056641 30,0" id="Line-Copy-3"></path>
                        <path d="M60,0 C60,0 52.8876953,12.3056641 45,0" id="Line-Copy-3"></path>
                        <path d="M75,0 C75,0 67.8876953,12.3056641 60,0" id="Line-Copy-3"></path>
                        <path d="M90,0 C90,0 82.8876953,12.3056641 75,0" id="Line-Copy-3"></path>
                        <path d="M105,0 C105,0 97.8876953,12.3056641 90,0" id="Line-Copy-3"></path>
                        <path d="M121,0 C121,0 113.887695,12.3056641 106,0" id="Line-Copy-3"></path>
                        <path d="M136,0 C136,0 128.887695,12.3056641 121,0" id="Line-Copy-3"></path>
                        <path d="M152,0 C152,0 144.887695,12.3056641 137,0" id="Line-Copy-3"></path>
                    </g>
                    <g id="Group-3-Copy-4" transform="translate(15.000000, 14.000000)">
                        <path d="M15,0 C15,0 7.88769531,12.3056641 0,0" id="Line-Copy-3"></path>
                        <path d="M30,0 C30,0 22.8876953,12.3056641 15,0" id="Line-Copy-3"></path>
                        <path d="M45,0 C45,0 37.8876953,12.3056641 30,0" id="Line-Copy-3"></path>
                        <path d="M60,0 C60,0 52.8876953,12.3056641 45,0" id="Line-Copy-3"></path>
                        <path d="M75,0 C75,0 67.8876953,12.3056641 60,0" id="Line-Copy-3"></path>
                        <path d="M90,0 C90,0 82.8876953,12.3056641 75,0" id="Line-Copy-3"></path>
                        <path d="M106,0 C106,0 98.8876953,12.3056641 91,0" id="Line-Copy-3"></path>
                        <path d="M121,0 C121,0 113.887695,12.3056641 106,0" id="Line-Copy-3"></path>
                    </g>
                </g>
            </g>
            <text class="advice_text" id="thinktext" fill="#FF1C54">
                <tspan x="38" y="570">THINK CREATIVELY</tspan>
            </text>
        </g>
    </g>
</svg>