<?xml version="1.0" encoding="UTF-8" standalone="no"?>
<svg width="150px" height="137px" viewBox="0 0 150 137" version="1.1" xmlns="http://www.w3.org/2000/svg" xmlns:xlink="http://www.w3.org/1999/xlink" style="background: #FF1C54;">
    <!-- Generator: Sketch 41.1 (35376) - http://www.bohemiancoding.com/sketch -->
    <title>challengeyourself copy 2</title>
    <desc>Created with Sketch.</desc>
    <defs>
        <path d="M79.7947668,14.0610683 C79.7947637,15.9311827 62.4125046,30.2232748 58.0236958,30.223276 C53.634887,30.2232772 38.1356268,26.3181485 37.49901,23.9364447 C36.8623933,21.5547409 54.6378859,9.9259783 59.1280727,9.28300438 C63.6182595,8.64003045 79.7947698,12.1909538 79.7947668,14.0610683 Z" id="path-1"></path>
        <mask id="mask-2" maskContentUnits="userSpaceOnUse" maskUnits="objectBoundingBox" x="0" y="0" width="42.312433" height="21.0170888" fill="white">
            <use xlink:href="#path-1"></use>
        </mask>
        <path d="M55.4833665,14.1316688 C52.9847043,18.4476086 54.7827263,26.4490336 54.7827263,26.4490336 C54.7827263,26.4490336 26.8459456,14.725155 16.7891789,12.1704237 C5.7881468,9.37581956 -0.873879636,14.7978227 0.0927080944,9.71830734 C1.19823682,3.90864314 -1.72868541,3.61499288 2.2180322,0.462840062 C6.16474981,-2.68931275 49.063558,12.1002111 55.4833665,14.1316688 Z" id="path-3"></path>
        <mask id="mask-4" maskContentUnits="userSpaceOnUse" maskUnits="objectBoundingBox" x="0" y="0" width="55.4833665" height="26.425128" fill="white">
            <use xlink:href="#path-3"></use>
        </mask>
        <path d="M54.0025202,25.5779297 C54.0025202,25.5779297 52.7941028,30.0042235 52.7941028,36.994053 C41.7176411,36.041505 37.432079,37.3018208 28.0566161,32.565516 C18.6811532,27.8292111 3.56630098,29.2604352 1.34276593,24.2395168 C-1.09883087,18.7261975 0.535528072,17.6315135 0.535528056,11.678045 C0.53552804,5.72457641 54.0025202,25.5779297 54.0025202,25.5779297 Z" id="path-5"></path>
        <mask id="mask-6" maskContentUnits="userSpaceOnUse" maskUnits="objectBoundingBox" x="0" y="0" width="54.0025202" height="26.4297792" fill="white">
            <use xlink:href="#path-5"></use>
        </mask>
        <path d="M26.0397184,33.063612 C30.0780144,34.2069599 31.6456904,35.794341 35.5208918,36.727115 C45.0915824,39.0308124 52.3564506,39.1389458 52.3564506,39.1389458 C52.3564506,39.1389458 52.9431248,43.1285075 52.9431248,50.118337 C37.8048463,48.8164829 12.1725559,39.1389457 5.73229001,37.1828702 C5.16370438,35.6068748 4.32140244,34.2115659 3.93550538,32.9968545 C2.82825347,29.5114914 2.77293091,27.5129606 2.59581138,26.9991642 C2.54478093,26.8511328 15.2619154,30.012132 26.0397184,33.063612 Z" id="path-7"></path>
        <mask id="mask-8" maskContentUnits="userSpaceOnUse" maskUnits="objectBoundingBox" x="0" y="0" width="50.3474665" height="23.1241784" fill="white">
            <use xlink:href="#path-7"></use>
        </mask>
        <path d="M52.8772456,50.4733799 C52.8772456,50.4733799 53.9994518,50.4392841 53.9994518,57.4291135 C38.8611734,56.1272595 16.1819801,49.6541617 9.74171425,47.6980862 C6.46057229,38.6034761 4.81891129,35.873699 8.30534881,37.7911914 C11.7917863,39.7086839 52.8772456,50.4733799 52.8772456,50.4733799 Z" id="path-9"></path>
        <mask id="mask-10" maskContentUnits="userSpaceOnUse" maskUnits="objectBoundingBox" x="0" y="0" width="47.6402834" height="20.2170201" fill="white">
            <use xlink:href="#path-9"></use>
        </mask>
    </defs>
    <g id="Challenge-Yourself" stroke="none" stroke-width="1" fill="none" fill-rule="evenodd">
        <g id="challengeyourself-copy-2">
            <g id="book" transform="translate(19.000000, 21.000000)">
                <path d="M107.313469,11.6136925 C107.642262,8.25898309 62.8121924,-1.08784052 58.2983624,0.353916307 C53.7845324,1.79567313 8.74819803,31.3928831 2.30668413,33.4520576 C-4.13482977,35.5112321 4.78932376,76.9348458 9.69937582,82.6835805 C14.6094279,88.4323151 53.2733606,96.0793038 56.5201153,94.6258127 C66.361523,90.2200599 112.36801,58.0973597 112.36801,55.6423336 C113.866199,52.0757067 107.313469,52.6876972 107.313469,52.6876972 L104.703679,14.1322938 C104.703679,14.1322938 105.805006,14.1322942 107.313469,11.6136925 Z" stroke="#FFC61C" stroke-width="0.5" fill="#FFC61C"></path>
                <use id="Rectangle-41" stroke="#FF1C54" mask="url(#mask-2)" fill="#FFC61C" opacity="0.973472481" xlink:href="#path-1"></use>
                <path d="M77.5950067,14.5976647 C77.595004,16.2945223 61.9268445,29.2625226 57.970825,29.2625237 C54.0148055,29.2625248 40.0439587,25.719187 39.47012,23.5581363 C38.8962812,21.3970856 54.9188966,10.8456704 58.966297,10.2622649 C63.0136974,9.67885929 77.5950094,12.9008071 77.5950067,14.5976647 Z" id="Rectangle-41" fill="#FF1C54" opacity="0.973472481"></path>
                <g id="Group-2" transform="translate(3.366619, 34.842987)" stroke="#FF1C54" fill="#FFC61C">
                    <use id="Rectangle-41" mask="url(#mask-4)" xlink:href="#path-3"></use>
                    <use id="Rectangle-41-Copy" mask="url(#mask-6)" xlink:href="#path-5"></use>
                    <use id="Rectangle-41-Copy-2" mask="url(#mask-8)" xlink:href="#path-7"></use>
                    <use id="Rectangle-41-Copy-4" mask="url(#mask-10)" xlink:href="#path-9"></use>
                </g>
                <g id="pages" transform="translate(6.359168, 61.948092)" stroke="#FF1C54" stroke-width="0.5" stroke-linecap="square">
                    <path d="M0.470143025,1.15704558 C1.15177665,3.18168511 20.8286872,5.37091382 26.7082883,9.00781746 C32.5878894,12.6447211 48.60446,14.6454424 50.3122445,13.4058469" id="Line"></path>
                    <path d="M0.470143025,2.07586271 C1.15177665,4.10050223 20.8286872,6.28973095 26.7082883,9.92663458 C32.5878894,13.5635382 48.60446,15.5642596 50.3122445,14.324664" id="Line"></path>
                    <path d="M0.844211757,2.99467983 C1.52584538,5.01931936 21.2027559,7.20854807 27.082357,10.8454517 C32.9619581,14.4823553 48.9785287,16.4830767 50.6863132,15.2434811" id="Line"></path>
                    <path d="M1.21828049,3.91349695 C1.89991412,5.93813648 21.5768247,8.12736519 27.4564257,11.7642688 C33.3360268,15.4011725 49.3525974,17.4018938 51.0603819,16.1622982" id="Line"></path>
                    <path d="M1.59234922,5.75113119 C2.27398285,7.77577072 21.9508934,9.96499943 27.8304945,13.6019031 C33.7100956,17.2388067 49.7266662,19.239528 51.4344506,17.9999325" id="Line"></path>
                    <path d="M1.96641795,6.66994831 C2.64805158,8.69458784 22.3249621,10.8838166 28.2045632,14.5207202 C34.0841643,18.1576238 50.1007349,20.1583452 51.8085194,18.9187496" id="Line"></path>
                    <path d="M2.34048669,7.58876543 C3.02212031,9.61340496 22.6990309,11.8026337 28.5786319,15.4395373 C34.458233,19.076441 50.4748036,21.0771623 52.1825881,19.8375667" id="Line"></path>
                    <path d="M3.06049593,8.50758256 C3.33011838,9.30843544 8.94410546,9.97719315 17.4215936,12.4237714 C28.5590539,15.6380097 43.2645415,20.2820434 47.8266553,21.0454317 C48.570943,21.1699749 49.0452505,21.1912293 49.1900383,21.0861351" id="Line"></path>
                    <path d="M3.06049593,9.42639968 C3.33011838,10.2272526 8.94410546,10.8960103 17.4215936,13.3425885 C28.5590539,16.5568268 43.2645415,21.2008605 47.8266553,21.9642488 C48.570943,22.088792 49.0452505,22.1100464 49.1900383,22.0049522" id="Line"></path>
                    <polyline id="Line" points="6.66309929 19.5145451 29.8333618 25.3945271 50.3122445 29.1724436"></polyline>
                    <polyline id="Line" points="6.33430689 20.1721299 29.5045694 26.0521119 49.9834521 29.8300284"></polyline>
                    <polyline id="Line" points="6.28903056 18.595728 29.4592931 24.47571 49.9381757 28.2536265"></polyline>
                    <polyline id="Line" points="6.28903056 17.6769108 29.4592931 23.5568929 49.9381757 27.3348094"></polyline>
                    <polyline id="Line" points="5.54089309 16.7580937 28.7111556 22.6380758 49.1900383 26.4159922"></polyline>
                    <polyline id="Line" points="5.16682436 15.8392766 28.3370869 21.7192587 48.8159695 25.4971751"></polyline>
                    <polyline id="Line" points="4.67768566 14.1048298 29.4592931 20.341033 49.9381757 24.1189494"></polyline>
                    <polyline id="Line" points="4.67768566 13.1860127 29.4592931 19.4222159 49.9381757 23.2001323"></polyline>
                    <polyline id="Line" points="3.88425081 11.6274333 28.0441959 18.6607809 49.9381757 23.6595409"></polyline>
                </g>
                <g id="Group-3" transform="translate(54.942827, 14.957802)" stroke="#FF1C54" stroke-width="0.5" fill="#FFC61C">
                    <path d="M3.66831551,34.3791267 L50.6143698,0.049350529 C50.6143698,0.049350529 51.8724261,10.0612885 52.7608393,16.059621 C52.7608393,16.059621 0.606379342,46.6215063 2.75289102,46.6215063 C0.606379305,43.1346671 3.66831551,34.3791267 3.66831551,34.3791267 Z" id="Path-126"></path>
                    <path d="M2.71489966,46.1656869 C2.71489966,46.1656869 0.606379429,46.1656869 0.606379429,57.0927913 C0.606379429,57.0927913 54.7904544,26.1266803 53.1940869,25.0840382 C51.9403722,20.2566592 52.4664063,17.0363128 52.4664063,17.0363128 L2.71489966,46.1656869 Z" id="Path-127"></path>
                    <path d="M1.54776134,59.1044983 C1.54776134,59.1044983 -0.750350352,62.3490713 1.15725408,68.8992324 C1.15725408,68.8992324 51.7814641,31.8055802 53.316461,30.5197746 C53.316461,28.226321 53.316461,25.4034707 53.316461,25.4034707 L1.54776134,59.1044983 Z" id="Path-128"></path>
                    <path d="M0.606379429,70.553821 C0.606379429,70.553821 -1.59784983,73.3964115 2.64841479,77.0627072 C2.64841479,77.0627072 52.4536181,43.377382 55.0428751,39.8887482 C55.7979533,34.5476751 53.54039,30.7974835 53.54039,30.7974835 L0.606379429,70.553821 Z" id="Path-129"></path>
                </g>
                <g id="pages" transform="translate(3.366619, 15.088418)" stroke="#FF1C54" stroke-width="0.5" stroke-linecap="square">
                    <path d="M0.187034366,37.9012063 C0.187034366,37.9012063 1.42960916,36.6459679 2.94286885,36.3354486 C4.17969089,36.081654 5.59274392,36.7201043 6.69414992,37.0196264 C21.7017075,41.100859 52.1825881,51.2258483 52.1825881,51.2258483" id="Line"></path>
                    <path d="M0.187034366,38.8200234 C0.187034366,38.8200234 1.42960916,37.564785 2.94286885,37.2542657 C4.17969089,37.0004711 5.59274392,37.6389214 6.69414992,37.9384435 C21.7017075,42.0196761 52.1825881,52.1446654 52.1825881,52.1446654" id="Line"></path>
                    <path d="M0.187034366,39.7388405 C0.187034366,39.7388405 1.42960916,38.4836021 2.94286885,38.1730828 C4.17969089,37.9192882 5.59274392,38.5577386 6.69414992,38.8572606 C21.7017075,42.9384932 52.1825881,53.0634825 52.1825881,53.0634825" id="Line"></path>
                    <path d="M0.561103098,40.6576576 C0.561103098,40.6576576 1.80367789,39.4024192 3.31693758,39.0918999 C4.55375962,38.8381054 5.96681266,39.4765557 7.06821865,39.7760777 C22.0757762,43.8573104 52.1825881,53.9822997 52.1825881,53.9822997" id="Line"></path>
                    <path d="M0.93517183,41.5764747 C0.93517183,41.5764747 2.17774662,40.3212363 3.69100632,40.0107171 C4.92782835,39.7569225 6.34088139,40.3953728 7.44228738,40.6948948 C22.4498449,44.7761275 52.1825881,54.6009767 52.1825881,54.6009767" id="Line"></path>
                    <path d="M1.30924056,42.4952919 C1.30924056,42.4952919 2.55181535,41.2400535 4.06507505,40.9295342 C5.30189708,40.6757396 6.71495012,41.3141899 7.81635611,41.613712 C22.8239136,45.6949446 52.1825881,55.4946699 52.1825881,55.4946699" id="Line"></path>
                    <path d="M1.30924056,43.414109 C1.30924056,43.414109 2.55181535,42.1588706 4.06507505,41.8483513 C5.30189708,41.5945567 6.71495012,42.2330071 7.81635611,42.5325291 C22.8239136,46.6137617 52.1825881,56.413487 52.1825881,56.413487" id="Line"></path>
                    <path d="M3.17958422,45.2517432 C3.17958422,45.2517432 4.46581079,45.2517432 9.27610077,46.5003116 C14.0863908,47.7488799 25.3175855,49.4519219 28.0416387,50.5349417 C30.765692,51.6179615 31.6208628,52.9602959 35.768496,53.9908246 C39.9161292,55.0213534 49.1900383,55.8181401 49.1900383,55.8181401" id="Line"></path>
                    <path d="M2.21884129,44.6460777 C8.03626761,44.8757819 19.4233603,46.8975757 27.9115905,49.766868 C32.1364117,51.1949922 33.6772889,52.2367855 34.7244643,52.6291987 C37.875555,53.8100222 50.8759038,55.4906321 50.8759038,55.4906321" id="Line"></path>
                    <path d="M1.93902034,44.3872117 C1.93902034,44.3872117 3.99350636,43.2269784 7.21251274,43.812951 C20.7085765,46.2697101 23.393364,48.4102943 36.0841167,51.9809122 C44.8474691,54.4465329 52.1825881,55.5740794 52.1825881,55.5740794" id="Line"></path>
                    <path d="M0.936633036,21.7662751 C3.04296146,18.90215 52.9964798,33.6835316 54.5607009,36.0438322" id="Line"></path>
                    <path d="M2.05883923,20.847458 C4.16516766,17.9833328 53.5108244,33.904711 55.0410723,33.9047111" id="Line"></path>
                    <path d="M0.562564304,23.1445008 C2.66889273,20.2803756 51.1502461,33.3062241 54.1866321,37.8814665" id="Line-Copy-2"></path>
                    <path d="M0.562564304,24.5227265 C2.66889273,21.6586013 50.7761774,34.2250412 53.8125634,38.8002836" id="Line-Copy-3"></path>
                    <path d="M0.562564304,25.9009522 C2.66889273,23.036827 50.7761774,35.6032669 53.8125634,40.1785093" id="Line-Copy-4"></path>
                    <path d="M0.562564304,27.2791779 C2.66889273,24.4150527 50.4021086,36.9814925 53.4384947,41.556735" id="Line-Copy-4"></path>
                    <path d="M0.562564304,28.197995 C2.66889273,25.3338698 50.4021086,37.9003097 53.4384947,42.4755521" id="Line-Copy-4"></path>
                    <path d="M0.562564304,29.1168121 C2.66889273,26.2526869 50.4021086,38.8191268 53.4384947,43.3943692" id="Line-Copy-4"></path>
                    <path d="M0.562564304,30.4950378 C2.66889273,27.6309126 50.7761774,40.1973525 53.8125634,44.7725949" id="Line-Copy-4"></path>
                    <path d="M0.628683875,33.3071206 C0.628683875,33.3071206 0.653524376,32.3205587 4.62690875,32.3205587 C8.60029312,32.3205587 52.5566568,47.548786 52.5566568,47.548786" id="Line"></path>
                    <path d="M0.561103098,34.6853463 C0.561103098,34.6853463 1.77903011,32.6098426 5.11020263,33.5157388 C19.2355709,37.3570644 52.5566568,48.4676032 52.5566568,48.4676032" id="Line"></path>
                    <path d="M0.561103098,36.063572 C0.561103098,36.063572 1.79400747,33.6004423 5.12517999,34.5063385 C19.2505483,38.3476641 52.5566568,49.1831854 52.5566568,49.1831854" id="Line"></path>
                    <path d="M0.437996494,36.4238309 C0.437996494,36.4238309 1.96241146,34.4761898 5.29358398,35.3820861 C19.4189523,39.2234116 52.1825881,49.8893472 52.1825881,49.8893472" id="Line"></path>
                    <path d="M55.175138,35.1447549 L102.307798,2.06733852" id="Line"></path>
                    <path d="M54.4270005,36.5229806 L102.126974,3.63803127" id="Line"></path>
                    <path d="M55.2204143,33.9647055 L101.933729,0.22970428" id="Line"></path>
                    <path d="M54.4270005,37.9012063 L102.237295,4.57120491" id="Line"></path>
                    <path d="M54.4270005,38.8200234 L102.237295,5.94943059" id="Line"></path>
                    <path d="M54.0529318,40.1982491 L102.683693,6.88933385" id="Line"></path>
                    <path d="M54.0529318,42.4952919 L103.089178,9.56458116" id="Line"></path>
                    <path d="M54.0529318,44.3329261 L103.470918,11.8225922" id="Line"></path>
                    <path d="M54.0529318,45.2517432 L103.712748,13.4143711" id="Line"></path>
                    <path d="M54.2220664,45.7107032 L104.026907,14.6557612" id="Line"></path>
                    <path d="M53.3997727,47.3468975 L104.13321,17.8774534" id="Line"></path>
                    <path d="M52.6516352,50.1033489 L104.022889,20.2857593" id="Line"></path>
                    <path d="M52.6516352,51.9409831 L103.994395,21.8174202" id="Line"></path>
                    <path d="M52.2775665,52.8598002 L104.231111,22.4935225" id="Line"></path>
                    <path d="M52.2775665,53.7786174 L104.372482,23.5433428" id="Line"></path>
                    <path d="M52.2775665,55.6162516 L104.746551,24.4621599" id="Line"></path>
                    <polyline id="Line" points="52.2775665 56.5350687 81.0247057 39.4661085 104.432757 24.9718163"></polyline>
                    <path d="M104.926279,25.9565837 L52.5566568,60.4122257" id="Line"></path>
                    <path d="M105.467656,31.4681405 L51.8085194,70.9786226" id="Line"></path>
                    <path d="M105.841725,32.3869576 L51.8085194,71.8382191" id="Line"></path>
                    <path d="M106.215794,33.3057747 L51.8085194,72.7570362" id="Line"></path>
                    <path d="M106.589862,34.2245919 L51.8085194,73.6758534" id="Line"></path>
                    <polyline id="Line" points="106.710412 37.2260013 55.035341 73.5737142 52.9307256 75.054079"></polyline>
                    <polyline id="Line" points="107.084481 38.1448184 55.4094098 74.4925313 53.3047943 75.9728962"></polyline>
                    <polyline id="Line" points="107.084481 39.0636355 55.4094098 75.4113484 53.3047943 76.8917133"></polyline>
                    <path d="M104.926279,26.8754008 L52.5566568,61.3310429" id="Path"></path>
                    <path d="M104.552211,27.7942179 L52.1825881,62.24986" id="Line"></path>
                    <path d="M104.552211,29.6318522 L52.5566568,67.7627627" id="Line"></path>
                    <path d="M104.926279,28.713035 L52.1825881,66.9453385" id="Line"></path>
                    <path d="M104.926279,27.3348094 L52.1825881,65.1077042" id="Line"></path>
                </g>
                <path d="M12.7111656,82.2314933 C12.7111656,82.2314933 -1.28562957,54.5936664 4.58896582,36.5319182" id="Line" stroke="#FF1C54" stroke-width="0.5" stroke-linecap="square"></path>
                <path d="M65.9222346,13.6041785 C61.0726643,11.5762786 53.3321896,12.4046251 48.0423815,15.4543424 C42.4587557,18.5040597 41.7548872,22.6202817 46.7908392,24.6481817 C51.9441577,26.6760817 60.6831144,25.8477351 66.1073952,22.7980178 C71.2865236,19.7483006 70.9919101,15.6320785 65.9222346,13.6041785 Z" id="Oval-1" fill="#FFC61C" transform="translate(56.630409, 19.126180) rotate(-10.000000) translate(-56.630409, -19.126180) "></path>
                <path d="M64.8655586,14.1422875 C60.5267163,12.3326492 53.6014226,13.0718413 48.8687058,15.7933193 C43.8731145,18.5147973 43.2433733,22.1879928 47.7489686,23.9976311 C52.3595701,25.8072694 60.1781916,25.0680773 65.0312192,22.3465993 C69.6649125,19.6251213 69.4013259,15.9519258 64.8655586,14.1422875 Z" id="Oval-1-Copy" stroke="#FF1C54" stroke-width="0.5" transform="translate(56.552293, 19.069959) rotate(-10.000000) translate(-56.552293, -19.069959) "></path>
                <path d="M60.2558382,15.3861913 L60.6474428,14.7956581 L61.2925914,14.8648847 L61.0820296,15.4006664 C61.0820296,15.4006664 62.4686712,16.1527793 62.1616376,16.2574875 C61.8546041,16.3621956 61.1976362,16.1621332 61.1976362,16.1621332 L60.2558379,16.6390011 L59.803137,17.3683867 L61.4499403,18.1430131 L62.1616376,16.639001 C62.1616376,16.639001 62.7993486,16.3101668 62.7993487,16.639001 C62.7993487,16.7818343 62.0303244,18.0542301 62.0303244,18.0542301 L62.1616381,18.3690279 L61.5821474,18.7207555 L59.1125209,23.0017806 L58.7093453,23.0017806 L61.1923566,18.6361604 L59.6146971,18.2867948 L59.142083,17.7535735 L58.7093451,17.8394342 L57.3911904,18.6373828 L56.8066472,20.1896169 L56.4025884,21.1134001 L56.0910169,22.3365715 L56.5051133,23.0072483 L56.036731,23.0017807 L54.3963594,22.0269139 L55.1653077,21.4172101 L55.6521761,20.2557603 L55.5014923,19.5655697 L53.5088348,20.1566974 L52.1840429,20.4334476 L52.3260593,21.0046261 L51.7018397,20.9982927 L50.6340298,20.1280657 L51.2306589,19.8725938 L55.4706862,18.5206386 L55.546622,17.8025416 L55.9185426,17.4470111 L59.1420829,16.1621332 L59.9594532,15.5746028 C59.9594532,15.5746028 59.0603138,15.353546 59.1420829,15.0724635 C59.223852,14.791381 60.2558382,15.3861913 60.2558382,15.3861913 Z" id="Path-100" fill="#FF1C54"></path>
            </g>
        </g>
    </g>
</svg>