<?xml version="1.0" encoding="UTF-8" standalone="no"?>
<svg width="181px" height="108px" viewBox="0 0 181 108" version="1.1" xmlns="http://www.w3.org/2000/svg" xmlns:xlink="http://www.w3.org/1999/xlink" style="background: #FFFFFF;">
    <!-- Generator: Sketch 39.1 (31720) - http://www.bohemiancoding.com/sketch -->
    <title>recent</title>
    <desc>Created with Sketch.</desc>
    <defs></defs>
    <g id="Page-1" stroke="none" stroke-width="1" fill="none" fill-rule="evenodd">
        <g id="recent">
            <polygon id="Triangle-4" fill="#D8D8D8" points="198.176278 9.51319251 182.613763 108.743196 57.4506188 22.6686734"></polygon>
            <path d="M33.1267497,34.4746286 L32.5289001,32.4187012 L30.9961183,31.5117456 L28.1734305,27 C28.1734305,27 25.9394287,24.3440504 25.1734305,22 C24.3265922,19.4085686 25.9493095,13.0170889 26.1734305,11 C26.4132501,8.84162419 31.1734305,4 31.1734305,4 C31.1734305,4 35.9195243,2 39.1734305,2 C40.1538469,2 41.8195398,2.164697 43.4533327,2.36041376 C45.8402304,2.64634711 48.159041,2.99848871 48.1734314,3 C48.4309054,3.02704027 50.009288,3.81723499 51.66727,4.75816208 C52.9990956,5.5139911 54.3822836,6.36708179 55.1734314,7 C56.6379973,8.17165269 57.6415508,10.131943 58.4358826,11.9191895 C59.2302143,13.7064359 59.1734314,14.8474121 59.1734314,15.6928711 C59.1734314,16.5383301 60.1734314,18.467918 60.1734314,20 C60.1734314,21.532082 59.1734314,23 59.1734314,23 C59.1734314,23 59.3025384,25.812093 59.8821716,27 C60.118652,27.4846457 60.210496,28.0695702 60.2364238,28.6616646 C60.2740471,29.5208431 60.1728741,30.3951187 60.1734314,31 C60.1740865,31.7111154 59.5529826,32.5901327 58.795089,33.4993158 C57.7745117,34.723619 56.8154609,35.6066264 56.4830017,36.6040039 C56.4190278,36.7959255 55.4944837,37.5335129 54.6460876,38.3696289 C53.8769308,39.1276526 53.1734314,40 53.1734314,40 C53.1734314,40 49.9029498,39.5864734 51.1148376,40.5290527 C51.9730631,41.1965614 52.8720827,40.6942601 54.9035632,40.8732594 C57.1046716,41.067205 59.5300727,42.4398851 61.1734314,44 C64.3335037,47 63.0401306,46.1401367 64.0401306,47.1401367 C65.0401306,48.1401367 67.1734314,51 68.1734314,53 C68.5679699,53.789077 68.4052484,55.0942073 68.7383728,56.0717773 C69.2495878,57.5719631 69.8807068,59.1660301 69.8807068,60.3769531 C69.8807068,62.3769531 69.3803101,64 69.1734314,66 C69.0665243,67.0335251 70.5983907,66.3453103 72.2800935,66.6402658 C73.8526956,66.916086 75.5563233,68.1771892 76.1734314,69 C76.8487439,69.9004167 78.1734305,72 78.1734305,72 C78.1734305,72 78.1734313,75.3853353 78.1734314,77.3220215 C78.1734316,79.7186686 77.1734314,85 77.1734314,85 L74.1734314,92.7194901 C74.1734314,92.7194901 72.8971713,93.9545663 72.5901794,94.9177246 C72.4274203,95.4283661 72.9464054,95.8410818 73.1734314,96 C74.5160597,96.9398398 75.8547626,97.2883329 76.8560218,98.3995156 C77.8519419,99.504773 78.5140076,101.375244 78.5140076,101.375244 C78.5140076,101.375244 79.20171,102.74108 78.1734314,104 C78.0312717,104.174046 78.3541046,104.350288 78.1734314,104.50293 C77.6493699,104.945684 76.9373778,104.889118 76.1734314,105.140137 C75.4236268,105.386508 74.6211447,105.084173 74.1734314,105.140137 C72.9360574,105.294808 70.9615644,104.149717 69.0246942,103.917418 C66.0548349,103.561226 63.1734305,104 63.1734305,104 C63.1734305,104 61.6843038,103.255436 61.1734314,103 C60.3509707,102.58877 59.1734314,101 59.1734314,101 L36.1734314,100 C36.1734314,100 35.7751509,99.6884159 34.1734314,100 C33.1294465,100.203087 30.9571036,101.130832 30.1734314,101 L29.1734314,101 C30.2796011,101 28.5555567,101.255779 27.1734314,102 C26.2480229,102.498297 25.1734314,104 25.1734314,104 L19.1734314,104 C16.0940043,104 11.1734304,103 11.1734304,103 C11.1734304,103 6.17343044,100 6.17343044,99 C6.17343044,98 7.3330812,96.9368737 7.17343044,96 C7.11819242,95.6758484 6.92531753,94.22077 7.82940205,92.7194915 C8.88166847,90.9721494 11.0652828,89.1622214 11.1734304,89 C11.7043299,88.2036508 16.1734304,91 16.1734304,91 C16.1734304,91 16.4046014,90.5381809 17.1734314,90 C18.2280767,89.2617484 18.5262641,87.6907082 20.1734314,86 C22.5315602,83.5795369 26.1734314,81 26.1734314,81 C26.1734314,81 23.6237128,76.8011259 23.1734314,75 C22.8313873,73.6318234 23.7543202,71.3731025 23.7882744,69.1190041 C23.8419794,65.55372 23.1734314,62 23.1734314,62 C23.1734314,62 23.1904644,63.5470956 22.1734314,65 C20.8571313,66.8804289 17.1734314,69 17.1734314,69 C17.1734314,69 15.690239,70.0129299 13.1734304,69 C10.4862229,67.9184904 7.70863921,64.7545243 6.17343044,63 C4.47983195,61.0644589 3.17343044,53 3.17343044,53 C3.17343044,53 2.34301714,53.4828038 1.17343053,51 C0.461070476,49.4877988 2.17343053,46.075439 2.17343053,45 C2.17343053,43.1744792 6.17343053,40 6.17343053,40 C6.17343053,40 10.3347877,40.2881668 11.1734305,44 C11.6314346,46.0271259 10.4952754,49.1611278 11.1734305,51 C11.8832422,52.9247116 12.6584953,53.1632303 13.1734305,54 C13.9323551,55.2332524 15.1734305,51 15.1734305,51 C15.1734305,51 17.4850664,43.9327609 20.1734305,41 C21.151733,39.9327609 26.1734305,38 26.1734305,38 C26.1734305,38 27.5824376,38.2694419 29.1734314,38 C30.1306491,37.8378909 31.3243548,37.1778447 31.8360291,37 C32.8892646,36.6339226 33.4195251,35.4814453 33.4195251,35.4814453 L33.1267497,34.4746286 Z" id="Path-5" fill="#4A4A4A" opacity="0.981926306"></path>
            <path d="M59.1271972,73.2869873 L59.1271972,72.2723045 L58.8271484,70.2201788 L57.8040305,68.092041 L58.0496826,68.092041 L59.8747559,69.5722656 C59.8747559,69.5722656 60.5687316,70.0530807 61.1420899,70.2201788 C61.6351117,70.3638639 63,70.2201788 63,70.2201788 L60.4105195,72.2723044 L59.1271972,73.2869873 Z" id="Path-6" fill="#FFFFFF"></path>
        </g>
    </g>
</svg>