<?xml version="1.0" encoding="UTF-8" standalone="no"?>
<svg width="571px" height="315px" viewBox="0 0 571 315" version="1.1" xmlns="http://www.w3.org/2000/svg" xmlns:xlink="http://www.w3.org/1999/xlink" style="background: #FFFFFF;">
    <!-- Generator: Sketch 41.1 (35376) - http://www.bohemiancoding.com/sketch -->
    <title>babythumb copy</title>
    <desc>Created with Sketch.</desc>
    <defs></defs>
    <g id="Page-1" stroke="none" stroke-width="1" fill="none" fill-rule="evenodd">
        <g id="babythumb-copy">
            <polygon id="Triangle-4" fill="#D8D8D8" transform="translate(395.203000, 152.017585) rotate(-79.000000) translate(-395.203000, -152.017585) " points="439.21752 -81.7862368 598.082256 346.63214 192.323744 385.821407"></polygon>
            <path d="M98.8599576,100.423886 C97.9631832,97.3399946 97.2043598,97.4277302 92.4680633,91.5352369 C90.506232,89.094495 88.0937702,82.6284485 84.5884629,77.9999458 C79.6311795,71.4542146 73.488203,65.5835427 72,54 C69.4594851,34.2257058 79.8085937,19.4082031 93,9 C106.191406,-1.40820312 135.175784,2 144.000003,5 C152.824221,8 156.86524,11.9355469 165.000003,18 C173.134766,24.0644531 178.000003,36.5422363 178.000003,44.0786133 C178.000003,51.6149902 179.000003,52.4037539 179.000003,57 C179.000003,61.5962461 178.242933,60.1615173 178.000003,66 C177.757072,71.8384827 177.387324,72.4362789 180.126223,77 C182.865123,81.5637211 180.998331,88.185356 180.000003,90 C179.001674,91.814644 171.926091,103.819879 168.928714,106.812012 C165.931336,109.804144 165.96316,109.600539 163.417971,112.108887 C160.872783,114.617235 161.76699,114.307937 159.000003,116 C156.233016,117.692063 149.188558,115.75942 152.824221,118.587158 C156.459885,121.414896 158.095956,119.08278 164.190398,119.619778 C170.28484,120.156776 178.069927,124.319655 183.000003,129 C187.930079,133.680345 189.6001,137.42041 192.6001,140.42041 C194.265715,142.086025 198.766569,144.929767 201.551365,149.955962 C203.782368,153.982633 204.553791,158.768227 204.553791,163.800781 C206.553791,168.800781 210.121829,174.49809 210.121829,178.130859 C210.121829,179.909082 209.762135,182.550747 209.322093,185.488196 C208.863164,188.551724 207.31684,191.936971 207.000003,195 C212.379367,197 212.274881,195.035931 217.319989,195.920797 C222.365097,196.805664 223.000005,197.570312 229.000003,203 C232.620616,206.276468 234.692287,212.938161 234.972872,218.983128 C235.157265,222.955742 234.000002,226.662003 234.000003,228.966064 C234.000003,234.776123 235.162989,239.824505 232.000003,252 C228.837016,264.175495 223.783084,271.300051 222.000003,275.15847 C220.216922,279.016889 218.171222,278.863699 217.250247,281.753174 C216.329271,284.642649 218.318925,284.523245 219.000003,285 C219.681081,285.476755 227.043996,288.864999 230.047774,292.198547 C233.051552,295.532095 234.194883,297.610688 235.021731,301.125732 C235.84858,304.640776 236.243652,306.357666 235.021731,309.635742 C233.79981,312.913818 230.291842,311.667355 228.000003,312.42041 C225.708163,313.173466 223.343142,312.252518 222.000003,312.42041 C220.656863,312.588303 212.364402,311.449152 206.553791,310.752254 C201.906215,310.194844 198.184807,311.110945 189.511194,308.403567 C179.733587,305.351589 181.18898,305 177.000003,300 C163.417971,297 149.764144,298.119941 145.765625,299 C141.767106,299.880059 106.805161,296.065248 102.000003,297 C97.194844,297.934752 92.3510192,300.392496 90.0000026,300 C87.6489859,299.607504 87.0000026,300 87.0000026,300 C87.0000026,300 85.1463785,300.767336 81.0000026,303 C76.8536267,305.232664 81.4661117,304.883473 75.0000026,309 C68.5338935,313.116527 61.5881348,310.508789 56.826416,310.508789 C53.437437,310.508789 47.7570437,308.77579 41.3457031,307.24292 C34.9343625,305.71005 32.4948571,303.909902 30.1291116,303 C27.1310791,301.846911 25.1532142,300.092531 23.2810059,299 C22.4705372,298.52705 21.6247559,295.219412 21.6247559,294.139648 C21.6247559,292.915532 17.0473633,293.765625 17.5273438,290.333008 C17.6778856,289.256396 18.299518,287.932612 19.0976563,287.271973 C19.8957945,286.611333 20.6495412,286.774966 20.9450684,286.154541 C21.1884097,285.643674 20.582165,285.760696 20.4050293,285.308105 C20.2278936,284.855514 20.0729066,283.33604 19.9999997,282.908203 C19.7848533,281.645666 20.3346062,281.326499 20.9450684,280.546631 C21.3538447,280.024417 22.7643516,279.785845 22.9953613,279.244385 C23.2263711,278.702924 22.0075424,278.51311 22.1777344,278.146484 C20.8740413,276.743652 22.2973645,273.845095 22.9953613,272.686035 C23.29756,272.184219 25.0975414,271.300418 26.607666,271.483887 C28.1177906,271.667355 29.7553981,272.935751 29.3908691,271.483887 C29.1488914,270.520125 29.0169977,269.791747 29.0020484,269.149489 C28.9747805,267.978 29.3365911,267.09304 30.1291116,265.5888 C33.1789312,263.51268 38.2075752,263 39.9999997,263 C44.0320849,263 44.265625,266.519682 48.0107422,269.149489 C51.7558594,271.779297 51.1606497,268.506348 53.0000026,266 C54.8393555,263.493652 55.0585007,260.072125 60.0000026,255 C65.216009,249.646115 72.4521484,245.360352 76.8950195,241.631104 C75.0000026,237.851318 74.4099173,238.236328 71.0000026,232 C67.5900879,225.763672 69.9031199,210.948975 69.8445316,202.357012 C69.9031199,198.618652 68.8665643,193.290461 68.680195,189.224488 C68.5425392,186.221287 69.3231517,183.824261 69.0000026,183 C68.2393486,181.059789 68.0511015,187.641287 65.0000026,192 C61.9489037,196.358713 56.4885528,200.560645 51.0000026,203 C45.5114524,205.439355 45.5504255,205.03879 37.9999997,202 C32.8104628,199.911388 27.5323349,194.988718 23.6978276,190.666758 C21.0012722,187.627409 20.4401002,185.645829 19.9999997,185 C17.0304422,180.642298 13.284183,169.797401 10.020027,162.256349 C8.88205968,159.627348 9.48128849,157.155093 8.99999973,156 C7.69305558,152.863334 6.1031169,153.442238 4.39355469,150.70874 C2.68399247,147.975243 2.91678632,147.946158 2.99999999,146 C3.08321365,144.053842 3.49853516,140.09082 4.39355469,134.017578 C5.28857422,127.944336 10.7460852,120.329366 18,117 C23.7119141,116 30.4840715,117.8645 33,129 C35.5159285,140.1355 25.854248,140.42041 32,150 C32.5883789,152.036865 37.4551943,156.489691 39,159 C41.2767737,162.699757 37.1268896,164.621491 45,150 C52.8731104,135.378509 51.9349075,128.798283 60,120 C68.0650925,111.201717 82.2270212,111.808326 87.0000026,111 C89.8716556,110.513673 93.4527727,108.533534 94.9877956,108 C98.1475022,106.901768 99.1687295,104.558703 99.7382838,103.444336 C100.307838,102.329969 99.756732,103.507777 98.8599576,100.423886 Z" id="Path-5" fill="#4A4A4A"></path>
            <path d="M174.381592,221.860962 C174.381592,221.860962 177.623804,217.210165 177.381592,212.816914 C177.13938,208.423662 173.412091,204.276123 173.412091,204.276123 L174.149048,204.276123 L179.624268,208.716797 C179.624268,208.716797 181.706195,210.159242 183.42627,210.660537 C184.905335,211.091592 189,210.660536 189,210.660536 L181.231558,216.816913 L174.381592,221.860962 Z" id="Path-6" fill="#FFFFFF"></path>
        </g>
    </g>
</svg>