<?xml version="1.0" encoding="UTF-8" standalone="no"?>
<svg width="131px" height="105px" viewBox="0 0 131 105" version="1.1" xmlns="http://www.w3.org/2000/svg" xmlns:xlink="http://www.w3.org/1999/xlink" style="background: #FFFFFF;">
    <!-- Generator: Sketch 41.1 (35376) - http://www.bohemiancoding.com/sketch -->
    <title>babythumb</title>
    <desc>Created with Sketch.</desc>
    <defs></defs>
    <g id="Page-1" stroke="none" stroke-width="1" fill="none" fill-rule="evenodd">
        <g id="babythumb">
            <polygon id="Triangle-4" fill="#D8D8D8" transform="translate(100.236952, 42.111159) rotate(-79.000000) translate(-100.236952, -42.111159) " points="112.51437 -3.2711763 158.241119 82.1040648 42.232786 87.493495"></polygon>
            <path d="M32.9533192,33.4746286 C32.6543944,32.4466649 32.4014533,32.4759101 30.8226878,30.5117456 C29.2439222,28.5475812 24.8468383,24.5914314 24,18 C23.1531617,11.4085686 27.5653553,5.37783095 31,3 C34.4346447,0.622169053 36.7460937,1 40,1 C43.2539062,1 47.9856105,1.99848871 48.0000009,2 C48.0143912,2.00151129 49.8358575,2.81723499 51.4938394,3.75816208 C53.1518213,4.69908917 54.2088531,5.36708179 55.0000009,6 C55.7911486,6.63291821 57.4681203,9.13194296 58.262452,10.9191895 C59.0567838,12.7064359 59.0000009,13.8474121 59.0000009,14.6928711 C59.0000009,15.5383301 60.0000009,17.467918 60.0000009,19 C60.0000009,20.532082 59.0809778,20.0538391 59.0000009,22 C58.919024,23.9461609 59.1291079,24.812093 59.7087411,26 C60.2883743,27.187907 60.0370655,27.0695702 60.0629932,27.6616646 C60.088921,28.253759 59.9994436,29.3951187 60.0000009,30 C60.0005581,30.6048813 59.3795521,31.5901327 58.6216585,32.4993158 C57.8637649,33.4084989 56.6420303,34.6066264 56.3095712,35.6040039 C55.977112,36.6013814 55.3210532,36.5335129 54.4726571,37.3696289 C53.624261,38.2057449 53.9223299,38.435979 53.0000009,39 C52.0776718,39.564021 49.7295193,38.5864734 50.9414071,39.5290527 C52.1532949,40.4716321 52.6986522,39.6942601 54.7301327,39.8732594 C56.7616132,40.0522586 59.3566422,41.4398851 61.0000009,43 C62.6433595,44.5601149 62.8667001,45.1401367 63.8667001,46.1401367 C64.8667001,47.1401367 67.0000009,50 68.0000009,52 C69.0000009,54 68.2318179,54.0942073 68.5649423,55.0717773 C68.8980667,56.0493474 69.7072763,58.1660301 69.7072763,59.3769531 C69.7072763,60.5878761 69.2068795,63 69.0000009,65 C68.7931222,67 70.4249602,65.3453103 72.106663,65.6402658 C73.7883658,65.9352212 75.3828928,67.1771892 76.0000009,68 C76.617109,68.8228108 77.4295303,68.6262693 78,71 C78.5704697,73.3737307 78.0000007,74.3853353 78.0000009,76.3220215 C78.000001,78.2587077 78.0543296,79.9415017 77.0000009,84 C75.9456721,88.0584983 74.5943612,90.4333505 74.0000009,91.7194901 C73.4056406,93.0056296 72.7237408,92.9545663 72.4167489,93.9177246 C72.109757,94.8808829 72.7729749,94.8410818 73.0000009,95 C73.2270269,95.1589182 75.681332,96.2883329 76.6825913,97.3995156 C77.6838506,98.5106983 78.0649608,99.2035628 78.340577,100.375244 C78.6161932,101.546925 79.0282795,101.74108 78.0000009,103 C76.9717222,104.25892 78.1806741,103.350288 78.0000009,103.50293 C77.8193276,103.655572 76.7639472,103.889118 76.0000009,104.140137 C75.2360545,104.391155 74.4477141,104.084173 74.0000009,104.140137 C73.5522876,104.196101 70.7881339,103.149717 68.8512637,102.917418 C67.3020717,102.731615 66.0616024,103.703648 63.1703978,102.801189 C59.9111955,101.783863 61.2563945,100.270767 59.0000009,100 C47.7268851,98.6472261 36.9995072,99.0399803 36.0000009,99 C35.0004945,98.9600197 35.6017204,98.6884159 34.0000009,99 C32.3982813,99.3115841 30.7836731,100.130832 30.0000009,100 C29.2163286,99.8691679 29.0000009,100 29.0000009,100 C29.0000009,100 28.3821262,100.255779 27.0000009,101 C25.6178756,101.744221 27.8220372,102.294491 25.0000009,103 C22.1779645,103.705509 20.5872404,103 19.0000009,103 C17.4127613,103 13.7354092,103.05208 10.9999999,102 C8.2645906,100.94792 5.99999991,99 5.99999991,98 C5.99999991,97 7.15965067,95.9368737 6.99999991,95 C6.84034915,94.0631263 6.751887,93.22077 7.65597152,91.7194915 C8.56005604,90.2182129 9.65597152,88 10.9999999,88 C12.3440283,88 15.4197675,89.9032946 15.9999999,90 C16.5802324,90.0967054 16.2311709,89.5381809 17.0000009,89 C17.7688308,88.4618191 18.3528336,86.6907082 20.0000009,85 C22.3581296,82.5795369 24.3494058,81.3855151 24.0000009,78 C23.6505959,74.6144849 22.5808896,71.3731025 22.6148439,69.1190041 C22.6487981,66.8649057 23.2535522,61.6467371 23.0000009,61 C22.7464495,60.3532629 23.0170338,62.5470956 22.0000009,64 C20.9829679,65.4529044 18.8295176,67.1868815 17.0000009,68 C15.1704841,68.8131185 15.5168085,69.0129299 12.9999999,68 C10.4831913,66.9870701 7.53520868,63.7545243 5.99999991,62 C4.46479114,60.2454757 3.58973757,53.4153704 2.99999991,52 C2.41026225,50.5846296 2.16958661,52.4828038 0.999999996,50 C-0.169586614,47.5171962 2,45.075439 2,44 C2,42.924561 3.68243304,39.2575074 6,39 C8.31756696,38.7424926 10.1613572,39.2881668 11,43 C11.8386428,46.7118332 10.3218449,48.1611278 11,50 C11.7098117,51.9247116 12.4850648,52.1632303 13,53 C13.7589246,54.2332524 12.3756299,54.8738302 15,50 C17.6243701,45.1261698 17.3116358,42.9327609 20,40 C22.6883642,37.0672391 27.4090071,37.2694419 29.0000009,37 C29.9572185,36.8378909 31.1509242,36.1778447 31.6625985,36 C32.7158341,35.6339226 33.0562432,34.8529009 33.2460946,34.4814453 C33.435946,34.1099897 33.252244,34.5025923 32.9533192,33.4746286 Z" id="Path-5" fill="#4A4A4A" opacity="0.981926306"></path>
            <path d="M59.1271972,73.2869873 L59.1271972,72.2723045 L58.8271484,70.2201788 L57.8040305,68.092041 L58.0496826,68.092041 L59.8747559,69.5722656 C59.8747559,69.5722656 60.5687316,70.0530807 61.1420899,70.2201788 C61.6351117,70.3638639 63,70.2201788 63,70.2201788 L60.4105195,72.2723044 L59.1271972,73.2869873 Z" id="Path-6" fill="#FFFFFF"></path>
        </g>
    </g>
</svg>