<?xml version="1.0" encoding="UTF-8" standalone="no"?>
<svg width="131px" height="105px" viewBox="0 0 131 105" version="1.1" xmlns="http://www.w3.org/2000/svg" xmlns:xlink="http://www.w3.org/1999/xlink" style="background: #FFFFFF;">
    <!-- Generator: Sketch 39.1 (31720) - http://www.bohemiancoding.com/sketch -->
    <title>thumb</title>
    <desc>Created with Sketch.</desc>
    <defs></defs>
    <g id="Page-1" stroke="none" stroke-width="1" fill="none" fill-rule="evenodd">
        <g id="thumb">
            <polygon id="Triangle-4" fill="#D8D8D8" transform="translate(100.236952, 42.111159) rotate(-79.000000) translate(-100.236952, -42.111159) " points="112.51437 -3.2711763 158.241119 82.1040648 42.232786 87.493495"></polygon>
            <path d="M32.9533192,33.4746286 L32.3554696,31.4187012 L30.8226878,30.5117456 L28,26 C28,26 25.7659981,23.3440504 25,21 C24.1531617,18.4085686 25.775879,12.0170889 26,10 C26.2398195,7.84162419 31,3 31,3 C31,3 35.7460937,1 39,1 C39.9804164,1 41.6461093,1.164697 43.2799022,1.36041376 C45.6667999,1.64634711 47.9856105,1.99848871 48.0000009,2 C48.2574749,2.02704027 49.8358575,2.81723499 51.4938394,3.75816208 C52.8256651,4.5139911 54.2088531,5.36708179 55.0000009,6 C56.4645667,7.17165269 57.4681203,9.13194296 58.262452,10.9191895 C59.0567838,12.7064359 59.0000009,13.8474121 59.0000009,14.6928711 C59.0000009,15.5383301 60.0000009,17.467918 60.0000009,19 C60.0000009,20.532082 59.0000009,22 59.0000009,22 C59.0000009,22 59.1291079,24.812093 59.7087411,26 C59.9452215,26.4846457 60.0370655,27.0695702 60.0629932,27.6616646 C60.1006165,28.5208431 59.9994436,29.3951187 60.0000009,30 C60.000656,30.7111154 59.3795521,31.5901327 58.6216585,32.4993158 C57.6010812,33.723619 56.6420303,34.6066264 56.3095712,35.6040039 C56.2455973,35.7959255 55.3210532,36.5335129 54.4726571,37.3696289 C53.7035003,38.1276526 53.0000009,39 53.0000009,39 C53.0000009,39 49.7295193,38.5864734 50.9414071,39.5290527 C51.7996326,40.1965614 52.6986522,39.6942601 54.7301327,39.8732594 C56.931241,40.067205 59.3566422,41.4398851 61.0000009,43 C64.1600732,46 62.8667001,45.1401367 63.8667001,46.1401367 C64.8667001,47.1401367 67.0000009,50 68.0000009,52 C68.3945394,52.789077 68.2318179,54.0942073 68.5649423,55.0717773 C69.0761573,56.5719631 69.7072763,58.1660301 69.7072763,59.3769531 C69.7072763,61.3769531 69.2068795,63 69.0000009,65 C68.8930937,66.0335251 70.4249602,65.3453103 72.106663,65.6402658 C73.679265,65.916086 75.3828928,67.1771892 76.0000009,68 C76.6753134,68.9004167 78,71 78,71 C78,71 78.0000007,74.3853353 78.0000009,76.3220215 C78.000001,78.7186686 77.0000009,84 77.0000009,84 L74.0000009,91.7194901 C74.0000009,91.7194901 72.7237408,92.9545663 72.4167489,93.9177246 C72.2539898,94.4283661 72.7729749,94.8410818 73.0000009,95 C74.3426291,95.9398398 75.681332,96.2883329 76.6825913,97.3995156 C77.6785114,98.504773 78.340577,100.375244 78.340577,100.375244 C78.340577,100.375244 79.0282795,101.74108 78.0000009,103 C77.8578412,103.174046 78.1806741,103.350288 78.0000009,103.50293 C77.4759393,103.945684 76.7639472,103.889118 76.0000009,104.140137 C75.2501963,104.386508 74.4477141,104.084173 74.0000009,104.140137 C72.7626269,104.294808 70.7881339,103.149717 68.8512637,102.917418 C65.8814044,102.561226 63,103 63,103 C63,103 61.5108732,102.255436 61.0000009,102 C60.1775402,101.58877 59.0000009,100 59.0000009,100 L36.0000009,99 C36.0000009,99 35.6017204,98.6884159 34.0000009,99 C32.956016,99.2030874 30.7836731,100.130832 30.0000009,100 L29.0000009,100 C30.1061706,100 28.3821262,100.255779 27.0000009,101 C26.0745924,101.498297 25.0000009,103 25.0000009,103 L19.0000009,103 C15.9205737,103 10.9999999,102 10.9999999,102 C10.9999999,102 5.99999991,99 5.99999991,98 C5.99999991,97 7.15965067,95.9368737 6.99999991,95 C6.94476188,94.6758484 6.751887,93.22077 7.65597152,91.7194915 C8.70823794,89.9721494 10.8918523,88.1622214 10.9999999,88 C11.5308993,87.2036508 15.9999999,90 15.9999999,90 C15.9999999,90 16.2311709,89.5381809 17.0000009,89 C18.0546461,88.2617484 18.3528336,86.6907082 20.0000009,85 C22.3581296,82.5795369 26.0000009,80 26.0000009,80 C26.0000009,80 23.4502823,75.8011259 23.0000009,74 C22.6579568,72.6318234 23.5808896,70.3731025 23.6148439,68.1190041 C23.6685489,64.55372 23.0000009,61 23.0000009,61 C23.0000009,61 23.0170338,62.5470956 22.0000009,64 C20.6837008,65.8804289 17.0000009,68 17.0000009,68 C17.0000009,68 15.5168085,69.0129299 12.9999999,68 C10.3127924,66.9184904 7.53520868,63.7545243 5.99999991,62 C4.30640142,60.0644589 2.99999991,52 2.99999991,52 C2.99999991,52 2.16958661,52.4828038 0.999999996,50 C0.287639943,48.4877988 2,45.075439 2,44 C2,42.1744792 6,39 6,39 C6,39 10.1613572,39.2881668 11,43 C11.458004,45.0271259 10.3218449,48.1611278 11,50 C11.7098117,51.9247116 12.4850648,52.1632303 13,53 C13.7589246,54.2332524 15,50 15,50 C15,50 17.3116358,42.9327609 20,40 C20.9783025,38.9327609 26,37 26,37 C26,37 27.4090071,37.2694419 29.0000009,37 C29.9572185,36.8378909 31.1509242,36.1778447 31.6625985,36 C32.7158341,35.6339226 33.2460946,34.4814453 33.2460946,34.4814453 L32.9533192,33.4746286 Z" id="Path-5" fill="#4A4A4A" opacity="0.981926306"></path>
            <path d="M59.1271972,73.2869873 L59.1271972,72.2723045 L58.8271484,70.2201788 L57.8040305,68.092041 L58.0496826,68.092041 L59.8747559,69.5722656 C59.8747559,69.5722656 60.5687316,70.0530807 61.1420899,70.2201788 C61.6351117,70.3638639 63,70.2201788 63,70.2201788 L60.4105195,72.2723044 L59.1271972,73.2869873 Z" id="Path-6" fill="#FFFFFF"></path>
        </g>
    </g>
</svg>