<?xml version="1.0" encoding="UTF-8" standalone="no"?>
<svg width="650px" height="483px" viewBox="0 0 650 483" version="1.1" xmlns="http://www.w3.org/2000/svg" xmlns:xlink="http://www.w3.org/1999/xlink" style="background: #FFFFFF;">
    <!-- Generator: Sketch 39.1 (31720) - http://www.bohemiancoding.com/sketch -->
    <title>big copy</title>
    <desc>Created with Sketch.</desc>
    <defs></defs>
    <g id="thumb" stroke="none" stroke-width="1" fill="none" fill-rule="evenodd">
        <g id="big-copy">
            <g id="Group-4" transform="translate(0.000000, 354.000000)">
                <polyline id="Rectangle-109-Copy-5" fill="#FF4000" points="63.7037037 63.7037037 7.54403398e-15 63.7037037 0 7.54403398e-15 63.7037037 0 63.7037037 63.7037037"></polyline>
                <polyline id="Rectangle-109-Copy-6" fill="#FFC000" points="129 129 65.2962963 129 65.2962963 65.2962963 129 65.2962963 129 129"></polyline>
                <polyline id="Rectangle-109-Copy-11" fill="#00CCCC" points="129 63.7037037 65.2962963 63.7037037 65.2962963 7.54403398e-15 129 0 129 63.7037037"></polyline>
                <polyline id="Rectangle-109-Copy-7" fill="#8000FF" points="63.7037037 129 7.54403398e-15 129 0 65.2962963 63.7037037 65.2962963 63.7037037 129"></polyline>
            </g>
            <g id="Group-2">
                <polyline id="Rectangle-109-Copy-5" fill="#00EE40" points="63.2098765 63.7037037 7.4855531e-15 63.7037037 0 7.54403398e-15 63.2098765 0 63.2098765 63.7037037"></polyline>
                <polyline id="Rectangle-109-Copy-6" fill="#0080FF" points="128 129 64.7901235 129 64.7901235 65.2962963 128 65.2962963 128 129"></polyline>
                <polyline id="Rectangle-109-Copy-11" fill="#00CCCC" points="128.209877 63.7037037 65 63.7037037 65 7.54403398e-15 128.209877 0 128.209877 63.7037037"></polyline>
                <polyline id="Rectangle-109-Copy-7" fill="#0000FF" points="63.2098765 129 7.4855531e-15 129 0 65.2962963 63.2098765 65.2962963 63.2098765 129"></polyline>
            </g>
            <g id="Group-2" transform="translate(173.000000, 177.000000)">
                <polyline id="Rectangle-109-Copy-5" fill="#E900AF" points="63.2098765 63.7037037 7.4855531e-15 63.7037037 0 7.54403398e-15 63.2098765 0 63.2098765 63.7037037"></polyline>
                <polyline id="Rectangle-109-Copy-6" fill="#AB00E3" points="128 129 64.7901235 129 64.7901235 65.2962963 128 65.2962963 128 129"></polyline>
                <polyline id="Rectangle-109-Copy-11" fill="#EF00EF" points="128.209877 63.7037037 65 63.7037037 65 7.54403398e-15 128.209877 0 128.209877 63.7037037"></polyline>
                <polyline id="Rectangle-109-Copy-7" fill="#7100E1" points="63.2098765 129 7.4855531e-15 129 0 65.2962963 63.2098765 65.2962963 63.2098765 129"></polyline>
            </g>
            <g id="Group-2" transform="translate(348.000000, 174.000000)">
                <polyline id="Rectangle-109-Copy-5" fill="#C000FF" points="63.2098765 63.7037037 7.4855531e-15 63.7037037 0 7.54403398e-15 63.2098765 0 63.2098765 63.7037037"></polyline>
                <polyline id="Rectangle-109-Copy-6" fill="#00FFC0" points="128 129 64.7901235 129 64.7901235 65.2962963 128 65.2962963 128 129"></polyline>
                <polyline id="Rectangle-109-Copy-11" fill="#FF0040" points="128.209877 63.7037037 65 63.7037037 65 7.54403398e-15 128.209877 0 128.209877 63.7037037"></polyline>
                <polyline id="Rectangle-109-Copy-7" fill="#40FF00" points="63.2098765 129 7.4855531e-15 129 0 65.2962963 63.2098765 65.2962963 63.2098765 129"></polyline>
            </g>
            <g id="Group-2" transform="translate(349.000000, 0.000000)">
                <polyline id="Rectangle-109-Copy-5" fill="#0040FF" points="63.2098765 63.2099991 7.4855531e-15 63.2099991 0 7.48556761e-15 63.2098765 0 63.2098765 63.2099991"></polyline>
                <polyline id="Rectangle-109-Copy-6" fill="#00C0FF" points="128 128.024814 64.7901235 128.024814 64.7901235 64.8148148 128 64.8148148 128 128.024814"></polyline>
                <polyline id="Rectangle-109-Copy-11" fill="#0080FF" points="128.209877 63.2099991 65 63.2099991 65 7.48556761e-15 128.209877 0 128.209877 63.2099991"></polyline>
                <polyline id="Rectangle-109-Copy-7" fill="#00FFFF" points="63.2098765 128.024814 7.4855531e-15 128.024814 0 64.8148148 63.2098765 64.8148148 63.2098765 128.024814"></polyline>
            </g>
            <g id="Group-2" transform="translate(0.000000, 177.000000)">
                <polyline id="Rectangle-109-Copy-5" fill="#0000FF" points="63.2098765 63.7037037 7.4855531e-15 63.7037037 0 7.54403398e-15 63.2098765 0 63.2098765 63.7037037"></polyline>
                <polyline id="Rectangle-109-Copy-6" fill="#FFFF00" points="128 129 64.7901235 129 64.7901235 65.2962963 128 65.2962963 128 129"></polyline>
                <polyline id="Rectangle-109-Copy-11" fill="#FF0000" points="128.209877 63.7037037 65 63.7037037 65 7.54403398e-15 128.209877 0 128.209877 63.7037037"></polyline>
                <polyline id="Rectangle-109-Copy-7" fill="#00FFFF" points="63.2098765 129 7.4855531e-15 129 0 65.2962963 63.2098765 65.2962963 63.2098765 129"></polyline>
            </g>
            <g id="Group-3" transform="translate(521.000000, 354.000000)">
                <polyline id="Rectangle-109-Copy-5" fill="#FF0080" points="63.7037037 63.7037037 7.54403398e-15 63.7037037 0 7.54403398e-15 63.7037037 0 63.7037037 63.7037037"></polyline>
                <polyline id="Rectangle-109-Copy-6" fill="#FF8000" points="129 129 65.2962963 129 65.2962963 65.2962963 129 65.2962963 129 129"></polyline>
                <polyline id="Rectangle-109-Copy-11" fill="#0080FF" points="129 63.7037037 65.2962963 63.7037037 65.2962963 7.54403398e-15 129 0 129 63.7037037"></polyline>
                <polyline id="Rectangle-109-Copy-7" fill="#00FF80" points="63.7037037 129 7.54403398e-15 129 0 65.2962963 63.7037037 65.2962963 63.7037037 129"></polyline>
            </g>
            <g id="Group-5" transform="translate(521.000000, 0.000000)">
                <polyline id="Rectangle-109-Copy-5" fill="#FF0040" points="63.7037037 63.7037037 7.54403398e-15 63.7037037 0 7.54403398e-15 63.7037037 0 63.7037037 63.7037037"></polyline>
                <polyline id="Rectangle-109-Copy-6" fill="#FF6000" points="129 129 65.2962963 129 65.2962963 65.2962963 129 65.2962963 129 129"></polyline>
                <polyline id="Rectangle-109-Copy-11" fill="#40FF00" points="129 63.7037037 65.2962963 63.7037037 65.2962963 7.54403398e-15 129 0 129 63.7037037"></polyline>
                <polyline id="Rectangle-109-Copy-7" fill="#0080FF" points="63.7037037 129 7.54403398e-15 129 0 65.2962963 63.7037037 65.2962963 63.7037037 129"></polyline>
            </g>
            <g id="Group-5" transform="translate(413.500000, 418.500000) rotate(180.000000) translate(-413.500000, -418.500000) translate(349.000000, 354.000000)">
                <polyline id="Rectangle-109-Copy-5" fill="#FF00C0" points="63.7037037 63.7037037 7.54403398e-15 63.7037037 0 7.54403398e-15 63.7037037 0 63.7037037 63.7037037"></polyline>
                <polyline id="Rectangle-109-Copy-6" fill="#00FF40" points="129 129 65.2962963 129 65.2962963 65.2962963 129 65.2962963 129 129"></polyline>
                <polyline id="Rectangle-109-Copy-11" fill="#FF4000" points="129 63.7037037 65.2962963 63.7037037 65.2962963 7.54403398e-15 129 0 129 63.7037037"></polyline>
                <polyline id="Rectangle-109-Copy-7" fill="#00C0FF" points="63.7037037 129 7.54403398e-15 129 0 65.2962963 63.7037037 65.2962963 63.7037037 129"></polyline>
            </g>
            <g id="Group-4" transform="translate(237.500000, 64.500000) rotate(270.000000) translate(-237.500000, -64.500000) translate(173.000000, 0.000000)">
                <polyline id="Rectangle-109-Copy-5" fill="#FF4000" points="63.7037037 63.7037037 7.54403398e-15 63.7037037 0 7.54403398e-15 63.7037037 0 63.7037037 63.7037037"></polyline>
                <polyline id="Rectangle-109-Copy-6" fill="#00C0FF" points="129 129 65.2962963 129 65.2962963 65.2962963 129 65.2962963 129 129"></polyline>
                <polyline id="Rectangle-109-Copy-11" fill="#C0FF00" points="129 63.7037037 65.2962963 63.7037037 65.2962963 3.6187788e-14 129 2.8643754e-14 129 63.7037037"></polyline>
                <polyline id="Rectangle-109-Copy-7" fill="#4000FF" points="63.7037037 129 -4.97434741e-14 129 -5.72875081e-14 65.2962963 63.7037037 65.2962963 63.7037037 129"></polyline>
            </g>
            <g id="Group-3" transform="translate(521.000000, 177.000000)">
                <polyline id="Rectangle-109-Copy-5" fill="#FF2000" points="63.7037037 63.7037037 7.54403398e-15 63.7037037 0 7.54403398e-15 63.7037037 0 63.7037037 63.7037037"></polyline>
                <polyline id="Rectangle-109-Copy-6" fill="#FFA000" points="129 129 65.2962963 129 65.2962963 65.2962963 129 65.2962963 129 129"></polyline>
                <polyline id="Rectangle-109-Copy-11" fill="#FF6000" points="129 63.7037037 65.2962963 63.7037037 65.2962963 7.54403398e-15 129 0 129 63.7037037"></polyline>
                <polyline id="Rectangle-109-Copy-7" fill="#FF8000" points="63.7037037 129 7.54403398e-15 129 0 65.2962963 63.7037037 65.2962963 63.7037037 129"></polyline>
            </g>
            <g id="Group-5" transform="translate(173.000000, 354.000000)">
                <polyline id="Rectangle-109-Copy-5" fill="#00FF40" points="63.7037037 63.7037037 7.54403398e-15 63.7037037 0 7.54403398e-15 63.7037037 0 63.7037037 63.7037037"></polyline>
                <polyline id="Rectangle-109-Copy-6" fill="#00FFC0" points="129 129 65.2962963 129 65.2962963 65.2962963 129 65.2962963 129 129"></polyline>
                <polyline id="Rectangle-109-Copy-11" fill="#00FF80" points="129 63.7037037 65.2962963 63.7037037 65.2962963 7.54403398e-15 129 0 129 63.7037037"></polyline>
                <polyline id="Rectangle-109-Copy-7" fill="#00FFFF" points="63.7037037 129 7.54403398e-15 129 0 65.2962963 63.7037037 65.2962963 63.7037037 129"></polyline>
            </g>
        </g>
    </g>
</svg>