<?xml version="1.0" encoding="UTF-8" standalone="no"?>
<svg width="650px" height="400px" viewBox="0 0 650 400" version="1.1" xmlns="http://www.w3.org/2000/svg" xmlns:xlink="http://www.w3.org/1999/xlink" style="background: #FFFFFF;">
    <!-- Generator: Sketch 39.1 (31720) - http://www.bohemiancoding.com/sketch -->
    <title>big1</title>
    <desc>Created with Sketch.</desc>
    <defs></defs>
    <g id="thumb" stroke="none" stroke-width="1" fill="none" fill-rule="evenodd">
        <g id="big1">
            <g id="printwheel" transform="translate(153.000000, 28.000000)">
                <g id="165" transform="translate(172.264774, 171.957911) rotate(-195.000000) translate(-172.264774, -171.957911) translate(150.525337, 0.063174)">
                    <path d="M21.4959128,180.325547 L-6.00804914e-13,341.030818 C-6.00804914e-13,341.030818 4.67302452,343.372702 21.4959128,343.372702 C38.3188011,343.372702 42.9918256,341.030812 42.9918256,341.030812 L21.4959128,180.325547 L21.4959128,180.325547 Z" id="Triangle-2-Copy-2" fill="#FF0040" transform="translate(21.495913, 261.849125) rotate(180.000000) translate(-21.495913, -261.849125) "></path>
                    <path d="M21.4959128,6.02052385e-06 L42.9918256,160.705277 C42.9918256,160.705277 38.3188011,163.047161 21.4959128,163.047161 C4.67302452,163.047161 1.4331677e-12,160.705271 1.4331677e-12,160.705271 L21.4959128,6.02052385e-06 Z" id="Triangle-2" fill="#40FF00" transform="translate(21.495913, 81.523583) scale(1, -1) rotate(180.000000) translate(-21.495913, -81.523583) "></path>
                </g>
                <g id="150" transform="translate(172.289102, 172.016779) rotate(-210.000000) translate(-172.289102, -172.016779) translate(150.549666, 0.122042)">
                    <path d="M21.4959128,180.325547 L9.44035085e-13,341.030818 C9.44035085e-13,341.030818 4.67302452,343.372702 21.4959128,343.372702 C38.3188011,343.372702 42.9918256,341.030812 42.9918256,341.030812 L21.4959128,180.325547 L21.4959128,180.325547 Z" id="Triangle-2-Copy-2" fill="#FF0080" transform="translate(21.495913, 261.849125) rotate(180.000000) translate(-21.495913, -261.849125) "></path>
                    <path d="M21.4959128,6.02052447e-06 L42.9918256,160.705277 C42.9918256,160.705277 38.3188011,163.047161 21.4959128,163.047161 C4.67302452,163.047161 4.54902469e-13,160.705271 4.54902469e-13,160.705271 L21.4959128,6.02052447e-06 Z" id="Triangle-2" fill="#80FF00" transform="translate(21.495913, 81.523583) scale(1, -1) rotate(180.000000) translate(-21.495913, -81.523583) "></path>
                </g>
                <g id="135" transform="translate(172.327803, 172.067331) rotate(-225.000000) translate(-172.327803, -172.067331) translate(150.588366, 0.172594)">
                    <path d="M21.4959128,180.325547 L-9.69603615e-13,341.030818 C-9.69603615e-13,341.030818 4.67302452,343.372702 21.4959128,343.372702 C38.3188011,343.372702 42.9918256,341.030812 42.9918256,341.030812 L21.4959128,180.325547 L21.4959128,180.325547 Z" id="Triangle-2-Copy-2" fill="#FF00C0" transform="translate(21.495913, 261.849125) rotate(180.000000) translate(-21.495913, -261.849125) "></path>
                    <path d="M21.4959128,6.02052488e-06 L42.9918256,160.705277 C42.9918256,160.705277 38.3188011,163.047161 21.4959128,163.047161 C4.67302452,163.047161 -1.19288416e-12,160.705271 -1.19288416e-12,160.705271 L21.4959128,6.02052488e-06 Z" id="Triangle-2" fill="#C0FF00" transform="translate(21.495913, 81.523583) scale(1, -1) rotate(180.000000) translate(-21.495913, -81.523583) "></path>
                </g>
                <g id="120" transform="translate(172.378238, 172.106120) rotate(-240.000000) translate(-172.378238, -172.106120) translate(150.638801, 0.211383)">
                    <path d="M21.4959128,180.325547 L2.23184476e-13,341.030818 C2.23184476e-13,341.030818 4.67302452,343.372702 21.4959128,343.372702 C38.3188011,343.372702 42.9918256,341.030812 42.9918256,341.030812 L21.4959128,180.325547 L21.4959128,180.325547 Z" id="Triangle-2-Copy-2" fill="#FF00FF" transform="translate(21.495913, 261.849125) rotate(180.000000) translate(-21.495913, -261.849125) "></path>
                    <path d="M21.4959128,6.02052509e-06 L42.9918256,160.705277 C42.9918256,160.705277 38.3188011,163.047161 21.4959128,163.047161 C4.67302452,163.047161 2.14674976e-13,160.705271 2.14674976e-13,160.705271 L21.4959128,6.02052509e-06 Z" id="Triangle-2" fill="#FFFF00" transform="translate(21.495913, 81.523583) scale(1, -1) rotate(180.000000) translate(-21.495913, -81.523583) "></path>
                </g>
                <g id="105" transform="translate(172.436971, 172.130504) rotate(-255.000000) translate(-172.436971, -172.130504) translate(150.697535, 0.235767)">
                    <path d="M21.4959128,180.325547 L-3.60613448e-13,341.030818 C-3.60613448e-13,341.030818 4.67302452,343.372702 21.4959128,343.372702 C38.3188011,343.372702 42.9918256,341.030812 42.9918256,341.030812 L21.4959128,180.325547 L21.4959128,180.325547 Z" id="Triangle-2-Copy-2" fill="#C000FF" transform="translate(21.495913, 261.849125) rotate(180.000000) translate(-21.495913, -261.849125) "></path>
                    <path d="M21.4959128,6.02052505e-06 L42.9918256,160.705277 C42.9918256,160.705277 38.3188011,163.047161 21.4959128,163.047161 C4.67302452,163.047161 -5.0632775e-13,160.705271 -5.0632775e-13,160.705271 L21.4959128,6.02052505e-06 Z" id="Triangle-2" fill="#FFE000" transform="translate(21.495913, 81.523583) scale(1, -1) rotate(180.000000) translate(-21.495913, -81.523583) "></path>
                </g>
                <g id="90" transform="translate(172.500000, 172.138821) rotate(-270.000000) translate(-172.500000, -172.138821) translate(150.760563, 0.244084)">
                    <path d="M21.4959128,180.325547 L1.20365939e-13,341.030818 C1.20365939e-13,341.030818 4.67302452,343.372702 21.4959128,343.372702 C38.3188011,343.372702 42.9918256,341.030812 42.9918256,341.030812 L21.4959128,180.325547 L21.4959128,180.325547 Z" id="Triangle-2-Copy-2" fill="#8000FF" transform="translate(21.495913, 261.849125) rotate(180.000000) translate(-21.495913, -261.849125) "></path>
                    <path d="M21.4959128,6.02052498e-06 L42.9918256,160.705277 C42.9918256,160.705277 38.3188011,163.047161 21.4959128,163.047161 C4.67302452,163.047161 9.45732381e-14,160.705271 9.45732381e-14,160.705271 L21.4959128,6.02052498e-06 Z" id="Triangle-2" fill="#FFC000" transform="translate(21.495913, 81.523583) scale(1, -1) rotate(180.000000) translate(-21.495913, -81.523583) "></path>
                </g>
                <g id="75" transform="translate(172.563029, 172.130504) rotate(-285.000000) translate(-172.563029, -172.130504) translate(150.823592, 0.235767)">
                    <path d="M21.4959128,180.325547 L-5.66350597e-13,341.030818 C-5.66350597e-13,341.030818 4.67302452,343.372702 21.4959128,343.372702 C38.3188011,343.372702 42.9918256,341.030812 42.9918256,341.030812 L21.4959128,180.325547 L21.4959128,180.325547 Z" id="Triangle-2-Copy-2" fill="#4000FF" transform="translate(21.495913, 261.849125) rotate(180.000000) translate(-21.495913, -261.849125) "></path>
                    <path d="M21.4959128,6.02052409e-06 L42.9918256,160.705277 C42.9918256,160.705277 38.3188011,163.047161 21.4959128,163.047161 C4.67302452,163.047161 -3.91312497e-12,160.705271 -3.91312497e-12,160.705271 L21.4959128,6.02052409e-06 Z" id="Triangle-2" fill="#FFA000" transform="translate(21.495913, 81.523583) scale(1, -1) rotate(180.000000) translate(-21.495913, -81.523583) "></path>
                </g>
                <g id="60" transform="translate(172.621762, 172.106120) rotate(-300.000000) translate(-172.621762, -172.106120) translate(150.882325, 0.211383)">
                    <path d="M21.4959128,180.325547 L2.0634161e-13,341.030818 C2.0634161e-13,341.030818 4.67302452,343.372702 21.4959128,343.372702 C38.3188011,343.372702 42.9918256,341.030812 42.9918256,341.030812 L21.4959128,180.325547 L21.4959128,180.325547 Z" id="Triangle-2-Copy-2" fill="#0000FF" transform="translate(21.495913, 261.849125) rotate(180.000000) translate(-21.495913, -261.849125) "></path>
                    <path d="M21.4959128,6.02052433e-06 L42.9918256,160.705277 C42.9918256,160.705277 38.3188011,163.047161 21.4959128,163.047161 C4.67302452,163.047161 2.06033375e-13,160.705271 2.06033375e-13,160.705271 L21.4959128,6.02052433e-06 Z" id="Triangle-2" fill="#FF8000" transform="translate(21.495913, 81.523583) scale(1, -1) rotate(180.000000) translate(-21.495913, -81.523583) "></path>
                </g>
                <g id="45" transform="translate(172.672197, 172.067331) rotate(-315.000000) translate(-172.672197, -172.067331) translate(150.932761, 0.172594)">
                    <path d="M21.4959128,180.325547 L-3.43902684e-14,341.030818 C-3.43902684e-14,341.030818 4.67302452,343.372702 21.4959128,343.372702 C38.3188011,343.372702 42.9918256,341.030812 42.9918256,341.030812 L21.4959128,180.325547 L21.4959128,180.325547 Z" id="Triangle-2-Copy-2" fill="#0080FF" transform="translate(21.495913, 261.849125) rotate(180.000000) translate(-21.495913, -261.849125) "></path>
                    <path d="M21.4959128,6.02052543e-06 L42.9918256,160.705277 C42.9918256,160.705277 38.3188011,163.047161 21.4959128,163.047161 C4.67302452,163.047161 5.74948164e-13,160.705271 5.74948164e-13,160.705271 L21.4959128,6.02052543e-06 Z" id="Triangle-2" fill="#FF6000" transform="translate(21.495913, 81.523583) scale(1, -1) rotate(180.000000) translate(-21.495913, -81.523583) "></path>
                </g>
                <g id="30" transform="translate(172.710898, 172.016779) rotate(-330.000000) translate(-172.710898, -172.016779) translate(150.971461, 0.122042)">
                    <path d="M21.4959128,180.325547 L-2.0634161e-13,341.030818 C-2.0634161e-13,341.030818 4.67302452,343.372702 21.4959128,343.372702 C38.3188011,343.372702 42.9918256,341.030812 42.9918256,341.030812 L21.4959128,180.325547 L21.4959128,180.325547 Z" id="Triangle-2-Copy-2" fill="#00CCCC" transform="translate(21.495913, 261.849125) rotate(180.000000) translate(-21.495913, -261.849125) "></path>
                    <path d="M21.4959128,6.02052486e-06 L42.9918256,160.705277 C42.9918256,160.705277 38.3188011,163.047161 21.4959128,163.047161 C4.67302452,163.047161 6.01829697e-14,160.705271 6.01829697e-14,160.705271 L21.4959128,6.02052486e-06 Z" id="Triangle-2" fill="#FF4000" transform="translate(21.495913, 81.523583) scale(1, -1) rotate(180.000000) translate(-21.495913, -81.523583) "></path>
                </g>
                <g id="15" transform="translate(172.735226, 171.957911) rotate(-345.000000) translate(-172.735226, -171.957911) translate(150.995789, 0.063174)">
                    <path d="M21.4959128,180.325547 L-4.12242885e-13,341.030818 C-4.12242885e-13,341.030818 4.67302452,343.372702 21.4959128,343.372702 C38.3188011,343.372702 42.9918256,341.030812 42.9918256,341.030812 L21.4959128,180.325547 L21.4959128,180.325547 Z" id="Triangle-2-Copy-2" fill="#00EE40" transform="translate(21.495913, 261.849125) rotate(180.000000) translate(-21.495913, -261.849125) "></path>
                    <path d="M21.4959128,6.02052541e-06 L42.9918256,160.705277 C42.9918256,160.705277 38.3188011,163.047161 21.4959128,163.047161 C4.67302452,163.047161 1.46158641e-13,160.705271 1.46158641e-13,160.705271 L21.4959128,6.02052541e-06 Z" id="Triangle-2" fill="#FF2000" transform="translate(21.495913, 81.523583) scale(1, -1) rotate(180.000000) translate(-21.495913, -81.523583) "></path>
                </g>
                <g id="straight-wings" transform="translate(151.004087, 0.000000)">
                    <path d="M21.4959128,180.325547 L0,341.030818 C0,341.030818 4.67302452,343.372702 21.4959128,343.372702 C38.3188011,343.372702 42.9918256,341.030812 42.9918256,341.030812 L21.4959128,180.325547 L21.4959128,180.325547 Z" id="Triangle-2-Copy-2" fill="#00FF00" transform="translate(21.495913, 261.849125) rotate(180.000000) translate(-21.495913, -261.849125) "></path>
                    <path d="M21.4959128,6.02052529e-06 L42.9918256,160.705277 C42.9918256,160.705277 38.3188011,163.047161 21.4959128,163.047161 C4.67302452,163.047161 0,160.705271 0,160.705271 L21.4959128,6.02052529e-06 Z" id="Triangle-2" fill="#FF0000" transform="translate(21.495913, 81.523583) scale(1, -1) rotate(180.000000) translate(-21.495913, -81.523583) "></path>
                </g>
            </g>
            <g id="Group-4" transform="translate(1.000000, 271.000000)">
                <polyline id="Rectangle-109-Copy-5" fill="#FF4000" points="63.2098765 63.2098765 7.4855531e-15 63.2098765 0 7.4855531e-15 63.2098765 0 63.2098765 63.2098765"></polyline>
                <polyline id="Rectangle-109-Copy-6" fill="#FFC000" points="128 128 64.7901235 128 64.7901235 64.7901235 128 64.7901235 128 128"></polyline>
                <polyline id="Rectangle-109-Copy-11" fill="#00CCCC" points="128 63.2098765 64.7901235 63.2098765 64.7901235 7.4855531e-15 128 0 128 63.2098765"></polyline>
                <polyline id="Rectangle-109-Copy-7" fill="#8000FF" points="63.2098765 128 7.4855531e-15 128 0 64.7901235 63.2098765 64.7901235 63.2098765 128"></polyline>
            </g>
            <g id="Group-2" transform="translate(1.000000, 1.000000)">
                <polyline id="Rectangle-109-Copy-5" fill="#00EE40" points="63.2098765 63.2098765 7.4855531e-15 63.2098765 0 7.4855531e-15 63.2098765 0 63.2098765 63.2098765"></polyline>
                <polyline id="Rectangle-109-Copy-6" fill="#0080FF" points="128 128 64.7901235 128 64.7901235 64.7901235 128 64.7901235 128 128"></polyline>
                <polyline id="Rectangle-109-Copy-11" fill="#00CCCC" points="128 63.2098765 64.7901235 63.2098765 64.7901235 7.4855531e-15 128 0 128 63.2098765"></polyline>
                <polyline id="Rectangle-109-Copy-7" fill="#0000FF" points="63.2098765 128 7.4855531e-15 128 0 64.7901235 63.2098765 64.7901235 63.2098765 128"></polyline>
            </g>
            <g id="Group-3" transform="translate(521.000000, 271.000000)">
                <polyline id="Rectangle-109-Copy-5" fill="#FF2000" points="63.2098765 63.2098765 7.4855531e-15 63.2098765 0 7.4855531e-15 63.2098765 0 63.2098765 63.2098765"></polyline>
                <polyline id="Rectangle-109-Copy-6" fill="#FFA000" points="128 128 64.7901235 128 64.7901235 64.7901235 128 64.7901235 128 128"></polyline>
                <polyline id="Rectangle-109-Copy-11" fill="#FF6000" points="128 63.2098765 64.7901235 63.2098765 64.7901235 7.4855531e-15 128 0 128 63.2098765"></polyline>
                <polyline id="Rectangle-109-Copy-7" fill="#FF8000" points="63.2098765 128 7.4855531e-15 128 0 64.7901235 63.2098765 64.7901235 63.2098765 128"></polyline>
            </g>
            <g id="Group-5" transform="translate(521.000000, 1.000000)">
                <polyline id="Rectangle-109-Copy-5" fill="#FF0040" points="63.2098765 63.2098765 7.4855531e-15 63.2098765 0 7.4855531e-15 63.2098765 0 63.2098765 63.2098765"></polyline>
                <polyline id="Rectangle-109-Copy-6" fill="#FF6000" points="128 128 64.7901235 128 64.7901235 64.7901235 128 64.7901235 128 128"></polyline>
                <polyline id="Rectangle-109-Copy-11" fill="#40FF00" points="128 63.2098765 64.7901235 63.2098765 64.7901235 7.4855531e-15 128 0 128 63.2098765"></polyline>
                <polyline id="Rectangle-109-Copy-7" fill="#0080FF" points="63.2098765 128 7.4855531e-15 128 0 64.7901235 63.2098765 64.7901235 63.2098765 128"></polyline>
            </g>
        </g>
    </g>
</svg>