<?xml version="1.0" encoding="UTF-8" standalone="no"?>
<svg width="443px" height="387px" viewBox="0 0 443 387" version="1.1" xmlns="http://www.w3.org/2000/svg" xmlns:xlink="http://www.w3.org/1999/xlink" style="background: #FFFFFF;">
    <!-- Generator: Sketch 39.1 (31720) - http://www.bohemiancoding.com/sketch -->
    <title>big1</title>
    <desc>Created with Sketch.</desc>
    <defs></defs>
    <g id="thumb" stroke="none" stroke-width="1" fill="none" fill-rule="evenodd">
        <g id="big1">
            <g id="Google" transform="translate(4.160000, 92.800000)">
                <path d="M0.0399998093,2.6 L110.239997,2.6 L110.239997,147.94 L0.0399998093,147.94 L0.0399998093,2.6 Z M19.1442105,46.4792701 L19.1442105,45.689781 L19.9320301,45.689781 L19.9320301,44.900292 L20.7198496,44.900292 L20.7198496,44.1108029 L21.5076692,44.1108029 L21.5076692,43.3213139 L22.2954887,43.3213139 L22.2954887,42.5318248 L23.8711278,42.5318248 L23.8711278,41.7423358 L24.6589474,41.7423358 L24.6589474,40.9528467 L25.4467669,40.9528467 L25.4467669,40.1633577 L27.022406,40.1633577 L27.022406,39.3738686 L27.8102256,39.3738686 L27.8102256,38.5843796 L29.3858647,38.5843796 L29.3858647,37.7948905 L30.9615038,37.7948905 L30.9615038,37.0054015 L31.7493233,37.0054015 L31.7493233,36.2159124 L33.3249624,36.2159124 L33.3249624,35.4264234 L34.9006015,35.4264234 L34.9006015,34.6369343 L37.2640602,34.6369343 L37.2640602,33.8474453 L38.8396992,33.8474453 L38.8396992,33.0579562 L41.2031579,33.0579562 L41.2031579,32.2684672 L44.3544361,32.2684672 L44.3544361,31.4789781 L48.2935338,31.4789781 L48.2935338,30.6894891 L55.3839098,30.6894891 L55.3839098,29.9 L60.1108271,29.9 L60.1108271,30.6894891 L67.201203,30.6894891 L67.201203,31.4789781 L71.1403008,31.4789781 L71.1403008,32.2684672 L73.5037594,32.2684672 L73.5037594,33.0579562 L75.867218,33.0579562 L75.867218,33.8474453 L78.2306767,33.8474453 L78.2306767,34.6369343 L79.8063158,34.6369343 L79.8063158,35.4264234 L81.3819549,35.4264234 L81.3819549,36.2159124 L82.957594,36.2159124 L82.957594,37.0054015 L84.5332331,37.0054015 L84.5332331,37.7948905 L85.3210526,37.7948905 L85.3210526,38.5843796 L86.8966917,38.5843796 L86.8966917,39.3738686 L87.6845113,39.3738686 L87.6845113,40.1633577 L89.2601504,40.1633577 L89.2601504,40.9528467 L90.0479699,40.9528467 L90.0479699,41.7423358 L90.8357895,41.7423358 L90.8357895,42.5318248 L91.623609,42.5318248 L91.623609,43.3213139 L92.4114286,43.3213139 L92.4114286,44.1108029 L93.1992481,44.1108029 L93.1992481,45.689781 L92.4114286,45.689781 L92.4114286,46.4792701 L91.623609,46.4792701 L91.623609,47.2687591 L90.8357895,47.2687591 L90.8357895,48.0582482 L90.0479699,48.0582482 L90.0479699,48.8477372 L89.2601504,48.8477372 L89.2601504,49.6372263 L88.4723308,49.6372263 L88.4723308,50.4267153 L87.6845113,50.4267153 L87.6845113,51.2162044 L86.8966917,51.2162044 L86.8966917,52.0056934 L86.1088722,52.0056934 L86.1088722,52.7951825 L85.3210526,52.7951825 L85.3210526,53.5846715 L84.5332331,53.5846715 L84.5332331,54.3741606 L83.7454135,54.3741606 L83.7454135,53.5846715 L82.1697744,53.5846715 L82.1697744,52.7951825 L81.3819549,52.7951825 L81.3819549,52.0056934 L80.5941353,52.0056934 L80.5941353,51.2162044 L79.0184962,51.2162044 L79.0184962,50.4267153 L78.2306767,50.4267153 L78.2306767,49.6372263 L76.6550376,49.6372263 L76.6550376,48.8477372 L75.0793985,48.8477372 L75.0793985,48.0582482 L73.5037594,48.0582482 L73.5037594,47.2687591 L71.9281203,47.2687591 L71.9281203,46.4792701 L69.5646617,46.4792701 L69.5646617,45.689781 L66.4133835,45.689781 L66.4133835,44.900292 L61.6864662,44.900292 L61.6864662,44.1108029 L53.8082707,44.1108029 L53.8082707,44.900292 L48.2935338,44.900292 L48.2935338,45.689781 L45.1422556,45.689781 L45.1422556,46.4792701 L43.5666165,46.4792701 L43.5666165,47.2687591 L41.2031579,47.2687591 L41.2031579,48.0582482 L39.6275188,48.0582482 L39.6275188,48.8477372 L38.0518797,48.8477372 L38.0518797,49.6372263 L37.2640602,49.6372263 L37.2640602,50.4267153 L35.6884211,50.4267153 L35.6884211,51.2162044 L34.112782,51.2162044 L34.112782,52.0056934 L33.3249624,52.0056934 L33.3249624,52.7951825 L32.5371429,52.7951825 L32.5371429,53.5846715 L31.7493233,53.5846715 L31.7493233,54.3741606 L30.9615038,54.3741606 L30.9615038,55.1636496 L30.1736842,55.1636496 L30.1736842,55.9531387 L29.3858647,55.9531387 L29.3858647,56.7426277 L28.5980451,56.7426277 L28.5980451,57.5321168 L27.8102256,57.5321168 L27.8102256,58.3216058 L27.022406,58.3216058 L27.022406,59.1110949 L26.2345865,59.1110949 L26.2345865,59.9005839 L25.4467669,59.9005839 L25.4467669,61.479562 L24.6589474,61.479562 L24.6589474,62.2690511 L23.8711278,62.2690511 L23.8711278,63.8480292 L23.0833083,63.8480292 L23.0833083,65.4270073 L22.2954887,65.4270073 L22.2954887,67.0059854 L21.5076692,67.0059854 L21.5076692,68.5849635 L20.7198496,68.5849635 L20.7198496,70.9534307 L19.9320301,70.9534307 L19.9320301,73.3218978 L19.1442105,73.3218978 L19.1442105,77.2693431 L18.356391,77.2693431 L18.356391,91.480146 L19.1442105,91.480146 L19.1442105,95.4275912 L19.9320301,95.4275912 L19.9320301,97.7960584 L20.7198496,97.7960584 L20.7198496,100.164526 L21.5076692,100.164526 L21.5076692,101.743504 L22.2954887,101.743504 L22.2954887,103.322482 L23.0833083,103.322482 L23.0833083,104.90146 L23.8711278,104.90146 L23.8711278,105.690949 L24.6589474,105.690949 L24.6589474,107.269927 L25.4467669,107.269927 L25.4467669,108.059416 L26.2345865,108.059416 L26.2345865,109.638394 L27.022406,109.638394 L27.022406,110.427883 L27.8102256,110.427883 L27.8102256,111.217372 L28.5980451,111.217372 L28.5980451,112.006861 L29.3858647,112.006861 L29.3858647,112.79635 L30.1736842,112.79635 L30.1736842,113.585839 L30.9615038,113.585839 L30.9615038,114.375328 L31.7493233,114.375328 L31.7493233,115.164818 L32.5371429,115.164818 L32.5371429,115.954307 L34.112782,115.954307 L34.112782,116.743796 L34.9006015,116.743796 L34.9006015,117.533285 L36.4762406,117.533285 L36.4762406,118.322774 L37.2640602,118.322774 L37.2640602,119.112263 L38.8396992,119.112263 L38.8396992,119.901752 L40.4153383,119.901752 L40.4153383,120.691241 L41.9909774,120.691241 L41.9909774,121.48073 L44.3544361,121.48073 L44.3544361,122.270219 L46.7178947,122.270219 L46.7178947,123.059708 L49.8691729,123.059708 L49.8691729,123.849197 L65.6255639,123.849197 L65.6255639,123.059708 L68.7768421,123.059708 L68.7768421,122.270219 L71.9281203,122.270219 L71.9281203,121.48073 L73.5037594,121.48073 L73.5037594,120.691241 L75.0793985,120.691241 L75.0793985,119.901752 L76.6550376,119.901752 L76.6550376,119.112263 L78.2306767,119.112263 L78.2306767,118.322774 L79.8063158,118.322774 L79.8063158,117.533285 L80.5941353,117.533285 L80.5941353,116.743796 L81.3819549,116.743796 L81.3819549,115.954307 L82.957594,115.954307 L82.957594,115.164818 L83.7454135,115.164818 L83.7454135,114.375328 L84.5332331,114.375328 L84.5332331,113.585839 L85.3210526,113.585839 L85.3210526,112.79635 L86.1088722,112.79635 L86.1088722,112.006861 L86.8966917,112.006861 L86.8966917,110.427883 L87.6845113,110.427883 L87.6845113,109.638394 L88.4723308,109.638394 L88.4723308,108.059416 L89.2601504,108.059416 L89.2601504,106.480438 L90.0479699,106.480438 L90.0479699,104.90146 L90.8357895,104.90146 L90.8357895,102.532993 L91.623609,102.532993 L91.623609,100.164526 L92.4114286,100.164526 L92.4114286,96.2170803 L93.1992481,96.2170803 L93.1992481,93.0591241 L56.9595489,93.0591241 L56.9595489,79.6378102 L107.38,79.6378102 L107.38,97.7960584 L106.59218,97.7960584 L106.59218,101.743504 L105.804361,101.743504 L105.804361,104.90146 L105.016541,104.90146 L105.016541,107.269927 L104.228722,107.269927 L104.228722,109.638394 L103.440902,109.638394 L103.440902,111.217372 L102.653083,111.217372 L102.653083,112.79635 L101.865263,112.79635 L101.865263,114.375328 L101.077444,114.375328 L101.077444,115.954307 L100.289624,115.954307 L100.289624,116.743796 L99.5018045,116.743796 L99.5018045,118.322774 L98.713985,118.322774 L98.713985,119.112263 L97.9261654,119.112263 L97.9261654,119.901752 L97.1383459,119.901752 L97.1383459,120.691241 L96.3505263,120.691241 L96.3505263,122.270219 L95.5627068,122.270219 L95.5627068,123.059708 L94.7748872,123.059708 L94.7748872,123.849197 L93.9870677,123.849197 L93.9870677,124.638686 L93.1992481,124.638686 L93.1992481,125.428175 L91.623609,125.428175 L91.623609,126.217664 L90.8357895,126.217664 L90.8357895,127.007153 L90.0479699,127.007153 L90.0479699,127.796642 L89.2601504,127.796642 L89.2601504,128.586131 L88.4723308,128.586131 L88.4723308,129.37562 L86.8966917,129.37562 L86.8966917,130.165109 L86.1088722,130.165109 L86.1088722,130.954599 L84.5332331,130.954599 L84.5332331,131.744088 L82.957594,131.744088 L82.957594,132.533577 L81.3819549,132.533577 L81.3819549,133.323066 L79.8063158,133.323066 L79.8063158,134.112555 L78.2306767,134.112555 L78.2306767,134.902044 L75.867218,134.902044 L75.867218,135.691533 L73.5037594,135.691533 L73.5037594,136.481022 L70.3524812,136.481022 L70.3524812,137.270511 L65.6255639,137.270511 L65.6255639,138.06 L49.8691729,138.06 L49.8691729,137.270511 L45.9300752,137.270511 L45.9300752,136.481022 L42.778797,136.481022 L42.778797,135.691533 L40.4153383,135.691533 L40.4153383,134.902044 L38.0518797,134.902044 L38.0518797,134.112555 L35.6884211,134.112555 L35.6884211,133.323066 L34.112782,133.323066 L34.112782,132.533577 L32.5371429,132.533577 L32.5371429,131.744088 L30.9615038,131.744088 L30.9615038,130.954599 L29.3858647,130.954599 L29.3858647,130.165109 L28.5980451,130.165109 L28.5980451,129.37562 L27.022406,129.37562 L27.022406,128.586131 L26.2345865,128.586131 L26.2345865,127.796642 L24.6589474,127.796642 L24.6589474,127.007153 L23.8711278,127.007153 L23.8711278,126.217664 L23.0833083,126.217664 L23.0833083,125.428175 L22.2954887,125.428175 L22.2954887,124.638686 L20.7198496,124.638686 L20.7198496,123.849197 L19.9320301,123.849197 L19.9320301,123.059708 L19.1442105,123.059708 L19.1442105,122.270219 L18.356391,122.270219 L18.356391,121.48073 L17.5685714,121.48073 L17.5685714,120.691241 L16.7807519,120.691241 L16.7807519,119.901752 L15.9929323,119.901752 L15.9929323,118.322774 L15.2051128,118.322774 L15.2051128,117.533285 L14.4172932,117.533285 L14.4172932,116.743796 L13.6294737,116.743796 L13.6294737,115.954307 L12.8416541,115.954307 L12.8416541,114.375328 L12.0538346,114.375328 L12.0538346,113.585839 L11.266015,113.585839 L11.266015,112.006861 L10.4781955,112.006861 L10.4781955,111.217372 L9.69037594,111.217372 L9.69037594,109.638394 L8.90255639,109.638394 L8.90255639,108.059416 L8.11473684,108.059416 L8.11473684,106.480438 L7.32691729,106.480438 L7.32691729,104.90146 L6.53909774,104.90146 L6.53909774,102.532993 L5.7512782,102.532993 L5.7512782,100.164526 L4.96345865,100.164526 L4.96345865,97.7960584 L4.1756391,97.7960584 L4.1756391,94.6381022 L3.38781955,94.6381022 L3.38781955,89.1116788 L2.6,89.1116788 L2.6,79.6378102 L3.38781955,79.6378102 L3.38781955,74.1113869 L4.1756391,74.1113869 L4.1756391,70.9534307 L4.96345865,70.9534307 L4.96345865,67.7954745 L5.7512782,67.7954745 L5.7512782,65.4270073 L6.53909774,65.4270073 L6.53909774,63.8480292 L7.32691729,63.8480292 L7.32691729,62.2690511 L8.11473684,62.2690511 L8.11473684,60.690073 L8.90255639,60.690073 L8.90255639,59.1110949 L9.69037594,59.1110949 L9.69037594,57.5321168 L10.4781955,57.5321168 L10.4781955,55.9531387 L11.266015,55.9531387 L11.266015,55.1636496 L12.0538346,55.1636496 L12.0538346,53.5846715 L12.8416541,53.5846715 L12.8416541,52.7951825 L13.6294737,52.7951825 L13.6294737,52.0056934 L14.4172932,52.0056934 L14.4172932,50.4267153 L15.2051128,50.4267153 L15.2051128,49.6372263 L15.9929323,49.6372263 L15.9929323,48.8477372 L16.7807519,48.8477372 L16.7807519,48.0582482 L17.5685714,48.0582482 L17.5685714,47.2687591 L18.356391,47.2687591 L18.356391,46.4792701 L19.1442105,46.4792701 Z" id="Combined-Shape" fill="#4285F4"></path>
                <path d="M114.539997,0.52 L185.239994,0.52 L185.239994,171.86 L114.539997,171.86 L114.539997,0.52 Z M149.63,138.06 C168.297225,138.06 183.43,122.927225 183.43,104.26 C183.43,85.5927755 168.297225,70.46 149.63,70.46 C130.962775,70.46 115.83,85.5927755 115.83,104.26 C115.83,122.927225 130.962775,138.06 149.63,138.06 Z M149.63,124.54 C160.830335,124.54 169.91,115.460335 169.91,104.26 C169.91,93.0596653 160.830335,83.98 149.63,83.98 C138.429665,83.98 129.35,93.0596653 129.35,104.26 C129.35,115.460335 138.429665,124.54 149.63,124.54 Z" id="Combined-Shape" fill="#EA4335"></path>
                <path d="M190.399998,16.12 L260.999996,16.12 L260.999996,161.46 L190.399998,161.46 L190.399998,16.12 Z M225.68,138.06 C244.347225,138.06 259.48,122.927225 259.48,104.26 C259.48,85.5927755 244.347225,70.46 225.68,70.46 C207.012775,70.46 191.88,85.5927755 191.88,104.26 C191.88,122.927225 207.012775,138.06 225.68,138.06 Z M225.68,124.54 C236.880335,124.54 245.96,115.460335 245.96,104.26 C245.96,93.0596653 236.880335,83.98 225.68,83.98 C214.479665,83.98 205.4,93.0596653 205.4,104.26 C205.4,115.460335 214.479665,124.54 225.68,124.54 Z" id="Combined-Shape" fill="#FBBC05"></path>
                <path d="M265.60001,33.8 L337.700008,33.8 L337.700008,183.040004 L265.60001,183.040004 L265.60001,33.8 Z M334.49787,139.75 L334.51599,139.75 L334.51599,72.15 L322.68599,72.15 L322.68599,80.2976266 C316.879961,74.2175712 308.876854,70.46 300.04,70.46 C282.306137,70.46 267.93,85.5927755 267.93,104.26 C267.93,122.927225 282.306137,138.06 300.04,138.06 C308.876854,138.06 316.879961,134.302429 322.68599,128.222373 L322.68599,139.663354 C320.773032,153.27 312.033186,156.472253 306.651464,157.713677 C293.970176,160.638922 283.354551,146.138662 283.354551,146.138662 C283.354551,146.138662 277.210146,149.052427 272.941411,150.954502 C277.210146,159.643809 301.451789,187.274331 328.870676,156.488262 C332.374052,152.554653 333.802727,146.333766 334.49787,139.75 Z M300.04,124.54 C310.306973,124.54 318.63,115.460335 318.63,104.26 C318.63,93.0596653 310.306973,83.98 300.04,83.98 C289.773027,83.98 281.45,93.0596653 281.45,104.26 C281.45,115.460335 289.773027,124.54 300.04,124.54 Z" id="Combined-Shape" fill="#4285F4"></path>
                <path d="M340.39,14.3 L364.689999,14.3 L364.689999,159.64 L340.39,159.64 L340.39,14.3 Z M345.67,33.28 L360.88,33.28 L360.88,138.06 L345.67,138.06 L345.67,33.28 Z" id="Combined-Shape" fill="#34A853"></path>
                <path d="M431.640003,94.8477003 L432.196937,94.6430785 C432.02643,94.0527758 431.840628,93.4692133 431.640003,92.8928741 L431.640003,10.4 L367.34,10.4 L367.34,181.74 L431.640003,181.74 L431.640003,96.2621283 L431.988647,96.1212672 L431.640003,95.2583443 L431.640003,94.8477003 Z M431.640003,94.8477003 L431.495537,94.9007783 L431.640003,95.2583443 L431.640003,96.2621283 L384.445107,115.330104 C388.064443,120.875201 394.324242,124.54 401.44,124.54 C408.148632,124.54 414.09645,121.282564 417.788059,116.263087 L427.996456,123.044071 C422.084057,132.098833 412.018277,138.06 400.595,138.06 C382.394456,138.06 367.64,122.927225 367.64,104.26 C367.64,85.5927755 382.394456,70.46 400.595,70.46 C414.907186,70.46 427.088441,79.8175428 431.640003,92.8928741 L431.640003,94.8477003 Z M415.773709,89.9134611 C412.104259,86.247272 407.036904,83.98 401.44,83.98 C390.360913,83.98 381.35683,92.8641478 381.163183,103.897011 L415.773709,89.9134611 Z" id="Combined-Shape" fill="#EA4335"></path>
            </g>
            <text id="1-copy" fill="#4285F4" font-family="ChalkboardSE-Bold, Chalkboard SE" font-size="67.6" font-weight="bold" letter-spacing="9.16355591">
                <tspan x="58.3800905" y="52">1</tspan>
            </text>
            <text id="2-copy" fill="#EA4335" font-family="ChalkboardSE-Bold, Chalkboard SE" font-size="67.6" font-weight="bold" letter-spacing="9.16355591">
                <tspan x="195.380091" y="368">2</tspan>
            </text>
            <text id="3-copy" fill="#FBBC05" font-family="ChalkboardSE-Bold, Chalkboard SE" font-size="67.6" font-weight="bold" letter-spacing="9.16355591">
                <tspan x="358.380091" y="368">3</tspan>
            </text>
            <text id="4-copy" fill="#34A853" font-family="ChalkboardSE-Bold, Chalkboard SE" font-size="67.6" font-weight="bold" letter-spacing="9.16355591">
                <tspan x="372.380091" y="59">4</tspan>
            </text>
            <path d="M74.4999996,64.5 L59.15,106.19" id="Line" stroke="#4A4A4A" stroke-width="3.38" stroke-linecap="square" fill="#4A4A4A"></path>
            <path id="Line-decoration-1" d="M59.15,106.19 L65.6968267,97.0917002 L60.0663531,95.0185947 L59.15,106.19 Z" stroke="#4A4A4A" stroke-width="3.38" stroke-linecap="square" fill="#4A4A4A"></path>
            <path d="M98.5,56.5 L286.499994,137.499997" id="Line-Copy-4" stroke="#4A4A4A" stroke-width="3.38" stroke-linecap="square" fill="#4A4A4A"></path>
            <path id="Line-Copy-4-decoration-1" d="M286.499994,137.499997 L277.768494,130.471418 L275.394371,135.98173 L286.499994,137.499997 Z" stroke="#4A4A4A" stroke-width="3.38" stroke-linecap="square" fill="#4A4A4A"></path>
            <path d="M194.5,319.5 L158.5,245.5" id="Line-Copy" stroke="#4A4A4A" stroke-width="3.38" stroke-linecap="square" fill="#4A4A4A"></path>
            <path id="Line-Copy-decoration-1" d="M158.5,245.5 L160.526924,256.524136 L165.922335,253.899342 L158.5,245.5 Z" stroke="#4A4A4A" stroke-width="3.38" stroke-linecap="square" fill="#4A4A4A"></path>
            <path d="M239.5,329.5 L391.499999,246.5" id="Line-Copy-5" stroke="#4A4A4A" stroke-width="3.38" stroke-linecap="square" fill="#4A4A4A"></path>
            <path id="Line-Copy-5-decoration-1" d="M391.499999,246.5 L380.583342,249.042947 L383.458881,254.308996 L391.499999,246.5 Z" stroke="#4A4A4A" stroke-width="3.38" stroke-linecap="square" fill="#4A4A4A"></path>
            <path d="M353.5,331.5 L236.5,238.5" id="Line-Copy-2" stroke="#4A4A4A" stroke-width="3.38" stroke-linecap="square" fill="#4A4A4A"></path>
            <path id="Line-Copy-2-decoration-1" d="M236.5,238.5 L243.087759,247.568706 L246.821224,242.871767 L236.5,238.5 Z" stroke="#4A4A4A" stroke-width="3.38" stroke-linecap="square" fill="#4A4A4A"></path>
            <path d="M383.5,60.5 L361.66,106.71" id="Line-Copy-3" stroke="#4A4A4A" stroke-width="3.38" stroke-linecap="square" fill="#4A4A4A"></path>
            <path id="Line-Copy-3-decoration-1" d="M361.66,106.71 L368.987207,98.2275457 L363.562559,95.6637215 L361.66,106.71 Z" stroke="#4A4A4A" stroke-width="3.38" stroke-linecap="square" fill="#4A4A4A"></path>
        </g>
    </g>
</svg>