<?xml version="1.0" encoding="UTF-8" standalone="no"?>
<svg width="528px" height="392px" viewBox="0 0 528 392" version="1.1" xmlns="http://www.w3.org/2000/svg" xmlns:xlink="http://www.w3.org/1999/xlink" style="background: #FFFFFF;">
    <!-- Generator: Sketch 39.1 (31720) - http://www.bohemiancoding.com/sketch -->
    <title>big copy 2</title>
    <desc>Created with Sketch.</desc>
    <defs></defs>
    <g id="thumb" stroke="none" stroke-width="1" fill="none" fill-rule="evenodd">
        <g id="big-copy-2">
            <g id="Group-4" transform="translate(0.000000, 287.556923)">
                <polyline id="Rectangle-109-Copy-5" fill="#FF4000" points="51.7470085 51.7470085 6.12807684e-15 51.7470085 0 6.12807684e-15 51.7470085 0 51.7470085 51.7470085"></polyline>
                <polyline id="Rectangle-109-Copy-6" fill="#FFC000" points="104.787692 104.787692 53.0406838 104.787692 53.0406838 53.0406838 104.787692 53.0406838 104.787692 104.787692"></polyline>
                <polyline id="Rectangle-109-Copy-11" fill="#00CCCC" points="104.787692 51.7470085 53.0406838 51.7470085 53.0406838 6.12807684e-15 104.787692 0 104.787692 51.7470085"></polyline>
                <polyline id="Rectangle-109-Copy-7" fill="#8000FF" points="51.7470085 104.787692 6.12807684e-15 104.787692 0 53.0406838 51.7470085 53.0406838 51.7470085 104.787692"></polyline>
            </g>
            <g id="Group-2">
                <polyline id="Rectangle-109-Copy-5" fill="#00EE40" points="51.3458689 51.7470085 6.08057237e-15 51.7470085 0 6.12807684e-15 51.3458689 0 51.3458689 51.7470085"></polyline>
                <polyline id="Rectangle-109-Copy-6" fill="#0080FF" points="103.975385 104.787692 52.6295157 104.787692 52.6295157 53.0406838 103.975385 53.0406838 103.975385 104.787692"></polyline>
                <polyline id="Rectangle-109-Copy-11" fill="#00CCCC" points="104.145869 51.7470085 52.8 51.7470085 52.8 6.12807684e-15 104.145869 0 104.145869 51.7470085"></polyline>
                <polyline id="Rectangle-109-Copy-7" fill="#0000FF" points="51.3458689 104.787692 6.08057237e-15 104.787692 0 53.0406838 51.3458689 53.0406838 51.3458689 104.787692"></polyline>
            </g>
            <g id="Group-2" transform="translate(140.529231, 143.778462)">
                <polyline id="Rectangle-109-Copy-5" fill="#E900AF" points="51.3458689 51.7470085 6.08057237e-15 51.7470085 0 6.12807684e-15 51.3458689 0 51.3458689 51.7470085"></polyline>
                <polyline id="Rectangle-109-Copy-6" fill="#AB00E3" points="103.975385 104.787692 52.6295157 104.787692 52.6295157 53.0406838 103.975385 53.0406838 103.975385 104.787692"></polyline>
                <polyline id="Rectangle-109-Copy-11" fill="#EF00EF" points="104.145869 51.7470085 52.8 51.7470085 52.8 6.12807684e-15 104.145869 0 104.145869 51.7470085"></polyline>
                <polyline id="Rectangle-109-Copy-7" fill="#7100E1" points="51.3458689 104.787692 6.08057237e-15 104.787692 0 53.0406838 51.3458689 53.0406838 51.3458689 104.787692"></polyline>
            </g>
            <g id="Group-2" transform="translate(282.683077, 141.341538)">
                <polyline id="Rectangle-109-Copy-5" fill="#C000FF" points="51.3458689 51.7470085 6.08057237e-15 51.7470085 0 6.12807684e-15 51.3458689 0 51.3458689 51.7470085"></polyline>
                <polyline id="Rectangle-109-Copy-6" fill="#00FFC0" points="103.975385 104.787692 52.6295157 104.787692 52.6295157 53.0406838 103.975385 53.0406838 103.975385 104.787692"></polyline>
                <polyline id="Rectangle-109-Copy-11" fill="#FF0040" points="104.145869 51.7470085 52.8 51.7470085 52.8 6.12807684e-15 104.145869 0 104.145869 51.7470085"></polyline>
                <polyline id="Rectangle-109-Copy-7" fill="#40FF00" points="51.3458689 104.787692 6.08057237e-15 104.787692 0 53.0406838 51.3458689 53.0406838 51.3458689 104.787692"></polyline>
            </g>
            <g id="Group-2" transform="translate(283.495385, 0.000000)">
                <polyline id="Rectangle-109-Copy-5" fill="#0040FF" points="51.3458689 51.3459685 6.08057237e-15 51.3459685 0 6.08058415e-15 51.3458689 0 51.3458689 51.3459685"></polyline>
                <polyline id="Rectangle-109-Copy-6" fill="#00C0FF" points="103.975385 103.995541 52.6295157 103.995541 52.6295157 52.6495726 103.975385 52.6495726 103.975385 103.995541"></polyline>
                <polyline id="Rectangle-109-Copy-11" fill="#0080FF" points="104.145869 51.3459685 52.8 51.3459685 52.8 6.08058415e-15 104.145869 0 104.145869 51.3459685"></polyline>
                <polyline id="Rectangle-109-Copy-7" fill="#00FFFF" points="51.3458689 103.995541 6.08057237e-15 103.995541 0 52.6495726 51.3458689 52.6495726 51.3458689 103.995541"></polyline>
            </g>
            <g id="Group-2" transform="translate(0.000000, 143.778462)">
                <polyline id="Rectangle-109-Copy-5" fill="#0000FF" points="51.3458689 51.7470085 6.08057237e-15 51.7470085 0 6.12807684e-15 51.3458689 0 51.3458689 51.7470085"></polyline>
                <polyline id="Rectangle-109-Copy-6" fill="#FFFF00" points="103.975385 104.787692 52.6295157 104.787692 52.6295157 53.0406838 103.975385 53.0406838 103.975385 104.787692"></polyline>
                <polyline id="Rectangle-109-Copy-11" fill="#FF0000" points="104.145869 51.7470085 52.8 51.7470085 52.8 6.12807684e-15 104.145869 0 104.145869 51.7470085"></polyline>
                <polyline id="Rectangle-109-Copy-7" fill="#00FFFF" points="51.3458689 104.787692 6.08057237e-15 104.787692 0 53.0406838 51.3458689 53.0406838 51.3458689 104.787692"></polyline>
            </g>
            <g id="Group-3" transform="translate(423.212308, 287.556923)">
                <polyline id="Rectangle-109-Copy-5" fill="#FF0080" points="51.7470085 51.7470085 6.12807684e-15 51.7470085 0 6.12807684e-15 51.7470085 0 51.7470085 51.7470085"></polyline>
                <polyline id="Rectangle-109-Copy-6" fill="#FF8000" points="104.787692 104.787692 53.0406838 104.787692 53.0406838 53.0406838 104.787692 53.0406838 104.787692 104.787692"></polyline>
                <polyline id="Rectangle-109-Copy-11" fill="#0080FF" points="104.787692 51.7470085 53.0406838 51.7470085 53.0406838 6.12807684e-15 104.787692 0 104.787692 51.7470085"></polyline>
                <polyline id="Rectangle-109-Copy-7" fill="#00FF80" points="51.7470085 104.787692 6.12807684e-15 104.787692 0 53.0406838 51.7470085 53.0406838 51.7470085 104.787692"></polyline>
            </g>
            <g id="Group-5" transform="translate(423.212308, 0.000000)">
                <polyline id="Rectangle-109-Copy-5" fill="#FF0040" points="51.7470085 51.7470085 6.12807684e-15 51.7470085 0 6.12807684e-15 51.7470085 0 51.7470085 51.7470085"></polyline>
                <polyline id="Rectangle-109-Copy-6" fill="#FF6000" points="104.787692 104.787692 53.0406838 104.787692 53.0406838 53.0406838 104.787692 53.0406838 104.787692 104.787692"></polyline>
                <polyline id="Rectangle-109-Copy-11" fill="#40FF00" points="104.787692 51.7470085 53.0406838 51.7470085 53.0406838 6.12807684e-15 104.787692 0 104.787692 51.7470085"></polyline>
                <polyline id="Rectangle-109-Copy-7" fill="#0080FF" points="51.7470085 104.787692 6.12807684e-15 104.787692 0 53.0406838 51.7470085 53.0406838 51.7470085 104.787692"></polyline>
            </g>
            <g id="Group-5" transform="translate(335.889231, 339.950769) rotate(180.000000) translate(-335.889231, -339.950769) translate(283.495385, 287.556923)">
                <polyline id="Rectangle-109-Copy-5" fill="#FF00C0" points="51.7470085 51.7470085 6.12807684e-15 51.7470085 0 6.12807684e-15 51.7470085 0 51.7470085 51.7470085"></polyline>
                <polyline id="Rectangle-109-Copy-6" fill="#00FF40" points="104.787692 104.787692 53.0406838 104.787692 53.0406838 53.0406838 104.787692 53.0406838 104.787692 104.787692"></polyline>
                <polyline id="Rectangle-109-Copy-11" fill="#FF4000" points="104.787692 51.7470085 53.0406838 51.7470085 53.0406838 6.12807684e-15 104.787692 0 104.787692 51.7470085"></polyline>
                <polyline id="Rectangle-109-Copy-7" fill="#00C0FF" points="51.7470085 104.787692 6.12807684e-15 104.787692 0 53.0406838 51.7470085 53.0406838 51.7470085 104.787692"></polyline>
            </g>
            <g id="Group-4" transform="translate(192.923077, 52.393846) rotate(270.000000) translate(-192.923077, -52.393846) translate(140.529231, 0.000000)">
                <polyline id="Rectangle-109-Copy-5" fill="#FF4000" points="51.7470085 51.7470085 6.12807684e-15 51.7470085 0 6.12807684e-15 51.7470085 0 51.7470085 51.7470085"></polyline>
                <polyline id="Rectangle-109-Copy-6" fill="#00C0FF" points="104.787692 104.787692 53.0406838 104.787692 53.0406838 53.0406838 104.787692 53.0406838 104.787692 104.787692"></polyline>
                <polyline id="Rectangle-109-Copy-11" fill="#C0FF00" points="104.787692 51.7470085 53.0406838 51.7470085 53.0406838 2.93956186e-14 104.787692 2.32675417e-14 104.787692 51.7470085"></polyline>
                <polyline id="Rectangle-109-Copy-7" fill="#4000FF" points="51.7470085 104.787692 -4.04070066e-14 104.787692 -4.65350835e-14 53.0406838 51.7470085 53.0406838 51.7470085 104.787692"></polyline>
            </g>
            <g id="Group-3" transform="translate(423.212308, 143.778462)">
                <polyline id="Rectangle-109-Copy-5" fill="#FF2000" points="51.7470085 51.7470085 6.12807684e-15 51.7470085 0 6.12807684e-15 51.7470085 0 51.7470085 51.7470085"></polyline>
                <polyline id="Rectangle-109-Copy-6" fill="#FFA000" points="104.787692 104.787692 53.0406838 104.787692 53.0406838 53.0406838 104.787692 53.0406838 104.787692 104.787692"></polyline>
                <polyline id="Rectangle-109-Copy-11" fill="#FF6000" points="104.787692 51.7470085 53.0406838 51.7470085 53.0406838 6.12807684e-15 104.787692 0 104.787692 51.7470085"></polyline>
                <polyline id="Rectangle-109-Copy-7" fill="#FF8000" points="51.7470085 104.787692 6.12807684e-15 104.787692 0 53.0406838 51.7470085 53.0406838 51.7470085 104.787692"></polyline>
            </g>
            <g id="Group-5" transform="translate(140.529231, 287.556923)">
                <polyline id="Rectangle-109-Copy-5" fill="#00FF40" points="51.7470085 51.7470085 6.12807684e-15 51.7470085 0 6.12807684e-15 51.7470085 0 51.7470085 51.7470085"></polyline>
                <polyline id="Rectangle-109-Copy-6" fill="#00FFC0" points="104.787692 104.787692 53.0406838 104.787692 53.0406838 53.0406838 104.787692 53.0406838 104.787692 104.787692"></polyline>
                <polyline id="Rectangle-109-Copy-11" fill="#00FF80" points="104.787692 51.7470085 53.0406838 51.7470085 53.0406838 6.12807684e-15 104.787692 0 104.787692 51.7470085"></polyline>
                <polyline id="Rectangle-109-Copy-7" fill="#00FFFF" points="51.7470085 104.787692 6.12807684e-15 104.787692 0 53.0406838 51.7470085 53.0406838 51.7470085 104.787692"></polyline>
            </g>
        </g>
    </g>
</svg>