<?xml version="1.0" encoding="UTF-8" standalone="no"?>
<svg width="983px" height="244px" viewBox="0 0 983 244" version="1.1" xmlns="http://www.w3.org/2000/svg" xmlns:xlink="http://www.w3.org/1999/xlink">
    <!-- Generator: Sketch 39.1 (31720) - http://www.bohemiancoding.com/sketch -->
    <title>logo copy 2</title>
    <desc>Created with Sketch.</desc>
    <defs></defs>
    <g id="4-colors" stroke="none" stroke-width="1" fill="none" fill-rule="evenodd">
        <g id="logo-copy-2">
            <text id="HeartMate" fill="#00A399" font-family="HelveticaNeue-Bold, Helvetica Neue" font-size="205" font-weight="bold" letter-spacing="-15.0060005">
                <tspan x="75.4220772" y="200">HeartMat</tspan>
                <tspan x="870.289073" y="200" letter-spacing="-15.3811502">e</tspan>
            </text>
            <path d="M34.2793507,98.2681082 L7.1414338,74.6774769 C2.79174401,71.6331792 0,66.9172697 0,61.6233864 C0,52.4425436 8.39637766,45 18.7538344,45 C25.531937,45 31.470183,48.1873621 34.7649994,52.9634003 C38.0598158,48.1873621 43.9980618,45 50.7761644,45 C61.1336211,45 69.5299988,52.4425436 69.5299988,61.6233864 C69.5299988,66.9172697 66.7382548,71.6331792 62.388565,74.6774769 L35.2506481,98.2681082 L35.1683889,99.0409373 L34.7649994,98.6902762 L34.3616099,99.0409373 L34.2793507,98.2681082 Z" id="Combined-Shape-Copy" fill="#B00064"></path>
            <path d="M34.2793507,212.268108 L7.1414338,188.677477 C2.79174401,185.633179 0,180.91727 0,175.623386 C0,166.442544 8.39637766,159 18.7538344,159 C25.531937,159 31.470183,162.187362 34.7649994,166.9634 C38.0598158,162.187362 43.9980618,159 50.7761644,159 C61.1336211,159 69.5299988,166.442544 69.5299988,175.623386 C69.5299988,180.91727 66.7382548,185.633179 62.388565,188.677477 L35.2506481,212.268108 L35.1683889,213.040937 L34.7649994,212.690276 L34.3616099,213.040937 L34.2793507,212.268108 Z" id="Combined-Shape-Copy-2" fill="#CC3300"></path>
            <path d="M34.2793507,156.268108 L7.1414338,132.677477 C2.79174401,129.633179 0,124.91727 0,119.623386 C0,110.442544 8.39637766,103 18.7538344,103 C25.531937,103 31.470183,106.187362 34.7649994,110.9634 C38.0598158,106.187362 43.9980618,103 50.7761644,103 C61.1336211,103 69.5299988,110.442544 69.5299988,119.623386 C69.5299988,124.91727 66.7382548,129.633179 62.388565,132.677477 L35.2506481,156.268108 L35.1683889,157.040937 L34.7649994,156.690276 L34.3616099,157.040937 L34.2793507,156.268108 Z" id="Combined-Shape" fill="#88B000"></path>
        </g>
    </g>
</svg>