<?xml version="1.0" encoding="UTF-8" standalone="no"?>
<svg width="581px" height="413px" viewBox="0 0 581 413" version="1.1" xmlns="http://www.w3.org/2000/svg" xmlns:xlink="http://www.w3.org/1999/xlink">
    <!-- Generator: Sketch 41 (35326) - http://www.bohemiancoding.com/sketch -->
    <title>pouring wheel</title>
    <desc>Created with Sketch.</desc>
    <defs>
        <radialGradient cx="50%" cy="41.5554257%" fx="50%" fy="41.5554257%" r="101.672835%" id="radialGradient-1">
            <stop stop-color="#FFFFFF" offset="0%"></stop>
            <stop stop-color="#E3E5D0" offset="100%"></stop>
        </radialGradient>
    </defs>
    <g id="thumb" stroke="none" stroke-width="1" fill="none" fill-rule="evenodd">
        <g id="pouring-wheel">
            <rect id="background" fill="url(#radialGradient-1)" x="-65" y="-125" width="714" height="546"></rect>
            <g id="printwheel" transform="translate(166.000000, -37.000000)">
                <g id="straight-wings" transform="translate(109.332425, 0.000000)">
                    <path d="M15.6675749,131.130795 L-5.32907052e-15,247.993935 C-5.32907052e-15,247.993935 3.40599455,249.696928 15.6675749,249.696928 C27.9291553,249.696928 31.3351499,247.993931 31.3351499,247.993931 L15.6675749,131.130795 L15.6675749,131.130795 Z" id="Triangle-2-Copy-2" fill="#00CC00"></path>
                    <path d="M15.6675749,4.37806068e-06 L31.3351499,116.863145 C31.3351499,116.863145 27.9291553,118.566138 15.6675749,118.566138 C3.40599455,118.566138 0,116.863141 0,116.863141 L15.6675749,4.37806068e-06 Z" id="Triangle-2" fill="#FF0000" transform="translate(15.667575, 59.283071) scale(1, -1) translate(-15.667575, -59.283071) "></path>
                </g>
                <g id="165" transform="translate(124.678902, 125.086038) rotate(-195.000000) translate(-124.678902, -125.086038) translate(108.678902, 0.086038)">
                    <path d="M15.6675749,131.130795 L-3.80140364e-13,247.993935 C-3.80140364e-13,247.993935 3.40599455,249.696928 15.6675749,249.696928 C27.9291553,249.696928 31.3351499,247.993931 31.3351499,247.993931 L15.6675749,131.130795 L15.6675749,131.130795 Z" id="Triangle-2-Copy-2" fill="#F00050"></path>
                    <path d="M15.6675749,4.37805993e-06 L31.3351499,116.863145 C31.3351499,116.863145 27.9291553,118.566138 15.6675749,118.566138 C3.40599455,118.566138 1.39444012e-12,116.863141 1.39444012e-12,116.863141 L15.6675749,4.37805993e-06 Z" id="Triangle-2" fill="#77CC00" transform="translate(15.667575, 59.283071) scale(1, -1) translate(-15.667575, -59.283071) "></path>
                </g>
                <g id="150" transform="translate(124.712111, 125.166213) rotate(-210.000000) translate(-124.712111, -125.166213) translate(108.712111, 0.166213)">
                    <path d="M15.6675749,131.130795 L9.85878046e-13,247.993935 C9.85878046e-13,247.993935 3.40599455,249.696928 15.6675749,249.696928 C27.9291553,249.696928 31.3351499,247.993931 31.3351499,247.993931 L15.6675749,131.130795 L15.6675749,131.130795 Z" id="Triangle-2-Copy-2" fill="#E00080"></path>
                    <path d="M15.6675749,4.37806118e-06 L31.3351499,116.863145 C31.3351499,116.863145 27.9291553,118.566138 15.6675749,118.566138 C3.40599455,118.566138 -4.4408921e-14,116.863141 -4.4408921e-14,116.863141 L15.6675749,4.37806118e-06 Z" id="Triangle-2" fill="#AADD00" transform="translate(15.667575, 59.283071) scale(1, -1) translate(-15.667575, -59.283071) "></path>
                </g>
                <g id="135" transform="translate(124.764940, 125.235060) rotate(-225.000000) translate(-124.764940, -125.235060) translate(108.764940, 0.235060)">
                    <path d="M15.6675749,131.130795 L-7.90478794e-13,247.993935 C-7.90478794e-13,247.993935 3.40599455,249.696928 15.6675749,249.696928 C27.9291553,249.696928 31.3351499,247.993931 31.3351499,247.993931 L15.6675749,131.130795 L15.6675749,131.130795 Z" id="Triangle-2-Copy-2" fill="#D000B0"></path>
                    <path d="M15.6675749,4.37806106e-06 L31.3351499,116.863145 C31.3351499,116.863145 27.9291553,118.566138 15.6675749,118.566138 C3.40599455,118.566138 -6.30606678e-13,116.863141 -6.30606678e-13,116.863141 L15.6675749,4.37806106e-06 Z" id="Triangle-2" fill="#CCEE00" transform="translate(15.667575, 59.283071) scale(1, -1) translate(-15.667575, -59.283071) "></path>
                </g>
                <g id="120" transform="translate(124.833787, 125.287889) rotate(-240.000000) translate(-124.833787, -125.287889) translate(108.833787, 0.287889)">
                    <path d="M15.6675749,131.130795 L4.29878355e-13,247.993935 C4.29878355e-13,247.993935 3.40599455,249.696928 15.6675749,249.696928 C27.9291553,249.696928 31.3351499,247.993931 31.3351499,247.993931 L15.6675749,131.130795 L15.6675749,131.130795 Z" id="Triangle-2-Copy-2" fill="#B000B0"></path>
                    <path d="M15.6675749,4.3780605e-06 L31.3351499,116.863145 C31.3351499,116.863145 27.9291553,118.566138 15.6675749,118.566138 C3.40599455,118.566138 -8.8817842e-15,116.863141 -8.8817842e-15,116.863141 L15.6675749,4.3780605e-06 Z" id="Triangle-2" fill="#FFFF00" transform="translate(15.667575, 59.283071) scale(1, -1) translate(-15.667575, -59.283071) "></path>
                </g>
                <g id="105" transform="translate(124.913962, 125.321098) rotate(-255.000000) translate(-124.913962, -125.321098) translate(108.913962, 0.321098)">
                    <path d="M15.6675749,131.130795 L2.77111667e-13,247.993935 C2.77111667e-13,247.993935 3.40599455,249.696928 15.6675749,249.696928 C27.9291553,249.696928 31.3351499,247.993931 31.3351499,247.993931 L15.6675749,131.130795 L15.6675749,131.130795 Z" id="Triangle-2-Copy-2" fill="#8000B0"></path>
                    <path d="M15.6675749,4.37806088e-06 L31.3351499,116.863145 C31.3351499,116.863145 27.9291553,118.566138 15.6675749,118.566138 C3.40599455,118.566138 -2.91322522e-13,116.863141 -2.91322522e-13,116.863141 L15.6675749,4.37806088e-06 Z" id="Triangle-2" fill="#FFE000" transform="translate(15.667575, 59.283071) scale(1, -1) translate(-15.667575, -59.283071) "></path>
                </g>
                <g id="90" transform="translate(125.000000, 125.332425) rotate(-270.000000) translate(-125.000000, -125.332425) translate(109.000000, 0.332425)">
                    <path d="M15.6675749,131.130795 L-1.24344979e-13,247.993935 C-1.24344979e-13,247.993935 3.40599455,249.696928 15.6675749,249.696928 C27.9291553,249.696928 31.3351499,247.993931 31.3351499,247.993931 L15.6675749,131.130795 L15.6675749,131.130795 Z" id="Triangle-2-Copy-2" fill="#6000DD"></path>
                    <path d="M15.6675749,4.37806064e-06 L31.3351499,116.863145 C31.3351499,116.863145 27.9291553,118.566138 15.6675749,118.566138 C3.40599455,118.566138 -5.32907052e-14,116.863141 -5.32907052e-14,116.863141 L15.6675749,4.37806064e-06 Z" id="Triangle-2" fill="#FFC000" transform="translate(15.667575, 59.283071) scale(1, -1) translate(-15.667575, -59.283071) "></path>
                </g>
                <g id="75" transform="translate(125.086038, 125.321098) rotate(-285.000000) translate(-125.086038, -125.321098) translate(109.086038, 0.321098)">
                    <path d="M15.6675749,131.130795 L-6.19948537e-13,247.993935 C-6.19948537e-13,247.993935 3.40599455,249.696928 15.6675749,249.696928 C27.9291553,249.696928 31.3351499,247.993931 31.3351499,247.993931 L15.6675749,131.130795 L15.6675749,131.130795 Z" id="Triangle-2-Copy-2" fill="#3000E0"></path>
                    <path d="M15.6675749,4.37806064e-06 L31.3351499,116.863145 C31.3351499,116.863145 27.9291553,118.566138 15.6675749,118.566138 C3.40599455,118.566138 -3.02158298e-12,116.863141 -3.02158298e-12,116.863141 L15.6675749,4.37806064e-06 Z" id="Triangle-2" fill="#FFA000" transform="translate(15.667575, 59.283071) scale(1, -1) translate(-15.667575, -59.283071) "></path>
                </g>
                <g id="60" transform="translate(125.166213, 125.287889) rotate(-300.000000) translate(-125.166213, -125.287889) translate(109.166213, 0.287889)">
                    <path d="M15.6675749,131.130795 L-3.10862447e-13,247.993935 C-3.10862447e-13,247.993935 3.40599455,249.696928 15.6675749,249.696928 C27.9291553,249.696928 31.3351499,247.993931 31.3351499,247.993931 L15.6675749,131.130795 L15.6675749,131.130795 Z" id="Triangle-2-Copy-2" fill="#0000FF"></path>
                    <path d="M15.6675749,4.37806136e-06 L31.3351499,116.863145 C31.3351499,116.863145 27.9291553,118.566138 15.6675749,118.566138 C3.40599455,118.566138 -2.82440737e-13,116.863141 -2.82440737e-13,116.863141 L15.6675749,4.37806136e-06 Z" id="Triangle-2" fill="#FF8000" transform="translate(15.667575, 59.283071) scale(1, -1) translate(-15.667575, -59.283071) "></path>
                </g>
                <g id="45" transform="translate(125.235060, 125.235060) rotate(-315.000000) translate(-125.235060, -125.235060) translate(109.235060, 0.235060)">
                    <path d="M15.6675749,131.130795 L-1.97175609e-13,247.993935 C-1.97175609e-13,247.993935 3.40599455,249.696928 15.6675749,249.696928 C27.9291553,249.696928 31.3351499,247.993931 31.3351499,247.993931 L15.6675749,131.130795 L15.6675749,131.130795 Z" id="Triangle-2-Copy-2" fill="#0090FF"></path>
                    <path d="M15.6675749,4.37806108e-06 L31.3351499,116.863145 C31.3351499,116.863145 27.9291553,118.566138 15.6675749,118.566138 C3.40599455,118.566138 1.77635684e-14,116.863141 1.77635684e-14,116.863141 L15.6675749,4.37806108e-06 Z" id="Triangle-2" fill="#FF6000" transform="translate(15.667575, 59.283071) scale(1, -1) translate(-15.667575, -59.283071) "></path>
                </g>
                <g id="30" transform="translate(125.287889, 125.166213) rotate(-330.000000) translate(-125.287889, -125.166213) translate(109.287889, 0.166213)">
                    <path d="M15.6675749,131.130795 L1.3500312e-13,247.993935 C1.3500312e-13,247.993935 3.40599455,249.696928 15.6675749,249.696928 C27.9291553,249.696928 31.3351499,247.993931 31.3351499,247.993931 L15.6675749,131.130795 L15.6675749,131.130795 Z" id="Triangle-2-Copy-2" fill="#00CCC0"></path>
                    <path d="M15.6675749,4.37806096e-06 L31.3351499,116.863145 C31.3351499,116.863145 27.9291553,118.566138 15.6675749,118.566138 C3.40599455,118.566138 -2.0783375e-13,116.863141 -2.0783375e-13,116.863141 L15.6675749,4.37806096e-06 Z" id="Triangle-2" fill="#FF4000" transform="translate(15.667575, 59.283071) scale(1, -1) translate(-15.667575, -59.283071) "></path>
                </g>
                <g id="15" transform="translate(125.321098, 125.086038) rotate(-345.000000) translate(-125.321098, -125.086038) translate(109.321098, 0.086038)">
                    <path d="M15.6675749,131.130795 L1.54543045e-13,247.993935 C1.54543045e-13,247.993935 3.40599455,249.696928 15.6675749,249.696928 C27.9291553,249.696928 31.3351499,247.993931 31.3351499,247.993931 L15.6675749,131.130795 L15.6675749,131.130795 Z" id="Triangle-2-Copy-2" fill="#00DD40"></path>
                    <path d="M15.6675749,4.37806126e-06 L31.3351499,116.863145 C31.3351499,116.863145 27.9291553,118.566138 15.6675749,118.566138 C3.40599455,118.566138 -3.55271368e-14,116.863141 -3.55271368e-14,116.863141 L15.6675749,4.37806126e-06 Z" id="Triangle-2" fill="#FF2000" transform="translate(15.667575, 59.283071) scale(1, -1) translate(-15.667575, -59.283071) "></path>
                </g>
            </g>
            <g id="boxes" transform="translate(18.000000, 249.000000)">
                <g id="Group-2" transform="translate(16.000000, 30.000000)">
                    <rect id="Rectangle-109-Copy-6" fill="#FFC000" x="124.039498" y="0.55077957" width="129.885917" height="94"></rect>
                    <rect id="Rectangle-109-Copy-11" fill="#00CCC0" x="253.532702" y="0.55077957" width="129.885917" height="94"></rect>
                    <rect id="Rectangle-109-Copy-7" fill="#6000DD" x="383.025907" y="0.55077957" width="129.885917" height="94"></rect>
                    <rect id="Rectangle-109-Copy-5" fill="#FF4000" x="0.546293197" y="0.55077957" width="124.889999" height="94"></rect>
                </g>
                <g id="Group-2-Copy-2" transform="translate(0.522044, 0.000000)">
                    <polygon id="Rectangle-109-Copy-10" fill="#6000DD" points="511.067745 0 528.330807 30.0382511 398.44489 30.0382511 392.737072 0"></polygon>
                    <polygon id="Rectangle-109-Copy-9" fill="#00CCC0" points="393.299901 0 398.863873 30.0382511 268.977956 30.0382511 268.977956 0"></polygon>
                    <polygon id="Rectangle-109-Copy-8" fill="#FFC000" points="269.396939 0 269.396939 30.0382511 139.511022 30.0382511 139.511022 0"></polygon>
                    <polygon id="Rectangle" fill="#FF4000" points="141.061521 30.2284012 14.0086572 30.2284012 33.0072745 0.19015009 148.44866 0.19015009"></polygon>
                </g>
                <text id="Print-Palette-with-4" opacity="0.83751166" font-family="AvenirNextCondensed-Regular, Avenir Next Condensed" font-size="17" font-style="condensed" font-weight="normal" letter-spacing="-0.283333331" fill="#FFFFFF">
                    <tspan x="428" y="53"></tspan>
                    <tspan x="428" y="76">Prin</tspan>
                    <tspan x="450.666667" y="76" letter-spacing="-0.267592579">t Palette </tspan>
                    <tspan x="428" y="99" letter-spacing="-0.267592579">with 4 Colors</tspan>
                </text>
                <text id="Print-Palette-with-2" opacity="0.858675373" font-family="AvenirNextCondensed-Regular, Avenir Next Condensed" font-size="17" font-style="condensed" font-weight="normal" letter-spacing="-0.283333331" fill="#FFFFFF">
                    <tspan x="285" y="53"></tspan>
                    <tspan x="285" y="76">Print Palette </tspan>
                    <tspan x="285" y="99">with 2 or 3 Colors </tspan>
                </text>
                <text id="Digital-Palette-with" opacity="0.740263526" font-family="AvenirNextCondensed-Medium, Avenir Next Condensed" font-size="17" font-style="condensed" font-weight="400" letter-spacing="-0.300000012" fill="#FFFFFF">
                    <tspan x="162" y="53"></tspan>
                    <tspan x="162" y="76">Digital Palette </tspan>
                    <tspan x="162" y="99">with 4 Colors</tspan>
                </text>
                <text id="Digital-Palette-with" opacity="0.817747201" font-family="AvenirNextCondensed-Regular, Avenir Next Condensed" font-size="17" font-style="condensed" font-weight="normal" letter-spacing="-0.300000012" fill="#FFFFFF">
                    <tspan x="33" y="53"></tspan>
                    <tspan x="33" y="76">Digital Palette </tspan>
                    <tspan x="33" y="99">with 2 or 3 Colors </tspan>
                </text>
            </g>
            <g id="arros" transform="translate(50.000000, -79.000000)">
                <path d="M154.009766,298.6875 C150.72518,276.766259 181.376953,253.105469 181.376953,253.105469 L200.59375,261.201172 C200.59375,261.201172 171.933894,287.872631 200.59375,305.348709 C210.15625,311.179688 236.820313,309.896484 261.201172,291.234375 C285.582031,272.572266 346.976562,245.564453 361.132813,276.572266 C375.289062,307.580078 310.546163,312.520619 305.184828,325.31988 C299.823492,338.119141 316.214844,331.09375 316.214844,331.09375 L297.823492,347.257682 L279.857422,328.990234 C279.857422,328.990234 288.525391,337.958868 294.037109,325.966681 C299.548828,313.974493 347.347656,303.348709 332.610928,288.234375 C317.8742,273.120041 295.857422,290.234375 261.181641,314.681575 C245.995766,325.387956 221.117065,337.093763 197.476563,333.314453 C173.83606,329.535143 156.40625,314.681575 154.009766,298.6875 Z" id="Path-5" fill="#00CCC0"></path>
                <path d="M351.488281,159.945312 C351.488281,159.945312 367.970245,157.075062 384.507813,149.691406 C401.04538,142.30775 418.514679,129.726563 433.726563,129.726563 C457.859375,129.726563 479.699219,138.580417 474.789063,170.892917 C469.878906,203.205417 462.73828,228.671877 390.433594,249.000002 C318.128908,269.328127 162.345319,259.140041 132.515625,274.5 C108.300781,286.96875 143.921261,296.416299 166.293299,310.74058 C176.032925,316.976629 176.621446,322.302522 176.621446,326.421231 C176.621446,341.849565 193.133184,331.645909 193.133184,331.645909 L172.782904,348 L150,329.759793 C150,329.759793 163.844957,341.271193 165.264402,327.44278 C165.590131,324.269481 162.380737,318.803154 153.17947,313.415704 C122.284019,295.326051 67.6569762,293.851269 103.433594,269.070313 C133.423853,248.297323 247.120998,248.413217 298.796877,245.000002 C349.42231,241.656169 451.6875,217.824219 444.40625,164.574219 C441.956809,146.66071 414.139326,160.319227 390.433594,170.892917 C366.727862,181.466607 357.685547,175.361328 357.685547,175.361328 L351.488281,159.945312 Z" id="Path-3" fill="#FFC000"></path>
                <path d="M126.273437,177.791016 C105.044922,182.269531 69.857183,177.791016 69.857183,199.424643 C69.857183,217.769531 80.66353,219.600862 100.4375,221.537109 C130.376953,224.46875 227.003906,205.648437 280.859375,190.6875 C330.873099,176.793791 402.67438,174.234375 439.625,212.476562 C478.022926,252.216645 437.335422,310.958178 436.890514,325.177387 C436.445607,339.396595 452.086007,329.907894 452.086007,329.907894 L431.377803,350.329507 L411.384689,328.159812 C411.384689,328.159812 423.049082,338.04618 426.213442,323.177387 C429.377803,308.308594 453.255308,270.55063 422.789063,238 C392.322817,205.44937 339.058588,204.077974 293.113281,211.476562 C247.167974,218.875151 192.868976,239.532646 165.453125,243.792969 C144.304218,247.079432 85.9082031,264.208984 62.15625,243.792969 C38.4042969,223.376953 34.416466,206.573256 48.640625,181.96875 C62.15625,158.589844 121.095703,155.306641 121.095703,155.306641 C121.095703,155.306641 147.501953,173.3125 126.273437,177.791016 Z" id="Path-4" fill="#6000DD"></path>
                <path d="M227.960938,33.8554687 C172.363281,33.8554687 169.583919,28.78125 129.308594,52.4570312 C89.0332682,76.1328125 55.9602658,79.7000423 36.045445,136.171875 C22.8220756,173.668969 30.541555,210.483145 34.3056869,240.112063 C40.8673006,291.761029 46.4908874,323.052547 47.2637369,327.812764 C49.1895426,339.67439 65.5623008,330.120151 65.5623008,330.120151 L45.6382879,348.329507 L21.8220756,330.810006 C21.8220756,330.810006 37.0454446,339.894182 37.045445,328.812757 C37.0454453,322.280738 8.06201969,256.619366 0.73828125,175.933594 C-6.58545719,95.2478217 59.2860293,46.1039514 85.8203125,33.8554687 C127.996094,14.3867187 140.917478,-5.34554157 227.960938,1.3359375 C311.011719,7.7109375 306.328125,70.6992188 306.328125,70.6992188 L291.898969,62.1640625 C291.898969,62.1640625 283.558594,33.8554687 227.960938,33.8554687 Z" id="Path-2" fill="#FF4000"></path>
            </g>
        </g>
    </g>
</svg>