<?xml version="1.0" encoding="UTF-8" standalone="no"?>
<svg width="566px" height="354px" viewBox="0 0 566 354" version="1.1" xmlns="http://www.w3.org/2000/svg" xmlns:xlink="http://www.w3.org/1999/xlink">
    <!-- Generator: Sketch 41.1 (35376) - http://www.bohemiancoding.com/sketch -->
    <title>pouring wheel</title>
    <desc>Created with Sketch.</desc>
    <defs>
        <radialGradient cx="50%" cy="41.5554257%" fx="50%" fy="41.5554257%" r="101.672835%" id="radialGradient-1">
            <stop stop-color="#FFFFFF" offset="0%"></stop>
            <stop stop-color="#E3E5D0" offset="100%"></stop>
        </radialGradient>
    </defs>
    <g id="thumb" stroke="none" stroke-width="1" fill="none" fill-rule="evenodd">
        <g id="pouring-wheel">
            <rect id="background" fill="url(#radialGradient-1)" x="-80" y="-105" width="714" height="508"></rect>
            <g id="printwheel" transform="translate(164.000000, -3.000000)">
                <g id="straight-wings" transform="translate(109.332425, 0.000000)">
                    <path d="M15.6675749,131.130795 L5.32907052e-15,247.993935 C5.32907052e-15,247.993935 3.40599455,249.696928 15.6675749,249.696928 C27.9291553,249.696928 31.3351499,247.993931 31.3351499,247.993931 L15.6675749,131.130795 L15.6675749,131.130795 Z" id="Triangle-2-Copy-2" fill="#00CC00"></path>
                    <path d="M15.6675749,4.37806099e-06 L31.3351499,116.863145 C31.3351499,116.863145 27.9291553,118.566138 15.6675749,118.566138 C3.40599455,118.566138 0,116.863141 0,116.863141 L15.6675749,4.37806099e-06 Z" id="Triangle-2" fill="#FF0000" transform="translate(15.667575, 59.283071) scale(1, -1) translate(-15.667575, -59.283071) "></path>
                </g>
                <g id="165" transform="translate(124.678902, 125.086038) rotate(-195.000000) translate(-124.678902, -125.086038) translate(108.678902, 0.086038)">
                    <path d="M15.6675749,131.130795 L-1.88293825e-13,247.993935 C-1.88293825e-13,247.993935 3.40599455,249.696928 15.6675749,249.696928 C27.9291553,249.696928 31.3351499,247.993931 31.3351499,247.993931 L15.6675749,131.130795 L15.6675749,131.130795 Z" id="Triangle-2-Copy-2" fill="#F00050"></path>
                    <path d="M15.6675749,4.37806041e-06 L31.3351499,116.863145 C31.3351499,116.863145 27.9291553,118.566138 15.6675749,118.566138 C3.40599455,118.566138 1.19193544e-12,116.863141 1.19193544e-12,116.863141 L15.6675749,4.37806041e-06 Z" id="Triangle-2" fill="#77CC00" transform="translate(15.667575, 59.283071) scale(1, -1) translate(-15.667575, -59.283071) "></path>
                </g>
                <g id="150" transform="translate(124.712111, 125.166213) rotate(-210.000000) translate(-124.712111, -125.166213) translate(108.712111, 0.166213)">
                    <path d="M15.6675749,131.130795 L8.33111358e-13,247.993935 C8.33111358e-13,247.993935 3.40599455,249.696928 15.6675749,249.696928 C27.9291553,249.696928 31.3351499,247.993931 31.3351499,247.993931 L15.6675749,131.130795 L15.6675749,131.130795 Z" id="Triangle-2-Copy-2" fill="#E00080"></path>
                    <path d="M15.6675749,4.37806133e-06 L31.3351499,116.863145 C31.3351499,116.863145 27.9291553,118.566138 15.6675749,118.566138 C3.40599455,118.566138 -9.76996262e-14,116.863141 -9.76996262e-14,116.863141 L15.6675749,4.37806133e-06 Z" id="Triangle-2" fill="#AADD00" transform="translate(15.667575, 59.283071) scale(1, -1) translate(-15.667575, -59.283071) "></path>
                </g>
                <g id="135" transform="translate(124.764940, 125.235060) rotate(-225.000000) translate(-124.764940, -125.235060) translate(108.764940, 0.235060)">
                    <path d="M15.6675749,131.130795 L-1.46904711e-12,247.993935 C-1.46904711e-12,247.993935 3.40599455,249.696928 15.6675749,249.696928 C27.9291553,249.696928 31.3351499,247.993931 31.3351499,247.993931 L15.6675749,131.130795 L15.6675749,131.130795 Z" id="Triangle-2-Copy-2" fill="#D000B0"></path>
                    <path d="M15.6675749,4.37806098e-06 L31.3351499,116.863145 C31.3351499,116.863145 27.9291553,118.566138 15.6675749,118.566138 C3.40599455,118.566138 -2.93098879e-13,116.863141 -2.93098879e-13,116.863141 L15.6675749,4.37806098e-06 Z" id="Triangle-2" fill="#CCEE00" transform="translate(15.667575, 59.283071) scale(1, -1) translate(-15.667575, -59.283071) "></path>
                </g>
                <g id="120" transform="translate(124.833787, 125.287889) rotate(-240.000000) translate(-124.833787, -125.287889) translate(108.833787, 0.287889)">
                    <path d="M15.6675749,131.130795 L2.5970337e-12,247.993935 C2.5970337e-12,247.993935 3.40599455,249.696928 15.6675749,249.696928 C27.9291553,249.696928 31.3351499,247.993931 31.3351499,247.993931 L15.6675749,131.130795 L15.6675749,131.130795 Z" id="Triangle-2-Copy-2" fill="#B000B0"></path>
                    <path d="M15.6675749,4.37806052e-06 L31.3351499,116.863145 C31.3351499,116.863145 27.9291553,118.566138 15.6675749,118.566138 C3.40599455,118.566138 -5.73763259e-13,116.863141 -5.73763259e-13,116.863141 L15.6675749,4.37806052e-06 Z" id="Triangle-2" fill="#FFFF00" transform="translate(15.667575, 59.283071) scale(1, -1) translate(-15.667575, -59.283071) "></path>
                </g>
                <g id="105" transform="translate(124.913962, 125.321098) rotate(-255.000000) translate(-124.913962, -125.321098) translate(108.913962, 0.321098)">
                    <path d="M15.6675749,131.130795 L7.10542736e-15,247.993935 C7.10542736e-15,247.993935 3.40599455,249.696928 15.6675749,249.696928 C27.9291553,249.696928 31.3351499,247.993931 31.3351499,247.993931 L15.6675749,131.130795 L15.6675749,131.130795 Z" id="Triangle-2-Copy-2" fill="#8000B0"></path>
                    <path d="M15.6675749,4.37806092e-06 L31.3351499,116.863145 C31.3351499,116.863145 27.9291553,118.566138 15.6675749,118.566138 C3.40599455,118.566138 -7.81597009e-14,116.863141 -7.81597009e-14,116.863141 L15.6675749,4.37806092e-06 Z" id="Triangle-2" fill="#FFE000" transform="translate(15.667575, 59.283071) scale(1, -1) translate(-15.667575, -59.283071) "></path>
                </g>
                <g id="90" transform="translate(125.000000, 125.332425) rotate(-270.000000) translate(-125.000000, -125.332425) translate(109.000000, 0.332425)">
                    <path d="M15.6675749,131.130795 L9.59232693e-14,247.993935 C9.59232693e-14,247.993935 3.40599455,249.696928 15.6675749,249.696928 C27.9291553,249.696928 31.3351499,247.993931 31.3351499,247.993931 L15.6675749,131.130795 L15.6675749,131.130795 Z" id="Triangle-2-Copy-2" fill="#6000DD"></path>
                    <path d="M15.6675749,4.37806061e-06 L31.3351499,116.863145 C31.3351499,116.863145 27.9291553,118.566138 15.6675749,118.566138 C3.40599455,118.566138 1.0658141e-14,116.863141 1.0658141e-14,116.863141 L15.6675749,4.37806061e-06 Z" id="Triangle-2" fill="#FFC000" transform="translate(15.667575, 59.283071) scale(1, -1) translate(-15.667575, -59.283071) "></path>
                </g>
                <g id="75" transform="translate(125.086038, 125.321098) rotate(-285.000000) translate(-125.086038, -125.321098) translate(109.086038, 0.321098)">
                    <path d="M15.6675749,131.130795 L-5.1691984e-13,247.993935 C-5.1691984e-13,247.993935 3.40599455,249.696928 15.6675749,249.696928 C27.9291553,249.696928 31.3351499,247.993931 31.3351499,247.993931 L15.6675749,131.130795 L15.6675749,131.130795 Z" id="Triangle-2-Copy-2" fill="#3000E0"></path>
                    <path d="M15.6675749,4.37806081e-06 L31.3351499,116.863145 C31.3351499,116.863145 27.9291553,118.566138 15.6675749,118.566138 C3.40599455,118.566138 -3.08908454e-12,116.863141 -3.08908454e-12,116.863141 L15.6675749,4.37806081e-06 Z" id="Triangle-2" fill="#FFA000" transform="translate(15.667575, 59.283071) scale(1, -1) translate(-15.667575, -59.283071) "></path>
                </g>
                <g id="60" transform="translate(125.166213, 125.287889) rotate(-300.000000) translate(-125.166213, -125.287889) translate(109.166213, 0.287889)">
                    <path d="M15.6675749,131.130795 L-4.28101998e-13,247.993935 C-4.28101998e-13,247.993935 3.40599455,249.696928 15.6675749,249.696928 C27.9291553,249.696928 31.3351499,247.993931 31.3351499,247.993931 L15.6675749,131.130795 L15.6675749,131.130795 Z" id="Triangle-2-Copy-2" fill="#0000FF"></path>
                    <path d="M15.6675749,4.37806038e-06 L31.3351499,116.863145 C31.3351499,116.863145 27.9291553,118.566138 15.6675749,118.566138 C3.40599455,118.566138 5.5067062e-14,116.863141 5.5067062e-14,116.863141 L15.6675749,4.37806038e-06 Z" id="Triangle-2" fill="#FF8000" transform="translate(15.667575, 59.283071) scale(1, -1) translate(-15.667575, -59.283071) "></path>
                </g>
                <g id="45" transform="translate(125.235060, 125.235060) rotate(-315.000000) translate(-125.235060, -125.235060) translate(109.235060, 0.235060)">
                    <path d="M15.6675749,131.130795 L-2.85993451e-13,247.993935 C-2.85993451e-13,247.993935 3.40599455,249.696928 15.6675749,249.696928 C27.9291553,249.696928 31.3351499,247.993931 31.3351499,247.993931 L15.6675749,131.130795 L15.6675749,131.130795 Z" id="Triangle-2-Copy-2" fill="#0090FF"></path>
                    <path d="M15.6675749,4.37806104e-06 L31.3351499,116.863145 C31.3351499,116.863145 27.9291553,118.566138 15.6675749,118.566138 C3.40599455,118.566138 3.90798505e-14,116.863141 3.90798505e-14,116.863141 L15.6675749,4.37806104e-06 Z" id="Triangle-2" fill="#FF6000" transform="translate(15.667575, 59.283071) scale(1, -1) translate(-15.667575, -59.283071) "></path>
                </g>
                <g id="30" transform="translate(125.287889, 125.166213) rotate(-330.000000) translate(-125.287889, -125.166213) translate(109.287889, 0.166213)">
                    <path d="M15.6675749,131.130795 L-1.32871492e-12,247.993935 C-1.32871492e-12,247.993935 3.40599455,249.696928 15.6675749,249.696928 C27.9291553,249.696928 31.3351499,247.993931 31.3351499,247.993931 L15.6675749,131.130795 L15.6675749,131.130795 Z" id="Triangle-2-Copy-2" fill="#00CCC0"></path>
                    <path d="M15.6675749,4.37806146e-06 L31.3351499,116.863145 C31.3351499,116.863145 27.9291553,118.566138 15.6675749,118.566138 C3.40599455,118.566138 -1.95399252e-14,116.863141 -1.95399252e-14,116.863141 L15.6675749,4.37806146e-06 Z" id="Triangle-2" fill="#FF4000" transform="translate(15.667575, 59.283071) scale(1, -1) translate(-15.667575, -59.283071) "></path>
                </g>
                <g id="15" transform="translate(125.321098, 125.086038) rotate(-345.000000) translate(-125.321098, -125.086038) translate(109.321098, 0.086038)">
                    <path d="M15.6675749,131.130795 L2.14939178e-13,247.993935 C2.14939178e-13,247.993935 3.40599455,249.696928 15.6675749,249.696928 C27.9291553,249.696928 31.3351499,247.993931 31.3351499,247.993931 L15.6675749,131.130795 L15.6675749,131.130795 Z" id="Triangle-2-Copy-2" fill="#00DD40"></path>
                    <path d="M15.6675749,4.3780609e-06 L31.3351499,116.863145 C31.3351499,116.863145 27.9291553,118.566138 15.6675749,118.566138 C3.40599455,118.566138 -7.81597009e-14,116.863141 -7.81597009e-14,116.863141 L15.6675749,4.3780609e-06 Z" id="Triangle-2" fill="#FF2000" transform="translate(15.667575, 59.283071) scale(1, -1) translate(-15.667575, -59.283071) "></path>
                </g>
            </g>
            <g id="arros" transform="translate(52.000000, -92.000000)">
                <path d="M150.325558,347.436546 C147.690203,306.463058 177.576325,319.168479 183.169922,315.572266 C188.763518,311.976052 186.800781,320.421875 186.800781,320.421875 C186.800781,320.421875 152.59375,393.298513 192.042969,363.896169 C231.492188,334.493826 259.098107,315.305825 286.796875,320.421875 C308.707031,324.46875 301.867696,387.185695 297.707031,390.003906 C288.714295,396.095102 265.425781,393.003906 265.425781,393.003906 C265.425781,393.003906 308.707031,311.369141 238.837891,359.642578 C194.31724,390.402436 158.082031,468.03125 150.325558,347.436546 Z" id="blue" fill="#00CCC0"></path>
                <path d="M406.75,399.671875 C442.640625,320.121094 420.5,153.265625 211.847656,293.664063 C72.0618767,387.723418 -3.5234375,213.734375 116.355469,213.734375" id="purple" stroke="#6000DD" stroke-width="25" stroke-linecap="square"></path>
                <path d="M356.673828,224.724609 C354.007813,219.341797 356.673828,212.027344 356.673828,203.972656 C449.685547,179.972656 465.462891,249.691406 336.677734,304.507812 C207.892578,359.324219 119.707031,261.425781 177.621446,388.421231 C184.404811,403.295879 136.844957,403.271193 138.264402,389.44278 C139.683846,375.614368 97.8328105,333.161209 144.264401,301.000002 C174.25466,280.227012 214.203125,300.945312 283.386719,290.554687 C352.570313,280.164062 459.068359,213.515625 356.673828,224.724609 Z" id="yellow" fill="#FFC000"></path>
                <path d="M273.158706,46.2597105 C237.496653,25.6423991 174.637826,21.8012811 144.294305,28.6426227 C113.950784,35.4839644 94.3223499,37.908552 51.0841983,91.2074158 C7.84604663,144.506279 41.3379313,383.951138 43.2637369,395.812764 C45.1895426,407.67439 63.5623008,400.120151 63.5623008,400.120151 L37.6382879,417.329507 L13.8220756,400.810006 C13.8220756,400.810006 30.0454446,406.894182 30.045445,395.812757 C30.0454455,384.731331 -7.18437764,128.236544 1.95199327,96.9474165 C11.0883642,65.6582894 22.9478786,59.6638172 57.9480191,35.4839644 C95.1689117,9.76990472 151.923363,0.247044872 183.555462,0.0422460987 C244.932359,-0.355132308 318.931421,26.647645 330.403204,60.0096996 C341.874986,93.3717541 295.116776,128.43481 295.116776,128.43481 C295.116776,128.43481 294.828591,120.575486 286.062384,116.429624 C277.296177,112.283763 308.82076,66.877022 273.158706,46.2597105 Z" id="red" fill="#FF4000"></path>
            </g>
            <g id="boxes" transform="translate(16.000000, 286.000000)">
                <g id="fronts" transform="translate(0.044088, 29.278557)">
                    <rect id="Rectangle-109-Copy-5" fill="#FF4000" x="0.546293197" y="0.55077957" width="129.885917" height="87.007348"></rect>
                    <rect id="Rectangle-109-Copy-6" fill="#FFC000" x="130.039498" y="0.55077957" width="129.885917" height="87.007348"></rect>
                    <rect id="Rectangle-109-Copy-11" fill="#00CCC0" x="259.532702" y="0.55077957" width="129.885917" height="87.007348"></rect>
                    <rect id="Rectangle-109-Copy-7" fill="#6000DD" x="389.025907" y="0.55077957" width="129.885917" height="87.007348"></rect>
                </g>
                <g id="tops" transform="translate(0.522044, 0.000000)">
                    <polygon id="Rectangle-109-Copy-10" fill="#6000DD" points="501.067745 0 518.330807 30.0382511 388.44489 30.0382511 382.737072 0"></polygon>
                    <polygon id="Rectangle-109-Copy-9" fill="#00CCC0" points="383.299901 0 388.863873 30.0382511 258.977956 30.0382511 258.977956 0"></polygon>
                    <polygon id="Rectangle-109-Copy-8" fill="#FFC000" points="259.396939 0 259.396939 30.0382511 129.511022 30.0382511 129.511022 0"></polygon>
                    <polygon id="Rectangle" fill="#FF4000" points="129.895795 30.2284012 0.00865719667 30.2284012 19.4310924 0.19015009 137.447724 0.19015009"></polygon>
                </g>
            </g>
        </g>
    </g>
</svg>