<?xml version="1.0" encoding="UTF-8" standalone="no"?>
<svg width="566px" height="387px" viewBox="0 0 566 387" version="1.1" xmlns="http://www.w3.org/2000/svg" xmlns:xlink="http://www.w3.org/1999/xlink">
    <!-- Generator: Sketch 41 (35326) - http://www.bohemiancoding.com/sketch -->
    <title>pouring wheel</title>
    <desc>Created with Sketch.</desc>
    <defs>
        <radialGradient cx="50%" cy="41.5554257%" fx="50%" fy="41.5554257%" r="101.672835%" id="radialGradient-1">
            <stop stop-color="#FFFFFF" offset="0%"></stop>
            <stop stop-color="#E3E5D0" offset="100%"></stop>
        </radialGradient>
    </defs>
    <g id="thumb" stroke="none" stroke-width="1" fill="none" fill-rule="evenodd">
        <g id="pouring-wheel">
            <rect id="background" fill="url(#radialGradient-1)" x="-80" y="-121" width="714" height="508"></rect>
            <g id="printwheel" transform="translate(164.000000, -19.000000)">
                <g id="straight-wings" transform="translate(109.332425, 0.000000)">
                    <path d="M15.6675749,131.130795 L-5.32907052e-15,247.993935 C-5.32907052e-15,247.993935 3.40599455,249.696928 15.6675749,249.696928 C27.9291553,249.696928 31.3351499,247.993931 31.3351499,247.993931 L15.6675749,131.130795 L15.6675749,131.130795 Z" id="Triangle-2-Copy-2" fill="#00CC00"></path>
                    <path d="M15.6675749,4.37806113e-06 L31.3351499,116.863145 C31.3351499,116.863145 27.9291553,118.566138 15.6675749,118.566138 C3.40599455,118.566138 0,116.863141 0,116.863141 L15.6675749,4.37806113e-06 Z" id="Triangle-2" fill="#FF0000" transform="translate(15.667575, 59.283071) scale(1, -1) translate(-15.667575, -59.283071) "></path>
                </g>
                <g id="165" transform="translate(124.678902, 125.086038) rotate(-195.000000) translate(-124.678902, -125.086038) translate(108.678902, 0.086038)">
                    <path d="M15.6675749,131.130795 L-4.36983782e-13,247.993935 C-4.36983782e-13,247.993935 3.40599455,249.696928 15.6675749,249.696928 C27.9291553,249.696928 31.3351499,247.993931 31.3351499,247.993931 L15.6675749,131.130795 L15.6675749,131.130795 Z" id="Triangle-2-Copy-2" fill="#F00050"></path>
                    <path d="M15.6675749,4.37806052e-06 L31.3351499,116.863145 C31.3351499,116.863145 27.9291553,118.566138 15.6675749,118.566138 C3.40599455,118.566138 1.22390986e-12,116.863141 1.22390986e-12,116.863141 L15.6675749,4.37806052e-06 Z" id="Triangle-2" fill="#77CC00" transform="translate(15.667575, 59.283071) scale(1, -1) translate(-15.667575, -59.283071) "></path>
                </g>
                <g id="150" transform="translate(124.712111, 125.166213) rotate(-210.000000) translate(-124.712111, -125.166213) translate(108.712111, 0.166213)">
                    <path d="M15.6675749,131.130795 L8.72191208e-13,247.993935 C8.72191208e-13,247.993935 3.40599455,249.696928 15.6675749,249.696928 C27.9291553,249.696928 31.3351499,247.993931 31.3351499,247.993931 L15.6675749,131.130795 L15.6675749,131.130795 Z" id="Triangle-2-Copy-2" fill="#E00080"></path>
                    <path d="M15.6675749,4.37806143e-06 L31.3351499,116.863145 C31.3351499,116.863145 27.9291553,118.566138 15.6675749,118.566138 C3.40599455,118.566138 -4.4408921e-14,116.863141 -4.4408921e-14,116.863141 L15.6675749,4.37806143e-06 Z" id="Triangle-2" fill="#AADD00" transform="translate(15.667575, 59.283071) scale(1, -1) translate(-15.667575, -59.283071) "></path>
                </g>
                <g id="135" transform="translate(124.764940, 125.235060) rotate(-225.000000) translate(-124.764940, -125.235060) translate(108.764940, 0.235060)">
                    <path d="M15.6675749,131.130795 L-6.91002811e-13,247.993935 C-6.91002811e-13,247.993935 3.40599455,249.696928 15.6675749,249.696928 C27.9291553,249.696928 31.3351499,247.993931 31.3351499,247.993931 L15.6675749,131.130795 L15.6675749,131.130795 Z" id="Triangle-2-Copy-2" fill="#D000B0"></path>
                    <path d="M15.6675749,4.37806089e-06 L31.3351499,116.863145 C31.3351499,116.863145 27.9291553,118.566138 15.6675749,118.566138 C3.40599455,118.566138 -3.17967874e-13,116.863141 -3.17967874e-13,116.863141 L15.6675749,4.37806089e-06 Z" id="Triangle-2" fill="#CCEE00" transform="translate(15.667575, 59.283071) scale(1, -1) translate(-15.667575, -59.283071) "></path>
                </g>
                <g id="120" transform="translate(124.833787, 125.287889) rotate(-240.000000) translate(-124.833787, -125.287889) translate(108.833787, 0.287889)">
                    <path d="M15.6675749,131.130795 L1.41042733e-12,247.993935 C1.41042733e-12,247.993935 3.40599455,249.696928 15.6675749,249.696928 C27.9291553,249.696928 31.3351499,247.993931 31.3351499,247.993931 L15.6675749,131.130795 L15.6675749,131.130795 Z" id="Triangle-2-Copy-2" fill="#B000B0"></path>
                    <path d="M15.6675749,4.37806078e-06 L31.3351499,116.863145 C31.3351499,116.863145 27.9291553,118.566138 15.6675749,118.566138 C3.40599455,118.566138 -4.35207426e-13,116.863141 -4.35207426e-13,116.863141 L15.6675749,4.37806078e-06 Z" id="Triangle-2" fill="#FFFF00" transform="translate(15.667575, 59.283071) scale(1, -1) translate(-15.667575, -59.283071) "></path>
                </g>
                <g id="105" transform="translate(124.913962, 125.321098) rotate(-255.000000) translate(-124.913962, -125.321098) translate(108.913962, 0.321098)">
                    <path d="M15.6675749,131.130795 L4.97379915e-14,247.993935 C4.97379915e-14,247.993935 3.40599455,249.696928 15.6675749,249.696928 C27.9291553,249.696928 31.3351499,247.993931 31.3351499,247.993931 L15.6675749,131.130795 L15.6675749,131.130795 Z" id="Triangle-2-Copy-2" fill="#8000B0"></path>
                    <path d="M15.6675749,4.37806091e-06 L31.3351499,116.863145 C31.3351499,116.863145 27.9291553,118.566138 15.6675749,118.566138 C3.40599455,118.566138 1.63424829e-13,116.863141 1.63424829e-13,116.863141 L15.6675749,4.37806091e-06 Z" id="Triangle-2" fill="#FFE000" transform="translate(15.667575, 59.283071) scale(1, -1) translate(-15.667575, -59.283071) "></path>
                </g>
                <g id="90" transform="translate(125.000000, 125.332425) rotate(-270.000000) translate(-125.000000, -125.332425) translate(109.000000, 0.332425)">
                    <path d="M15.6675749,131.130795 L-1.24344979e-13,247.993935 C-1.24344979e-13,247.993935 3.40599455,249.696928 15.6675749,249.696928 C27.9291553,249.696928 31.3351499,247.993931 31.3351499,247.993931 L15.6675749,131.130795 L15.6675749,131.130795 Z" id="Triangle-2-Copy-2" fill="#6000DD"></path>
                    <path d="M15.6675749,4.37806064e-06 L31.3351499,116.863145 C31.3351499,116.863145 27.9291553,118.566138 15.6675749,118.566138 C3.40599455,118.566138 -5.32907052e-14,116.863141 -5.32907052e-14,116.863141 L15.6675749,4.37806064e-06 Z" id="Triangle-2" fill="#FFC000" transform="translate(15.667575, 59.283071) scale(1, -1) translate(-15.667575, -59.283071) "></path>
                </g>
                <g id="75" transform="translate(125.086038, 125.321098) rotate(-285.000000) translate(-125.086038, -125.321098) translate(109.086038, 0.321098)">
                    <path d="M15.6675749,131.130795 L-1.65201186e-13,247.993935 C-1.65201186e-13,247.993935 3.40599455,249.696928 15.6675749,249.696928 C27.9291553,249.696928 31.3351499,247.993931 31.3351499,247.993931 L15.6675749,131.130795 L15.6675749,131.130795 Z" id="Triangle-2-Copy-2" fill="#3000E0"></path>
                    <path d="M15.6675749,4.37806069e-06 L31.3351499,116.863145 C31.3351499,116.863145 27.9291553,118.566138 15.6675749,118.566138 C3.40599455,118.566138 -3.24895666e-12,116.863141 -3.24895666e-12,116.863141 L15.6675749,4.37806069e-06 Z" id="Triangle-2" fill="#FFA000" transform="translate(15.667575, 59.283071) scale(1, -1) translate(-15.667575, -59.283071) "></path>
                </g>
                <g id="60" transform="translate(125.166213, 125.287889) rotate(-300.000000) translate(-125.166213, -125.287889) translate(109.166213, 0.287889)">
                    <path d="M15.6675749,131.130795 L-6.5192296e-13,247.993935 C-6.5192296e-13,247.993935 3.40599455,249.696928 15.6675749,249.696928 C27.9291553,249.696928 31.3351499,247.993931 31.3351499,247.993931 L15.6675749,131.130795 L15.6675749,131.130795 Z" id="Triangle-2-Copy-2" fill="#0000FF"></path>
                    <path d="M15.6675749,4.37806042e-06 L31.3351499,116.863145 C31.3351499,116.863145 27.9291553,118.566138 15.6675749,118.566138 C3.40599455,118.566138 5.86197757e-14,116.863141 5.86197757e-14,116.863141 L15.6675749,4.37806042e-06 Z" id="Triangle-2" fill="#FF8000" transform="translate(15.667575, 59.283071) scale(1, -1) translate(-15.667575, -59.283071) "></path>
                </g>
                <g id="45" transform="translate(125.235060, 125.235060) rotate(-315.000000) translate(-125.235060, -125.235060) translate(109.235060, 0.235060)">
                    <path d="M15.6675749,131.130795 L-2.25597319e-13,247.993935 C-2.25597319e-13,247.993935 3.40599455,249.696928 15.6675749,249.696928 C27.9291553,249.696928 31.3351499,247.993931 31.3351499,247.993931 L15.6675749,131.130795 L15.6675749,131.130795 Z" id="Triangle-2-Copy-2" fill="#0090FF"></path>
                    <path d="M15.6675749,4.37806105e-06 L31.3351499,116.863145 C31.3351499,116.863145 27.9291553,118.566138 15.6675749,118.566138 C3.40599455,118.566138 -1.0658141e-14,116.863141 -1.0658141e-14,116.863141 L15.6675749,4.37806105e-06 Z" id="Triangle-2" fill="#FF6000" transform="translate(15.667575, 59.283071) scale(1, -1) translate(-15.667575, -59.283071) "></path>
                </g>
                <g id="30" transform="translate(125.287889, 125.166213) rotate(-330.000000) translate(-125.287889, -125.166213) translate(109.287889, 0.166213)">
                    <path d="M15.6675749,131.130795 L-4.33431069e-13,247.993935 C-4.33431069e-13,247.993935 3.40599455,249.696928 15.6675749,249.696928 C27.9291553,249.696928 31.3351499,247.993931 31.3351499,247.993931 L15.6675749,131.130795 L15.6675749,131.130795 Z" id="Triangle-2-Copy-2" fill="#00CCC0"></path>
                    <path d="M15.6675749,4.37806153e-06 L31.3351499,116.863145 C31.3351499,116.863145 27.9291553,118.566138 15.6675749,118.566138 C3.40599455,118.566138 -9.41469125e-14,116.863141 -9.41469125e-14,116.863141 L15.6675749,4.37806153e-06 Z" id="Triangle-2" fill="#FF4000" transform="translate(15.667575, 59.283071) scale(1, -1) translate(-15.667575, -59.283071) "></path>
                </g>
                <g id="15" transform="translate(125.321098, 125.086038) rotate(-345.000000) translate(-125.321098, -125.086038) translate(109.321098, 0.086038)">
                    <path d="M15.6675749,131.130795 L2.39808173e-13,247.993935 C2.39808173e-13,247.993935 3.40599455,249.696928 15.6675749,249.696928 C27.9291553,249.696928 31.3351499,247.993931 31.3351499,247.993931 L15.6675749,131.130795 L15.6675749,131.130795 Z" id="Triangle-2-Copy-2" fill="#00DD40"></path>
                    <path d="M15.6675749,4.37806104e-06 L31.3351499,116.863145 C31.3351499,116.863145 27.9291553,118.566138 15.6675749,118.566138 C3.40599455,118.566138 -9.23705556e-14,116.863141 -9.23705556e-14,116.863141 L15.6675749,4.37806104e-06 Z" id="Triangle-2" fill="#FF2000" transform="translate(15.667575, 59.283071) scale(1, -1) translate(-15.667575, -59.283071) "></path>
                </g>
            </g>
            <g id="boxes" transform="translate(16.000000, 270.000000)">
                <g id="fronts" transform="translate(0.044088, 29.278557)">
                    <rect id="Rectangle-109-Copy-5" fill="#FF4000" x="0.546293197" y="0.55077957" width="129.885917" height="87.007348"></rect>
                    <rect id="Rectangle-109-Copy-6" fill="#FFC000" x="130.039498" y="0.55077957" width="129.885917" height="87.007348"></rect>
                    <rect id="Rectangle-109-Copy-11" fill="#00CCC0" x="259.532702" y="0.55077957" width="129.885917" height="87.007348"></rect>
                    <rect id="Rectangle-109-Copy-7" fill="#6000DD" x="389.025907" y="0.55077957" width="129.885917" height="87.007348"></rect>
                </g>
                <g id="tops" transform="translate(0.522044, 0.000000)">
                    <polygon id="Rectangle-109-Copy-10" fill="#6000DD" points="501.067745 0 518.330807 30.0382511 388.44489 30.0382511 382.737072 0"></polygon>
                    <polygon id="Rectangle-109-Copy-9" fill="#00CCC0" points="383.299901 0 388.863873 30.0382511 258.977956 30.0382511 258.977956 0"></polygon>
                    <polygon id="Rectangle-109-Copy-8" fill="#FFC000" points="259.396939 0 259.396939 30.0382511 129.511022 30.0382511 129.511022 0"></polygon>
                    <polygon id="Rectangle" fill="#FF4000" points="129.895795 30.2284012 0.00865719667 30.2284012 19.4310924 0.19015009 137.447724 0.19015009"></polygon>
                </g>
                <text id="Part-4:-4-Colors-for" opacity="0.70936334" font-family="AvenirNextCondensed-DemiBold, Avenir Next Condensed" font-size="16" font-style="condensed" font-weight="500" letter-spacing="-0.266666651" fill="#FFFFFF">
                    <tspan x="403" y="54">Part 4:</tspan>
                    <tspan x="403" y="76">4  Colors for Print</tspan>
                </text>
                <text id="Part-3:-2-&amp;-3-Colors" fill="#D8D8D8" font-family="AvenirNextCondensed-DemiBold, Avenir Next Condensed" font-size="16" font-style="condensed" font-weight="500" letter-spacing="-0.266666651">
                    <tspan x="277" y="52">Part 3:</tspan>
                    <tspan x="277" y="74">2 &amp; 3 Colors for </tspan>
                    <tspan x="277" y="96">Print</tspan>
                    <tspan x="304.706667" y="96" font-size="17"> </tspan>
                </text>
                <text id="Part-2:-4-Colors-for" opacity="0.551189366" font-family="AvenirNextCondensed-DemiBold, Avenir Next Condensed" font-size="16" font-style="condensed" font-weight="500" letter-spacing="-0.282352954" fill="#4A4A4A">
                    <tspan x="144" y="54">Part 2:</tspan>
                    <tspan x="144" y="76">4 Colors for Web</tspan>
                </text>
                <text id="Part-1:-2-&amp;-3-Colors" opacity="0.700618004" font-family="AvenirNextCondensed-DemiBold, Avenir Next Condensed" font-size="16" font-style="condensed" font-weight="500" letter-spacing="-0.282352954" fill="#FFFFFF">
                    <tspan x="15" y="55">Part 1:</tspan>
                    <tspan x="15" y="77">2 &amp; 3 Colors for </tspan>
                    <tspan x="15" y="99">Web </tspan>
                </text>
            </g>
            <g id="arros" transform="translate(52.000000, -108.000000)">
                <path d="M116.498124,216.600635 C116.522452,221.518553 131.05955,224.728162 131.05955,224.728162 C131.05955,224.728162 72.9708285,224.02936 64.5602027,233.952394 C58.6297868,240.949224 60.1987334,251.207349 75.859375,257.476562 C96.9393145,265.915211 212.873043,240.104538 253.889567,235.952393 C294.90609,231.800248 296.875,233.952394 350.792969,235.952393 C371.917817,236.735984 421.039202,253.401483 428.086007,282.039062 C435.132812,310.676642 410.986607,384.112529 413.890514,393.177387 C418.445607,407.396595 428.086007,395.907894 428.086007,395.907894 L409.377803,419.329507 L387.384689,396.159812 C387.384689,396.159812 402.213447,405.73447 402.213442,393.177387 C402.213441,387.966573 416.653391,331.596972 402.213442,300 C387.773494,268.403028 390.152334,277.523437 365.15625,268.398437 C340.442278,259.376424 329.299434,254.993493 285.046869,257.476562 C240.794305,259.959632 178.005696,272.77874 150.589846,277.039062 C115.498125,282.492187 97.1640625,282.039062 64.5602027,277.039062 C31.956343,272.039062 28.355102,225.839252 42.8554688,216.600635 C66.6979137,201.409901 131.05955,202.027266 131.05955,202.027266 C131.05955,202.027266 116.4451,205.881707 116.498124,216.600635 Z" id="purple" fill="#6000DD"></path>
                <path d="M348.105283,222.892917 C346.958933,211.131926 350.357567,204.999449 350.357567,204.999449 C350.357567,204.999449 388.589844,188.695864 405.480469,198.347656 C422.371094,207.999449 425.382574,226.978071 412.632814,252.359377 C399.883054,277.740683 316.748293,317.215612 276.644533,321.343752 C236.540773,325.471892 180.51676,284.164764 150.621446,313.343752 C120.726132,342.52274 167.063851,381.827015 163.621446,388.421231 C155.956194,403.10467 180.133184,393.645909 180.133184,393.645909 L159.782904,410 L137,391.759793 C137,391.759793 150.844957,403.271193 152.264402,389.44278 C153.683846,375.614368 92.8328105,325.161209 139.264401,293.000002 C169.25466,272.227012 229.120998,304.413217 280.796877,301.000002 C331.42231,297.656169 397.189993,246.688419 396.008224,229.335437 C393.620165,194.269408 349.251634,234.653907 348.105283,222.892917 Z" id="yellow" fill="#FFC000"></path>
                <path d="M150.325558,347.436546 C145.039787,332.199462 165.15509,310.03269 172.347656,312.976562 C179.540222,315.920435 186.800781,320.421875 186.800781,320.421875 C186.800781,320.421875 150.748047,358.021484 212.124107,350.946261 C242.012858,347.500788 265.045073,328.47235 283.204177,322.964691 C301.363281,317.457031 314.30652,324.049571 321.683594,331.041016 C336.06322,344.66896 288.977357,383.690387 291.184828,392.31988 C293.392298,400.949373 306.610928,395.884884 306.610928,395.884884 L285.823492,413.257682 L261.179035,392.966681 C261.179035,392.966681 278.742419,403.204963 278.624669,390.966682 C278.506919,378.7284 316.3553,353.814745 299.376953,340.076172 C282.398606,326.337598 258.845703,360.779297 234.470411,367.855469 C170.91566,386.305477 155.611328,362.673629 150.325558,347.436546 Z" id="blue" fill="#00CCC0"></path>
                <path d="M273.158706,46.2597105 C237.496653,25.6423991 174.637826,21.8012811 144.294305,28.6426227 C113.950784,35.4839644 94.3223499,37.908552 51.0841983,91.2074158 C7.84604663,144.506279 41.3379313,383.951138 43.2637369,395.812764 C45.1895426,407.67439 63.5623008,400.120151 63.5623008,400.120151 L37.6382879,417.329507 L13.8220756,400.810006 C13.8220756,400.810006 30.0454446,406.894182 30.045445,395.812757 C30.0454455,384.731331 -7.18437764,128.236544 1.95199327,96.9474165 C11.0883642,65.6582894 22.9478786,59.6638172 57.9480191,35.4839644 C95.1689117,9.76990472 151.923363,0.247044872 183.555462,0.0422460987 C244.932359,-0.355132308 318.931421,26.647645 330.403204,60.0096996 C341.874986,93.3717541 295.116776,128.43481 295.116776,128.43481 C295.116776,128.43481 304.828591,117.575486 296.062384,113.429624 C287.296177,109.283763 274.898969,120.987743 274.898969,120.987743 C274.898969,120.987743 308.82076,66.877022 273.158706,46.2597105 Z" id="red" fill="#FF4000"></path>
            </g>
        </g>
    </g>
</svg>