<?xml version="1.0" encoding="UTF-8" standalone="no"?>
<svg width="566px" height="412px" viewBox="0 0 566 412" version="1.1" xmlns="http://www.w3.org/2000/svg" xmlns:xlink="http://www.w3.org/1999/xlink">
    <!-- Generator: Sketch 41 (35326) - http://www.bohemiancoding.com/sketch -->
    <title>pouring wheel</title>
    <desc>Created with Sketch.</desc>
    <defs>
        <radialGradient cx="50%" cy="41.5554257%" fx="50%" fy="41.5554257%" r="101.672835%" id="radialGradient-1">
            <stop stop-color="#FFFFFF" offset="0%"></stop>
            <stop stop-color="#E3E5D0" offset="100%"></stop>
        </radialGradient>
        <rect id="path-2" x="0" y="0" width="38" height="28.952381" rx="9"></rect>
        <mask id="mask-3" maskContentUnits="userSpaceOnUse" maskUnits="objectBoundingBox" x="0" y="0" width="38" height="28.952381" fill="white">
            <use xlink:href="#path-2"></use>
        </mask>
        <rect id="path-4" x="0" y="0" width="38" height="28.952381" rx="9"></rect>
        <mask id="mask-5" maskContentUnits="userSpaceOnUse" maskUnits="objectBoundingBox" x="0" y="0" width="38" height="28.952381" fill="white">
            <use xlink:href="#path-4"></use>
        </mask>
    </defs>
    <g id="thumb" stroke="none" stroke-width="1" fill="none" fill-rule="evenodd">
        <g id="pouring-wheel">
            <rect id="background" fill="url(#radialGradient-1)" x="-80" y="-96" width="714" height="508"></rect>
            <g id="printwheel" transform="translate(164.000000, -7.000000)">
                <g id="straight-wings" transform="translate(109.332425, 0.000000)">
                    <path d="M15.6675749,131.130795 L5.32907052e-15,247.993935 C5.32907052e-15,247.993935 3.40599455,249.696928 15.6675749,249.696928 C27.9291553,249.696928 31.3351499,247.993931 31.3351499,247.993931 L15.6675749,131.130795 L15.6675749,131.130795 Z" id="Triangle-2-Copy-2" fill="#00CC00"></path>
                    <path d="M15.6675749,4.37806099e-06 L31.3351499,116.863145 C31.3351499,116.863145 27.9291553,118.566138 15.6675749,118.566138 C3.40599455,118.566138 0,116.863141 0,116.863141 L15.6675749,4.37806099e-06 Z" id="Triangle-2" fill="#FF0000" transform="translate(15.667575, 59.283071) scale(1, -1) translate(-15.667575, -59.283071) "></path>
                </g>
                <g id="165" transform="translate(124.678902, 125.086038) rotate(-195.000000) translate(-124.678902, -125.086038) translate(108.678902, 0.086038)">
                    <path d="M15.6675749,131.130795 L-1.88293825e-13,247.993935 C-1.88293825e-13,247.993935 3.40599455,249.696928 15.6675749,249.696928 C27.9291553,249.696928 31.3351499,247.993931 31.3351499,247.993931 L15.6675749,131.130795 L15.6675749,131.130795 Z" id="Triangle-2-Copy-2" fill="#F00050"></path>
                    <path d="M15.6675749,4.37806041e-06 L31.3351499,116.863145 C31.3351499,116.863145 27.9291553,118.566138 15.6675749,118.566138 C3.40599455,118.566138 1.19193544e-12,116.863141 1.19193544e-12,116.863141 L15.6675749,4.37806041e-06 Z" id="Triangle-2" fill="#77CC00" transform="translate(15.667575, 59.283071) scale(1, -1) translate(-15.667575, -59.283071) "></path>
                </g>
                <g id="150" transform="translate(124.712111, 125.166213) rotate(-210.000000) translate(-124.712111, -125.166213) translate(108.712111, 0.166213)">
                    <path d="M15.6675749,131.130795 L8.33111358e-13,247.993935 C8.33111358e-13,247.993935 3.40599455,249.696928 15.6675749,249.696928 C27.9291553,249.696928 31.3351499,247.993931 31.3351499,247.993931 L15.6675749,131.130795 L15.6675749,131.130795 Z" id="Triangle-2-Copy-2" fill="#E00080"></path>
                    <path d="M15.6675749,4.37806133e-06 L31.3351499,116.863145 C31.3351499,116.863145 27.9291553,118.566138 15.6675749,118.566138 C3.40599455,118.566138 -9.76996262e-14,116.863141 -9.76996262e-14,116.863141 L15.6675749,4.37806133e-06 Z" id="Triangle-2" fill="#AADD00" transform="translate(15.667575, 59.283071) scale(1, -1) translate(-15.667575, -59.283071) "></path>
                </g>
                <g id="135" transform="translate(124.764940, 125.235060) rotate(-225.000000) translate(-124.764940, -125.235060) translate(108.764940, 0.235060)">
                    <path d="M15.6675749,131.130795 L-8.43769499e-13,247.993935 C-8.43769499e-13,247.993935 3.40599455,249.696928 15.6675749,249.696928 C27.9291553,249.696928 31.3351499,247.993931 31.3351499,247.993931 L15.6675749,131.130795 L15.6675749,131.130795 Z" id="Triangle-2-Copy-2" fill="#D000B0"></path>
                    <path d="M15.6675749,4.37806098e-06 L31.3351499,116.863145 C31.3351499,116.863145 27.9291553,118.566138 15.6675749,118.566138 C3.40599455,118.566138 -2.93098879e-13,116.863141 -2.93098879e-13,116.863141 L15.6675749,4.37806098e-06 Z" id="Triangle-2" fill="#CCEE00" transform="translate(15.667575, 59.283071) scale(1, -1) translate(-15.667575, -59.283071) "></path>
                </g>
                <g id="120" transform="translate(124.833787, 125.287889) rotate(-240.000000) translate(-124.833787, -125.287889) translate(108.833787, 0.287889)">
                    <path d="M15.6675749,131.130795 L1.03383968e-12,247.993935 C1.03383968e-12,247.993935 3.40599455,249.696928 15.6675749,249.696928 C27.9291553,249.696928 31.3351499,247.993931 31.3351499,247.993931 L15.6675749,131.130795 L15.6675749,131.130795 Z" id="Triangle-2-Copy-2" fill="#B000B0"></path>
                    <path d="M15.6675749,4.37806052e-06 L31.3351499,116.863145 C31.3351499,116.863145 27.9291553,118.566138 15.6675749,118.566138 C3.40599455,118.566138 -5.73763259e-13,116.863141 -5.73763259e-13,116.863141 L15.6675749,4.37806052e-06 Z" id="Triangle-2" fill="#FFFF00" transform="translate(15.667575, 59.283071) scale(1, -1) translate(-15.667575, -59.283071) "></path>
                </g>
                <g id="105" transform="translate(124.913962, 125.321098) rotate(-255.000000) translate(-124.913962, -125.321098) translate(108.913962, 0.321098)">
                    <path d="M15.6675749,131.130795 L7.10542736e-15,247.993935 C7.10542736e-15,247.993935 3.40599455,249.696928 15.6675749,249.696928 C27.9291553,249.696928 31.3351499,247.993931 31.3351499,247.993931 L15.6675749,131.130795 L15.6675749,131.130795 Z" id="Triangle-2-Copy-2" fill="#8000B0"></path>
                    <path d="M15.6675749,4.37806092e-06 L31.3351499,116.863145 C31.3351499,116.863145 27.9291553,118.566138 15.6675749,118.566138 C3.40599455,118.566138 -7.81597009e-14,116.863141 -7.81597009e-14,116.863141 L15.6675749,4.37806092e-06 Z" id="Triangle-2" fill="#FFE000" transform="translate(15.667575, 59.283071) scale(1, -1) translate(-15.667575, -59.283071) "></path>
                </g>
                <g id="90" transform="translate(125.000000, 125.332425) rotate(-270.000000) translate(-125.000000, -125.332425) translate(109.000000, 0.332425)">
                    <path d="M15.6675749,131.130795 L9.59232693e-14,247.993935 C9.59232693e-14,247.993935 3.40599455,249.696928 15.6675749,249.696928 C27.9291553,249.696928 31.3351499,247.993931 31.3351499,247.993931 L15.6675749,131.130795 L15.6675749,131.130795 Z" id="Triangle-2-Copy-2" fill="#6000DD"></path>
                    <path d="M15.6675749,4.37806061e-06 L31.3351499,116.863145 C31.3351499,116.863145 27.9291553,118.566138 15.6675749,118.566138 C3.40599455,118.566138 1.0658141e-14,116.863141 1.0658141e-14,116.863141 L15.6675749,4.37806061e-06 Z" id="Triangle-2" fill="#FFC000" transform="translate(15.667575, 59.283071) scale(1, -1) translate(-15.667575, -59.283071) "></path>
                </g>
                <g id="75" transform="translate(125.086038, 125.321098) rotate(-285.000000) translate(-125.086038, -125.321098) translate(109.086038, 0.321098)">
                    <path d="M15.6675749,131.130795 L-5.1691984e-13,247.993935 C-5.1691984e-13,247.993935 3.40599455,249.696928 15.6675749,249.696928 C27.9291553,249.696928 31.3351499,247.993931 31.3351499,247.993931 L15.6675749,131.130795 L15.6675749,131.130795 Z" id="Triangle-2-Copy-2" fill="#3000E0"></path>
                    <path d="M15.6675749,4.37806081e-06 L31.3351499,116.863145 C31.3351499,116.863145 27.9291553,118.566138 15.6675749,118.566138 C3.40599455,118.566138 -3.08908454e-12,116.863141 -3.08908454e-12,116.863141 L15.6675749,4.37806081e-06 Z" id="Triangle-2" fill="#FFA000" transform="translate(15.667575, 59.283071) scale(1, -1) translate(-15.667575, -59.283071) "></path>
                </g>
                <g id="60" transform="translate(125.166213, 125.287889) rotate(-300.000000) translate(-125.166213, -125.287889) translate(109.166213, 0.287889)">
                    <path d="M15.6675749,131.130795 L-4.28101998e-13,247.993935 C-4.28101998e-13,247.993935 3.40599455,249.696928 15.6675749,249.696928 C27.9291553,249.696928 31.3351499,247.993931 31.3351499,247.993931 L15.6675749,131.130795 L15.6675749,131.130795 Z" id="Triangle-2-Copy-2" fill="#0000FF"></path>
                    <path d="M15.6675749,4.37806038e-06 L31.3351499,116.863145 C31.3351499,116.863145 27.9291553,118.566138 15.6675749,118.566138 C3.40599455,118.566138 5.5067062e-14,116.863141 5.5067062e-14,116.863141 L15.6675749,4.37806038e-06 Z" id="Triangle-2" fill="#FF8000" transform="translate(15.667575, 59.283071) scale(1, -1) translate(-15.667575, -59.283071) "></path>
                </g>
                <g id="45" transform="translate(125.235060, 125.235060) rotate(-315.000000) translate(-125.235060, -125.235060) translate(109.235060, 0.235060)">
                    <path d="M15.6675749,131.130795 L-2.85993451e-13,247.993935 C-2.85993451e-13,247.993935 3.40599455,249.696928 15.6675749,249.696928 C27.9291553,249.696928 31.3351499,247.993931 31.3351499,247.993931 L15.6675749,131.130795 L15.6675749,131.130795 Z" id="Triangle-2-Copy-2" fill="#0090FF"></path>
                    <path d="M15.6675749,4.37806104e-06 L31.3351499,116.863145 C31.3351499,116.863145 27.9291553,118.566138 15.6675749,118.566138 C3.40599455,118.566138 3.90798505e-14,116.863141 3.90798505e-14,116.863141 L15.6675749,4.37806104e-06 Z" id="Triangle-2" fill="#FF6000" transform="translate(15.667575, 59.283071) scale(1, -1) translate(-15.667575, -59.283071) "></path>
                </g>
                <g id="30" transform="translate(125.287889, 125.166213) rotate(-330.000000) translate(-125.287889, -125.166213) translate(109.287889, 0.166213)">
                    <path d="M15.6675749,131.130795 L-4.19220214e-13,247.993935 C-4.19220214e-13,247.993935 3.40599455,249.696928 15.6675749,249.696928 C27.9291553,249.696928 31.3351499,247.993931 31.3351499,247.993931 L15.6675749,131.130795 L15.6675749,131.130795 Z" id="Triangle-2-Copy-2" fill="#00CCC0"></path>
                    <path d="M15.6675749,4.37806146e-06 L31.3351499,116.863145 C31.3351499,116.863145 27.9291553,118.566138 15.6675749,118.566138 C3.40599455,118.566138 -1.95399252e-14,116.863141 -1.95399252e-14,116.863141 L15.6675749,4.37806146e-06 Z" id="Triangle-2" fill="#FF4000" transform="translate(15.667575, 59.283071) scale(1, -1) translate(-15.667575, -59.283071) "></path>
                </g>
                <g id="15" transform="translate(125.321098, 125.086038) rotate(-345.000000) translate(-125.321098, -125.086038) translate(109.321098, 0.086038)">
                    <path d="M15.6675749,131.130795 L2.14939178e-13,247.993935 C2.14939178e-13,247.993935 3.40599455,249.696928 15.6675749,249.696928 C27.9291553,249.696928 31.3351499,247.993931 31.3351499,247.993931 L15.6675749,131.130795 L15.6675749,131.130795 Z" id="Triangle-2-Copy-2" fill="#00DD40"></path>
                    <path d="M15.6675749,4.3780609e-06 L31.3351499,116.863145 C31.3351499,116.863145 27.9291553,118.566138 15.6675749,118.566138 C3.40599455,118.566138 -7.81597009e-14,116.863141 -7.81597009e-14,116.863141 L15.6675749,4.3780609e-06 Z" id="Triangle-2" fill="#FF2000" transform="translate(15.667575, 59.283071) scale(1, -1) translate(-15.667575, -59.283071) "></path>
                </g>
            </g>
            <g id="boxes" transform="translate(16.000000, 295.000000)">
                <g id="fronts" transform="translate(0.044088, 29.278557)">
                    <rect id="Rectangle-109-Copy-5" fill="#FF4000" x="0.546293197" y="0.55077957" width="129.885917" height="87.007348"></rect>
                    <rect id="Rectangle-109-Copy-6" fill="#FFC000" x="130.039498" y="0.55077957" width="129.885917" height="87.007348"></rect>
                    <rect id="Rectangle-109-Copy-11" fill="#00CCC0" x="259.532702" y="0.55077957" width="129.885917" height="87.007348"></rect>
                    <rect id="Rectangle-109-Copy-7" fill="#6000DD" x="389.025907" y="0.55077957" width="129.885917" height="87.007348"></rect>
                </g>
                <g id="tops" transform="translate(0.522044, 0.000000)">
                    <polygon id="Rectangle-109-Copy-10" fill="#6000DD" points="501.067745 0 518.330807 30.0382511 388.44489 30.0382511 382.737072 0"></polygon>
                    <polygon id="Rectangle-109-Copy-9" fill="#00CCC0" points="383.299901 0 388.863873 30.0382511 258.977956 30.0382511 258.977956 0"></polygon>
                    <polygon id="Rectangle-109-Copy-8" fill="#FFC000" points="259.396939 0 259.396939 30.0382511 129.511022 30.0382511 129.511022 0"></polygon>
                    <polygon id="Rectangle" fill="#FF4000" points="129.895795 30.2284012 0.00865719667 30.2284012 19.4310924 0.19015009 137.447724 0.19015009"></polygon>
                </g>
                <g id="computer-copy" opacity="0.563432836" transform="translate(80.000000, 79.000000)">
                    <polygon id="Triangle-5" fill="#FFFFFF" points="19 24.9856632 21.6689425 29.6788259 23.9761905 33.0238095 14.0238095 33.0238095 16.5163366 29.6595874"></polygon>
                    <use id="Rectangle-19" stroke="#FFFFFF" mask="url(#mask-3)" stroke-width="8" xlink:href="#path-2"></use>
                    <rect id="Rectangle-20" fill="#FFFFFF" x="13.1190476" y="32.5714286" width="11.7619048" height="2.71428571"></rect>
                    <rect id="Rectangle-21" fill="#FFFFFF" x="2.26190476" y="23.4983949" width="33.4761905" height="2.71428571"></rect>
                    <ellipse id="Oval-3" stroke="#9B9B9B" stroke-width="2" cx="18.8074975" cy="26.3978674" rx="1.61702128" ry="1.61702128"></ellipse>
                </g>
                <g id="computer-copy" opacity="0.563432836" transform="translate(208.000000, 79.000000)">
                    <polygon id="Triangle-5" fill="#FFFFFF" points="19 24.9856632 21.6689425 29.6788259 23.9761905 33.0238095 14.0238095 33.0238095 16.5163366 29.6595874"></polygon>
                    <use id="Rectangle-19" stroke="#FFFFFF" mask="url(#mask-5)" stroke-width="8" xlink:href="#path-4"></use>
                    <rect id="Rectangle-20" fill="#FFFFFF" x="13.1190476" y="32.5714286" width="11.7619048" height="2.71428571"></rect>
                    <rect id="Rectangle-21" fill="#FFFFFF" x="2.26190476" y="23.4983949" width="33.4761905" height="2.71428571"></rect>
                    <ellipse id="Oval-3" stroke="#9B9B9B" stroke-width="2" cx="18.8074975" cy="26.3978674" rx="1.61702128" ry="1.61702128"></ellipse>
                </g>
                <path d="M346.746785,88.3436826 C349.315611,80.7920673 354.180789,70 354.180789,70 L377.290001,75.6314345 C377.290001,75.6314345 368.996275,97.1444209 364.097417,103.906548 C359.19856,110.668676 341.405693,101.036961 339.202172,100.415964 C333.316688,96.8113046 337.345405,91.7659597 337.345405,91.7659597 C337.345405,91.7659597 350.060187,96.2166536 355.781319,98.4947043 C355.580016,100.548485 353.724485,108.179714 363.658451,104.566039 C366.34323,102.416465 377.290001,75.6314345 377.290001,75.6314345 L353.724485,70" id="paper" stroke="#FFFFFF" stroke-width="3" fill="#FFFFFF" opacity="0.48046875"></path>
                <path d="M473.527612,87.6764762 C476.28308,79.5761846 481.501747,68 481.501747,68 L506.290001,74.0405966 C506.290001,74.0405966 497.393679,97.1166481 492.138886,104.37009 C486.884094,111.623532 467.798453,101.292008 465.434832,100.625892 C459.121727,96.7593286 463.443157,91.347405 463.443157,91.347405 C463.443157,91.347405 477.081755,96.1214722 483.218566,98.5650388 C483.002637,100.76804 481.01229,108.95373 491.668026,105.077497 C494.547872,102.771742 506.290001,74.0405966 506.290001,74.0405966 L481.01229,68" id="paper" stroke="#FFFFFF" stroke-width="3" fill="#FFFFFF" opacity="0.585995802"></path>
                <text id="Part-4:-4-Colors-for" opacity="0.70936334" font-family="AvenirNextCondensed-DemiBold, Avenir Next Condensed" font-size="16" font-style="condensed" font-weight="500" letter-spacing="-0.266666651" fill="#FFFFFF">
                    <tspan x="408" y="54">Part 4:</tspan>
                    <tspan x="408" y="76">4  Colors</tspan>
                    <tspan x="408" y="98">for Print</tspan>
                </text>
                <text id="Part-3:-2-&amp;-3-Colors" fill="#D8D8D8" font-family="AvenirNextCondensed-DemiBold, Avenir Next Condensed" font-size="16" font-style="condensed" font-weight="500" letter-spacing="-0.266666651">
                    <tspan x="275" y="55">Part 3:</tspan>
                    <tspan x="275" y="77">2 &amp; 3 Colors </tspan>
                    <tspan x="275" y="99">for Print</tspan>
                    <tspan x="321.464" y="99" font-size="17"> </tspan>
                </text>
                <text id="Part-2:-4-Colors-for" opacity="0.551189366" font-family="AvenirNextCondensed-DemiBold, Avenir Next Condensed" font-size="16" font-style="condensed" font-weight="500" letter-spacing="-0.282352954" fill="#4A4A4A">
                    <tspan x="146" y="56">Part 2:</tspan>
                    <tspan x="146" y="78">4 Colors</tspan>
                    <tspan x="146" y="100">for Web</tspan>
                </text>
                <text id="Part-1:-2-&amp;-3-Colors" opacity="0.700618004" font-family="AvenirNextCondensed-DemiBold, Avenir Next Condensed" font-size="16" font-style="condensed" font-weight="500" letter-spacing="-0.282352954" fill="#FFFFFF">
                    <tspan x="18" y="54">Part 1:</tspan>
                    <tspan x="18" y="76">2 &amp; 3 Colors</tspan>
                    <tspan x="18" y="98">for Web </tspan>
                </text>
            </g>
            <rect id="Rectangle-22" fill="#5CB4A0" opacity="0.688432836" transform="translate(503.000000, 377.500000) rotate(20.000000) translate(-503.000000, -377.500000) " x="500" y="369" width="6" height="17"></rect>
            <rect id="Rectangle-22-Copy" fill="#9B9B9B" opacity="0.688432836" transform="translate(497.000000, 376.500000) rotate(20.000000) translate(-497.000000, -376.500000) " x="494" y="368" width="6" height="17"></rect>
            <rect id="Rectangle-22" fill="#D8D8D8" opacity="0.688432836" transform="translate(508.502116, 378.500000) rotate(22.000000) translate(-508.502116, -378.500000) " x="506.002116" y="370" width="5" height="17"></rect>
            <rect id="Rectangle-22" fill="#FFFFFF" opacity="0.688432836" transform="translate(513.502482, 379.500000) rotate(23.000000) translate(-513.502482, -379.500000) " x="511.002482" y="371" width="5" height="17"></rect>
            <rect id="Rectangle-22" fill="#F6A623" opacity="0.688432836" transform="translate(249.500000, 383.000000) rotate(1.000000) translate(-249.500000, -383.000000) " x="244" y="379" width="11" height="8"></rect>
            <rect id="Rectangle-22-Copy" fill="#9B9B9B" opacity="0.688432836" x="232" y="379" width="11.0042314" height="9"></rect>
            <rect id="Rectangle-22" fill="#D8D8D8" opacity="0.688432836" x="232" y="389" width="11" height="8"></rect>
            <rect id="Rectangle-22" fill="#FFFFFF" opacity="0.688432836" transform="translate(249.500000, 392.000000) rotate(2.000000) translate(-249.500000, -392.000000) " x="244" y="388" width="11" height="8"></rect>
            <g id="arros" transform="translate(52.000000, -95.000000)">
                <path d="M116.498124,216.600635 C116.522452,221.518553 131.05955,224.728162 131.05955,224.728162 C131.05955,224.728162 72.9708285,224.02936 64.5602027,233.952394 C58.6297868,240.949224 60.1987334,251.207349 75.859375,257.476562 C96.9393145,265.915211 212.873043,240.104538 253.889567,235.952393 C294.90609,231.800248 296.875,233.952394 350.792969,235.952393 C371.917817,236.735984 421.039202,253.401483 428.086007,282.039062 C435.132813,310.676642 410.986607,384.112529 413.890514,393.177387 C418.445607,407.396595 428.086007,395.907894 428.086007,395.907894 L409.377803,419.329507 L387.384689,396.159812 C387.384689,396.159812 402.213447,405.73447 402.213442,393.177387 C402.213441,387.966573 416.653391,331.596972 402.213442,300 C387.773494,268.403028 390.152334,277.523437 365.15625,268.398437 C340.442278,259.376424 329.299434,254.993493 285.046869,257.476562 C240.794305,259.959632 178.005696,272.77874 150.589846,277.039062 C115.498125,282.492187 97.1640625,282.039062 64.5602027,277.039062 C31.956343,272.039062 28.355102,225.839252 42.8554688,216.600635 C66.6979137,201.409901 131.05955,202.027266 131.05955,202.027266 C131.05955,202.027266 116.4451,205.881707 116.498124,216.600635 Z" id="purple" fill="#6000DD"></path>
                <path d="M348.105283,222.892917 C346.958933,211.131926 350.357567,204.999449 350.357567,204.999449 C350.357567,204.999449 388.589844,188.695864 405.480469,198.347656 C422.371094,207.999449 425.382574,226.978071 412.632814,252.359377 C399.883054,277.740683 316.748293,317.215612 276.644533,321.343752 C236.540773,325.471892 180.51676,284.164764 150.621446,313.343752 C120.726132,342.52274 167.063851,381.827015 163.621446,388.421231 C155.956194,403.10467 180.133184,393.645909 180.133184,393.645909 L159.782904,410 L137,391.759793 C137,391.759793 150.844957,403.271193 152.264402,389.44278 C153.683846,375.614368 92.8328105,325.161209 139.264401,293.000002 C169.25466,272.227012 229.120998,304.413217 280.796877,301.000002 C331.42231,297.656169 397.189993,246.688419 396.008224,229.335437 C393.620165,194.269408 349.251634,234.653907 348.105283,222.892917 Z" id="yellow" fill="#FFC000"></path>
                <path d="M150.325558,347.436546 C145.039787,332.199462 165.15509,310.03269 172.347656,312.976562 C179.540222,315.920435 186.800781,320.421875 186.800781,320.421875 C186.800781,320.421875 150.748047,358.021484 212.124107,350.946261 C242.012858,347.500788 265.045073,328.47235 283.204177,322.964691 C301.363281,317.457031 314.30652,324.049571 321.683594,331.041016 C336.06322,344.66896 288.977357,383.690387 291.184828,392.31988 C293.392298,400.949373 306.610928,395.884884 306.610928,395.884884 L285.823492,413.257682 L261.179035,392.966681 C261.179035,392.966681 278.742419,403.204963 278.624669,390.966682 C278.506919,378.7284 316.3553,353.814745 299.376953,340.076172 C282.398606,326.337598 258.845703,360.779297 234.470411,367.855469 C170.91566,386.305477 155.611328,362.673629 150.325558,347.436546 Z" id="blue" fill="#00CCC0"></path>
                <path d="M273.158706,46.2597105 C237.496653,25.6423991 174.637826,21.8012811 144.294305,28.6426227 C113.950784,35.4839644 94.3223499,37.908552 51.0841983,91.2074158 C7.84604663,144.506279 41.3379313,383.951138 43.2637369,395.812764 C45.1895426,407.67439 63.5623008,400.120151 63.5623008,400.120151 L37.6382879,417.329507 L13.8220756,400.810006 C13.8220756,400.810006 30.0454446,406.894182 30.045445,395.812757 C30.0454455,384.731331 -7.18437764,128.236544 1.95199327,96.9474165 C11.0883642,65.6582894 22.9478786,59.6638172 57.9480191,35.4839644 C95.1689117,9.76990472 151.923363,0.247044872 183.555462,0.0422460987 C244.932359,-0.355132308 318.931421,26.647645 330.403204,60.0096996 C341.874986,93.3717541 295.116776,128.43481 295.116776,128.43481 C295.116776,128.43481 304.828591,117.575486 296.062384,113.429624 C287.296177,109.283763 274.898969,120.987743 274.898969,120.987743 C274.898969,120.987743 308.82076,66.877022 273.158706,46.2597105 Z" id="red" fill="#FF4000"></path>
            </g>
            <rect id="Rectangle-22" fill="#9B9B9B" opacity="0.664179104" transform="translate(114.000000, 384.570000) rotate(90.000000) translate(-114.000000, -384.570000) " x="111" y="376" width="6" height="17.1399994"></rect>
            <rect id="Rectangle-22" fill="#D8D8D8" opacity="0.664179104" transform="translate(114.000000, 390.500000) rotate(90.000000) translate(-114.000000, -390.500000) " x="111" y="382" width="6" height="17"></rect>
            <polygon id="Rectangle-22" fill="#9B9B9B" opacity="0.664179104" transform="translate(378.153915, 375.122997) rotate(109.000000) translate(-378.153915, -375.122997) " points="374.681156 366.878565 381.626675 366.552997 381.626675 383.692997 375.626675 383.692997"></polygon>
            <rect id="Rectangle-22" fill="#D8D8D8" opacity="0.664179104" transform="translate(375.000000, 382.500000) rotate(109.000000) translate(-375.000000, -382.500000) " x="372" y="374" width="6" height="17"></rect>
        </g>
    </g>
</svg>