<?xml version="1.0" encoding="UTF-8" standalone="no"?>
<svg width="581px" height="387px" viewBox="0 0 581 387" version="1.1" xmlns="http://www.w3.org/2000/svg" xmlns:xlink="http://www.w3.org/1999/xlink">
    <!-- Generator: Sketch 41 (35326) - http://www.bohemiancoding.com/sketch -->
    <title>pouring wheel</title>
    <desc>Created with Sketch.</desc>
    <defs>
        <radialGradient cx="50%" cy="41.5554257%" fx="50%" fy="41.5554257%" r="101.672835%" id="radialGradient-1">
            <stop stop-color="#FFFFFF" offset="0%"></stop>
            <stop stop-color="#E3E5D0" offset="100%"></stop>
        </radialGradient>
    </defs>
    <g id="thumb" stroke="none" stroke-width="1" fill="none" fill-rule="evenodd">
        <g id="pouring-wheel">
            <rect id="background" fill="url(#radialGradient-1)" x="-65" y="-125" width="714" height="546"></rect>
            <g id="printwheel" transform="translate(166.000000, -37.000000)">
                <g id="straight-wings" transform="translate(109.332425, 0.000000)">
                    <path d="M15.6675749,131.130795 L5.32907052e-15,247.993935 C5.32907052e-15,247.993935 3.40599455,249.696928 15.6675749,249.696928 C27.9291553,249.696928 31.3351499,247.993931 31.3351499,247.993931 L15.6675749,131.130795 L15.6675749,131.130795 Z" id="Triangle-2-Copy-2" fill="#00CC00"></path>
                    <path d="M15.6675749,4.37806054e-06 L31.3351499,116.863145 C31.3351499,116.863145 27.9291553,118.566138 15.6675749,118.566138 C3.40599455,118.566138 0,116.863141 0,116.863141 L15.6675749,4.37806054e-06 Z" id="Triangle-2" fill="#FF0000" transform="translate(15.667575, 59.283071) scale(1, -1) translate(-15.667575, -59.283071) "></path>
                </g>
                <g id="165" transform="translate(124.678902, 125.086038) rotate(-195.000000) translate(-124.678902, -125.086038) translate(108.678902, 0.086038)">
                    <path d="M15.6675749,131.130795 L-2.45137244e-13,247.993935 C-2.45137244e-13,247.993935 3.40599455,249.696928 15.6675749,249.696928 C27.9291553,249.696928 31.3351499,247.993931 31.3351499,247.993931 L15.6675749,131.130795 L15.6675749,131.130795 Z" id="Triangle-2-Copy-2" fill="#F00050"></path>
                    <path d="M15.6675749,4.37805978e-06 L31.3351499,116.863145 C31.3351499,116.863145 27.9291553,118.566138 15.6675749,118.566138 C3.40599455,118.566138 1.37667655e-12,116.863141 1.37667655e-12,116.863141 L15.6675749,4.37805978e-06 Z" id="Triangle-2" fill="#77CC00" transform="translate(15.667575, 59.283071) scale(1, -1) translate(-15.667575, -59.283071) "></path>
                </g>
                <g id="150" transform="translate(124.712111, 125.166213) rotate(-210.000000) translate(-124.712111, -125.166213) translate(108.712111, 0.166213)">
                    <path d="M15.6675749,131.130795 L9.46798195e-13,247.993935 C9.46798195e-13,247.993935 3.40599455,249.696928 15.6675749,249.696928 C27.9291553,249.696928 31.3351499,247.993931 31.3351499,247.993931 L15.6675749,131.130795 L15.6675749,131.130795 Z" id="Triangle-2-Copy-2" fill="#E00080"></path>
                    <path d="M15.6675749,4.37806122e-06 L31.3351499,116.863145 C31.3351499,116.863145 27.9291553,118.566138 15.6675749,118.566138 C3.40599455,118.566138 1.59872116e-14,116.863141 1.59872116e-14,116.863141 L15.6675749,4.37806122e-06 Z" id="Triangle-2" fill="#AADD00" transform="translate(15.667575, 59.283071) scale(1, -1) translate(-15.667575, -59.283071) "></path>
                </g>
                <g id="135" transform="translate(124.764940, 125.235060) rotate(-225.000000) translate(-124.764940, -125.235060) translate(108.764940, 0.235060)">
                    <path d="M15.6675749,131.130795 L-7.44293516e-13,247.993935 C-7.44293516e-13,247.993935 3.40599455,249.696928 15.6675749,249.696928 C27.9291553,249.696928 31.3351499,247.993931 31.3351499,247.993931 L15.6675749,131.130795 L15.6675749,131.130795 Z" id="Triangle-2-Copy-2" fill="#D000B0"></path>
                    <path d="M15.6675749,4.37806109e-06 L31.3351499,116.863145 C31.3351499,116.863145 27.9291553,118.566138 15.6675749,118.566138 C3.40599455,118.566138 -6.05737682e-13,116.863141 -6.05737682e-13,116.863141 L15.6675749,4.37806109e-06 Z" id="Triangle-2" fill="#CCEE00" transform="translate(15.667575, 59.283071) scale(1, -1) translate(-15.667575, -59.283071) "></path>
                </g>
                <g id="120" transform="translate(124.833787, 125.287889) rotate(-240.000000) translate(-124.833787, -125.287889) translate(108.833787, 0.287889)">
                    <path d="M15.6675749,131.130795 L4.22772928e-13,247.993935 C4.22772928e-13,247.993935 3.40599455,249.696928 15.6675749,249.696928 C27.9291553,249.696928 31.3351499,247.993931 31.3351499,247.993931 L15.6675749,131.130795 L15.6675749,131.130795 Z" id="Triangle-2-Copy-2" fill="#B000B0"></path>
                    <path d="M15.6675749,4.37806052e-06 L31.3351499,116.863145 C31.3351499,116.863145 27.9291553,118.566138 15.6675749,118.566138 C3.40599455,118.566138 -6.21724894e-14,116.863141 -6.21724894e-14,116.863141 L15.6675749,4.37806052e-06 Z" id="Triangle-2" fill="#FFFF00" transform="translate(15.667575, 59.283071) scale(1, -1) translate(-15.667575, -59.283071) "></path>
                </g>
                <g id="105" transform="translate(124.913962, 125.321098) rotate(-255.000000) translate(-124.913962, -125.321098) translate(108.913962, 0.321098)">
                    <path d="M15.6675749,131.130795 L2.34479103e-13,247.993935 C2.34479103e-13,247.993935 3.40599455,249.696928 15.6675749,249.696928 C27.9291553,249.696928 31.3351499,247.993931 31.3351499,247.993931 L15.6675749,131.130795 L15.6675749,131.130795 Z" id="Triangle-2-Copy-2" fill="#8000B0"></path>
                    <path d="M15.6675749,4.37806098e-06 L31.3351499,116.863145 C31.3351499,116.863145 27.9291553,118.566138 15.6675749,118.566138 C3.40599455,118.566138 -3.05533376e-13,116.863141 -3.05533376e-13,116.863141 L15.6675749,4.37806098e-06 Z" id="Triangle-2" fill="#FFE000" transform="translate(15.667575, 59.283071) scale(1, -1) translate(-15.667575, -59.283071) "></path>
                </g>
                <g id="90" transform="translate(125.000000, 125.332425) rotate(-270.000000) translate(-125.000000, -125.332425) translate(109.000000, 0.332425)">
                    <path d="M15.6675749,131.130795 L9.59232693e-14,247.993935 C9.59232693e-14,247.993935 3.40599455,249.696928 15.6675749,249.696928 C27.9291553,249.696928 31.3351499,247.993931 31.3351499,247.993931 L15.6675749,131.130795 L15.6675749,131.130795 Z" id="Triangle-2-Copy-2" fill="#6000DD"></path>
                    <path d="M15.6675749,4.37806061e-06 L31.3351499,116.863145 C31.3351499,116.863145 27.9291553,118.566138 15.6675749,118.566138 C3.40599455,118.566138 1.0658141e-14,116.863141 1.0658141e-14,116.863141 L15.6675749,4.37806061e-06 Z" id="Triangle-2" fill="#FFC000" transform="translate(15.667575, 59.283071) scale(1, -1) translate(-15.667575, -59.283071) "></path>
                </g>
                <g id="75" transform="translate(125.086038, 125.321098) rotate(-285.000000) translate(-125.086038, -125.321098) translate(109.086038, 0.321098)">
                    <path d="M15.6675749,131.130795 L-5.1691984e-13,247.993935 C-5.1691984e-13,247.993935 3.40599455,249.696928 15.6675749,249.696928 C27.9291553,249.696928 31.3351499,247.993931 31.3351499,247.993931 L15.6675749,131.130795 L15.6675749,131.130795 Z" id="Triangle-2-Copy-2" fill="#3000E0"></path>
                    <path d="M15.6675749,4.37806081e-06 L31.3351499,116.863145 C31.3351499,116.863145 27.9291553,118.566138 15.6675749,118.566138 C3.40599455,118.566138 -3.08908454e-12,116.863141 -3.08908454e-12,116.863141 L15.6675749,4.37806081e-06 Z" id="Triangle-2" fill="#FFA000" transform="translate(15.667575, 59.283071) scale(1, -1) translate(-15.667575, -59.283071) "></path>
                </g>
                <g id="60" transform="translate(125.166213, 125.287889) rotate(-300.000000) translate(-125.166213, -125.287889) translate(109.166213, 0.287889)">
                    <path d="M15.6675749,131.130795 L-4.28101998e-13,247.993935 C-4.28101998e-13,247.993935 3.40599455,249.696928 15.6675749,249.696928 C27.9291553,249.696928 31.3351499,247.993931 31.3351499,247.993931 L15.6675749,131.130795 L15.6675749,131.130795 Z" id="Triangle-2-Copy-2" fill="#0000FF"></path>
                    <path d="M15.6675749,4.37806135e-06 L31.3351499,116.863145 C31.3351499,116.863145 27.9291553,118.566138 15.6675749,118.566138 C3.40599455,118.566138 -2.85993451e-13,116.863141 -2.85993451e-13,116.863141 L15.6675749,4.37806135e-06 Z" id="Triangle-2" fill="#FF8000" transform="translate(15.667575, 59.283071) scale(1, -1) translate(-15.667575, -59.283071) "></path>
                </g>
                <g id="45" transform="translate(125.235060, 125.235060) rotate(-315.000000) translate(-125.235060, -125.235060) translate(109.235060, 0.235060)">
                    <path d="M15.6675749,131.130795 L-3.14415161e-13,247.993935 C-3.14415161e-13,247.993935 3.40599455,249.696928 15.6675749,249.696928 C27.9291553,249.696928 31.3351499,247.993931 31.3351499,247.993931 L15.6675749,131.130795 L15.6675749,131.130795 Z" id="Triangle-2-Copy-2" fill="#0090FF"></path>
                    <path d="M15.6675749,4.37806105e-06 L31.3351499,116.863145 C31.3351499,116.863145 27.9291553,118.566138 15.6675749,118.566138 C3.40599455,118.566138 6.75015599e-14,116.863141 6.75015599e-14,116.863141 L15.6675749,4.37806105e-06 Z" id="Triangle-2" fill="#FF6000" transform="translate(15.667575, 59.283071) scale(1, -1) translate(-15.667575, -59.283071) "></path>
                </g>
                <g id="30" transform="translate(125.287889, 125.166213) rotate(-330.000000) translate(-125.287889, -125.166213) translate(109.287889, 0.166213)">
                    <path d="M15.6675749,131.130795 L-7.81597009e-14,247.993935 C-7.81597009e-14,247.993935 3.40599455,249.696928 15.6675749,249.696928 C27.9291553,249.696928 31.3351499,247.993931 31.3351499,247.993931 L15.6675749,131.130795 L15.6675749,131.130795 Z" id="Triangle-2-Copy-2" fill="#00CCC0"></path>
                    <path d="M15.6675749,4.37806108e-06 L31.3351499,116.863145 C31.3351499,116.863145 27.9291553,118.566138 15.6675749,118.566138 C3.40599455,118.566138 -2.46913601e-13,116.863141 -2.46913601e-13,116.863141 L15.6675749,4.37806108e-06 Z" id="Triangle-2" fill="#FF4000" transform="translate(15.667575, 59.283071) scale(1, -1) translate(-15.667575, -59.283071) "></path>
                </g>
                <g id="15" transform="translate(125.321098, 125.086038) rotate(-345.000000) translate(-125.321098, -125.086038) translate(109.321098, 0.086038)">
                    <path d="M15.6675749,131.130795 L1.86517468e-13,247.993935 C1.86517468e-13,247.993935 3.40599455,249.696928 15.6675749,249.696928 C27.9291553,249.696928 31.3351499,247.993931 31.3351499,247.993931 L15.6675749,131.130795 L15.6675749,131.130795 Z" id="Triangle-2-Copy-2" fill="#00DD40"></path>
                    <path d="M15.6675749,4.37806112e-06 L31.3351499,116.863145 C31.3351499,116.863145 27.9291553,118.566138 15.6675749,118.566138 C3.40599455,118.566138 -2.13162821e-14,116.863141 -2.13162821e-14,116.863141 L15.6675749,4.37806112e-06 Z" id="Triangle-2" fill="#FF2000" transform="translate(15.667575, 59.283071) scale(1, -1) translate(-15.667575, -59.283071) "></path>
                </g>
            </g>
            <g id="boxes" transform="translate(18.000000, 251.000000)">
                <g id="Group-2" transform="translate(16.000000, 28.000000)">
                    <rect id="Rectangle-109-Copy-6" fill="#FFC000" x="124.039498" y="0.55077957" width="129.885917" height="94"></rect>
                    <rect id="Rectangle-109-Copy-11" fill="#00CCC0" x="253.532702" y="0.55077957" width="129.885917" height="94"></rect>
                    <rect id="Rectangle-109-Copy-7" fill="#6000DD" x="383.025907" y="0.55077957" width="129.885917" height="94"></rect>
                    <rect id="Rectangle-109-Copy-5" fill="#FF4000" x="0.546293197" y="0.55077957" width="124.889999" height="94"></rect>
                </g>
                <g id="Group-2-Copy-2" transform="translate(0.522044, 0.000000)">
                    <polygon id="Rectangle-109-Copy-10" fill="#6000DD" points="511.422286 0 528.737072 30.0382511 398.461992 30.0382511 392.737072 0"></polygon>
                    <polygon id="Rectangle-109-Copy-9" fill="#00CCC0" points="393.299901 0 398.863873 30.0382511 268.977956 30.0382511 268.977956 0"></polygon>
                    <polygon id="Rectangle-109-Copy-8" fill="#FFC000" points="269.396939 0 269.396939 30.0382511 139.511022 30.0382511 139.511022 0"></polygon>
                    <polygon id="Rectangle" fill="#FF4000" points="140.700643 30.2284012 15.0086572 30.2284012 33.8037781 0.19015009 148.008657 0.19015009"></polygon>
                </g>
                <text id="Print-Palette-with-4" opacity="0.83751166" font-family="AvenirNextCondensed-Regular, Avenir Next Condensed" font-size="17" font-style="condensed" font-weight="normal" letter-spacing="-0.283333331" fill="#FFFFFF">
                    <tspan x="428" y="47"></tspan>
                    <tspan x="428" y="70">Prin</tspan>
                    <tspan x="450.666667" y="70" letter-spacing="-0.267592579">t Palette </tspan>
                    <tspan x="428" y="93" letter-spacing="-0.267592579">with 4 Colors</tspan>
                </text>
                <text id="Print-Palette-with-2" opacity="0.858675373" font-family="AvenirNextCondensed-Regular, Avenir Next Condensed" font-size="17" font-style="condensed" font-weight="normal" letter-spacing="-0.283333331" fill="#FFFFFF">
                    <tspan x="285" y="47"></tspan>
                    <tspan x="285" y="70">Print Palette </tspan>
                    <tspan x="285" y="93">with 2 or 3 Colors </tspan>
                </text>
                <text id="Digital-Palette-with" opacity="0.740263526" font-family="AvenirNextCondensed-Medium, Avenir Next Condensed" font-size="17" font-style="condensed" font-weight="400" letter-spacing="-0.300000012" fill="#FFFFFF">
                    <tspan x="162" y="47"></tspan>
                    <tspan x="162" y="70">Digital Palette </tspan>
                    <tspan x="162" y="93">with 4 Colors</tspan>
                </text>
                <text id="Digital-Palette-with" opacity="0.817747201" font-family="AvenirNextCondensed-Regular, Avenir Next Condensed" font-size="17" font-style="condensed" font-weight="normal" letter-spacing="-0.300000012" fill="#FFFFFF">
                    <tspan x="33" y="47"></tspan>
                    <tspan x="33" y="70">Digital Palette </tspan>
                    <tspan x="33" y="93">with 2 or 3 Colors </tspan>
                </text>
            </g>
            <g id="arros" transform="translate(56.000000, -78.000000)">
                <path d="M341.628906,159.445313 C341.628906,159.445313 356.671875,155.476563 373.988281,153.445313 C391.304688,151.414063 413.555887,145.911124 427.726562,148.726563 C447.859375,152.726563 472.285156,148.726563 472.285156,183.574219 C472.285156,218.421875 451.73828,247.671877 379.433594,268.000002 C322.482258,284.011604 226.77569,267.5 185.347656,264.000002 C143.919623,260.500004 152.192505,262.634876 144,268.000002 C136.822018,272.700735 145.054506,284.048092 157.123168,300.059129 C164.189653,309.433967 169.575826,322.451104 170.621446,328.421231 C173.313324,343.790917 187.133184,333.645909 187.133184,333.645909 L166.782904,350 L144,331.759793 C144,331.759793 157.844957,343.271193 159.264402,329.44278 C159.590131,326.269481 144,300.059129 137.17947,292.415704 C117.164995,269.986486 111.214844,263.160158 121.597656,256.660156 C154.078892,236.325772 236.120998,262.413217 287.796877,259.000002 C338.42231,255.656169 447.6875,236.824219 440.40625,183.574219 C437.956809,165.66071 386.769531,175.148438 364.039062,175.148438 C341.308594,175.148438 341.628906,173.148438 341.628906,173.148438 L341.628906,159.445313 Z" id="Path-3" fill="#FFC000"></path>
                <path d="M120.273437,176.791016 C99.0449219,181.269531 63.857183,176.791016 63.857183,198.424643 C63.857183,216.769531 74.66353,218.600862 94.4375,220.537109 C124.376953,223.46875 221.003906,204.648437 274.859375,189.6875 C324.873099,175.793791 396.67438,173.234375 433.625,211.476562 C472.022926,251.216645 431.335422,319.958178 430.890514,334.177387 C430.445607,348.396595 446.086007,338.907894 446.086007,338.907894 L425.377803,359.329507 L405.384689,337.159812 C405.384689,337.159812 417.049082,347.04618 420.213442,332.177387 C423.377803,317.308594 447.255308,269.55063 416.789063,237 C386.322817,204.44937 333.058588,203.077974 287.113281,210.476562 C241.167974,217.875151 186.868976,238.532646 159.453125,242.792969 C138.304218,246.079432 79.9082031,263.208984 56.15625,242.792969 C32.4042969,222.376953 28.416466,205.573256 42.640625,180.96875 C56.15625,157.589844 115.095703,154.306641 115.095703,154.306641 C115.095703,154.306641 141.501953,172.3125 120.273437,176.791016 Z" id="Path-4" fill="#6000DD"></path>
                <path d="M160.443359,289.679688 C157.330775,275.698921 166.097656,266.453125 166.097656,266.453125 L185.451172,275.660156 C185.451172,275.660156 169.097656,286.835417 192.720703,297.148438 C211.891228,305.517638 221.023437,290.162109 245.404297,271.5 C269.785156,252.837891 302.301951,232.421144 314.214844,256.105469 C326.550781,280.630859 308.546163,293.520619 303.184828,306.31988 C297.823492,319.119141 314.214844,312.09375 314.214844,312.09375 L295.823492,328.257682 L277.857422,309.990234 C277.857422,309.990234 286.525391,318.958868 292.037109,306.966681 C297.548828,294.974493 295.823492,297.148438 299.423828,289.679688 C301.924576,284.491989 307.517578,271.5 292.037109,271.5 C276.556641,271.5 267.725395,280.744596 250.554688,292.148438 C234.724704,302.661844 205.939453,319.320312 192.720703,317.005859 C179.501953,314.691406 164.78125,309.164151 160.443359,289.679688 Z" id="Path-5" fill="#00CCC0"></path>
                <path d="M227.960938,33.8554687 C172.363281,33.8554687 169.583919,28.78125 129.308594,52.4570313 C89.0332682,76.1328125 55.9602658,79.7000423 36.045445,136.171875 C22.8220756,173.668969 30.541555,210.483145 34.3056869,240.112063 C40.8673006,291.761029 46.4908874,323.052547 47.2637369,327.812764 C49.1895426,339.67439 65.5623008,330.120151 65.5623008,330.120151 L45.6382879,348.329507 L21.8220756,330.810006 C21.8220756,330.810006 37.0454446,339.894182 37.045445,328.812757 C37.0454453,322.280738 8.06201969,256.619366 0.73828125,175.933594 C-6.58545719,95.2478217 59.2860293,46.1039514 85.8203125,33.8554687 C127.996094,14.3867188 140.917478,-5.34554157 227.960938,1.3359375 C311.011719,7.7109375 306.328125,70.6992188 306.328125,70.6992188 L291.898969,62.1640625 C291.898969,62.1640625 283.558594,33.8554687 227.960938,33.8554687 Z" id="Path-2" fill="#FF4000"></path>
            </g>
        </g>
    </g>
</svg>