<?xml version="1.0" encoding="UTF-8" standalone="no"?>
<svg width="581px" height="387px" viewBox="0 0 581 387" version="1.1" xmlns="http://www.w3.org/2000/svg" xmlns:xlink="http://www.w3.org/1999/xlink">
    <!-- Generator: Sketch 41 (35326) - http://www.bohemiancoding.com/sketch -->
    <title>pouring wheel</title>
    <desc>Created with Sketch.</desc>
    <defs>
        <radialGradient cx="50%" cy="41.5554257%" fx="50%" fy="41.5554257%" r="101.672835%" id="radialGradient-1">
            <stop stop-color="#FFFFFF" offset="0%"></stop>
            <stop stop-color="#E3E5D0" offset="100%"></stop>
        </radialGradient>
    </defs>
    <g id="thumb" stroke="none" stroke-width="1" fill="none" fill-rule="evenodd">
        <g id="pouring-wheel">
            <rect id="background" fill="url(#radialGradient-1)" x="-65" y="-125" width="714" height="546"></rect>
            <g id="printwheel" transform="translate(166.000000, -37.000000)">
                <g id="straight-wings" transform="translate(109.332425, 0.000000)">
                    <path d="M15.6675749,131.130795 L5.32907052e-15,247.993935 C5.32907052e-15,247.993935 3.40599455,249.696928 15.6675749,249.696928 C27.9291553,249.696928 31.3351499,247.993931 31.3351499,247.993931 L15.6675749,131.130795 L15.6675749,131.130795 Z" id="Triangle-2-Copy-2" fill="#00CC00"></path>
                    <path d="M15.6675749,4.37806054e-06 L31.3351499,116.863145 C31.3351499,116.863145 27.9291553,118.566138 15.6675749,118.566138 C3.40599455,118.566138 0,116.863141 0,116.863141 L15.6675749,4.37806054e-06 Z" id="Triangle-2" fill="#FF0000" transform="translate(15.667575, 59.283071) scale(1, -1) translate(-15.667575, -59.283071) "></path>
                </g>
                <g id="165" transform="translate(124.678902, 125.086038) rotate(-195.000000) translate(-124.678902, -125.086038) translate(108.678902, 0.086038)">
                    <path d="M15.6675749,131.130795 L-2.45137244e-13,247.993935 C-2.45137244e-13,247.993935 3.40599455,249.696928 15.6675749,249.696928 C27.9291553,249.696928 31.3351499,247.993931 31.3351499,247.993931 L15.6675749,131.130795 L15.6675749,131.130795 Z" id="Triangle-2-Copy-2" fill="#F00050"></path>
                    <path d="M15.6675749,4.37805978e-06 L31.3351499,116.863145 C31.3351499,116.863145 27.9291553,118.566138 15.6675749,118.566138 C3.40599455,118.566138 1.37667655e-12,116.863141 1.37667655e-12,116.863141 L15.6675749,4.37805978e-06 Z" id="Triangle-2" fill="#77CC00" transform="translate(15.667575, 59.283071) scale(1, -1) translate(-15.667575, -59.283071) "></path>
                </g>
                <g id="150" transform="translate(124.712111, 125.166213) rotate(-210.000000) translate(-124.712111, -125.166213) translate(108.712111, 0.166213)">
                    <path d="M15.6675749,131.130795 L9.46798195e-13,247.993935 C9.46798195e-13,247.993935 3.40599455,249.696928 15.6675749,249.696928 C27.9291553,249.696928 31.3351499,247.993931 31.3351499,247.993931 L15.6675749,131.130795 L15.6675749,131.130795 Z" id="Triangle-2-Copy-2" fill="#E00080"></path>
                    <path d="M15.6675749,4.37806122e-06 L31.3351499,116.863145 C31.3351499,116.863145 27.9291553,118.566138 15.6675749,118.566138 C3.40599455,118.566138 1.59872116e-14,116.863141 1.59872116e-14,116.863141 L15.6675749,4.37806122e-06 Z" id="Triangle-2" fill="#AADD00" transform="translate(15.667575, 59.283071) scale(1, -1) translate(-15.667575, -59.283071) "></path>
                </g>
                <g id="135" transform="translate(124.764940, 125.235060) rotate(-225.000000) translate(-124.764940, -125.235060) translate(108.764940, 0.235060)">
                    <path d="M15.6675749,131.130795 L-7.44293516e-13,247.993935 C-7.44293516e-13,247.993935 3.40599455,249.696928 15.6675749,249.696928 C27.9291553,249.696928 31.3351499,247.993931 31.3351499,247.993931 L15.6675749,131.130795 L15.6675749,131.130795 Z" id="Triangle-2-Copy-2" fill="#D000B0"></path>
                    <path d="M15.6675749,4.37806109e-06 L31.3351499,116.863145 C31.3351499,116.863145 27.9291553,118.566138 15.6675749,118.566138 C3.40599455,118.566138 -6.05737682e-13,116.863141 -6.05737682e-13,116.863141 L15.6675749,4.37806109e-06 Z" id="Triangle-2" fill="#CCEE00" transform="translate(15.667575, 59.283071) scale(1, -1) translate(-15.667575, -59.283071) "></path>
                </g>
                <g id="120" transform="translate(124.833787, 125.287889) rotate(-240.000000) translate(-124.833787, -125.287889) translate(108.833787, 0.287889)">
                    <path d="M15.6675749,131.130795 L4.22772928e-13,247.993935 C4.22772928e-13,247.993935 3.40599455,249.696928 15.6675749,249.696928 C27.9291553,249.696928 31.3351499,247.993931 31.3351499,247.993931 L15.6675749,131.130795 L15.6675749,131.130795 Z" id="Triangle-2-Copy-2" fill="#B000B0"></path>
                    <path d="M15.6675749,4.37806052e-06 L31.3351499,116.863145 C31.3351499,116.863145 27.9291553,118.566138 15.6675749,118.566138 C3.40599455,118.566138 -6.21724894e-14,116.863141 -6.21724894e-14,116.863141 L15.6675749,4.37806052e-06 Z" id="Triangle-2" fill="#FFFF00" transform="translate(15.667575, 59.283071) scale(1, -1) translate(-15.667575, -59.283071) "></path>
                </g>
                <g id="105" transform="translate(124.913962, 125.321098) rotate(-255.000000) translate(-124.913962, -125.321098) translate(108.913962, 0.321098)">
                    <path d="M15.6675749,131.130795 L2.34479103e-13,247.993935 C2.34479103e-13,247.993935 3.40599455,249.696928 15.6675749,249.696928 C27.9291553,249.696928 31.3351499,247.993931 31.3351499,247.993931 L15.6675749,131.130795 L15.6675749,131.130795 Z" id="Triangle-2-Copy-2" fill="#8000B0"></path>
                    <path d="M15.6675749,4.37806098e-06 L31.3351499,116.863145 C31.3351499,116.863145 27.9291553,118.566138 15.6675749,118.566138 C3.40599455,118.566138 -3.05533376e-13,116.863141 -3.05533376e-13,116.863141 L15.6675749,4.37806098e-06 Z" id="Triangle-2" fill="#FFE000" transform="translate(15.667575, 59.283071) scale(1, -1) translate(-15.667575, -59.283071) "></path>
                </g>
                <g id="90" transform="translate(125.000000, 125.332425) rotate(-270.000000) translate(-125.000000, -125.332425) translate(109.000000, 0.332425)">
                    <path d="M15.6675749,131.130795 L9.59232693e-14,247.993935 C9.59232693e-14,247.993935 3.40599455,249.696928 15.6675749,249.696928 C27.9291553,249.696928 31.3351499,247.993931 31.3351499,247.993931 L15.6675749,131.130795 L15.6675749,131.130795 Z" id="Triangle-2-Copy-2" fill="#6000DD"></path>
                    <path d="M15.6675749,4.37806061e-06 L31.3351499,116.863145 C31.3351499,116.863145 27.9291553,118.566138 15.6675749,118.566138 C3.40599455,118.566138 1.0658141e-14,116.863141 1.0658141e-14,116.863141 L15.6675749,4.37806061e-06 Z" id="Triangle-2" fill="#FFC000" transform="translate(15.667575, 59.283071) scale(1, -1) translate(-15.667575, -59.283071) "></path>
                </g>
                <g id="75" transform="translate(125.086038, 125.321098) rotate(-285.000000) translate(-125.086038, -125.321098) translate(109.086038, 0.321098)">
                    <path d="M15.6675749,131.130795 L-5.1691984e-13,247.993935 C-5.1691984e-13,247.993935 3.40599455,249.696928 15.6675749,249.696928 C27.9291553,249.696928 31.3351499,247.993931 31.3351499,247.993931 L15.6675749,131.130795 L15.6675749,131.130795 Z" id="Triangle-2-Copy-2" fill="#3000E0"></path>
                    <path d="M15.6675749,4.37806081e-06 L31.3351499,116.863145 C31.3351499,116.863145 27.9291553,118.566138 15.6675749,118.566138 C3.40599455,118.566138 -3.08908454e-12,116.863141 -3.08908454e-12,116.863141 L15.6675749,4.37806081e-06 Z" id="Triangle-2" fill="#FFA000" transform="translate(15.667575, 59.283071) scale(1, -1) translate(-15.667575, -59.283071) "></path>
                </g>
                <g id="60" transform="translate(125.166213, 125.287889) rotate(-300.000000) translate(-125.166213, -125.287889) translate(109.166213, 0.287889)">
                    <path d="M15.6675749,131.130795 L-4.28101998e-13,247.993935 C-4.28101998e-13,247.993935 3.40599455,249.696928 15.6675749,249.696928 C27.9291553,249.696928 31.3351499,247.993931 31.3351499,247.993931 L15.6675749,131.130795 L15.6675749,131.130795 Z" id="Triangle-2-Copy-2" fill="#0000FF"></path>
                    <path d="M15.6675749,4.37806135e-06 L31.3351499,116.863145 C31.3351499,116.863145 27.9291553,118.566138 15.6675749,118.566138 C3.40599455,118.566138 -2.85993451e-13,116.863141 -2.85993451e-13,116.863141 L15.6675749,4.37806135e-06 Z" id="Triangle-2" fill="#FF8000" transform="translate(15.667575, 59.283071) scale(1, -1) translate(-15.667575, -59.283071) "></path>
                </g>
                <g id="45" transform="translate(125.235060, 125.235060) rotate(-315.000000) translate(-125.235060, -125.235060) translate(109.235060, 0.235060)">
                    <path d="M15.6675749,131.130795 L-3.14415161e-13,247.993935 C-3.14415161e-13,247.993935 3.40599455,249.696928 15.6675749,249.696928 C27.9291553,249.696928 31.3351499,247.993931 31.3351499,247.993931 L15.6675749,131.130795 L15.6675749,131.130795 Z" id="Triangle-2-Copy-2" fill="#0090FF"></path>
                    <path d="M15.6675749,4.37806105e-06 L31.3351499,116.863145 C31.3351499,116.863145 27.9291553,118.566138 15.6675749,118.566138 C3.40599455,118.566138 6.75015599e-14,116.863141 6.75015599e-14,116.863141 L15.6675749,4.37806105e-06 Z" id="Triangle-2" fill="#FF6000" transform="translate(15.667575, 59.283071) scale(1, -1) translate(-15.667575, -59.283071) "></path>
                </g>
                <g id="30" transform="translate(125.287889, 125.166213) rotate(-330.000000) translate(-125.287889, -125.166213) translate(109.287889, 0.166213)">
                    <path d="M15.6675749,131.130795 L-7.81597009e-14,247.993935 C-7.81597009e-14,247.993935 3.40599455,249.696928 15.6675749,249.696928 C27.9291553,249.696928 31.3351499,247.993931 31.3351499,247.993931 L15.6675749,131.130795 L15.6675749,131.130795 Z" id="Triangle-2-Copy-2" fill="#00CCC0"></path>
                    <path d="M15.6675749,4.37806108e-06 L31.3351499,116.863145 C31.3351499,116.863145 27.9291553,118.566138 15.6675749,118.566138 C3.40599455,118.566138 -2.46913601e-13,116.863141 -2.46913601e-13,116.863141 L15.6675749,4.37806108e-06 Z" id="Triangle-2" fill="#FF4000" transform="translate(15.667575, 59.283071) scale(1, -1) translate(-15.667575, -59.283071) "></path>
                </g>
                <g id="15" transform="translate(125.321098, 125.086038) rotate(-345.000000) translate(-125.321098, -125.086038) translate(109.321098, 0.086038)">
                    <path d="M15.6675749,131.130795 L1.86517468e-13,247.993935 C1.86517468e-13,247.993935 3.40599455,249.696928 15.6675749,249.696928 C27.9291553,249.696928 31.3351499,247.993931 31.3351499,247.993931 L15.6675749,131.130795 L15.6675749,131.130795 Z" id="Triangle-2-Copy-2" fill="#00DD40"></path>
                    <path d="M15.6675749,4.37806112e-06 L31.3351499,116.863145 C31.3351499,116.863145 27.9291553,118.566138 15.6675749,118.566138 C3.40599455,118.566138 -2.13162821e-14,116.863141 -2.13162821e-14,116.863141 L15.6675749,4.37806112e-06 Z" id="Triangle-2" fill="#FF2000" transform="translate(15.667575, 59.283071) scale(1, -1) translate(-15.667575, -59.283071) "></path>
                </g>
            </g>
            <g id="boxes" transform="translate(18.000000, 251.000000)">
                <g id="Group-2" transform="translate(16.000000, 28.000000)">
                    <rect id="Rectangle-109-Copy-6" fill="#FFC000" x="124.039498" y="0.55077957" width="129.885917" height="94"></rect>
                    <rect id="Rectangle-109-Copy-11" fill="#00CCC0" x="253.532702" y="0.55077957" width="129.885917" height="94"></rect>
                    <rect id="Rectangle-109-Copy-7" fill="#6000DD" x="383.025907" y="0.55077957" width="129.885917" height="94"></rect>
                    <rect id="Rectangle-109-Copy-5" fill="#FF4000" x="0.546293197" y="0.55077957" width="124.889999" height="94"></rect>
                </g>
                <g id="Group-2-Copy-2" transform="translate(0.522044, 0.000000)">
                    <polygon id="Rectangle-109-Copy-10" fill="#6000DD" points="511.422286 0 528.737072 30.0382511 398.461992 30.0382511 392.737072 0"></polygon>
                    <polygon id="Rectangle-109-Copy-9" fill="#00CCC0" points="393.299901 0 398.863873 30.0382511 268.977956 30.0382511 268.977956 0"></polygon>
                    <polygon id="Rectangle-109-Copy-8" fill="#FFC000" points="269.396939 0 269.396939 30.0382511 139.511022 30.0382511 139.511022 0"></polygon>
                    <polygon id="Rectangle" fill="#FF4000" points="140.700643 30.2284012 15.0086572 30.2284012 33.8037781 0.19015009 148.008657 0.19015009"></polygon>
                </g>
                <text id="Print-Palette-with-4" opacity="0.83751166" font-family="AvenirNextCondensed-Regular, Avenir Next Condensed" font-size="17" font-style="condensed" font-weight="normal" letter-spacing="-0.283333331" fill="#FFFFFF">
                    <tspan x="428" y="47"></tspan>
                    <tspan x="428" y="70">Prin</tspan>
                    <tspan x="450.666667" y="70" letter-spacing="-0.267592579">t Palette </tspan>
                    <tspan x="428" y="93" letter-spacing="-0.267592579">with 4 Colors</tspan>
                </text>
                <text id="Print-Palette-with-2" opacity="0.858675373" font-family="AvenirNextCondensed-Regular, Avenir Next Condensed" font-size="17" font-style="condensed" font-weight="normal" letter-spacing="-0.283333331" fill="#FFFFFF">
                    <tspan x="285" y="47"></tspan>
                    <tspan x="285" y="70">Print Palette </tspan>
                    <tspan x="285" y="93">with 2 or 3 Colors </tspan>
                </text>
                <text id="Digital-Palette-with" opacity="0.740263526" font-family="AvenirNextCondensed-Medium, Avenir Next Condensed" font-size="17" font-style="condensed" font-weight="400" letter-spacing="-0.300000012" fill="#FFFFFF">
                    <tspan x="162" y="47"></tspan>
                    <tspan x="162" y="70">Digital Palette </tspan>
                    <tspan x="162" y="93">with 4 Colors</tspan>
                </text>
                <text id="Digital-Palette-with" opacity="0.817747201" font-family="AvenirNextCondensed-Regular, Avenir Next Condensed" font-size="17" font-style="condensed" font-weight="normal" letter-spacing="-0.300000012" fill="#FFFFFF">
                    <tspan x="33" y="47"></tspan>
                    <tspan x="33" y="70">Digital Palette </tspan>
                    <tspan x="33" y="93">with 2 or 3 Colors </tspan>
                </text>
            </g>
            <g id="arros" transform="translate(53.000000, -76.000000)">
                <path d="M160.546875,283.572266 C157.262289,261.651024 175.476562,254.105469 175.476562,254.105469 L198.246094,254.105469 C198.246094,254.105469 169.586238,277.672359 198.246094,295.148438 C207.808594,300.979416 226.186677,308.896484 250.567537,290.234375 C274.948396,271.572266 313.796875,264.046875 326.132812,288.572266 C338.46875,313.097656 301.546163,317.520619 296.184828,330.31988 C290.823492,343.119141 307.214844,336.09375 307.214844,336.09375 L288.823492,352.257682 L270.857422,333.990234 C270.857422,333.990234 279.525391,342.958868 285.037109,330.966681 C290.548828,318.974493 317.347656,315.348709 302.610928,300.234375 C287.8742,285.120041 285.243318,288.287175 250.567537,312.734375 C235.381662,323.440756 214.699096,323.658216 191.058594,319.878906 C167.418091,316.099596 162.943359,299.566341 160.546875,283.572266 Z" id="Path-5" fill="#00CCC0"></path>
                <path d="M344.628906,158.445313 C344.628906,158.445313 360.450713,158.828969 376.988281,151.445312 C393.525849,144.061656 410.514679,146.726563 425.726562,146.726563 C449.859375,146.726563 471.699219,155.580417 466.789062,187.892917 C461.878906,220.205417 454.73828,245.671877 382.433594,266.000002 C310.128908,286.328127 154.137477,269.601908 136.222656,289.5 C129.800781,296.632813 135.921261,293.416299 158.293299,307.74058 C168.032925,313.976629 168.621446,319.302522 168.621446,323.421231 C168.621446,338.849565 185.133184,328.645909 185.133184,328.645909 L164.782904,345 L142,326.759793 C142,326.759793 155.844957,338.271193 157.264402,324.44278 C157.590131,321.269481 154.380737,315.803154 145.17947,310.415704 C114.284019,292.326051 100.371094,301.707031 100.371094,289.5 C100.371094,263.281901 239.120998,265.413217 290.796877,262.000002 C341.42231,258.656169 443.6875,234.824219 436.40625,181.574219 C433.956809,163.66071 401.694013,165.691935 377.988281,176.265625 C354.282549,186.839315 344.628906,171.148438 344.628906,171.148438 L344.628906,158.445313 Z" id="Path-3" fill="#FFC000"></path>
                <path d="M123.273437,174.791016 C102.044922,179.269531 66.857183,174.791016 66.857183,196.424643 C66.857183,214.769531 77.66353,216.600862 97.4375,218.537109 C127.376953,221.46875 224.003906,202.648437 277.859375,187.6875 C327.873099,173.793791 399.67438,171.234375 436.625,209.476562 C475.022926,249.216645 434.335422,285.958178 433.890514,300.177387 C433.445607,314.396595 449.086007,304.907894 449.086007,304.907894 L428.377803,325.329507 L408.384689,303.159812 C408.384689,303.159812 420.049082,313.04618 423.213442,298.177387 C426.377803,283.308594 450.255308,267.55063 419.789063,235 C389.322817,202.44937 336.058588,201.077974 290.113281,208.476562 C244.167974,215.875151 189.868976,236.532646 162.453125,240.792969 C141.304218,244.079432 82.9082031,261.208984 59.15625,240.792969 C35.4042969,220.376953 31.416466,203.573256 45.640625,178.96875 C59.15625,155.589844 118.095703,152.306641 118.095703,152.306641 C118.095703,152.306641 144.501953,170.3125 123.273437,174.791016 Z" id="Path-4" fill="#6000DD"></path>
                <path d="M227.960938,33.8554687 C172.363281,33.8554687 169.583919,28.78125 129.308594,52.4570313 C89.0332682,76.1328125 55.9602658,79.7000423 36.045445,136.171875 C22.8220756,173.668969 30.541555,210.483145 34.3056869,240.112063 C40.8673006,291.761029 46.4908874,323.052547 47.2637369,327.812764 C49.1895426,339.67439 65.5623008,330.120151 65.5623008,330.120151 L45.6382879,348.329507 L21.8220756,330.810006 C21.8220756,330.810006 37.0454446,339.894182 37.045445,328.812757 C37.0454453,322.280738 8.06201969,256.619366 0.73828125,175.933594 C-6.58545719,95.2478217 59.2860293,46.1039514 85.8203125,33.8554687 C127.996094,14.3867188 140.917478,-5.34554157 227.960938,1.3359375 C311.011719,7.7109375 306.328125,70.6992188 306.328125,70.6992188 L291.898969,62.1640625 C291.898969,62.1640625 283.558594,33.8554687 227.960938,33.8554687 Z" id="Path-2" fill="#FF4000"></path>
            </g>
        </g>
    </g>
</svg>