<?xml version="1.0" encoding="UTF-8" standalone="no"?>
<svg width="645px" height="645px" viewBox="0 0 645 645" version="1.1" xmlns="http://www.w3.org/2000/svg" xmlns:xlink="http://www.w3.org/1999/xlink">
    <!-- Generator: Sketch 39.1 (31720) - http://www.bohemiancoding.com/sketch -->
    <title>printwheel</title>
    <desc>Created with Sketch.</desc>
    <defs></defs>
    <g id="color-wheels" stroke="none" stroke-width="1" fill="none" fill-rule="evenodd">
        <g id="printwheel">
            <g id="mywheel-copy" transform="translate(9.000000, 9.000000)">
                <g id="straight-wings" transform="translate(274.643052, 0.000000)">
                    <path d="M39.3569482,329.400556 L-1.22641623e-14,622.960766 C-1.22641623e-14,622.960766 8.55585831,627.238684 39.3569482,627.238684 C70.1580381,627.238684 78.7138965,622.960755 78.7138965,622.960755 L39.3569482,329.400556 L39.3569482,329.400556 Z" id="Triangle-2-Copy-2" fill="#00CC00"></path>
                    <path d="M39.3569482,1.09976888e-05 L78.7138965,293.560221 C78.7138965,293.560221 70.1580381,297.838139 39.3569482,297.838139 C8.55585831,297.838139 0,293.56021 0,293.56021 L39.3569482,1.09976888e-05 Z" id="Triangle-2" fill="#FF0000" transform="translate(39.356948, 148.919075) scale(1, -1) translate(-39.356948, -148.919075) "></path>
                </g>
                <g id="165" transform="translate(313.861823, 314.037025) rotate(-195.000000) translate(-313.861823, -314.037025) translate(274.361823, 0.037025)">
                    <path d="M39.3569482,329.400556 L-3.53324675e-13,622.960766 C-3.53324675e-13,622.960766 8.55585831,627.238684 39.3569482,627.238684 C70.1580381,627.238684 78.7138965,622.960755 78.7138965,622.960755 L39.3569482,329.400556 L39.3569482,329.400556 Z" id="Triangle-2-Copy-2" fill="#F00050"></path>
                    <path d="M39.3569482,1.09976881e-05 L78.7138965,293.560221 C78.7138965,293.560221 70.1580381,297.838139 39.3569482,297.838139 C8.55585831,297.838139 3.52429197e-12,293.56021 3.52429197e-12,293.56021 L39.3569482,1.09976881e-05 Z" id="Triangle-2" fill="#77CC00" transform="translate(39.356948, 148.919075) scale(1, -1) translate(-39.356948, -148.919075) "></path>
                </g>
                <g id="150" transform="translate(313.876114, 314.071526) rotate(-210.000000) translate(-313.876114, -314.071526) translate(274.376114, 0.071526)">
                    <path d="M39.3569482,329.400556 L-4.84726414e-14,622.960766 C-4.84726414e-14,622.960766 8.55585831,627.238684 39.3569482,627.238684 C70.1580381,627.238684 78.7138965,622.960755 78.7138965,622.960755 L39.3569482,329.400556 L39.3569482,329.400556 Z" id="Triangle-2-Copy-2" fill="#E00080"></path>
                    <path d="M39.3569482,1.09976888e-05 L78.7138965,293.560221 C78.7138965,293.560221 70.1580381,297.838139 39.3569482,297.838139 C8.55585831,297.838139 2.27373675e-13,293.56021 2.27373675e-13,293.56021 L39.3569482,1.09976888e-05 Z" id="Triangle-2" fill="#AADD00" transform="translate(39.356948, 148.919075) scale(1, -1) translate(-39.356948, -148.919075) "></path>
                </g>
                <g id="135" transform="translate(313.898847, 314.101153) rotate(-225.000000) translate(-313.898847, -314.101153) translate(274.398847, 0.101153)">
                    <path d="M39.3569482,329.400556 L-1.68408362e-12,622.960766 C-1.68408362e-12,622.960766 8.55585831,627.238684 39.3569482,627.238684 C70.1580381,627.238684 78.7138965,622.960755 78.7138965,622.960755 L39.3569482,329.400556 L39.3569482,329.400556 Z" id="Triangle-2-Copy-2" fill="#D000B0"></path>
                    <path d="M39.3569482,1.0997689e-05 L78.7138965,293.560221 C78.7138965,293.560221 70.1580381,297.838139 39.3569482,297.838139 C8.55585831,297.838139 -1.53477231e-12,293.56021 -1.53477231e-12,293.56021 L39.3569482,1.0997689e-05 Z" id="Triangle-2" fill="#CCEE00" transform="translate(39.356948, 148.919075) scale(1, -1) translate(-39.356948, -148.919075) "></path>
                </g>
                <g id="120" transform="translate(313.928474, 314.123886) rotate(-240.000000) translate(-313.928474, -314.123886) translate(274.428474, 0.123886)">
                    <path d="M39.3569482,329.400556 L2.15109513e-13,622.960766 C2.15109513e-13,622.960766 8.55585831,627.238684 39.3569482,627.238684 C70.1580381,627.238684 78.7138965,622.960755 78.7138965,622.960755 L39.3569482,329.400556 L39.3569482,329.400556 Z" id="Triangle-2-Copy-2" fill="#B000B0"></path>
                    <path d="M39.3569482,1.09976887e-05 L78.7138965,293.560221 C78.7138965,293.560221 70.1580381,297.838139 39.3569482,297.838139 C8.55585831,297.838139 -1.70530257e-13,293.56021 -1.70530257e-13,293.56021 L39.3569482,1.09976887e-05 Z" id="Triangle-2" fill="#FFFF00" transform="translate(39.356948, 148.919075) scale(1, -1) translate(-39.356948, -148.919075) "></path>
                </g>
                <g id="105" transform="translate(313.962975, 314.138177) rotate(-255.000000) translate(-313.962975, -314.138177) translate(274.462975, 0.138177)">
                    <path d="M39.3569482,329.400556 L-3.9070117e-13,622.960766 C-3.9070117e-13,622.960766 8.55585831,627.238684 39.3569482,627.238684 C70.1580381,627.238684 78.7138965,622.960755 78.7138965,622.960755 L39.3569482,329.400556 L39.3569482,329.400556 Z" id="Triangle-2-Copy-2" fill="#8000B0"></path>
                    <path d="M39.3569482,1.09976883e-05 L78.7138965,293.560221 C78.7138965,293.560221 70.1580381,297.838139 39.3569482,297.838139 C8.55585831,297.838139 -7.10542736e-13,293.56021 -7.10542736e-13,293.56021 L39.3569482,1.09976883e-05 Z" id="Triangle-2" fill="#FFE000" transform="translate(39.356948, 148.919075) scale(1, -1) translate(-39.356948, -148.919075) "></path>
                </g>
                <g id="90" transform="translate(314.000000, 314.143052) rotate(-270.000000) translate(-314.000000, -314.143052) translate(274.500000, 0.143052)">
                    <path d="M39.3569482,329.400556 L-1.10377461e-13,622.960766 C-1.10377461e-13,622.960766 8.55585831,627.238684 39.3569482,627.238684 C70.1580381,627.238684 78.7138965,622.960755 78.7138965,622.960755 L39.3569482,329.400556 L39.3569482,329.400556 Z" id="Triangle-2-Copy-2" fill="#6000DD"></path>
                    <path d="M39.3569482,1.0997689e-05 L78.7138965,293.560221 C78.7138965,293.560221 70.1580381,297.838139 39.3569482,297.838139 C8.55585831,297.838139 -5.68434189e-14,293.56021 -5.68434189e-14,293.56021 L39.3569482,1.0997689e-05 Z" id="Triangle-2" fill="#FFC000" transform="translate(39.356948, 148.919075) scale(1, -1) translate(-39.356948, -148.919075) "></path>
                </g>
                <g id="75" transform="translate(314.037025, 314.138177) rotate(-285.000000) translate(-314.037025, -314.138177) translate(274.537025, 0.138177)">
                    <path d="M39.3569482,329.400556 L3.63983745e-15,622.960766 C3.63983745e-15,622.960766 8.55585831,627.238684 39.3569482,627.238684 C70.1580381,627.238684 78.7138965,622.960755 78.7138965,622.960755 L39.3569482,329.400556 L39.3569482,329.400556 Z" id="Triangle-2-Copy-2" fill="#3000E0"></path>
                    <path d="M39.3569482,1.09976877e-05 L78.7138965,293.560221 C78.7138965,293.560221 70.1580381,297.838139 39.3569482,297.838139 C8.55585831,297.838139 -7.33280103e-12,293.56021 -7.33280103e-12,293.56021 L39.3569482,1.09976877e-05 Z" id="Triangle-2" fill="#FFA000" transform="translate(39.356948, 148.919075) scale(1, -1) translate(-39.356948, -148.919075) "></path>
                </g>
                <g id="60" transform="translate(314.071526, 314.123886) rotate(-300.000000) translate(-314.071526, -314.123886) translate(274.571526, 0.123886)">
                    <path d="M39.3569482,329.400556 L-2.47424607e-13,622.960766 C-2.47424607e-13,622.960766 8.55585831,627.238684 39.3569482,627.238684 C70.1580381,627.238684 78.7138965,622.960755 78.7138965,622.960755 L39.3569482,329.400556 L39.3569482,329.400556 Z" id="Triangle-2-Copy-2" fill="#0000FF"></path>
                    <path d="M39.3569482,1.09976878e-05 L78.7138965,293.560221 C78.7138965,293.560221 70.1580381,297.838139 39.3569482,297.838139 C8.55585831,297.838139 3.97903932e-13,293.56021 3.97903932e-13,293.56021 L39.3569482,1.09976878e-05 Z" id="Triangle-2" fill="#FF8000" transform="translate(39.356948, 148.919075) scale(1, -1) translate(-39.356948, -148.919075) "></path>
                </g>
                <g id="45" transform="translate(314.101153, 314.101153) rotate(-315.000000) translate(-314.101153, -314.101153) translate(274.601153, 0.101153)">
                    <path d="M39.3569482,329.400556 L-2.31851068e-13,622.960766 C-2.31851068e-13,622.960766 8.55585831,627.238684 39.3569482,627.238684 C70.1580381,627.238684 78.7138965,622.960755 78.7138965,622.960755 L39.3569482,329.400556 L39.3569482,329.400556 Z" id="Triangle-2-Copy-2" fill="#0090FF"></path>
                    <path d="M39.3569482,1.09976891e-05 L78.7138965,293.560221 C78.7138965,293.560221 70.1580381,297.838139 39.3569482,297.838139 C8.55585831,297.838139 -1.70530257e-13,293.56021 -1.70530257e-13,293.56021 L39.3569482,1.09976891e-05 Z" id="Triangle-2" fill="#FF6000" transform="translate(39.356948, 148.919075) scale(1, -1) translate(-39.356948, -148.919075) "></path>
                </g>
                <g id="30" transform="translate(314.123886, 314.071526) rotate(-330.000000) translate(-314.123886, -314.071526) translate(274.623886, 0.071526)">
                    <path d="M39.3569482,329.400556 L2.90057172e-14,622.960766 C2.90057172e-14,622.960766 8.55585831,627.238684 39.3569482,627.238684 C70.1580381,627.238684 78.7138965,622.960755 78.7138965,622.960755 L39.3569482,329.400556 L39.3569482,329.400556 Z" id="Triangle-2-Copy-2" fill="#00CCC0"></path>
                    <path d="M39.3569482,1.0997689e-05 L78.7138965,293.560221 C78.7138965,293.560221 70.1580381,297.838139 39.3569482,297.838139 C8.55585831,297.838139 0,293.56021 0,293.56021 L39.3569482,1.0997689e-05 Z" id="Triangle-2" fill="#FF4000" transform="translate(39.356948, 148.919075) scale(1, -1) translate(-39.356948, -148.919075) "></path>
                </g>
                <g id="15" transform="translate(314.138177, 314.037025) rotate(-345.000000) translate(-314.138177, -314.037025) translate(274.638177, 0.037025)">
                    <path d="M39.3569482,329.400556 L3.21009581e-13,622.960766 C3.21009581e-13,622.960766 8.55585831,627.238684 39.3569482,627.238684 C70.1580381,627.238684 78.7138965,622.960755 78.7138965,622.960755 L39.3569482,329.400556 L39.3569482,329.400556 Z" id="Triangle-2-Copy-2" fill="#00DD40"></path>
                    <path d="M39.3569482,1.09976889e-05 L78.7138965,293.560221 C78.7138965,293.560221 70.1580381,297.838139 39.3569482,297.838139 C8.55585831,297.838139 5.68434189e-14,293.56021 5.68434189e-14,293.56021 L39.3569482,1.09976889e-05 Z" id="Triangle-2" fill="#FF2000" transform="translate(39.356948, 148.919075) scale(1, -1) translate(-39.356948, -148.919075) "></path>
                </g>
            </g>
        </g>
    </g>
</svg>