<?xml version="1.0" encoding="UTF-8" standalone="no"?>
<svg width="645px" height="645px" viewBox="0 0 645 645" version="1.1" xmlns="http://www.w3.org/2000/svg" xmlns:xlink="http://www.w3.org/1999/xlink">
    <!-- Generator: Sketch 39.1 (31720) - http://www.bohemiancoding.com/sketch -->
    <title>printwheel copy</title>
    <desc>Created with Sketch.</desc>
    <defs></defs>
    <g id="color-wheel" stroke="none" stroke-width="1" fill="none" fill-rule="evenodd">
        <g id="printwheel-copy">
            <g id="mywheel-copy" transform="translate(9.000000, 9.000000)">
                <g id="straight-wings" transform="translate(274.643052, 0.000000)">
                    <path d="M39.3569482,329.400556 L-1.22641623e-14,622.960766 C-1.22641623e-14,622.960766 8.55585831,627.238684 39.3569482,627.238684 C70.1580381,627.238684 78.7138965,622.960755 78.7138965,622.960755 L39.3569482,329.400556 L39.3569482,329.400556 Z" id="Triangle-2-Copy-2" fill="#00FF00"></path>
                    <path d="M39.3569482,1.09976889e-05 L78.7138965,293.560221 C78.7138965,293.560221 70.1580381,297.838139 39.3569482,297.838139 C8.55585831,297.838139 0,293.56021 0,293.56021 L39.3569482,1.09976889e-05 Z" id="Triangle-2" fill="#FF0000" transform="translate(39.356948, 148.919075) scale(1, -1) translate(-39.356948, -148.919075) "></path>
                </g>
                <g id="165" transform="translate(313.791694, 314.055815) rotate(-195.000000) translate(-313.791694, -314.055815) translate(274.219091, 0.055815)">
                    <path d="M39.3569482,329.400556 L-6.13208114e-14,622.960766 C-6.13208114e-14,622.960766 8.55585831,627.238684 39.3569482,627.238684 C70.1580381,627.238684 78.7138965,622.960755 78.7138965,622.960755 L39.3569482,329.400556 L39.3569482,329.400556 Z" id="Triangle-2-Copy-2" fill="#FF0040"></path>
                    <path d="M39.3569482,1.09976883e-05 L78.7138965,293.560221 C78.7138965,293.560221 70.1580381,297.838139 39.3569482,297.838139 C8.55585831,297.838139 3.22746031e-12,293.56021 3.22746031e-12,293.56021 L39.3569482,1.09976883e-05 Z" id="Triangle-2" fill="#40FF00" transform="translate(39.356948, 148.919075) scale(1, -1) translate(-39.356948, -148.919075) "></path>
                </g>
                <g id="150" transform="translate(313.813238, 314.107827) rotate(-210.000000) translate(-313.813238, -314.107827) translate(274.240635, 0.107827)">
                    <path d="M39.3569482,329.400556 L5.01351168e-13,622.960766 C5.01351168e-13,622.960766 8.55585831,627.238684 39.3569482,627.238684 C70.1580381,627.238684 78.7138965,622.960755 78.7138965,622.960755 L39.3569482,329.400556 L39.3569482,329.400556 Z" id="Triangle-2-Copy-2" fill="#FF0080"></path>
                    <path d="M39.3569482,1.09976887e-05 L78.7138965,293.560221 C78.7138965,293.560221 70.1580381,297.838139 39.3569482,297.838139 C8.55585831,297.838139 4.90566492e-14,293.56021 4.90566492e-14,293.56021 L39.3569482,1.09976887e-05 Z" id="Triangle-2" fill="#80FF00" transform="translate(39.356948, 148.919075) scale(1, -1) translate(-39.356948, -148.919075) "></path>
                </g>
                <g id="135" transform="translate(313.847509, 314.152491) rotate(-225.000000) translate(-313.847509, -314.152491) translate(274.274906, 0.152491)">
                    <path d="M39.3569482,329.400556 L-1.13651797e-12,622.960766 C-1.13651797e-12,622.960766 8.55585831,627.238684 39.3569482,627.238684 C70.1580381,627.238684 78.7138965,622.960755 78.7138965,622.960755 L39.3569482,329.400556 L39.3569482,329.400556 Z" id="Triangle-2-Copy-2" fill="#FF00C0"></path>
                    <path d="M39.3569482,1.09976891e-05 L78.7138965,293.560221 C78.7138965,293.560221 70.1580381,297.838139 39.3569482,297.838139 C8.55585831,297.838139 -1.4181265e-12,293.56021 -1.4181265e-12,293.56021 L39.3569482,1.09976891e-05 Z" id="Triangle-2" fill="#C0FF00" transform="translate(39.356948, 148.919075) scale(1, -1) translate(-39.356948, -148.919075) "></path>
                </g>
                <g id="120" transform="translate(313.892173, 314.186762) rotate(-240.000000) translate(-313.892173, -314.186762) translate(274.319570, 0.186762)">
                    <path d="M39.3569482,329.400556 L-6.13208114e-14,622.960766 C-6.13208114e-14,622.960766 8.55585831,627.238684 39.3569482,627.238684 C70.1580381,627.238684 78.7138965,622.960755 78.7138965,622.960755 L39.3569482,329.400556 L39.3569482,329.400556 Z" id="Triangle-2-Copy-2" fill="#FF00FF"></path>
                    <path d="M39.3569482,1.09976886e-05 L78.7138965,293.560221 C78.7138965,293.560221 70.1580381,297.838139 39.3569482,297.838139 C8.55585831,297.838139 -2.44504569e-13,293.56021 -2.44504569e-13,293.56021 L39.3569482,1.09976886e-05 Z" id="Triangle-2" fill="#FFFF00" transform="translate(39.356948, 148.919075) scale(1, -1) translate(-39.356948, -148.919075) "></path>
                </g>
                <g id="105" transform="translate(313.944185, 314.208306) rotate(-255.000000) translate(-313.944185, -314.208306) translate(274.371582, 0.208306)">
                    <path d="M39.3569482,329.400556 L-2.81608526e-13,622.960766 C-2.81608526e-13,622.960766 8.55585831,627.238684 39.3569482,627.238684 C70.1580381,627.238684 78.7138965,622.960755 78.7138965,622.960755 L39.3569482,329.400556 L39.3569482,329.400556 Z" id="Triangle-2-Copy-2" fill="#C000FF"></path>
                    <path d="M39.3569482,1.09976882e-05 L78.7138965,293.560221 C78.7138965,293.560221 70.1580381,297.838139 39.3569482,297.838139 C8.55585831,297.838139 -2.68955026e-13,293.56021 -2.68955026e-13,293.56021 L39.3569482,1.09976882e-05 Z" id="Triangle-2" fill="#FFE000" transform="translate(39.356948, 148.919075) scale(1, -1) translate(-39.356948, -148.919075) "></path>
                </g>
                <g id="90" transform="translate(314.000000, 314.215655) rotate(-270.000000) translate(-314.000000, -314.215655) translate(274.427397, 0.215655)">
                    <path d="M39.3569482,329.400556 L-1.10377461e-13,622.960766 C-1.10377461e-13,622.960766 8.55585831,627.238684 39.3569482,627.238684 C70.1580381,627.238684 78.7138965,622.960755 78.7138965,622.960755 L39.3569482,329.400556 L39.3569482,329.400556 Z" id="Triangle-2-Copy-2" fill="#8000FF"></path>
                    <path d="M39.3569482,1.0997689e-05 L78.7138965,293.560221 C78.7138965,293.560221 70.1580381,297.838139 39.3569482,297.838139 C8.55585831,297.838139 -4.90566492e-14,293.56021 -4.90566492e-14,293.56021 L39.3569482,1.0997689e-05 Z" id="Triangle-2" fill="#FFC000" transform="translate(39.356948, 148.919075) scale(1, -1) translate(-39.356948, -148.919075) "></path>
                </g>
                <g id="75" transform="translate(314.055815, 314.208306) rotate(-285.000000) translate(-314.055815, -314.208306) translate(274.483213, 0.208306)">
                    <path d="M39.3569482,329.400556 L-6.23919697e-14,622.960766 C-6.23919697e-14,622.960766 8.55585831,627.238684 39.3569482,627.238684 C70.1580381,627.238684 78.7138965,622.960755 78.7138965,622.960755 L39.3569482,329.400556 L39.3569482,329.400556 Z" id="Triangle-2-Copy-2" fill="#4000FF"></path>
                    <path d="M39.3569482,1.09976879e-05 L78.7138965,293.560221 C78.7138965,293.560221 70.1580381,297.838139 39.3569482,297.838139 C8.55585831,297.838139 -7.28623615e-12,293.56021 -7.28623615e-12,293.56021 L39.3569482,1.09976879e-05 Z" id="Triangle-2" fill="#FFA000" transform="translate(39.356948, 148.919075) scale(1, -1) translate(-39.356948, -148.919075) "></path>
                </g>
                <g id="60" transform="translate(314.107827, 314.186762) rotate(-300.000000) translate(-314.107827, -314.186762) translate(274.535225, 0.186762)">
                    <path d="M39.3569482,329.400556 L8.5849136e-14,622.960766 C8.5849136e-14,622.960766 8.55585831,627.238684 39.3569482,627.238684 C70.1580381,627.238684 78.7138965,622.960755 78.7138965,622.960755 L39.3569482,329.400556 L39.3569482,329.400556 Z" id="Triangle-2-Copy-2" fill="#0000FF"></path>
                    <path d="M39.3569482,1.09976886e-05 L78.7138965,293.560221 C78.7138965,293.560221 70.1580381,297.838139 39.3569482,297.838139 C8.55585831,297.838139 -4.90566492e-14,293.56021 -4.90566492e-14,293.56021 L39.3569482,1.09976886e-05 Z" id="Triangle-2" fill="#FF8000" transform="translate(39.356948, 148.919075) scale(1, -1) translate(-39.356948, -148.919075) "></path>
                </g>
                <g id="45" transform="translate(314.152491, 314.152491) rotate(-315.000000) translate(-314.152491, -314.152491) translate(274.579888, 0.152491)">
                    <path d="M39.3569482,329.400556 L-3.54726294e-13,622.960766 C-3.54726294e-13,622.960766 8.55585831,627.238684 39.3569482,627.238684 C70.1580381,627.238684 78.7138965,622.960755 78.7138965,622.960755 L39.3569482,329.400556 L39.3569482,329.400556 Z" id="Triangle-2-Copy-2" fill="#0080FF"></path>
                    <path d="M39.3569482,1.09976889e-05 L78.7138965,293.560221 C78.7138965,293.560221 70.1580381,297.838139 39.3569482,297.838139 C8.55585831,297.838139 0,293.56021 0,293.56021 L39.3569482,1.09976889e-05 Z" id="Triangle-2" fill="#FF6000" transform="translate(39.356948, 148.919075) scale(1, -1) translate(-39.356948, -148.919075) "></path>
                </g>
                <g id="30" transform="translate(314.186762, 314.107827) rotate(-330.000000) translate(-314.186762, -314.107827) translate(274.614160, 0.107827)">
                    <path d="M39.3569482,329.400556 L1.34905785e-13,622.960766 C1.34905785e-13,622.960766 8.55585831,627.238684 39.3569482,627.238684 C70.1580381,627.238684 78.7138965,622.960755 78.7138965,622.960755 L39.3569482,329.400556 L39.3569482,329.400556 Z" id="Triangle-2-Copy-2" fill="#00CCCC"></path>
                    <path d="M39.3569482,1.09976891e-05 L78.7138965,293.560221 C78.7138965,293.560221 70.1580381,297.838139 39.3569482,297.838139 C8.55585831,297.838139 4.90566492e-14,293.56021 4.90566492e-14,293.56021 L39.3569482,1.09976891e-05 Z" id="Triangle-2" fill="#FF4000" transform="translate(39.356948, 148.919075) scale(1, -1) translate(-39.356948, -148.919075) "></path>
                </g>
                <g id="15" transform="translate(314.208306, 314.055815) rotate(-345.000000) translate(-314.208306, -314.055815) translate(274.635704, 0.055815)">
                    <path d="M39.3569482,329.400556 L3.67924869e-14,622.960766 C3.67924869e-14,622.960766 8.55585831,627.238684 39.3569482,627.238684 C70.1580381,627.238684 78.7138965,622.960755 78.7138965,622.960755 L39.3569482,329.400556 L39.3569482,329.400556 Z" id="Triangle-2-Copy-2" fill="#00EE40"></path>
                    <path d="M39.3569482,1.09976889e-05 L78.7138965,293.560221 C78.7138965,293.560221 70.1580381,297.838139 39.3569482,297.838139 C8.55585831,297.838139 -1.46702741e-13,293.56021 -1.46702741e-13,293.56021 L39.3569482,1.09976889e-05 Z" id="Triangle-2" fill="#FF2000" transform="translate(39.356948, 148.919075) scale(1, -1) translate(-39.356948, -148.919075) "></path>
                </g>
            </g>
        </g>
    </g>
</svg>