<?xml version="1.0" encoding="UTF-8" standalone="no"?>
<svg width="528px" height="277px" viewBox="0 0 528 277" version="1.1" xmlns="http://www.w3.org/2000/svg" xmlns:xlink="http://www.w3.org/1999/xlink" style="background: #1A1A1A;">
    <!-- Generator: Sketch 39.1 (31720) - http://www.bohemiancoding.com/sketch -->
    <title>fbook black</title>
    <desc>Created with Sketch.</desc>
    <defs>
        <path d="M221.249355,27.1905968 C187.622749,7.75003868 142.535847,19.1636926 120.676834,27.190596 C98.81782,35.2174994 72.4173816,58.2271446 48.2618676,105.118082 C1.49879479,195.895051 70.1235763,326.168066 71.9394647,337.352678 C73.7553531,348.53729 93.6516438,337.352678 93.6516438,337.352678 L70.6520438,361.420508 L37.3376123,340.89911 C37.3376123,340.89911 63.5151705,353.558877 56.2391158,335.077244 C48.9630611,316.595612 -16.0627109,159.621613 27.2946658,87.1755967 C45.5151428,56.7309279 61.6497609,27.9868467 115.581698,7.75003866 C147.962562,-4.40018943 192.076505,-0.637739975 221.249355,10.5251151 C230.915641,14.223874 251.693527,26.4384038 258.593644,40.4607405 C265.553302,54.6040746 258.593636,70.5401593 258.593636,70.5401593 C258.593636,70.5401593 261.193853,58.4499793 249.585281,58.9118841 C237.97671,59.373789 234.063491,67.9346375 234.063491,67.9346375 C234.063491,67.9346375 254.875962,46.631155 221.249355,27.1905968 Z" id="path-1"></path>
        <filter x="-50%" y="-50%" width="200%" height="200%" filterUnits="objectBoundingBox" id="filter-2">
            <feOffset dx="0" dy="2" in="SourceAlpha" result="shadowOffsetOuter1"></feOffset>
            <feGaussianBlur stdDeviation="2" in="shadowOffsetOuter1" result="shadowBlurOuter1"></feGaussianBlur>
            <feColorMatrix values="0 0 0 0 0   0 0 0 0 0   0 0 0 0 0  0 0 0 0.5 0" type="matrix" in="shadowBlurOuter1"></feColorMatrix>
        </filter>
        <path d="M363.333984,189.52539 C361.283203,178.548828 349.017578,181.744141 349.017578,181.744141 C349.017578,181.744141 393.436239,173.738814 418.644531,191.664063 C433.192449,202.008875 433.155187,231.280711 414.046875,254.499997 C376.451474,300.183694 207.228516,340.646486 198.947266,352.322266 C190.666016,363.998045 220.035156,357.289063 220.035156,357.289063 L189.398437,372.794922 L161.005859,352.322266 C161.005859,352.322266 173.148437,363.832031 185.865234,352.32226 C198.582031,340.812488 418.308594,259.640626 414.046875,218.554688 C409.785156,177.468749 351.355469,205.228516 351.355469,205.228516 C351.355469,205.228516 365.384766,200.501952 363.333984,189.52539 Z" id="path-3"></path>
        <filter x="-50%" y="-50%" width="200%" height="200%" filterUnits="objectBoundingBox" id="filter-4">
            <feOffset dx="0" dy="2" in="SourceAlpha" result="shadowOffsetOuter1"></feOffset>
            <feGaussianBlur stdDeviation="2" in="shadowOffsetOuter1" result="shadowBlurOuter1"></feGaussianBlur>
            <feColorMatrix values="0 0 0 0 0   0 0 0 0 0   0 0 0 0 0  0 0 0 0.5 0" type="matrix" in="shadowBlurOuter1"></feColorMatrix>
        </filter>
        <path d="M71.614824,197.340893 C71.6406992,201.730037 84.6920045,201.285236 84.6920045,201.285236 C84.6920045,201.285236 18.4284928,221.339185 53.8982911,237.489355 C94.5238759,255.987068 200.888487,239.320519 286.745557,261.282897 C372.602626,283.245274 387.59547,324.995039 394.562234,339.323704 C401.528998,353.652369 414.534656,339.323704 414.534656,339.323704 L389.762436,366.725488 L363.120942,341.985459 C363.120942,341.985459 385.884708,352.400687 382.142296,339.323704 C380.547659,333.751618 346.13055,288.479264 286.745557,279.316385 C182.526324,263.235752 47.4283243,274.268128 27.0847546,244.400647 C6.74118492,214.533166 81.7112222,181.810769 81.7112222,181.810769 C81.7112222,181.810769 71.5584271,187.774463 71.614824,197.340893 Z" id="path-5"></path>
        <filter x="-50%" y="-50%" width="200%" height="200%" filterUnits="objectBoundingBox" id="filter-6">
            <feOffset dx="0" dy="2" in="SourceAlpha" result="shadowOffsetOuter1"></feOffset>
            <feGaussianBlur stdDeviation="2" in="shadowOffsetOuter1" result="shadowBlurOuter1"></feGaussianBlur>
            <feColorMatrix values="0 0 0 0 0   0 0 0 0 0   0 0 0 0 0  0 0 0 0.5 0" type="matrix" in="shadowBlurOuter1"></feColorMatrix>
        </filter>
        <path d="M113.30682,334.238326 C108.077658,314.990188 143.083966,302.092183 143.083966,302.092183 C143.083966,302.092183 130.159498,314.918056 136.621733,317.309387 C143.083967,319.700717 158.287516,311.661366 158.287516,311.661366 C158.287516,311.661366 130.163365,331.585898 138.968473,336.073022 C147.773581,340.560146 167.139017,330.548625 198.396668,327.386583 C229.654319,324.224542 249.186009,327.386583 257.318411,332.184696 C265.450813,336.982809 275.048465,348.454626 277.031789,355.46443 C279.015113,362.474233 297.303835,353.486464 297.303835,353.486464 L275.464073,370.847752 L243.574318,355.989831 C243.574318,355.989831 275.464071,365.049066 264.934685,353.270124 C254.405298,341.491181 227.624598,334.728623 186.952927,344.170321 C146.281256,353.612018 118.535981,353.486464 113.30682,334.238326 Z" id="path-7"></path>
        <filter x="-50%" y="-50%" width="200%" height="200%" filterUnits="objectBoundingBox" id="filter-8">
            <feOffset dx="0" dy="2" in="SourceAlpha" result="shadowOffsetOuter1"></feOffset>
            <feGaussianBlur stdDeviation="2" in="shadowOffsetOuter1" result="shadowBlurOuter1"></feGaussianBlur>
            <feColorMatrix values="0 0 0 0 0   0 0 0 0 0   0 0 0 0 0  0 0 0 0.5 0" type="matrix" in="shadowBlurOuter1"></feColorMatrix>
        </filter>
    </defs>
    <g id="thumb" stroke="none" stroke-width="1" fill="none" fill-rule="evenodd">
        <g id="fbook-black">
            <g id="Group" transform="translate(47.000000, -112.000000)">
                <g id="printwheel" transform="translate(76.000000, 52.000000)">
                    <g id="straight-wings" transform="translate(124.026212, 1.098870)">
                        <path d="M17.6155574,147.323447 L7.81597009e-15,278.617403 C7.81597009e-15,278.617403 3.82946901,280.53069 17.6155574,280.53069 C31.4016459,280.53069 35.2311149,278.617398 35.2311149,278.617398 L17.6155574,147.323447 L17.6155574,147.323447 Z" id="Triangle-2-Copy-2" fill="#00FF00"></path>
                        <path d="M17.6155574,4.91868476e-06 L35.2311149,131.293961 C35.2311149,131.293961 31.4016459,133.207247 17.6155574,133.207247 C3.82946901,133.207247 0,131.293956 0,131.293956 L17.6155574,4.91868476e-06 Z" id="Triangle-2" fill="#FF0000" transform="translate(17.615557, 66.603626) scale(1, -1) translate(-17.615557, -66.603626) "></path>
                    </g>
                    <g id="165" transform="translate(141.064487, 141.461450) rotate(-195.000000) translate(-141.064487, -141.461450) translate(122.910246, 0.806083)">
                        <path d="M17.6155574,147.323447 L-3.55626639e-13,278.617403 C-3.55626639e-13,278.617403 3.82946901,280.53069 17.6155574,280.53069 C31.4016459,280.53069 35.2311149,278.617398 35.2311149,278.617398 L17.6155574,147.323447 L17.6155574,147.323447 Z" id="Triangle-2-Copy-2" fill="#FF0040"></path>
                        <path d="M17.6155574,4.91868365e-06 L35.2311149,131.293961 C35.2311149,131.293961 31.4016459,133.207247 17.6155574,133.207247 C3.82946901,133.207247 1.53614499e-12,131.293956 1.53614499e-12,131.293956 L17.6155574,4.91868365e-06 Z" id="Triangle-2" fill="#40FF00" transform="translate(17.615557, 66.603626) scale(1, -1) translate(-17.615557, -66.603626) "></path>
                    </g>
                    <g id="150" transform="translate(141.065230, 141.613187) rotate(-210.000000) translate(-141.065230, -141.613187) translate(122.910988, 0.957819)">
                        <path d="M17.6155574,147.323447 L4.4941828e-13,278.617403 C4.4941828e-13,278.617403 3.82946901,280.53069 17.6155574,280.53069 C31.4016459,280.53069 35.2311149,278.617398 35.2311149,278.617398 L17.6155574,147.323447 L17.6155574,147.323447 Z" id="Triangle-2-Copy-2" fill="#FF0080"></path>
                        <path d="M17.6155574,4.9186847e-06 L35.2311149,131.293961 C35.2311149,131.293961 31.4016459,133.207247 17.6155574,133.207247 C3.82946901,133.207247 2.30571118e-13,131.293956 2.30571118e-13,131.293956 L17.6155574,4.9186847e-06 Z" id="Triangle-2" fill="#80FF00" transform="translate(17.615557, 66.603626) scale(1, -1) translate(-17.615557, -66.603626) "></path>
                    </g>
                    <g id="135" transform="translate(141.105263, 141.759558) rotate(-225.000000) translate(-141.105263, -141.759558) translate(122.951021, 1.104191)">
                        <path d="M17.6155574,147.323447 L-7.89412979e-13,278.617403 C-7.89412979e-13,278.617403 3.82946901,280.53069 17.6155574,280.53069 C31.4016459,280.53069 35.2311149,278.617398 35.2311149,278.617398 L17.6155574,147.323447 L17.6155574,147.323447 Z" id="Triangle-2-Copy-2" fill="#FF00C0"></path>
                        <path d="M17.6155574,4.91868434e-06 L35.2311149,131.293961 C35.2311149,131.293961 31.4016459,133.207247 17.6155574,133.207247 C3.82946901,133.207247 -8.75615147e-13,131.293956 -8.75615147e-13,131.293956 L17.6155574,4.91868434e-06 Z" id="Triangle-2" fill="#C0FF00" transform="translate(17.615557, 66.603626) scale(1, -1) translate(-17.615557, -66.603626) "></path>
                    </g>
                    <g id="120" transform="translate(141.181857, 141.890590) rotate(-240.000000) translate(-141.181857, -141.890590) translate(123.027616, 1.235223)">
                        <path d="M17.6155574,147.323447 L-2.61834998e-13,278.617403 C-2.61834998e-13,278.617403 3.82946901,280.53069 17.6155574,280.53069 C31.4016459,280.53069 35.2311149,278.617398 35.2311149,278.617398 L17.6155574,147.323447 L17.6155574,147.323447 Z" id="Triangle-2-Copy-2" fill="#FF00FF"></path>
                        <path d="M17.6155574,4.91868412e-06 L35.2311149,131.293961 C35.2311149,131.293961 31.4016459,133.207247 17.6155574,133.207247 C3.82946901,133.207247 9.37916411e-14,131.293956 9.37916411e-14,131.293956 L17.6155574,4.91868412e-06 Z" id="Triangle-2" fill="#FFFF00" transform="translate(17.615557, 66.603626) scale(1, -1) translate(-17.615557, -66.603626) "></path>
                    </g>
                    <g id="105" transform="translate(141.289795, 141.997352) rotate(-255.000000) translate(-141.289795, -141.997352) translate(123.135553, 1.341985)">
                        <path d="M17.6155574,147.323447 L-2.14939178e-13,278.617403 C-2.14939178e-13,278.617403 3.82946901,280.53069 17.6155574,280.53069 C31.4016459,280.53069 35.2311149,278.617398 35.2311149,278.617398 L17.6155574,147.323447 L17.6155574,147.323447 Z" id="Triangle-2-Copy-2" fill="#C000FF"></path>
                        <path d="M17.6155574,4.91868467e-06 L35.2311149,131.293961 C35.2311149,131.293961 31.4016459,133.207247 17.6155574,133.207247 C3.82946901,133.207247 -1.56319402e-13,131.293956 -1.56319402e-13,131.293956 L17.6155574,4.91868467e-06 Z" id="Triangle-2" fill="#FFE000" transform="translate(17.615557, 66.603626) scale(1, -1) translate(-17.615557, -66.603626) "></path>
                    </g>
                    <g id="90" transform="translate(141.421718, 142.072570) rotate(-270.000000) translate(-141.421718, -142.072570) translate(123.267477, 1.417202)">
                        <path d="M17.6155574,147.323447 L-1.25055521e-13,278.617403 C-1.25055521e-13,278.617403 3.82946901,280.53069 17.6155574,280.53069 C31.4016459,280.53069 35.2311149,278.617398 35.2311149,278.617398 L17.6155574,147.323447 L17.6155574,147.323447 Z" id="Triangle-2-Copy-2" fill="#8000FF"></path>
                        <path d="M17.6155574,4.91868465e-06 L35.2311149,131.293961 C35.2311149,131.293961 31.4016459,133.207247 17.6155574,133.207247 C3.82946901,133.207247 -7.42517159e-14,131.293956 -7.42517159e-14,131.293956 L17.6155574,4.91868465e-06 Z" id="Triangle-2" fill="#FFC000" transform="translate(17.615557, 66.603626) scale(1, -1) translate(-17.615557, -66.603626) "></path>
                    </g>
                    <g id="75" transform="translate(141.568638, 142.111116) rotate(-285.000000) translate(-141.568638, -142.111116) translate(123.414396, 1.455749)">
                        <path d="M17.6155574,147.323447 L-7.89412979e-13,278.617403 C-7.89412979e-13,278.617403 3.82946901,280.53069 17.6155574,280.53069 C31.4016459,280.53069 35.2311149,278.617398 35.2311149,278.617398 L17.6155574,147.323447 L17.6155574,147.323447 Z" id="Triangle-2-Copy-2" fill="#4000FF"></path>
                        <path d="M17.6155574,4.9186842e-06 L35.2311149,131.293961 C35.2311149,131.293961 31.4016459,133.207247 17.6155574,133.207247 C3.82946901,133.207247 -3.19749163e-12,131.293956 -3.19749163e-12,131.293956 L17.6155574,4.9186842e-06 Z" id="Triangle-2" fill="#FFA000" transform="translate(17.615557, 66.603626) scale(1, -1) translate(-17.615557, -66.603626) "></path>
                    </g>
                    <g id="60" transform="translate(141.720542, 142.110364) rotate(-300.000000) translate(-141.720542, -142.110364) translate(123.566300, 1.454997)">
                        <path d="M17.6155574,147.323447 L3.04822834e-13,278.617403 C3.04822834e-13,278.617403 3.82946901,280.53069 17.6155574,280.53069 C31.4016459,280.53069 35.2311149,278.617398 35.2311149,278.617398 L17.6155574,147.323447 L17.6155574,147.323447 Z" id="Triangle-2-Copy-2" fill="#0000FF"></path>
                        <path d="M17.6155574,4.91868429e-06 L35.2311149,131.293961 C35.2311149,131.293961 31.4016459,133.207247 17.6155574,133.207247 C3.82946901,133.207247 -7.81597009e-14,131.293956 -7.81597009e-14,131.293956 L17.6155574,4.91868429e-06 Z" id="Triangle-2" fill="#FF8000" transform="translate(17.615557, 66.603626) scale(1, -1) translate(-17.615557, -66.603626) "></path>
                    </g>
                    <g id="45" transform="translate(141.867077, 142.070366) rotate(-315.000000) translate(-141.867077, -142.070366) translate(123.712835, 1.414998)">
                        <path d="M17.6155574,147.323447 L8.98836561e-14,278.617403 C8.98836561e-14,278.617403 3.82946901,280.53069 17.6155574,280.53069 C31.4016459,280.53069 35.2311149,278.617398 35.2311149,278.617398 L17.6155574,147.323447 L17.6155574,147.323447 Z" id="Triangle-2-Copy-2" fill="#0080FF"></path>
                        <path d="M17.6155574,4.91868502e-06 L35.2311149,131.293961 C35.2311149,131.293961 31.4016459,133.207247 17.6155574,133.207247 C3.82946901,133.207247 4.181544e-13,131.293956 4.181544e-13,131.293956 L17.6155574,4.91868502e-06 Z" id="Triangle-2" fill="#FF6000" transform="translate(17.615557, 66.603626) scale(1, -1) translate(-17.615557, -66.603626) "></path>
                    </g>
                    <g id="30" transform="translate(141.998258, 141.993846) rotate(-330.000000) translate(-141.998258, -141.993846) translate(123.844017, 1.338479)">
                        <path d="M17.6155574,147.323447 L-1.71951342e-13,278.617403 C-1.71951342e-13,278.617403 3.82946901,280.53069 17.6155574,280.53069 C31.4016459,280.53069 35.2311149,278.617398 35.2311149,278.617398 L17.6155574,147.323447 L17.6155574,147.323447 Z" id="Triangle-2-Copy-2" fill="#00CCCC"></path>
                        <path d="M17.6155574,4.91868478e-06 L35.2311149,131.293961 C35.2311149,131.293961 31.4016459,133.207247 17.6155574,133.207247 C3.82946901,133.207247 4.61142236e-13,131.293956 4.61142236e-13,131.293956 L17.6155574,4.91868478e-06 Z" id="Triangle-2" fill="#FF4000" transform="translate(17.615557, 66.603626) scale(1, -1) translate(-17.615557, -66.603626) "></path>
                    </g>
                    <g id="15" transform="translate(142.105145, 141.886021) rotate(-345.000000) translate(-142.105145, -141.886021) translate(123.950904, 1.230654)">
                        <path d="M17.6155574,147.323447 L1.56319402e-14,278.617403 C1.56319402e-14,278.617403 3.82946901,280.53069 17.6155574,280.53069 C31.4016459,280.53069 35.2311149,278.617398 35.2311149,278.617398 L17.6155574,147.323447 L17.6155574,147.323447 Z" id="Triangle-2-Copy-2" fill="#00EE40"></path>
                        <path d="M17.6155574,4.91868478e-06 L35.2311149,131.293961 C35.2311149,131.293961 31.4016459,133.207247 17.6155574,133.207247 C3.82946901,133.207247 1.48503432e-13,131.293956 1.48503432e-13,131.293956 L17.6155574,4.91868478e-06 Z" id="Triangle-2" fill="#FF2000" transform="translate(17.615557, 66.603626) scale(1, -1) translate(-17.615557, -66.603626) "></path>
                    </g>
                </g>
                <rect id="Rectangle-6" fill="#FFFFFF" x="0" y="346" width="434" height="45"></rect>
                <g id="Group-2" transform="translate(3.000000, 349.000000)">
                    <rect id="Rectangle-109-Copy-5" fill="#FF2000" x="0.437088425" y="0.440677966" width="103.921541" height="39.559322"></rect>
                    <rect id="Rectangle-109-Copy-6" fill="#FFC000" x="108.317545" y="0.440677966" width="103.921541" height="39.559322"></rect>
                    <rect id="Rectangle-109-Copy-11" fill="#00CCCC" x="216.198002" y="0.440677966" width="103.921541" height="39.559322"></rect>
                    <rect id="Rectangle-109-Copy-7" fill="#8000FF" x="324.078459" y="0.440677966" width="103.921541" height="39.559322"></rect>
                </g>
                <g id="Path-2">
                    <use fill="black" fill-opacity="1" filter="url(#filter-2)" xlink:href="#path-1"></use>
                    <use fill="#FFFFFF" fill-rule="evenodd" xlink:href="#path-1"></use>
                </g>
                <g id="Path-3">
                    <use fill="black" fill-opacity="1" filter="url(#filter-4)" xlink:href="#path-3"></use>
                    <use fill="#FFFFFF" fill-rule="evenodd" xlink:href="#path-3"></use>
                </g>
                <g id="Path-4">
                    <use fill="black" fill-opacity="1" filter="url(#filter-6)" xlink:href="#path-5"></use>
                    <use fill="#FFFFFF" fill-rule="evenodd" xlink:href="#path-5"></use>
                </g>
                <g id="Path-5">
                    <use fill="black" fill-opacity="1" filter="url(#filter-8)" xlink:href="#path-7"></use>
                    <use fill="#FFFFFF" fill-rule="evenodd" xlink:href="#path-7"></use>
                </g>
            </g>
        </g>
    </g>
</svg>