<?xml version="1.0" encoding="UTF-8" standalone="no"?>
<svg width="581px" height="424px" viewBox="0 0 581 424" version="1.1" xmlns="http://www.w3.org/2000/svg" xmlns:xlink="http://www.w3.org/1999/xlink">
    <!-- Generator: Sketch 41.2 (35397) - http://www.bohemiancoding.com/sketch -->
    <title>title2</title>
    <desc>Created with Sketch.</desc>
    <defs>
        <radialGradient cx="50%" cy="41.5554257%" fx="50%" fy="41.5554257%" r="101.672835%" id="radialGradient-1">
            <stop stop-color="#FFFFFF" offset="0%"></stop>
            <stop stop-color="#E3E5D0" offset="100%"></stop>
        </radialGradient>
    </defs>
    <g id="thumb" stroke="none" stroke-width="1" fill="none" fill-rule="evenodd">
        <g id="title2">
            <rect id="background" fill="url(#radialGradient-1)" x="-65" y="-75" width="714" height="508"></rect>
            <g id="arros" transform="translate(85.000000, -77.000000)">
                <path d="M446.545675,32.0082592 C401.725211,87.2576104 405.344882,335.465024 407.341163,347.760729 C409.337444,360.056435 428.382559,352.225746 428.382559,352.225746 L401.509849,370.064884 L376.822076,352.940846 C376.822076,352.940846 393.639144,359.247675 393.639144,347.760722 C393.639144,336.273768 386.144744,70.3924789 395.615463,37.958317 C405.086182,5.52415501 491.36614,-23.2410921 446.545675,32.0082592 Z" id="Path-2" fill="#FF4000"></path>
                <path d="M115.730469,47.7734379 L178.874999,47.7734379 C178.874999,47.7734379 170.679892,58.1015541 157.266479,102.285156 C143.853066,146.468757 149.977357,340.690387 152.184828,349.31988 C154.392298,357.949373 132.672437,364.824212 132.554687,352.585931 C132.436937,340.34765 118.234375,247.667962 122.769531,161.304689 C127.304687,74.9414152 115.730469,47.7734379 115.730469,47.7734379 Z" id="Path-5" fill="#00CCC0"></path>
                <path d="M281.782906,46.765625 C281.782906,46.765625 276.797577,48.2265625 285.621445,100.351562 C294.445312,152.476563 292.464844,232.808594 285.621445,268.484375 C278.778046,304.160156 285.621445,360.753906 285.621445,360.753906 L267.226749,360.753906 C267.226749,360.753906 259.335938,265.839844 259.335938,220.199219 C259.335938,174.558594 261.118774,172.566406 253.227962,131.363281 C245.337151,90.1601562 217.792969,33.4882812 217.792969,33.4882812 L281.782906,46.765625 Z" id="Path-3" fill="#FFC000"></path>
                <path d="M60.9960955,47.3203125 C60.9960955,47.3203125 30.1796892,122.066409 26.1796892,169.433597 C22.1796892,216.800784 23.1289044,359.15983 23.1289044,359.15983 L3.42187319,359.15983 C3.42187319,359.15983 7.91015612,169.609374 3.42187301,114.207029 C-3.79853094,25.0800055 3.42187309,47.3203125 3.42187309,47.3203125 L60.9960955,47.3203125 Z" id="Path-4" fill="#6000DD"></path>
            </g>
            <g id="boxes" transform="translate(14.000000, 266.000000)">
                <g id="front" transform="translate(1.120503, 17.924484)">
                    <rect id="Rectangle-109-Copy-5" fill="#6000DD" x="0.580650996" y="0.515169186" width="138.05478" height="112.896163"></rect>
                    <rect id="Rectangle-109-Copy-6" fill="#00CCC0" x="138.21802" y="0.515169186" width="138.05478" height="112.896163"></rect>
                    <rect id="Rectangle-109-Copy-11" fill="#FFC000" x="275.855389" y="0.515169186" width="138.05478" height="112.896163"></rect>
                    <rect id="Rectangle-109-Copy-7" fill="#FF4000" x="413.492757" y="0.515169186" width="138.05478" height="112.896163"></rect>
                </g>
                <g id="top" transform="translate(0.541560, 0.000000)">
                    <polygon id="Rectangle-109-Copy-10" fill="#FF4000" points="533.798034 1 552.178441 19.5 413.885701 19.5 407.808446 1"></polygon>
                    <polygon id="Rectangle-109-Copy-9" fill="#FFC000" points="407.402461 1 413.285645 19.0935863 275.948006 19.0935863 275.948006 1"></polygon>
                    <polygon id="Rectangle-109-Copy-8" fill="#00CCC0" points="276.391026 1 276.391027 18.7675781 138.560003 18.7675781 143.282872 1"></polygon>
                    <polygon id="Rectangle" fill="#6000DD" points="138.659534 19.7541122 0.538440169 19.7541122 20.7016601 1.11411278 143.238437 1.11411278"></polygon>
                </g>
            </g>
        </g>
    </g>
</svg>