<?xml version="1.0" encoding="UTF-8" standalone="no"?>
<svg width="645px" height="645px" viewBox="0 0 645 645" version="1.1" xmlns="http://www.w3.org/2000/svg" xmlns:xlink="http://www.w3.org/1999/xlink">
    <!-- Generator: Sketch 39.1 (31720) - http://www.bohemiancoding.com/sketch -->
    <title>webwheel copy</title>
    <desc>Created with Sketch.</desc>
    <defs></defs>
    <g id="color-wheels" stroke="none" stroke-width="1" fill="none" fill-rule="evenodd">
        <g id="webwheel-copy">
            <g id="mywheel-copy" transform="translate(8.000000, 8.000000)">
                <g id="straight-wings" transform="translate(275.517711, 0.000000)">
                    <path d="M39.4822888,330.449602 L-1.22641623e-14,624.944717 C-1.22641623e-14,624.944717 8.58310627,629.236259 39.4822888,629.236259 C70.3814714,629.236259 78.9645777,624.944706 78.9645777,624.944706 L39.4822888,330.449602 L39.4822888,330.449602 Z" id="Triangle-2-Copy-2" fill="#00FFFF"></path>
                    <path d="M39.4822888,1.10327133e-05 L78.9645777,294.495126 C78.9645777,294.495126 70.3814714,298.786668 39.4822888,298.786668 C8.58310627,298.786668 0,294.495115 0,294.495115 L39.4822888,1.10327133e-05 Z" id="Triangle-2" fill="#FF0000" transform="translate(39.482289, 149.393339) scale(1, -1) translate(-39.482289, -149.393339) "></path>
                </g>
                <g id="165" transform="translate(314.791030, 315.055993) rotate(-195.000000) translate(-314.791030, -315.055993) translate(275.092400, 0.055993)">
                    <path d="M39.4822888,330.449602 L-6.13208114e-14,624.944717 C-6.13208114e-14,624.944717 8.58310627,629.236259 39.4822888,629.236259 C70.3814714,629.236259 78.9645777,624.944706 78.9645777,624.944706 L39.4822888,330.449602 L39.4822888,330.449602 Z" id="Triangle-2-Copy-2" fill="#FF0040"></path>
                    <path d="M39.4822888,1.10327127e-05 L78.9645777,294.495126 C78.9645777,294.495126 70.3814714,298.786668 39.4822888,298.786668 C8.58310627,298.786668 3.04151225e-12,294.495115 3.04151225e-12,294.495115 L39.4822888,1.10327127e-05 Z" id="Triangle-2" fill="#00FFC0" transform="translate(39.482289, 149.393339) scale(1, -1) translate(-39.482289, -149.393339) "></path>
                </g>
                <g id="150" transform="translate(314.812643, 315.108171) rotate(-210.000000) translate(-314.812643, -315.108171) translate(275.114013, 0.108171)">
                    <path d="M39.4822888,330.449602 L6.50000601e-13,624.944717 C6.50000601e-13,624.944717 8.58310627,629.236259 39.4822888,629.236259 C70.3814714,629.236259 78.9645777,624.944706 78.9645777,624.944706 L39.4822888,330.449602 L39.4822888,330.449602 Z" id="Triangle-2-Copy-2" fill="#FF0080"></path>
                    <path d="M39.4822888,1.10327131e-05 L78.9645777,294.495126 C78.9645777,294.495126 70.3814714,298.786668 39.4822888,298.786668 C8.58310627,298.786668 4.90566492e-14,294.495115 4.90566492e-14,294.495115 L39.4822888,1.10327131e-05 Z" id="Triangle-2" fill="#00FF80" transform="translate(39.482289, 149.393339) scale(1, -1) translate(-39.482289, -149.393339) "></path>
                </g>
                <g id="135" transform="translate(314.847024, 315.152976) rotate(-225.000000) translate(-314.847024, -315.152976) translate(275.148393, 0.152976)">
                    <path d="M39.4822888,330.449602 L-1.06698212e-12,624.944717 C-1.06698212e-12,624.944717 8.58310627,629.236259 39.4822888,629.236259 C70.3814714,629.236259 78.9645777,624.944706 78.9645777,624.944706 L39.4822888,330.449602 L39.4822888,330.449602 Z" id="Triangle-2-Copy-2" fill="#FF00C0"></path>
                    <path d="M39.4822888,1.10327135e-05 L78.9645777,294.495126 C78.9645777,294.495126 70.3814714,298.786668 39.4822888,298.786668 C8.58310627,298.786668 -1.61886942e-12,294.495115 -1.61886942e-12,294.495115 L39.4822888,1.10327135e-05 Z" id="Triangle-2" fill="#00FF40" transform="translate(39.482289, 149.393339) scale(1, -1) translate(-39.482289, -149.393339) "></path>
                </g>
                <g id="120" transform="translate(314.891829, 315.187357) rotate(-240.000000) translate(-314.891829, -315.187357) translate(275.193199, 0.187357)">
                    <path d="M39.4822888,330.449602 L-6.13208114e-14,624.944717 C-6.13208114e-14,624.944717 8.58310627,629.236259 39.4822888,629.236259 C70.3814714,629.236259 78.9645777,624.944706 78.9645777,624.944706 L39.4822888,330.449602 L39.4822888,330.449602 Z" id="Triangle-2-Copy-2" fill="#FF00FF"></path>
                    <path d="M39.4822888,1.10327127e-05 L78.9645777,294.495126 C78.9645777,294.495126 70.3814714,298.786668 39.4822888,298.786668 C8.58310627,298.786668 -4.41509842e-13,294.495115 -4.41509842e-13,294.495115 L39.4822888,1.10327127e-05 Z" id="Triangle-2" fill="#00FF00" transform="translate(39.482289, 149.393339) scale(1, -1) translate(-39.482289, -149.393339) "></path>
                </g>
                <g id="105" transform="translate(314.944007, 315.208970) rotate(-255.000000) translate(-314.944007, -315.208970) translate(275.245377, 0.208970)">
                    <path d="M39.4822888,330.449602 L-2.82075733e-13,624.944717 C-2.82075733e-13,624.944717 8.58310627,629.236259 39.4822888,629.236259 C70.3814714,629.236259 78.9645777,624.944706 78.9645777,624.944706 L39.4822888,330.449602 L39.4822888,330.449602 Z" id="Triangle-2-Copy-2" fill="#C000FF"></path>
                    <path d="M39.4822888,1.10327127e-05 L78.9645777,294.495126 C78.9645777,294.495126 70.3814714,298.786668 39.4822888,298.786668 C8.58310627,298.786668 -2.6981157e-13,294.495115 -2.6981157e-13,294.495115 L39.4822888,1.10327127e-05 Z" id="Triangle-2" fill="#40FF00" transform="translate(39.482289, 149.393339) scale(1, -1) translate(-39.482289, -149.393339) "></path>
                </g>
                <g id="90" transform="translate(315.000000, 315.216341) rotate(-270.000000) translate(-315.000000, -315.216341) translate(275.301370, 0.216341)">
                    <path d="M39.4822888,330.449602 L-1.10377461e-13,624.944717 C-1.10377461e-13,624.944717 8.58310627,629.236259 39.4822888,629.236259 C70.3814714,629.236259 78.9645777,624.944706 78.9645777,624.944706 L39.4822888,330.449602 L39.4822888,330.449602 Z" id="Triangle-2-Copy-2" fill="#8000FF"></path>
                    <path d="M39.4822888,1.10327134e-05 L78.9645777,294.495126 C78.9645777,294.495126 70.3814714,298.786668 39.4822888,298.786668 C8.58310627,298.786668 -4.90566492e-14,294.495115 -4.90566492e-14,294.495115 L39.4822888,1.10327134e-05 Z" id="Triangle-2" fill="#80FF00" transform="translate(39.482289, 149.393339) scale(1, -1) translate(-39.482289, -149.393339) "></path>
                </g>
                <g id="75" transform="translate(315.055993, 315.208970) rotate(-285.000000) translate(-315.055993, -315.208970) translate(275.357363, 0.208970)">
                    <path d="M39.4822888,330.449602 L-6.25906702e-14,624.944717 C-6.25906702e-14,624.944717 8.58310627,629.236259 39.4822888,629.236259 C70.3814714,629.236259 78.9645777,624.944706 78.9645777,624.944706 L39.4822888,330.449602 L39.4822888,330.449602 Z" id="Triangle-2-Copy-2" fill="#4000FF"></path>
                    <path d="M39.4822888,1.10327123e-05 L78.9645777,294.495126 C78.9645777,294.495126 70.3814714,298.786668 39.4822888,298.786668 C8.58310627,298.786668 -7.26038407e-12,294.495115 -7.26038407e-12,294.495115 L39.4822888,1.10327123e-05 Z" id="Triangle-2" fill="#C0FF00" transform="translate(39.482289, 149.393339) scale(1, -1) translate(-39.482289, -149.393339) "></path>
                </g>
                <g id="60" transform="translate(315.108171, 315.187357) rotate(-300.000000) translate(-315.108171, -315.187357) translate(275.409541, 0.187357)">
                    <path d="M39.4822888,330.449602 L8.5849136e-14,624.944717 C8.5849136e-14,624.944717 8.58310627,629.236259 39.4822888,629.236259 C70.3814714,629.236259 78.9645777,624.944706 78.9645777,624.944706 L39.4822888,330.449602 L39.4822888,330.449602 Z" id="Triangle-2-Copy-2" fill="#0000FF"></path>
                    <path d="M39.4822888,1.10327131e-05 L78.9645777,294.495126 C78.9645777,294.495126 70.3814714,298.786668 39.4822888,298.786668 C8.58310627,298.786668 -4.90566492e-14,294.495115 -4.90566492e-14,294.495115 L39.4822888,1.10327131e-05 Z" id="Triangle-2" fill="#FFFF00" transform="translate(39.482289, 149.393339) scale(1, -1) translate(-39.482289, -149.393339) "></path>
                </g>
                <g id="45" transform="translate(315.152976, 315.152976) rotate(-315.000000) translate(-315.152976, -315.152976) translate(275.454346, 0.152976)">
                    <path d="M39.4822888,330.449602 L-3.55660706e-13,624.944717 C-3.55660706e-13,624.944717 8.58310627,629.236259 39.4822888,629.236259 C70.3814714,629.236259 78.9645777,624.944706 78.9645777,624.944706 L39.4822888,330.449602 L39.4822888,330.449602 Z" id="Triangle-2-Copy-2" fill="#0040FF"></path>
                    <path d="M39.4822888,1.10327134e-05 L78.9645777,294.495126 C78.9645777,294.495126 70.3814714,298.786668 39.4822888,298.786668 C8.58310627,298.786668 0,294.495115 0,294.495115 L39.4822888,1.10327134e-05 Z" id="Triangle-2" fill="#FFC000" transform="translate(39.482289, 149.393339) scale(1, -1) translate(-39.482289, -149.393339) "></path>
                </g>
                <g id="30" transform="translate(315.187357, 315.108171) rotate(-330.000000) translate(-315.187357, -315.108171) translate(275.488727, 0.108171)">
                    <path d="M39.4822888,330.449602 L1.34905785e-13,624.944717 C1.34905785e-13,624.944717 8.58310627,629.236259 39.4822888,629.236259 C70.3814714,629.236259 78.9645777,624.944706 78.9645777,624.944706 L39.4822888,330.449602 L39.4822888,330.449602 Z" id="Triangle-2-Copy-2" fill="#0080FF"></path>
                    <path d="M39.4822888,1.10327136e-05 L78.9645777,294.495126 C78.9645777,294.495126 70.3814714,298.786668 39.4822888,298.786668 C8.58310627,298.786668 4.90566492e-14,294.495115 4.90566492e-14,294.495115 L39.4822888,1.10327136e-05 Z" id="Triangle-2" fill="#FF8000" transform="translate(39.482289, 149.393339) scale(1, -1) translate(-39.482289, -149.393339) "></path>
                </g>
                <g id="15" transform="translate(315.017108, 315.004584) rotate(-345.000000) translate(-315.017108, -315.004584) translate(275.517108, 0.004584)">
                    <path d="M39.4822888,330.449602 L1.50479325e-13,624.944717 C1.50479325e-13,624.944717 8.58310627,629.236259 39.4822888,629.236259 C70.3814714,629.236259 78.9645777,624.944706 78.9645777,624.944706 L39.4822888,330.449602 L39.4822888,330.449602 Z" id="Triangle-2-Copy-2" fill="#00C0FF"></path>
                    <path d="M39.4822888,1.10327137e-05 L78.9645777,294.495126 C78.9645777,294.495126 70.3814714,298.786668 39.4822888,298.786668 C8.58310627,298.786668 -8.52651283e-13,294.495115 -8.52651283e-13,294.495115 L39.4822888,1.10327137e-05 Z" id="Triangle-2" fill="#FF4000" transform="translate(39.482289, 149.393339) scale(1, -1) translate(-39.482289, -149.393339) "></path>
                </g>
            </g>
            <g id="mywheel-copy-2" transform="translate(8.000000, 8.000000)" fill="#000000">
                <g id="straight-wings" transform="translate(275.517711, 0.000000)">
                    <path d="M39.4822888,330.449602 L-1.22641623e-14,624.944717 C-1.22641623e-14,624.944717 8.58310627,629.236259 39.4822888,629.236259 C70.3814714,629.236259 78.9645777,624.944706 78.9645777,624.944706 L39.4822888,330.449602 L39.4822888,330.449602 Z" id="Triangle-2-Copy-2" opacity="0.301714086"></path>
                    <path d="M39.4822888,1.10327133e-05 L78.9645777,294.495126 C78.9645777,294.495126 70.3814714,298.786668 39.4822888,298.786668 C8.58310627,298.786668 0,294.495115 0,294.495115 L39.4822888,1.10327133e-05 Z" id="Triangle-2" opacity="0.3046875" transform="translate(39.482289, 149.393339) scale(1, -1) translate(-39.482289, -149.393339) "></path>
                </g>
                <g id="165" transform="translate(314.982892, 315.004584) rotate(-195.000000) translate(-314.982892, -315.004584) translate(275.482892, 0.004584)">
                    <path d="M39.4822888,330.449602 L-1.82794419e-13,624.944717 C-1.82794419e-13,624.944717 8.58310627,629.236259 39.4822888,629.236259 C70.3814714,629.236259 78.9645777,624.944706 78.9645777,624.944706 L39.4822888,330.449602 L39.4822888,330.449602 Z" id="Triangle-2-Copy-2" opacity="0.3046875"></path>
                    <path d="M39.4822888,1.10327125e-05 L78.9645777,294.495126 C78.9645777,294.495126 70.3814714,298.786668 39.4822888,298.786668 C8.58310627,298.786668 2.67164069e-12,294.495115 2.67164069e-12,294.495115 L39.4822888,1.10327125e-05 Z" id="Triangle-2" opacity="0.301714086" transform="translate(39.482289, 149.393339) scale(1, -1) translate(-39.482289, -149.393339) "></path>
                </g>
                <g id="150" transform="translate(314.984662, 315.008856) rotate(-210.000000) translate(-314.984662, -315.008856) translate(275.484662, 0.008856)" opacity="0.301714086">
                    <path d="M39.4822888,330.449602 L1.78901034e-13,624.944717 C1.78901034e-13,624.944717 8.58310627,629.236259 39.4822888,629.236259 C70.3814714,629.236259 78.9645777,624.944706 78.9645777,624.944706 L39.4822888,330.449602 L39.4822888,330.449602 Z" id="Triangle-2-Copy-2"></path>
                    <path d="M39.4822888,1.10327134e-05 L78.9645777,294.495126 C78.9645777,294.495126 70.3814714,298.786668 39.4822888,298.786668 C8.58310627,298.786668 2.84217094e-13,294.495115 2.84217094e-13,294.495115 L39.4822888,1.10327134e-05 Z" id="Triangle-2" transform="translate(39.482289, 149.393339) scale(1, -1) translate(-39.482289, -149.393339) "></path>
                </g>
                <g id="135" transform="translate(314.987476, 315.012524) rotate(-225.000000) translate(-314.987476, -315.012524) translate(275.487476, 0.012524)" opacity="0.301714086">
                    <path d="M39.4822888,330.449602 L-1.08722772e-12,624.944717 C-1.08722772e-12,624.944717 8.58310627,629.236259 39.4822888,629.236259 C70.3814714,629.236259 78.9645777,624.944706 78.9645777,624.944706 L39.4822888,330.449602 L39.4822888,330.449602 Z" id="Triangle-2-Copy-2"></path>
                    <path d="M39.4822888,1.10327133e-05 L78.9645777,294.495126 C78.9645777,294.495126 70.3814714,298.786668 39.4822888,298.786668 C8.58310627,298.786668 -2.04636308e-12,294.495115 -2.04636308e-12,294.495115 L39.4822888,1.10327133e-05 Z" id="Triangle-2" transform="translate(39.482289, 149.393339) scale(1, -1) translate(-39.482289, -149.393339) "></path>
                </g>
                <g id="120" transform="translate(314.991144, 315.015338) rotate(-240.000000) translate(-314.991144, -315.015338) translate(275.491144, 0.015338)" opacity="0.301714086">
                    <path d="M39.4822888,330.449602 L1.58266094e-13,624.944717 C1.58266094e-13,624.944717 8.58310627,629.236259 39.4822888,629.236259 C70.3814714,629.236259 78.9645777,624.944706 78.9645777,624.944706 L39.4822888,330.449602 L39.4822888,330.449602 Z" id="Triangle-2-Copy-2"></path>
                    <path d="M39.4822888,1.1032713e-05 L78.9645777,294.495126 C78.9645777,294.495126 70.3814714,298.786668 39.4822888,298.786668 C8.58310627,298.786668 -1.70530257e-13,294.495115 -1.70530257e-13,294.495115 L39.4822888,1.1032713e-05 Z" id="Triangle-2" transform="translate(39.482289, 149.393339) scale(1, -1) translate(-39.482289, -149.393339) "></path>
                </g>
                <g id="105" transform="translate(314.995416, 315.017108) rotate(-255.000000) translate(-314.995416, -315.017108) translate(275.495416, 0.017108)" opacity="0.301714086">
                    <path d="M39.4822888,330.449602 L-2.77014332e-13,624.944717 C-2.77014332e-13,624.944717 8.58310627,629.236259 39.4822888,629.236259 C70.3814714,629.236259 78.9645777,624.944706 78.9645777,624.944706 L39.4822888,330.449602 L39.4822888,330.449602 Z" id="Triangle-2-Copy-2"></path>
                    <path d="M39.4822888,1.10327128e-05 L78.9645777,294.495126 C78.9645777,294.495126 70.3814714,298.786668 39.4822888,298.786668 C8.58310627,298.786668 -8.52651283e-14,294.495115 -8.52651283e-14,294.495115 L39.4822888,1.10327128e-05 Z" id="Triangle-2" transform="translate(39.482289, 149.393339) scale(1, -1) translate(-39.482289, -149.393339) "></path>
                </g>
                <g id="90" transform="translate(315.000000, 315.017711) rotate(-270.000000) translate(-315.000000, -315.017711) translate(275.500000, 0.017711)" opacity="0.301714086">
                    <path d="M39.4822888,330.449602 L-1.67220879e-13,624.944717 C-1.67220879e-13,624.944717 8.58310627,629.236259 39.4822888,629.236259 C70.3814714,629.236259 78.9645777,624.944706 78.9645777,624.944706 L39.4822888,330.449602 L39.4822888,330.449602 Z" id="Triangle-2-Copy-2"></path>
                    <path d="M39.4822888,1.10327136e-05 L78.9645777,294.495126 C78.9645777,294.495126 70.3814714,298.786668 39.4822888,298.786668 C8.58310627,298.786668 -1.13686838e-13,294.495115 -1.13686838e-13,294.495115 L39.4822888,1.10327136e-05 Z" id="Triangle-2" transform="translate(39.482289, 149.393339) scale(1, -1) translate(-39.482289, -149.393339) "></path>
                </g>
                <g id="75" transform="translate(315.004584, 315.017108) rotate(-285.000000) translate(-315.004584, -315.017108) translate(275.504584, 0.017108)" opacity="0.301714086">
                    <path d="M39.4822888,330.449602 L1.18062387e-13,624.944717 C1.18062387e-13,624.944717 8.58310627,629.236259 39.4822888,629.236259 C70.3814714,629.236259 78.9645777,624.944706 78.9645777,624.944706 L39.4822888,330.449602 L39.4822888,330.449602 Z" id="Triangle-2-Copy-2"></path>
                    <path d="M39.4822888,1.10327118e-05 L78.9645777,294.495126 C78.9645777,294.495126 70.3814714,298.786668 39.4822888,298.786668 C8.58310627,298.786668 -6.87805368e-12,294.495115 -6.87805368e-12,294.495115 L39.4822888,1.10327118e-05 Z" id="Triangle-2" transform="translate(39.482289, 149.393339) scale(1, -1) translate(-39.482289, -149.393339) "></path>
                </g>
                <g id="60" transform="translate(315.008856, 315.015338) rotate(-300.000000) translate(-315.008856, -315.015338) translate(275.508856, 0.015338)" opacity="0.301714086">
                    <path d="M39.4822888,330.449602 L1.50479325e-13,624.944717 C1.50479325e-13,624.944717 8.58310627,629.236259 39.4822888,629.236259 C70.3814714,629.236259 78.9645777,624.944706 78.9645777,624.944706 L39.4822888,330.449602 L39.4822888,330.449602 Z" id="Triangle-2-Copy-2"></path>
                    <path d="M39.4822888,1.10327131e-05 L78.9645777,294.495126 C78.9645777,294.495126 70.3814714,298.786668 39.4822888,298.786668 C8.58310627,298.786668 -5.68434189e-14,294.495115 -5.68434189e-14,294.495115 L39.4822888,1.10327131e-05 Z" id="Triangle-2" transform="translate(39.482289, 149.393339) scale(1, -1) translate(-39.482289, -149.393339) "></path>
                </g>
                <g id="45" transform="translate(315.012524, 315.012524) rotate(-315.000000) translate(-315.012524, -315.012524) translate(275.512524, 0.012524)" opacity="0.301714086">
                    <path d="M39.4822888,330.449602 L-4.59224743e-13,624.944717 C-4.59224743e-13,624.944717 8.58310627,629.236259 39.4822888,629.236259 C70.3814714,629.236259 78.9645777,624.944706 78.9645777,624.944706 L39.4822888,330.449602 L39.4822888,330.449602 Z" id="Triangle-2-Copy-2"></path>
                    <path d="M39.4822888,1.10327138e-05 L78.9645777,294.495126 C78.9645777,294.495126 70.3814714,298.786668 39.4822888,298.786668 C8.58310627,298.786668 -3.41060513e-13,294.495115 -3.41060513e-13,294.495115 L39.4822888,1.10327138e-05 Z" id="Triangle-2" transform="translate(39.482289, 149.393339) scale(1, -1) translate(-39.482289, -149.393339) "></path>
                </g>
                <g id="30" transform="translate(315.015338, 315.008856) rotate(-330.000000) translate(-315.015338, -315.008856) translate(275.515338, 0.008856)" opacity="0.301714086">
                    <path d="M39.4822888,330.449602 L-1.98367958e-13,624.944717 C-1.98367958e-13,624.944717 8.58310627,629.236259 39.4822888,629.236259 C70.3814714,629.236259 78.9645777,624.944706 78.9645777,624.944706 L39.4822888,330.449602 L39.4822888,330.449602 Z" id="Triangle-2-Copy-2"></path>
                    <path d="M39.4822888,1.10327135e-05 L78.9645777,294.495126 C78.9645777,294.495126 70.3814714,298.786668 39.4822888,298.786668 C8.58310627,298.786668 -5.68434189e-14,294.495115 -5.68434189e-14,294.495115 L39.4822888,1.10327135e-05 Z" id="Triangle-2" transform="translate(39.482289, 149.393339) scale(1, -1) translate(-39.482289, -149.393339) "></path>
                </g>
                <g id="15" transform="translate(315.017108, 315.004584) rotate(-345.000000) translate(-315.017108, -315.004584) translate(275.517108, 0.004584)" opacity="0.301714086">
                    <path d="M39.4822888,330.449602 L1.50479325e-13,624.944717 C1.50479325e-13,624.944717 8.58310627,629.236259 39.4822888,629.236259 C70.3814714,629.236259 78.9645777,624.944706 78.9645777,624.944706 L39.4822888,330.449602 L39.4822888,330.449602 Z" id="Triangle-2-Copy-2"></path>
                    <path d="M39.4822888,1.10327137e-05 L78.9645777,294.495126 C78.9645777,294.495126 70.3814714,298.786668 39.4822888,298.786668 C8.58310627,298.786668 -8.52651283e-13,294.495115 -8.52651283e-13,294.495115 L39.4822888,1.10327137e-05 Z" id="Triangle-2" transform="translate(39.482289, 149.393339) scale(1, -1) translate(-39.482289, -149.393339) "></path>
                </g>
            </g>
        </g>
    </g>
</svg>