<?xml version="1.0" encoding="UTF-8" standalone="no"?>
<svg width="133px" height="116px" viewBox="0 0 133 116" version="1.1" xmlns="http://www.w3.org/2000/svg" xmlns:xlink="http://www.w3.org/1999/xlink" style="background: #FFFFFF;">
    <!-- Generator: Sketch 39.1 (31720) - http://www.bohemiancoding.com/sketch -->
    <title>big1 copy</title>
    <desc>Created with Sketch.</desc>
    <defs></defs>
    <g id="thumb" stroke="none" stroke-width="1" fill="none" fill-rule="evenodd">
        <g id="big1-copy">
            <g id="Google" transform="translate(1.248000, 27.840000)">
                <path d="M0.0119999428,0.78 L33.071999,0.78 L33.071999,44.382 L0.0119999428,44.382 L0.0119999428,0.78 Z M5.74326316,13.943781 L5.74326316,13.7069343 L5.97960902,13.7069343 L5.97960902,13.4700876 L6.21595489,13.4700876 L6.21595489,13.2332409 L6.45230075,13.2332409 L6.45230075,12.9963942 L6.68864662,12.9963942 L6.68864662,12.7595474 L7.16133835,12.7595474 L7.16133835,12.5227007 L7.39768421,12.5227007 L7.39768421,12.285854 L7.63403008,12.285854 L7.63403008,12.0490073 L8.1067218,12.0490073 L8.1067218,11.8121606 L8.34306767,11.8121606 L8.34306767,11.5753139 L8.8157594,11.5753139 L8.8157594,11.3384672 L9.28845113,11.3384672 L9.28845113,11.1016204 L9.52479699,11.1016204 L9.52479699,10.8647737 L9.99748872,10.8647737 L9.99748872,10.627927 L10.4701805,10.627927 L10.4701805,10.3910803 L11.179218,10.3910803 L11.179218,10.1542336 L11.6519098,10.1542336 L11.6519098,9.91738686 L12.3609474,9.91738686 L12.3609474,9.68054015 L13.3063308,9.68054015 L13.3063308,9.44369343 L14.4880602,9.44369343 L14.4880602,9.20684672 L16.6151729,9.20684672 L16.6151729,8.97 L18.0332481,8.97 L18.0332481,9.20684672 L20.1603609,9.20684672 L20.1603609,9.44369343 L21.3420902,9.44369343 L21.3420902,9.68054015 L22.0511278,9.68054015 L22.0511278,9.91738686 L22.7601654,9.91738686 L22.7601654,10.1542336 L23.469203,10.1542336 L23.469203,10.3910803 L23.9418947,10.3910803 L23.9418947,10.627927 L24.4145865,10.627927 L24.4145865,10.8647737 L24.8872782,10.8647737 L24.8872782,11.1016204 L25.3599699,11.1016204 L25.3599699,11.3384672 L25.5963158,11.3384672 L25.5963158,11.5753139 L26.0690075,11.5753139 L26.0690075,11.8121606 L26.3053534,11.8121606 L26.3053534,12.0490073 L26.7780451,12.0490073 L26.7780451,12.285854 L27.014391,12.285854 L27.014391,12.5227007 L27.2507368,12.5227007 L27.2507368,12.7595474 L27.4870827,12.7595474 L27.4870827,12.9963942 L27.7234286,12.9963942 L27.7234286,13.2332409 L27.9597744,13.2332409 L27.9597744,13.7069343 L27.7234286,13.7069343 L27.7234286,13.943781 L27.4870827,13.943781 L27.4870827,14.1806277 L27.2507368,14.1806277 L27.2507368,14.4174745 L27.014391,14.4174745 L27.014391,14.6543212 L26.7780451,14.6543212 L26.7780451,14.8911679 L26.5416992,14.8911679 L26.5416992,15.1280146 L26.3053534,15.1280146 L26.3053534,15.3648613 L26.0690075,15.3648613 L26.0690075,15.601708 L25.8326617,15.601708 L25.8326617,15.8385547 L25.5963158,15.8385547 L25.5963158,16.0754015 L25.3599699,16.0754015 L25.3599699,16.3122482 L25.1236241,16.3122482 L25.1236241,16.0754015 L24.6509323,16.0754015 L24.6509323,15.8385547 L24.4145865,15.8385547 L24.4145865,15.601708 L24.1782406,15.601708 L24.1782406,15.3648613 L23.7055489,15.3648613 L23.7055489,15.1280146 L23.469203,15.1280146 L23.469203,14.8911679 L22.9965113,14.8911679 L22.9965113,14.6543212 L22.5238195,14.6543212 L22.5238195,14.4174745 L22.0511278,14.4174745 L22.0511278,14.1806277 L21.5784361,14.1806277 L21.5784361,13.943781 L20.8693985,13.943781 L20.8693985,13.7069343 L19.924015,13.7069343 L19.924015,13.4700876 L18.5059398,13.4700876 L18.5059398,13.2332409 L16.1424812,13.2332409 L16.1424812,13.4700876 L14.4880602,13.4700876 L14.4880602,13.7069343 L13.5426767,13.7069343 L13.5426767,13.943781 L13.069985,13.943781 L13.069985,14.1806277 L12.3609474,14.1806277 L12.3609474,14.4174745 L11.8882556,14.4174745 L11.8882556,14.6543212 L11.4155639,14.6543212 L11.4155639,14.8911679 L11.179218,14.8911679 L11.179218,15.1280146 L10.7065263,15.1280146 L10.7065263,15.3648613 L10.2338346,15.3648613 L10.2338346,15.601708 L9.99748872,15.601708 L9.99748872,15.8385547 L9.76114286,15.8385547 L9.76114286,16.0754015 L9.52479699,16.0754015 L9.52479699,16.3122482 L9.28845113,16.3122482 L9.28845113,16.5490949 L9.05210526,16.5490949 L9.05210526,16.7859416 L8.8157594,16.7859416 L8.8157594,17.0227883 L8.57941353,17.0227883 L8.57941353,17.259635 L8.34306767,17.259635 L8.34306767,17.4964818 L8.1067218,17.4964818 L8.1067218,17.7333285 L7.87037594,17.7333285 L7.87037594,17.9701752 L7.63403008,17.9701752 L7.63403008,18.4438686 L7.39768421,18.4438686 L7.39768421,18.6807153 L7.16133835,18.6807153 L7.16133835,19.1544088 L6.92499248,19.1544088 L6.92499248,19.6281022 L6.68864662,19.6281022 L6.68864662,20.1017956 L6.45230075,20.1017956 L6.45230075,20.5754891 L6.21595489,20.5754891 L6.21595489,21.2860292 L5.97960902,21.2860292 L5.97960902,21.9965693 L5.74326316,21.9965693 L5.74326316,23.1808029 L5.50691729,23.1808029 L5.50691729,27.4440438 L5.74326316,27.4440438 L5.74326316,28.6282774 L5.97960902,28.6282774 L5.97960902,29.3388175 L6.21595489,29.3388175 L6.21595489,30.0493577 L6.45230075,30.0493577 L6.45230075,30.5230511 L6.68864662,30.5230511 L6.68864662,30.9967445 L6.92499248,30.9967445 L6.92499248,31.470438 L7.16133835,31.470438 L7.16133835,31.7072847 L7.39768421,31.7072847 L7.39768421,32.1809781 L7.63403008,32.1809781 L7.63403008,32.4178248 L7.87037594,32.4178248 L7.87037594,32.8915182 L8.1067218,32.8915182 L8.1067218,33.128365 L8.34306767,33.128365 L8.34306767,33.3652117 L8.57941353,33.3652117 L8.57941353,33.6020584 L8.8157594,33.6020584 L8.8157594,33.8389051 L9.05210526,33.8389051 L9.05210526,34.0757518 L9.28845113,34.0757518 L9.28845113,34.3125985 L9.52479699,34.3125985 L9.52479699,34.5494453 L9.76114286,34.5494453 L9.76114286,34.786292 L10.2338346,34.786292 L10.2338346,35.0231387 L10.4701805,35.0231387 L10.4701805,35.2599854 L10.9428722,35.2599854 L10.9428722,35.4968321 L11.179218,35.4968321 L11.179218,35.7336788 L11.6519098,35.7336788 L11.6519098,35.9705255 L12.1246015,35.9705255 L12.1246015,36.2073723 L12.5972932,36.2073723 L12.5972932,36.444219 L13.3063308,36.444219 L13.3063308,36.6810657 L14.0153684,36.6810657 L14.0153684,36.9179124 L14.9607519,36.9179124 L14.9607519,37.1547591 L19.6876692,37.1547591 L19.6876692,36.9179124 L20.6330526,36.9179124 L20.6330526,36.6810657 L21.5784361,36.6810657 L21.5784361,36.444219 L22.0511278,36.444219 L22.0511278,36.2073723 L22.5238195,36.2073723 L22.5238195,35.9705255 L22.9965113,35.9705255 L22.9965113,35.7336788 L23.469203,35.7336788 L23.469203,35.4968321 L23.9418947,35.4968321 L23.9418947,35.2599854 L24.1782406,35.2599854 L24.1782406,35.0231387 L24.4145865,35.0231387 L24.4145865,34.786292 L24.8872782,34.786292 L24.8872782,34.5494453 L25.1236241,34.5494453 L25.1236241,34.3125985 L25.3599699,34.3125985 L25.3599699,34.0757518 L25.5963158,34.0757518 L25.5963158,33.8389051 L25.8326617,33.8389051 L25.8326617,33.6020584 L26.0690075,33.6020584 L26.0690075,33.128365 L26.3053534,33.128365 L26.3053534,32.8915182 L26.5416992,32.8915182 L26.5416992,32.4178248 L26.7780451,32.4178248 L26.7780451,31.9441314 L27.014391,31.9441314 L27.014391,31.470438 L27.2507368,31.470438 L27.2507368,30.7598978 L27.4870827,30.7598978 L27.4870827,30.0493577 L27.7234286,30.0493577 L27.7234286,28.8651241 L27.9597744,28.8651241 L27.9597744,27.9177372 L17.0878647,27.9177372 L17.0878647,23.8913431 L32.214,23.8913431 L32.214,29.3388175 L31.9776541,29.3388175 L31.9776541,30.5230511 L31.7413083,30.5230511 L31.7413083,31.470438 L31.5049624,31.470438 L31.5049624,32.1809781 L31.2686165,32.1809781 L31.2686165,32.8915182 L31.0322707,32.8915182 L31.0322707,33.3652117 L30.7959248,33.3652117 L30.7959248,33.8389051 L30.5595789,33.8389051 L30.5595789,34.3125985 L30.3232331,34.3125985 L30.3232331,34.786292 L30.0868872,34.786292 L30.0868872,35.0231387 L29.8505414,35.0231387 L29.8505414,35.4968321 L29.6141955,35.4968321 L29.6141955,35.7336788 L29.3778496,35.7336788 L29.3778496,35.9705255 L29.1415038,35.9705255 L29.1415038,36.2073723 L28.9051579,36.2073723 L28.9051579,36.6810657 L28.668812,36.6810657 L28.668812,36.9179124 L28.4324662,36.9179124 L28.4324662,37.1547591 L28.1961203,37.1547591 L28.1961203,37.3916058 L27.9597744,37.3916058 L27.9597744,37.6284526 L27.4870827,37.6284526 L27.4870827,37.8652993 L27.2507368,37.8652993 L27.2507368,38.102146 L27.014391,38.102146 L27.014391,38.3389927 L26.7780451,38.3389927 L26.7780451,38.5758394 L26.5416992,38.5758394 L26.5416992,38.8126861 L26.0690075,38.8126861 L26.0690075,39.0495328 L25.8326617,39.0495328 L25.8326617,39.2863796 L25.3599699,39.2863796 L25.3599699,39.5232263 L24.8872782,39.5232263 L24.8872782,39.760073 L24.4145865,39.760073 L24.4145865,39.9969197 L23.9418947,39.9969197 L23.9418947,40.2337664 L23.469203,40.2337664 L23.469203,40.4706131 L22.7601654,40.4706131 L22.7601654,40.7074599 L22.0511278,40.7074599 L22.0511278,40.9443066 L21.1057444,40.9443066 L21.1057444,41.1811533 L19.6876692,41.1811533 L19.6876692,41.418 L14.9607519,41.418 L14.9607519,41.1811533 L13.7790226,41.1811533 L13.7790226,40.9443066 L12.8336391,40.9443066 L12.8336391,40.7074599 L12.1246015,40.7074599 L12.1246015,40.4706131 L11.4155639,40.4706131 L11.4155639,40.2337664 L10.7065263,40.2337664 L10.7065263,39.9969197 L10.2338346,39.9969197 L10.2338346,39.760073 L9.76114286,39.760073 L9.76114286,39.5232263 L9.28845113,39.5232263 L9.28845113,39.2863796 L8.8157594,39.2863796 L8.8157594,39.0495328 L8.57941353,39.0495328 L8.57941353,38.8126861 L8.1067218,38.8126861 L8.1067218,38.5758394 L7.87037594,38.5758394 L7.87037594,38.3389927 L7.39768421,38.3389927 L7.39768421,38.102146 L7.16133835,38.102146 L7.16133835,37.8652993 L6.92499248,37.8652993 L6.92499248,37.6284526 L6.68864662,37.6284526 L6.68864662,37.3916058 L6.21595489,37.3916058 L6.21595489,37.1547591 L5.97960902,37.1547591 L5.97960902,36.9179124 L5.74326316,36.9179124 L5.74326316,36.6810657 L5.50691729,36.6810657 L5.50691729,36.444219 L5.27057143,36.444219 L5.27057143,36.2073723 L5.03422556,36.2073723 L5.03422556,35.9705255 L4.7978797,35.9705255 L4.7978797,35.4968321 L4.56153383,35.4968321 L4.56153383,35.2599854 L4.32518797,35.2599854 L4.32518797,35.0231387 L4.08884211,35.0231387 L4.08884211,34.786292 L3.85249624,34.786292 L3.85249624,34.3125985 L3.61615038,34.3125985 L3.61615038,34.0757518 L3.37980451,34.0757518 L3.37980451,33.6020584 L3.14345865,33.6020584 L3.14345865,33.3652117 L2.90711278,33.3652117 L2.90711278,32.8915182 L2.67076692,32.8915182 L2.67076692,32.4178248 L2.43442105,32.4178248 L2.43442105,31.9441314 L2.19807519,31.9441314 L2.19807519,31.470438 L1.96172932,31.470438 L1.96172932,30.7598978 L1.72538346,30.7598978 L1.72538346,30.0493577 L1.48903759,30.0493577 L1.48903759,29.3388175 L1.25269173,29.3388175 L1.25269173,28.3914307 L1.01634586,28.3914307 L1.01634586,26.7335036 L0.78,26.7335036 L0.78,23.8913431 L1.01634586,23.8913431 L1.01634586,22.2334161 L1.25269173,22.2334161 L1.25269173,21.2860292 L1.48903759,21.2860292 L1.48903759,20.3386423 L1.72538346,20.3386423 L1.72538346,19.6281022 L1.96172932,19.6281022 L1.96172932,19.1544088 L2.19807519,19.1544088 L2.19807519,18.6807153 L2.43442105,18.6807153 L2.43442105,18.2070219 L2.67076692,18.2070219 L2.67076692,17.7333285 L2.90711278,17.7333285 L2.90711278,17.259635 L3.14345865,17.259635 L3.14345865,16.7859416 L3.37980451,16.7859416 L3.37980451,16.5490949 L3.61615038,16.5490949 L3.61615038,16.0754015 L3.85249624,16.0754015 L3.85249624,15.8385547 L4.08884211,15.8385547 L4.08884211,15.601708 L4.32518797,15.601708 L4.32518797,15.1280146 L4.56153383,15.1280146 L4.56153383,14.8911679 L4.7978797,14.8911679 L4.7978797,14.6543212 L5.03422556,14.6543212 L5.03422556,14.4174745 L5.27057143,14.4174745 L5.27057143,14.1806277 L5.50691729,14.1806277 L5.50691729,13.943781 L5.74326316,13.943781 Z" id="Combined-Shape" fill="#4285F4"></path>
                <path d="M34.3619991,0.156 L55.5719982,0.156 L55.5719982,51.558 L34.3619991,51.558 L34.3619991,0.156 Z M44.889,41.418 C50.4891674,41.418 55.029,36.8781674 55.029,31.278 C55.029,25.6778326 50.4891674,21.138 44.889,21.138 C39.2888326,21.138 34.749,25.6778326 34.749,31.278 C34.749,36.8781674 39.2888326,41.418 44.889,41.418 Z M44.889,37.362 C48.2491004,37.362 50.973,34.6381004 50.973,31.278 C50.973,27.9178996 48.2491004,25.194 44.889,25.194 C41.5288996,25.194 38.805,27.9178996 38.805,31.278 C38.805,34.6381004 41.5288996,37.362 44.889,37.362 Z" id="Combined-Shape" fill="#EA4335"></path>
                <path d="M57.1199993,4.836 L78.2999988,4.836 L78.2999988,48.438 L57.1199993,48.438 L57.1199993,4.836 Z M67.704,41.418 C73.3041674,41.418 77.844,36.8781674 77.844,31.278 C77.844,25.6778326 73.3041674,21.138 67.704,21.138 C62.1038326,21.138 57.564,25.6778326 57.564,31.278 C57.564,36.8781674 62.1038326,41.418 67.704,41.418 Z M67.704,37.362 C71.0641004,37.362 73.788,34.6381004 73.788,31.278 C73.788,27.9178996 71.0641004,25.194 67.704,25.194 C64.3438996,25.194 61.62,27.9178996 61.62,31.278 C61.62,34.6381004 64.3438996,37.362 67.704,37.362 Z" id="Combined-Shape" fill="#FBBC05"></path>
                <path d="M79.6800029,10.14 L101.310002,10.14 L101.310002,54.9120012 L79.6800029,54.9120012 L79.6800029,10.14 Z M100.349361,41.925 L100.354797,41.925 L100.354797,21.645 L96.8057969,21.645 L96.8057969,24.089288 C95.0639884,22.2652714 92.6630562,21.138 90.012,21.138 C84.691841,21.138 80.379,25.6778326 80.379,31.278 C80.379,36.8781674 84.691841,41.418 90.012,41.418 C92.6630562,41.418 95.0639884,40.2907286 96.8057969,38.466712 L96.8057969,41.8990063 C96.2319095,45.981 93.6099558,46.9416759 91.9954393,47.314103 C88.1910527,48.1916765 85.0063653,43.8415986 85.0063653,43.8415986 C85.0063653,43.8415986 83.1630439,44.715728 81.8824233,45.2863506 C83.1630439,47.8931426 90.4355367,56.1822992 98.6612028,46.9464785 C99.7122156,45.766396 100.140818,43.9001299 100.349361,41.925 Z M90.012,37.362 C93.092092,37.362 95.589,34.6381004 95.589,31.278 C95.589,27.9178996 93.092092,25.194 90.012,25.194 C86.931908,25.194 84.435,27.9178996 84.435,31.278 C84.435,34.6381004 86.931908,37.362 90.012,37.362 Z" id="Combined-Shape" fill="#4285F4"></path>
                <path d="M102.117,4.29 L109.407,4.29 L109.407,47.892 L102.117,47.892 L102.117,4.29 Z M103.701,9.984 L108.264,9.984 L108.264,41.418 L103.701,41.418 L103.701,9.984 Z" id="Combined-Shape" fill="#34A853"></path>
                <path d="M129.492001,28.4543101 L129.659081,28.3929236 C129.607929,28.2158327 129.552189,28.040764 129.492001,27.8678622 L129.492001,3.12 L110.202,3.12 L110.202,54.522 L129.492001,54.522 L129.492001,28.8786385 L129.596594,28.8363801 L129.492001,28.5775033 L129.492001,28.4543101 Z M129.492001,28.4543101 L129.448661,28.4702335 L129.492001,28.5775033 L129.492001,28.8786385 L115.333532,34.5990312 C116.419333,36.2625602 118.297273,37.362 120.432,37.362 C122.44459,37.362 124.228935,36.3847693 125.336418,34.8789261 L128.398937,36.9132213 C126.625217,39.6296499 123.605483,41.418 120.1785,41.418 C114.718337,41.418 110.292,36.8781674 110.292,31.278 C110.292,25.6778326 114.718337,21.138 120.1785,21.138 C124.472156,21.138 128.126532,23.9452628 129.492001,27.8678622 L129.492001,28.4543101 Z M124.732113,26.9740383 C123.631278,25.8741816 122.111071,25.194 120.432,25.194 C117.108273,25.194 114.407047,27.859246 114.348955,31.1691064 L124.732113,26.9740383 Z" id="Combined-Shape" fill="#EA4335"></path>
            </g>
            <text id="1-copy" fill="#4285F4" font-family="ChalkboardSE-Bold, Chalkboard SE" font-size="20.28" font-weight="bold" letter-spacing="2.74906683">
                <tspan x="16.8140271" y="15.8">1</tspan>
            </text>
            <text id="2-copy" fill="#EA4335" font-family="ChalkboardSE-Bold, Chalkboard SE" font-size="20.28" font-weight="bold" letter-spacing="2.74906683">
                <tspan x="57.8140271" y="110.6">2</tspan>
            </text>
            <text id="3-copy" fill="#FBBC05" font-family="ChalkboardSE-Bold, Chalkboard SE" font-size="20.28" font-weight="bold" letter-spacing="2.74906683">
                <tspan x="106.814027" y="110.6">3</tspan>
            </text>
            <text id="4-copy" fill="#34A853" font-family="ChalkboardSE-Bold, Chalkboard SE" font-size="20.28" font-weight="bold" letter-spacing="2.74906683">
                <tspan x="110.814027" y="17.9">4</tspan>
            </text>
            <path d="M22.3499999,19.35 L17.745,31.857" id="Line" stroke="#4A4A4A" stroke-width="1.014" stroke-linecap="square" fill="#4A4A4A"></path>
            <path id="Line-decoration-1" d="M17.745,31.857 L24.2918267,22.7587002 L18.6613531,20.6855947 L17.745,31.857 Z" stroke="#4A4A4A" stroke-width="1.014" stroke-linecap="square" fill="#4A4A4A"></path>
            <path d="M29.55,16.95 L85.9499982,41.2499991" id="Line-Copy-4" stroke="#4A4A4A" stroke-width="1.014" stroke-linecap="square" fill="#4A4A4A"></path>
            <path id="Line-Copy-4-decoration-1" d="M85.9499982,41.2499991 L77.2184987,34.2214205 L74.844375,39.7317323 L85.9499982,41.2499991 Z" stroke="#4A4A4A" stroke-width="1.014" stroke-linecap="square" fill="#4A4A4A"></path>
            <path d="M58.35,95.85 L47.55,73.65" id="Line-Copy" stroke="#4A4A4A" stroke-width="1.014" stroke-linecap="square" fill="#4A4A4A"></path>
            <path id="Line-Copy-decoration-1" d="M47.55,73.65 L49.5769245,84.6741361 L54.972335,82.0493418 L47.55,73.65 Z" stroke="#4A4A4A" stroke-width="1.014" stroke-linecap="square" fill="#4A4A4A"></path>
            <path d="M71.85,98.85 L117.45,73.95" id="Line-Copy-5" stroke="#4A4A4A" stroke-width="1.014" stroke-linecap="square" fill="#4A4A4A"></path>
            <path id="Line-Copy-5-decoration-1" d="M117.45,73.95 L106.533342,76.4929473 L109.408882,81.7589962 L117.45,73.95 Z" stroke="#4A4A4A" stroke-width="1.014" stroke-linecap="square" fill="#4A4A4A"></path>
            <path d="M106.05,99.45 L70.95,71.55" id="Line-Copy-2" stroke="#4A4A4A" stroke-width="1.014" stroke-linecap="square" fill="#4A4A4A"></path>
            <path id="Line-Copy-2-decoration-1" d="M70.95,71.55 L77.5377588,80.6187063 L81.2712235,75.9217668 L70.95,71.55 Z" stroke="#4A4A4A" stroke-width="1.014" stroke-linecap="square" fill="#4A4A4A"></path>
            <path d="M115.05,18.15 L108.498,32.013" id="Line-Copy-3" stroke="#4A4A4A" stroke-width="1.014" stroke-linecap="square" fill="#4A4A4A"></path>
            <path id="Line-Copy-3-decoration-1" d="M108.498,32.013 L115.825207,23.5305457 L110.400559,20.9667215 L108.498,32.013 Z" stroke="#4A4A4A" stroke-width="1.014" stroke-linecap="square" fill="#4A4A4A"></path>
        </g>
    </g>
</svg>