<?xml version="1.0" encoding="UTF-8" standalone="no"?>
<svg width="131px" height="105px" viewBox="0 0 131 105" version="1.1" xmlns="http://www.w3.org/2000/svg" xmlns:xlink="http://www.w3.org/1999/xlink" style="background: #FFFFFF;">
    <!-- Generator: Sketch 39.1 (31720) - http://www.bohemiancoding.com/sketch -->
    <title>thumb2 copy</title>
    <desc>Created with Sketch.</desc>
    <defs>
        <path d="M7.26,25.0943396 L13.1368359,23.2699182 C13.1368359,23.2699182 14.6570187,24.0989865 14.8741699,25.0943396 C15.0017985,25.6793491 15.1651159,26.9669119 14.8741699,27.7764777 C14.6371274,28.4360556 14.0104019,28.4200995 14.1696973,29.3177882 C14.2948931,30.0233135 15.0695784,30.1383742 15.3482227,31.1099646 C15.8592771,32.8919343 14.8741699,33.9765441 14.8741699,33.9765441 C14.8741699,33.9765441 13.6222433,35.2184126 12.7555957,35.6739203 C10.8641867,36.6680398 7.26,38.3254256 7.26,38.3254256 L7.26,25.0943396 Z M11.673186,26.5300477 C11.2624541,26.174416 10.5567773,26.1477834 10.4124023,26.391233 C10.2680273,26.6346827 10.3672851,28.7102926 10.5567773,28.9892117 C10.7462695,29.2681309 11.0779346,28.93633 11.4989209,28.4765164 C11.4989209,28.4765164 11.7750367,28.1090477 11.8197363,27.6097712 C11.864436,27.1104946 11.7315654,26.5805954 11.673186,26.5300477 Z M10.5566162,31.0683686 C10.7691504,30.8013801 11.8216699,31.0972279 11.8216699,31.0972279 C11.8216699,31.0972279 12.3893941,31.4512698 12.3397119,32.0968225 C12.2900298,32.7423752 11.6461963,33.377271 11.6461963,33.377271 C11.6461963,33.377271 10.5566162,34.4381312 10.3377979,34.1164873 C10.1189795,33.7948435 10.344082,31.3353571 10.5566162,31.0683686 Z" id="path-1"></path>
        <mask id="mask-2" maskContentUnits="userSpaceOnUse" maskUnits="objectBoundingBox" x="0" y="0" width="8.23527175" height="15.0555074" fill="white">
            <use xlink:href="#path-1"></use>
        </mask>
    </defs>
    <g id="3-colors" stroke="none" stroke-width="1" fill="none" fill-rule="evenodd">
        <g id="thumb2-copy">
            <g id="Burger-King" transform="translate(26.000000, 2.000000)" stroke="#4A4A4A">
                <polygon id="Shape" stroke-width="0.66" fill="#FFFFFF" points="10.0137931 10.0195185 10.0137931 9.79180221 10.2413793 9.79180221 10.2413793 9.56408588 10.4689655 9.56408588 10.4689655 9.33636955 10.6965517 9.33636955 10.6965517 9.10865322 10.9241379 9.10865322 10.9241379 8.88093689 11.1517241 8.88093689 11.1517241 8.65322056 11.3793103 8.65322056 11.3793103 8.42550423 11.6068966 8.42550423 11.6068966 8.1977879 11.8344828 8.1977879 11.8344828 7.97007157 12.2896552 7.97007157 12.2896552 7.74235524 12.5172414 7.74235524 12.5172414 7.51463891 12.7448276 7.51463891 12.7448276 7.28692258 12.9724138 7.28692258 12.9724138 7.05920625 13.4275862 7.05920625 13.4275862 6.83148992 13.6551724 6.83148992 13.6551724 6.60377358 14.1103448 6.60377358 14.1103448 6.37605725 14.337931 6.37605725 14.337931 6.14834092 14.5655172 6.14834092 14.5655172 5.92062459 15.0206897 5.92062459 15.0206897 5.69290826 15.2482759 5.69290826 15.2482759 5.46519193 15.7034483 5.46519193 15.7034483 5.2374756 16.1586207 5.2374756 16.1586207 5.00975927 16.3862069 5.00975927 16.3862069 4.78204294 16.8413793 4.78204294 16.8413793 4.55432661 17.2965517 4.55432661 17.2965517 4.32661028 17.7517241 4.32661028 17.7517241 4.09889395 18.2068966 4.09889395 18.2068966 3.87117762 18.4344828 3.87117762 18.4344828 3.64346129 19.1172414 3.64346129 19.1172414 3.41574496 19.5724138 3.41574496 19.5724138 3.18802863 20.0275862 3.18802863 20.0275862 2.9603123 20.4827586 2.9603123 20.4827586 2.73259597 21.1655172 2.73259597 21.1655172 2.50487964 21.6206897 2.50487964 21.6206897 2.27716331 22.3034483 2.27716331 22.3034483 2.04944697 22.7586207 2.04944697 22.7586207 1.82173064 23.4413793 1.82173064 23.4413793 1.59401431 24.1241379 1.59401431 24.1241379 1.36629798 25.0344828 1.36629798 25.0344828 1.13858165 25.7172414 1.13858165 25.7172414 0.910865322 26.6275862 0.910865322 26.6275862 0.683148992 27.537931 0.683148992 27.537931 0.455432661 28.6758621 0.455432661 28.6758621 0.227716331 30.7241379 0.227716331 30.7241379 0 35.5034483 0 35.5034483 0.227716331 37.7793103 0.227716331 37.7793103 0.455432661 39.6 0.455432661 39.6 0.683148992 33 0.683148992 33 0.910865322 30.9517241 0.910865322 30.9517241 1.13858165 29.5862069 1.13858165 29.5862069 1.36629798 28.4482759 1.36629798 28.4482759 1.59401431 27.3103448 1.59401431 27.3103448 1.82173064 26.6275862 1.82173064 26.6275862 2.04944697 25.9448276 2.04944697 25.9448276 2.27716331 25.0344828 2.27716331 25.0344828 2.50487964 24.3517241 2.50487964 24.3517241 2.73259597 23.8965517 2.73259597 23.8965517 2.9603123 23.2137931 2.9603123 23.2137931 3.18802863 22.7586207 3.18802863 22.7586207 3.41574496 22.0758621 3.41574496 22.0758621 3.64346129 21.6206897 3.64346129 21.6206897 3.87117762 21.1655172 3.87117762 21.1655172 4.09889395 20.7103448 4.09889395 20.7103448 4.32661028 20.2551724 4.32661028 20.2551724 4.55432661 19.8 4.55432661 19.8 4.78204294 19.3448276 4.78204294 19.3448276 5.00975927 18.8896552 5.00975927 18.8896552 5.2374756 18.4344828 5.2374756 18.4344828 5.46519193 18.2068966 5.46519193 18.2068966 5.69290826 17.7517241 5.69290826 17.7517241 5.92062459 17.5241379 5.92062459 17.5241379 6.14834092 17.0689655 6.14834092 17.0689655 6.37605725 16.8413793 6.37605725 16.8413793 6.60377358 16.3862069 6.60377358 16.3862069 6.83148992 16.1586207 6.83148992 16.1586207 7.05920625 15.7034483 7.05920625 15.7034483 7.28692258 15.4758621 7.28692258 15.4758621 7.51463891 15.2482759 7.51463891 15.2482759 7.74235524 14.7931034 7.74235524 14.7931034 7.97007157 14.5655172 7.97007157 14.5655172 8.1977879 14.337931 8.1977879 14.337931 8.42550423 14.1103448 8.42550423 14.1103448 8.65322056 13.6551724 8.65322056 13.6551724 8.88093689 13.4275862 8.88093689 13.4275862 9.10865322 13.2 9.10865322 13.2 9.33636955 12.9724138 9.33636955 12.9724138 9.56408588 12.7448276 9.56408588 12.7448276 9.79180221 12.5172414 9.79180221 12.5172414 10.0195185 12.2896552 10.0195185 12.2896552 10.2472349 12.062069 10.2472349 12.062069 10.4749512 11.8344828 10.4749512 11.8344828 10.7026675 11.6068966 10.7026675 11.6068966 10.9303839 11.3793103 10.9303839 11.3793103 11.1581002 11.1517241 11.1581002 11.1517241 11.3858165 10.9241379 11.3858165 10.9241379 11.6135329 10.6965517 11.6135329 10.6965517 12.0689655 10.4689655 12.0689655 10.4689655 12.2966818 10.2413793 12.2966818 10.2413793 12.5243982 10.0137931 12.5243982 10.0137931 12.7521145 9.7862069 12.7521145 9.7862069 13.2075472 9.55862069 13.2075472 9.55862069 13.4352635 9.33103448 13.4352635 9.33103448 13.6629798 9.10344828 13.6629798 9.10344828 14.1184125 8.87586207 14.1184125 8.87586207 14.3461288 8.64827586 14.3461288 8.64827586 14.8015615 8.42068966 14.8015615 8.42068966 15.0292778 8.19310345 15.0292778 8.19310345 15.4847105 7.96551724 15.4847105 7.96551724 15.9401431 7.73793103 15.9401431 7.73793103 16.1678595 7.51034483 16.1678595 7.51034483 16.6232921 7.28275862 16.6232921 7.28275862 17.0787248 7.05517241 17.0787248 7.05517241 17.5341574 6.82758621 17.5341574 6.82758621 17.9895901 6.6 17.9895901 6.6 18.4450228 6.37241379 18.4450228 6.37241379 18.9004554 6.14482759 18.9004554 6.14482759 19.5836044 5.91724138 19.5836044 5.91724138 20.0390371 5.68965517 20.0390371 5.68965517 20.4944697 5.46206897 20.4944697 5.46206897 21.1776187 5.23448276 21.1776187 5.23448276 21.8607677 5.00689655 21.8607677 5.00689655 22.5439167 4.77931034 22.5439167 4.77931034 23.2270657 4.55172414 23.2270657 4.55172414 24.137931 4.32413793 24.137931 4.32413793 25.0487964 4.09655172 25.0487964 4.09655172 26.187378 3.86896552 26.187378 3.86896552 27.553676 3.64137931 27.553676 3.64137931 29.3754066 3.4137931 29.3754066 3.4137931 36.6623292 3.64137931 36.6623292 3.64137931 38.7117762 3.86896552 38.7117762 3.86896552 39.6226415 4.09655172 39.6226415 4.09655172 40.5335068 4.32413793 40.5335068 4.32413793 41.4443722 4.55172414 41.4443722 4.55172414 42.1275211 4.77931034 42.1275211 4.77931034 42.8106701 5.00689655 42.8106701 5.00689655 43.2661028 5.23448276 43.2661028 5.23448276 43.9492518 5.46206897 43.9492518 5.46206897 44.4046845 5.68965517 44.4046845 5.68965517 45.0878334 5.91724138 45.0878334 5.91724138 45.5432661 6.14482759 45.5432661 6.14482759 45.9986988 6.37241379 45.9986988 6.37241379 46.4541314 6.6 46.4541314 6.6 46.9095641 6.82758621 46.9095641 6.82758621 47.3649967 7.05517241 47.3649967 7.05517241 47.8204294 7.28275862 47.8204294 7.28275862 48.2758621 7.51034483 48.2758621 7.51034483 48.7312947 7.73793103 48.7312947 7.73793103 49.1867274 7.96551724 49.1867274 7.96551724 49.6421601 8.19310345 49.6421601 8.19310345 49.8698764 8.42068966 49.8698764 8.42068966 50.325309 8.64827586 50.325309 8.64827586 50.7807417 8.87586207 50.7807417 8.87586207 55.790501 9.33103448 55.790501 9.33103448 55.5627846 10.0137931 55.5627846 10.0137931 55.3350683 10.6965517 55.3350683 10.6965517 55.107352 11.1517241 55.107352 11.1517241 54.8796357 11.8344828 54.8796357 11.8344828 54.6519193 12.5172414 54.6519193 12.5172414 54.8796357 12.7448276 54.8796357 12.7448276 55.107352 12.9724138 55.107352 12.9724138 55.3350683 13.2 55.3350683 13.2 55.5627846 13.6551724 55.5627846 13.6551724 55.790501 13.8827586 55.790501 13.8827586 56.0182173 14.1103448 56.0182173 14.1103448 56.2459336 14.5655172 56.2459336 14.5655172 56.47365 14.7931034 56.47365 14.7931034 56.7013663 15.2482759 56.7013663 15.2482759 56.9290826 15.4758621 56.9290826 15.4758621 57.156799 15.9310345 57.156799 15.9310345 57.3845153 16.3862069 57.3845153 16.3862069 57.6122316 16.6137931 57.6122316 16.6137931 57.839948 17.0689655 57.839948 17.0689655 58.0676643 17.5241379 58.0676643 17.5241379 58.2953806 17.7517241 58.2953806 17.7517241 58.5230969 18.2068966 58.5230969 18.2068966 58.7508133 18.662069 58.7508133 18.662069 58.9785296 19.1172414 58.9785296 19.1172414 59.2062459 19.5724138 59.2062459 19.5724138 59.4339623 20.0275862 59.4339623 20.0275862 59.6616786 20.4827586 59.6616786 20.4827586 59.8893949 20.937931 59.8893949 20.937931 60.1171113 21.3931034 60.1171113 21.3931034 60.3448276 22.0758621 60.3448276 22.0758621 60.5725439 22.7586207 60.5725439 22.7586207 60.8002602 23.4413793 60.8002602 23.4413793 61.0279766 24.1241379 61.0279766 24.1241379 61.2556929 24.8068966 61.2556929 24.8068966 61.4834092 25.7172414 61.4834092 25.7172414 61.7111256 26.6275862 61.7111256 26.6275862 61.9388419 27.9931034 61.9388419 27.9931034 62.1665582 29.5862069 62.1665582 29.5862069 62.3942746 35.9586207 62.3942746 35.9586207 62.1665582 37.5517241 62.1665582 37.5517241 61.9388419 38.9172414 61.9388419 38.9172414 61.7111256 39.8275862 61.7111256 39.8275862 61.4834092 40.9655172 61.4834092 40.9655172 61.2556929 41.6482759 61.2556929 41.6482759 61.0279766 42.3310345 61.0279766 42.3310345 60.8002602 43.0137931 60.8002602 43.0137931 60.5725439 43.6965517 60.5725439 43.6965517 60.3448276 44.3793103 60.3448276 44.3793103 60.1171113 44.8344828 60.1171113 44.8344828 59.8893949 45.2896552 59.8893949 45.2896552 59.6616786 45.7448276 59.6616786 45.7448276 59.4339623 46.2 59.4339623 46.2 59.2062459 46.6551724 59.2062459 46.6551724 58.9785296 47.1103448 58.9785296 47.1103448 58.7508133 47.337931 58.7508133 47.337931 58.5230969 47.7931034 58.5230969 47.7931034 58.2953806 48.0206897 58.2953806 48.0206897 58.0676643 48.4758621 58.0676643 48.4758621 57.839948 48.7034483 57.839948 48.7034483 57.6122316 49.1586207 57.6122316 49.1586207 57.3845153 49.3862069 57.3845153 49.3862069 57.156799 49.6137931 57.156799 49.6137931 56.9290826 50.0689655 56.9290826 50.0689655 56.7013663 50.2965517 56.7013663 50.2965517 56.47365 50.5241379 56.47365 50.5241379 56.2459336 50.7517241 56.2459336 50.7517241 56.0182173 50.9793103 56.0182173 50.9793103 55.790501 51.4344828 55.790501 51.4344828 55.5627846 51.662069 55.5627846 51.662069 55.3350683 51.8896552 55.3350683 51.8896552 55.107352 52.1172414 55.107352 52.1172414 54.8796357 52.3448276 54.8796357 52.3448276 54.6519193 52.5724138 54.6519193 52.5724138 54.424203 52.8 54.424203 52.8 54.1964867 53.0275862 54.1964867 53.0275862 53.9687703 53.2551724 53.9687703 53.2551724 53.741054 53.4827586 53.741054 53.4827586 53.5133377 53.7103448 53.5133377 53.7103448 53.2856213 53.937931 53.2856213 53.937931 52.8301887 54.1655172 52.8301887 54.1655172 52.6024723 54.3931034 52.6024723 54.3931034 52.374756 54.6206897 52.374756 54.6206897 52.1470397 54.8482759 52.1470397 54.8482759 51.9193234 55.0758621 51.9193234 55.0758621 51.4638907 55.3034483 51.4638907 55.3034483 51.2361744 55.5310345 51.2361744 55.5310345 51.008458 55.7586207 51.008458 55.7586207 50.5530254 55.9862069 50.5530254 55.9862069 50.325309 56.2137931 50.325309 56.2137931 50.0975927 56.4413793 50.0975927 56.4413793 49.6421601 56.6689655 49.6421601 56.6689655 49.4144437 56.8965517 49.4144437 56.8965517 48.9590111 57.1241379 48.9590111 57.1241379 48.7312947 57.3517241 48.7312947 57.3517241 48.2758621 57.5793103 48.2758621 57.5793103 47.8204294 57.8068966 47.8204294 57.8068966 47.5927131 58.0344828 47.5927131 58.0344828 47.1372804 58.262069 47.1372804 58.262069 46.6818478 58.4896552 46.6818478 58.4896552 46.4541314 58.7172414 46.4541314 58.7172414 45.9986988 58.9448276 45.9986988 58.9448276 45.5432661 59.1724138 45.5432661 59.1724138 45.0878334 59.4 45.0878334 59.4 44.4046845 59.8551724 44.4046845 59.8551724 44.6324008 60.3103448 44.6324008 60.3103448 44.8601171 60.537931 44.8601171 60.537931 45.0878334 60.9931034 45.0878334 60.9931034 45.3155498 61.4482759 45.3155498 61.4482759 45.5432661 61.9034483 45.5432661 61.9034483 45.7709824 62.1310345 45.7709824 62.1310345 45.9986988 62.5862069 45.9986988 62.5862069 46.2264151 63.0413793 46.2264151 63.0413793 46.4541314 63.4965517 46.4541314 63.4965517 46.6818478 63.9517241 46.6818478 63.9517241 46.9095641 64.4068966 46.9095641 64.4068966 47.1372804 64.6344828 47.1372804 64.6344828 47.3649967 65.0896552 47.3649967 65.0896552 47.8204294 64.862069 47.8204294 64.862069 48.2758621 64.6344828 48.2758621 64.6344828 48.7312947 64.4068966 48.7312947 64.4068966 49.1867274 64.1793103 49.1867274 64.1793103 49.6421601 63.9517241 49.6421601 63.9517241 50.0975927 63.7241379 50.0975927 63.7241379 50.5530254 63.4965517 50.5530254 63.4965517 51.008458 63.2689655 51.008458 63.2689655 51.2361744 63.0413793 51.2361744 63.0413793 51.691607 62.8137931 51.691607 62.8137931 51.9193234 62.5862069 51.9193234 62.5862069 52.374756 62.3586207 52.374756 62.3586207 52.6024723 62.1310345 52.6024723 62.1310345 53.057905 61.9034483 53.057905 61.9034483 53.2856213 61.6758621 53.2856213 61.6758621 53.741054 61.4482759 53.741054 61.4482759 53.9687703 61.2206897 53.9687703 61.2206897 54.1964867 60.9931034 54.1964867 60.9931034 54.6519193 60.7655172 54.6519193 60.7655172 54.8796357 60.537931 54.8796357 60.537931 55.107352 60.3103448 55.107352 60.3103448 55.5627846 60.0827586 55.5627846 60.0827586 55.790501 59.8551724 55.790501 59.8551724 56.0182173 59.6275862 56.0182173 59.6275862 56.2459336 59.4 56.2459336 59.4 56.47365 59.1724138 56.47365 59.1724138 56.7013663 58.9448276 56.7013663 58.9448276 57.156799 58.7172414 57.156799 58.7172414 57.3845153 58.4896552 57.3845153 58.4896552 57.6122316 58.262069 57.6122316 58.262069 57.839948 58.0344828 57.839948 58.0344828 58.0676643 57.8068966 58.0676643 57.8068966 58.2953806 57.5793103 58.2953806 57.5793103 58.5230969 57.3517241 58.5230969 57.3517241 58.7508133 57.1241379 58.7508133 57.1241379 58.9785296 56.8965517 58.9785296 56.8965517 59.2062459 56.6689655 59.2062459 56.6689655 59.4339623 56.4413793 59.4339623 56.4413793 59.6616786 55.9862069 59.6616786 55.9862069 59.8893949 55.7586207 59.8893949 55.7586207 60.1171113 55.5310345 60.1171113 55.5310345 60.3448276 55.3034483 60.3448276 55.3034483 60.5725439 55.0758621 60.5725439 55.0758621 60.8002602 54.8482759 60.8002602 54.8482759 61.0279766 54.3931034 61.0279766 54.3931034 61.2556929 54.1655172 61.2556929 54.1655172 61.4834092 53.937931 61.4834092 53.937931 61.7111256 53.4827586 61.7111256 53.4827586 61.9388419 53.2551724 61.9388419 53.2551724 62.1665582 53.0275862 62.1665582 53.0275862 62.3942746 52.5724138 62.3942746 52.5724138 62.6219909 52.1172414 62.6219909 52.1172414 62.8497072 51.8896552 62.8497072 51.8896552 63.0774236 51.4344828 63.0774236 51.4344828 63.3051399 51.2068966 63.3051399 51.2068966 63.5328562 50.7517241 63.5328562 50.7517241 63.7605725 50.2965517 63.7605725 50.2965517 63.9882889 49.8413793 63.9882889 49.8413793 64.2160052 49.3862069 64.2160052 49.3862069 64.4437215 48.9310345 64.4437215 48.9310345 64.6714379 48.7034483 64.6714379 48.7034483 64.8991542 48.2482759 64.8991542 48.2482759 65.1268705 47.7931034 65.1268705 47.7931034 65.3545869 47.1103448 65.3545869 47.1103448 65.5823032 46.6551724 65.5823032 46.6551724 65.8100195 46.2 65.8100195 46.2 66.0377358 45.5172414 66.0377358 45.5172414 66.2654522 44.8344828 66.2654522 44.8344828 66.4931685 44.1517241 66.4931685 44.1517241 66.7208848 43.6965517 66.7208848 43.6965517 66.9486012 42.7862069 66.9486012 42.7862069 67.1763175 41.8758621 67.1763175 41.8758621 67.4040338 40.9655172 67.4040338 40.9655172 67.6317502 39.8275862 67.6317502 39.8275862 67.8594665 38.462069 67.8594665 38.462069 68.0871828 35.9586207 68.0871828 35.9586207 68.3148992 32.5448276 68.3148992 32.5448276 68.0871828 30.0413793 68.0871828 30.0413793 67.8594665 28.6758621 67.8594665 28.6758621 67.6317502 27.3103448 67.6317502 27.3103448 67.4040338 26.4 67.4040338 26.4 67.1763175 25.4896552 67.1763175 25.4896552 66.9486012 24.5793103 66.9486012 24.5793103 66.7208848 23.6689655 66.7208848 23.6689655 66.4931685 22.9862069 66.4931685 22.9862069 66.2654522 22.3034483 66.2654522 22.3034483 66.0377358 21.8482759 66.0377358 21.8482759 65.8100195 21.1655172 65.8100195 21.1655172 65.5823032 20.4827586 65.5823032 20.4827586 65.3545869 20.0275862 65.3545869 20.0275862 65.1268705 19.5724138 65.1268705 19.5724138 64.8991542 19.1172414 64.8991542 19.1172414 64.6714379 18.662069 64.6714379 18.662069 64.4437215 18.2068966 64.4437215 18.2068966 64.2160052 17.7517241 64.2160052 17.7517241 63.9882889 17.2965517 63.9882889 17.2965517 63.7605725 16.8413793 63.7605725 16.8413793 63.5328562 16.6137931 63.5328562 16.6137931 63.3051399 16.1586207 63.3051399 16.1586207 63.0774236 15.7034483 63.0774236 15.7034483 62.8497072 15.4758621 62.8497072 15.4758621 62.6219909 15.0206897 62.6219909 15.0206897 62.3942746 14.7931034 62.3942746 14.7931034 62.1665582 14.337931 62.1665582 14.337931 61.9388419 14.1103448 61.9388419 14.1103448 61.7111256 13.6551724 61.7111256 13.6551724 61.4834092 13.4275862 61.4834092 13.4275862 61.2556929 13.2 61.2556929 13.2 61.0279766 12.9724138 61.0279766 12.9724138 60.8002602 12.5172414 60.8002602 12.5172414 60.5725439 12.2896552 60.5725439 12.2896552 60.3448276 12.062069 60.3448276 12.062069 60.1171113 11.8344828 60.1171113 11.8344828 59.8893949 11.6068966 59.8893949 11.6068966 59.6616786 11.3793103 59.6616786 11.3793103 59.4339623 10.9241379 59.4339623 10.9241379 59.2062459 10.6965517 59.2062459 10.6965517 58.9785296 10.4689655 58.9785296 10.4689655 58.7508133 10.2413793 58.7508133 10.2413793 58.5230969 10.0137931 58.5230969 10.0137931 58.2953806 9.7862069 58.2953806 9.7862069 58.0676643 9.55862069 58.0676643 9.55862069 57.839948 9.33103448 57.839948 9.33103448 57.6122316 9.10344828 57.6122316 9.10344828 57.3845153 8.87586207 57.3845153 8.87586207 56.9290826 8.64827586 56.9290826 8.64827586 56.7013663 8.42068966 56.7013663 8.42068966 56.47365 8.19310345 56.47365 8.19310345 56.2459336 7.96551724 56.2459336 7.96551724 56.0182173 7.73793103 56.0182173 7.73793103 55.790501 7.51034483 55.790501 7.51034483 55.3350683 7.28275862 55.3350683 7.28275862 55.107352 7.05517241 55.107352 7.05517241 54.8796357 6.82758621 54.8796357 6.82758621 54.6519193 6.6 54.6519193 6.6 54.1964867 6.37241379 54.1964867 6.37241379 53.9687703 6.14482759 53.9687703 6.14482759 53.5133377 5.91724138 53.5133377 5.91724138 53.2856213 5.68965517 53.2856213 5.68965517 52.8301887 5.46206897 52.8301887 5.46206897 52.6024723 5.23448276 52.6024723 5.23448276 52.1470397 5.00689655 52.1470397 5.00689655 51.691607 4.77931034 51.691607 4.77931034 51.2361744 4.55172414 51.2361744 4.55172414 51.008458 4.32413793 51.008458 4.32413793 50.5530254 4.09655172 50.5530254 4.09655172 50.0975927 3.86896552 50.0975927 3.86896552 49.6421601 3.64137931 49.6421601 3.64137931 49.1867274 3.4137931 49.1867274 3.4137931 48.7312947 3.1862069 48.7312947 3.1862069 48.2758621 2.95862069 48.2758621 2.95862069 47.8204294 2.73103448 47.8204294 2.73103448 47.1372804 2.50344828 47.1372804 2.50344828 46.6818478 2.27586207 46.6818478 2.27586207 45.9986988 2.04827586 45.9986988 2.04827586 45.3155498 1.82068966 45.3155498 1.82068966 44.6324008 1.59310345 44.6324008 1.59310345 43.7215355 1.36551724 43.7215355 1.36551724 43.0383865 1.13793103 43.0383865 1.13793103 42.1275211 0.910344828 42.1275211 0.910344828 41.4443722 0.682758621 41.4443722 0.682758621 40.3057905 0.455172414 40.3057905 0.455172414 38.9394925 0.227586207 38.9394925 0.227586207 36.8900455 0 36.8900455 0 31.8802863 0.227586207 31.8802863 0.227586207 29.603123 0.455172414 29.603123 0.455172414 28.236825 0.682758621 28.236825 0.682758621 26.870527 0.910344828 26.870527 0.910344828 25.9596617 1.13793103 25.9596617 1.13793103 24.82108 1.36551724 24.82108 1.36551724 23.9102147 1.59310345 23.9102147 1.59310345 23.2270657 1.82068966 23.2270657 1.82068966 22.5439167 2.04827586 22.5439167 2.04827586 21.8607677 2.27586207 21.8607677 2.27586207 21.4053351 2.50344828 21.4053351 2.50344828 20.7221861 2.73103448 20.7221861 2.73103448 20.2667534 2.95862069 20.2667534 2.95862069 19.8113208 3.1862069 19.8113208 3.1862069 19.3558881 3.4137931 19.3558881 3.4137931 18.9004554 3.64137931 18.9004554 3.64137931 18.4450228 3.86896552 18.4450228 3.86896552 17.9895901 4.09655172 17.9895901 4.09655172 17.5341574 4.32413793 17.5341574 4.32413793 17.3064411 4.55172414 17.3064411 4.55172414 16.8510085 4.77931034 16.8510085 4.77931034 16.3955758 5.00689655 16.3955758 5.00689655 16.1678595 5.23448276 16.1678595 5.23448276 15.7124268 5.46206897 15.7124268 5.46206897 15.4847105 5.68965517 15.4847105 5.68965517 15.0292778 5.91724138 15.0292778 5.91724138 14.5738452 6.14482759 14.5738452 6.14482759 14.3461288 6.37241379 14.3461288 6.37241379 14.1184125 6.6 14.1184125 6.6 13.6629798 6.82758621 13.6629798 6.82758621 13.4352635 7.05517241 13.4352635 7.05517241 13.2075472 7.28275862 13.2075472 7.28275862 12.7521145 7.51034483 12.7521145 7.51034483 12.5243982 7.73793103 12.5243982 7.73793103 12.2966818 7.96551724 12.2966818 7.96551724 12.0689655 8.19310345 12.0689655 8.19310345 11.6135329 8.42068966 11.6135329 8.42068966 11.3858165 8.64827586 11.3858165 8.64827586 11.1581002 8.87586207 11.1581002 8.87586207 10.9303839 9.10344828 10.9303839 9.10344828 10.7026675 9.33103448 10.7026675 9.33103448 10.4749512 9.55862069 10.4749512 9.55862069 10.2472349 9.7862069 10.2472349 9.7862069 10.0195185"></polygon>
                <polygon id="Shape" stroke-width="0.66" fill="#FFFFFF" points="21.6206897 39.1672088 21.8482759 39.1672088 21.8482759 38.7117762 22.0758621 38.7117762 22.0758621 38.2563435 22.3034483 38.2563435 22.3034483 38.0286272 22.5310345 38.0286272 22.5310345 37.5731945 22.7586207 37.5731945 22.7586207 37.3454782 22.9862069 37.3454782 22.9862069 36.6623292 23.2137931 36.6623292 23.2137931 36.4346129 23.4413793 36.4346129 23.4413793 35.9791802 23.6689655 35.9791802 23.6689655 35.2960312 23.4413793 35.2960312 23.4413793 34.8405986 23.2137931 34.8405986 23.2137931 34.6128822 23.4413793 34.6128822 23.4413793 34.3851659 23.2137931 34.3851659 23.2137931 34.1574496 22.9862069 34.1574496 22.9862069 33.9297332 22.7586207 33.9297332 22.7586207 33.7020169 22.3034483 33.7020169 22.3034483 33.4743006 20.2551724 33.4743006 20.2551724 33.7020169 19.8 33.7020169 19.8 33.9297332 19.5724138 33.9297332 19.5724138 34.1574496 19.3448276 34.1574496 19.3448276 34.6128822 19.1172414 34.6128822 19.1172414 35.0683149 18.8896552 35.0683149 18.8896552 35.2960312 18.662069 35.2960312 18.662069 35.7514639 18.4344828 35.7514639 18.4344828 36.2068966 18.2068966 36.2068966 18.2068966 36.4346129 17.9793103 36.4346129 17.9793103 36.8900455 17.7517241 36.8900455 17.7517241 37.3454782 17.5241379 37.3454782 17.5241379 37.5731945 17.2965517 37.5731945 17.2965517 38.0286272 17.0689655 38.0286272 17.0689655 38.4840599 16.8413793 38.4840599 16.8413793 38.7117762 16.6137931 38.7117762 16.6137931 39.1672088 16.3862069 39.1672088 16.3862069 39.6226415 16.1586207 39.6226415 16.1586207 39.8503578 15.9310345 39.8503578 15.9310345 40.3057905 15.7034483 40.3057905 15.7034483 40.7612232 15.4758621 40.7612232 15.4758621 40.9889395 15.2482759 40.9889395 15.2482759 41.2166558 14.7931034 41.2166558 14.7931034 39.6226415 14.5655172 39.6226415 14.5655172 39.3949252 14.7931034 39.3949252 14.7931034 36.4346129 13.2 36.4346129 13.2 36.6623292 12.7448276 36.6623292 12.7448276 36.8900455 12.2896552 36.8900455 12.2896552 37.1177619 11.6068966 37.1177619 11.6068966 37.3454782 10.9241379 37.3454782 10.9241379 37.5731945 10.4689655 37.5731945 10.4689655 37.8009109 10.0137931 37.8009109 10.0137931 38.0286272 10.2413793 38.0286272 10.2413793 38.2563435 9.7862069 38.2563435 9.7862069 53.9687703 10.0137931 53.9687703 10.0137931 54.1964867 10.2413793 54.1964867 10.2413793 54.6519193 10.4689655 54.6519193 10.4689655 54.424203 10.9241379 54.424203 10.9241379 54.1964867 11.6068966 54.1964867 11.6068966 53.9687703 12.062069 53.9687703 12.062069 53.741054 12.7448276 53.741054 12.7448276 53.5133377 13.2 53.5133377 13.2 53.2856213 13.6551724 53.2856213 13.6551724 53.057905 13.8827586 53.057905 13.8827586 52.8301887 14.1103448 52.8301887 14.1103448 52.6024723 14.337931 52.6024723 14.337931 52.374756 14.5655172 52.374756 14.5655172 51.2361744 14.7931034 51.2361744 14.7931034 45.7709824 15.2482759 45.7709824 15.2482759 45.9986988 15.4758621 45.9986988 15.4758621 46.2264151 15.7034483 46.2264151 15.7034483 46.4541314 15.9310345 46.4541314 15.9310345 46.6818478 16.1586207 46.6818478 16.1586207 46.9095641 16.3862069 46.9095641 16.3862069 47.1372804 16.6137931 47.1372804 16.6137931 47.3649967 17.0689655 47.3649967 17.0689655 47.8204294 17.2965517 47.8204294 17.2965517 48.0481457 17.5241379 48.0481457 17.5241379 48.2758621 17.7517241 48.2758621 17.7517241 48.5035784 17.9793103 48.5035784 17.9793103 48.7312947 18.2068966 48.7312947 18.2068966 49.1867274 18.662069 49.1867274 18.662069 49.4144437 18.8896552 49.4144437 18.8896552 49.6421601 19.1172414 49.6421601 19.1172414 49.8698764 19.3448276 49.8698764 19.3448276 50.0975927 19.8 50.0975927 19.8 50.325309 20.2551724 50.325309 20.2551724 50.5530254 21.3931034 50.5530254 21.3931034 50.325309 21.6206897 50.325309 21.6206897 50.5530254 22.0758621 50.5530254 22.0758621 50.325309 22.3034483 50.325309 22.3034483 50.0975927 22.7586207 50.0975927 22.7586207 49.8698764 22.9862069 49.8698764 22.9862069 49.6421601 23.2137931 49.6421601 23.2137931 49.4144437 23.4413793 49.4144437 23.4413793 48.9590111 23.6689655 48.9590111 23.6689655 48.0481457 23.8965517 48.0481457 23.8965517 47.8204294 23.6689655 47.8204294 23.6689655 47.1372804 23.4413793 47.1372804 23.4413793 46.6818478 23.2137931 46.6818478 23.2137931 46.2264151 22.9862069 46.2264151 22.9862069 45.9986988 22.7586207 45.9986988 22.7586207 45.7709824 22.5310345 45.7709824 22.5310345 45.5432661 22.3034483 45.5432661 22.3034483 45.3155498 21.8482759 45.3155498 21.8482759 44.8601171 21.6206897 44.8601171 21.6206897 44.6324008 21.3931034 44.6324008 21.3931034 44.4046845 21.1655172 44.4046845 21.1655172 44.1769681 20.937931 44.1769681 20.937931 43.9492518 20.7103448 43.9492518 20.7103448 43.7215355 20.2551724 43.7215355 20.2551724 43.2661028 20.0275862 43.2661028 20.0275862 43.0383865 19.8 43.0383865 19.8 42.8106701 19.5724138 42.8106701 19.5724138 42.3552375 19.8 42.3552375 19.8 41.6720885 20.2551724 41.6720885 20.2551724 41.2166558 20.4827586 41.2166558 20.4827586 40.7612232 20.7103448 40.7612232 20.7103448 40.5335068 20.937931 40.5335068 20.937931 40.0780742 21.1655172 40.0780742 21.1655172 39.8503578 21.3931034 39.8503578 21.3931034 39.3949252 21.6206897 39.3949252"></polygon>
                <polygon id="Shape" stroke-width="0.66" fill="#FFFFFF" points="29.8137931 36.6623292 29.8137931 30.7417046 29.5862069 30.7417046 29.5862069 30.5139883 28.9034483 30.5139883 28.9034483 30.7417046 27.9931034 30.7417046 27.9931034 30.9694209 27.3103448 30.9694209 27.3103448 31.1971373 26.6275862 31.1971373 26.6275862 31.4248536 26.1724138 31.4248536 26.1724138 31.6525699 25.9448276 31.6525699 25.9448276 31.8802863 25.4896552 31.8802863 25.4896552 32.3357189 25.262069 32.3357189 25.262069 32.7911516 25.0344828 32.7911516 25.0344828 33.2465843 24.8068966 33.2465843 24.8068966 33.9297332 24.5793103 33.9297332 24.5793103 48.9590111 25.4896552 48.9590111 25.4896552 48.7312947 26.1724138 48.7312947 26.1724138 48.5035784 26.8551724 48.5035784 26.8551724 48.2758621 27.3103448 48.2758621 27.3103448 48.0481457 27.9931034 48.0481457 27.9931034 47.8204294 28.4482759 47.8204294 28.4482759 47.5927131 28.6758621 47.5927131 28.6758621 47.3649967 28.9034483 47.3649967 28.9034483 47.1372804 29.1310345 47.1372804 29.1310345 46.9095641 29.3586207 46.9095641 29.3586207 46.6818478 29.5862069 46.6818478 29.5862069 46.2264151 29.8137931 46.2264151 29.8137931 45.9986988 29.5862069 45.9986988 29.5862069 45.5432661 29.8137931 45.5432661"></polygon>
                <polygon id="Shape" stroke-width="0.66" fill="#FFFFFF" points="31.6344828 31.6525699 31.6344828 30.0585556 31.862069 30.0585556 31.862069 29.8308393 32.3172414 29.8308393 32.3172414 29.603123 32.5448276 29.603123 32.5448276 29.8308393 32.7724138 29.8308393 32.7724138 29.603123 33 29.603123 33 29.3754066 33.6827586 29.3754066 33.6827586 29.1476903 36.1862069 29.1476903 36.1862069 29.3754066 36.4137931 29.3754066 36.4137931 29.8308393 36.6413793 29.8308393 36.6413793 30.0585556 37.0965517 30.0585556 37.0965517 30.286272 37.3241379 30.286272 37.3241379 30.5139883 37.5517241 30.5139883 37.5517241 30.9694209 38.0068966 30.9694209 38.0068966 31.4248536 38.2344828 31.4248536 38.2344828 31.8802863 38.6896552 31.8802863 38.6896552 32.1080026 38.9172414 32.1080026 38.9172414 32.3357189 39.1448276 32.3357189 39.1448276 32.7911516 39.6 32.7911516 39.6 33.0188679 39.8275862 33.0188679 39.8275862 33.2465843 39.6 33.2465843 39.6 33.4743006 40.0551724 33.4743006 40.0551724 33.9297332 40.5103448 33.9297332 40.5103448 34.1574496 40.737931 34.1574496 40.737931 34.3851659 40.9655172 34.3851659 40.9655172 34.6128822 41.4206897 34.6128822 41.4206897 28.919974 41.6482759 28.919974 41.6482759 28.4645413 41.8758621 28.4645413 41.8758621 28.0091087 42.1034483 28.0091087 42.1034483 27.553676 42.5586207 27.553676 42.5586207 27.0982433 43.4689655 27.0982433 43.4689655 26.870527 43.6965517 26.870527 43.6965517 26.6428107 44.1517241 26.6428107 44.1517241 26.4150943 45.062069 26.4150943 45.062069 26.187378 45.5172414 26.187378 45.5172414 26.4150943 45.7448276 26.4150943 45.7448276 27.3259597 45.9724138 27.3259597 45.9724138 35.0683149 45.7448276 35.0683149 45.7448276 36.4346129 45.9724138 36.4346129 45.9724138 36.6623292 45.7448276 36.6623292 45.7448276 36.8900455 45.9724138 36.8900455 45.9724138 40.7612232 45.7448276 40.7612232 45.7448276 41.2166558 45.5172414 41.2166558 45.5172414 41.6720885 45.7448276 41.6720885 45.7448276 41.8998048 45.5172414 41.8998048 45.5172414 42.3552375 44.8344828 42.3552375 44.8344828 42.5829538 44.6068966 42.5829538 44.6068966 43.0383865 43.9241379 43.0383865 43.9241379 43.2661028 43.4689655 43.2661028 43.4689655 43.0383865 42.3310345 43.0383865 42.3310345 42.8106701 42.1034483 42.8106701 42.1034483 42.5829538 41.8758621 42.5829538 41.8758621 42.3552375 41.1931034 42.3552375 41.1931034 42.1275211 40.9655172 42.1275211 40.9655172 41.6720885 40.737931 41.6720885 40.737931 41.2166558 40.5103448 41.2166558 40.5103448 40.9889395 40.0551724 40.9889395 40.0551724 40.5335068 39.6 40.5335068 39.6 40.0780742 39.1448276 40.0780742 39.1448276 39.8503578 38.9172414 39.8503578 38.9172414 39.3949252 38.6896552 39.3949252 38.6896552 39.1672088 38.462069 39.1672088 38.462069 38.9394925 38.2344828 38.9394925 38.2344828 38.4840599 37.7793103 38.4840599 37.7793103 38.2563435 37.5517241 38.2563435 37.5517241 38.0286272 37.3241379 38.0286272 37.3241379 37.5731945 37.0965517 37.5731945 37.0965517 37.1177619 36.4137931 37.1177619 36.4137931 36.8900455 36.1862069 36.8900455 36.1862069 37.8009109 35.9586207 37.8009109 35.9586207 39.6226415 36.1862069 39.6226415 36.1862069 40.0780742 35.9586207 40.0780742 35.9586207 43.7215355 35.7310345 43.7215355 35.7310345 44.4046845 35.5034483 44.4046845 35.5034483 44.6324008 35.2758621 44.6324008 35.2758621 44.8601171 35.0482759 44.8601171 35.0482759 45.0878334 34.8206897 45.0878334 34.8206897 45.5432661 34.3655172 45.5432661 34.3655172 45.7709824 33.6827586 45.7709824 33.6827586 45.9986988 33.4551724 45.9986988 33.4551724 45.7709824 33.2275862 45.7709824 33.2275862 45.9986988 33 45.9986988 33 46.2264151 32.5448276 46.2264151 32.5448276 46.4541314 32.0896552 46.4541314 32.0896552 46.2264151 31.6344828 46.2264151"></polygon>
                <polygon id="Shape" stroke-width="0.66" fill="#FFFFFF" points="57.5793103 39.8503578 57.3517241 39.8503578 57.3517241 40.0780742 55.9862069 40.0780742 55.9862069 40.3057905 55.7586207 40.3057905 55.7586207 40.5335068 54.1655172 40.5335068 54.1655172 40.7612232 53.937931 40.7612232 53.937931 40.5335068 52.1172414 40.5335068 52.1172414 40.3057905 51.662069 40.3057905 51.662069 40.5335068 51.4344828 40.5335068 51.4344828 40.3057905 50.9793103 40.3057905 50.9793103 40.0780742 50.2965517 40.0780742 50.2965517 39.8503578 49.8413793 39.8503578 49.8413793 39.6226415 49.6137931 39.6226415 49.6137931 39.3949252 49.1586207 39.3949252 49.1586207 39.1672088 48.9310345 39.1672088 48.9310345 38.9394925 48.7034483 38.9394925 48.7034483 38.7117762 48.4758621 38.7117762 48.4758621 38.4840599 48.2482759 38.4840599 48.2482759 38.0286272 48.0206897 38.0286272 48.0206897 37.8009109 47.7931034 37.8009109 47.7931034 37.3454782 47.5655172 37.3454782 47.5655172 36.8900455 47.337931 36.8900455 47.337931 36.4346129 47.1103448 36.4346129 47.1103448 36.2068966 47.337931 36.2068966 47.337931 35.7514639 47.1103448 35.7514639 47.1103448 35.5237476 46.8827586 35.5237476 46.8827586 33.0188679 46.6551724 33.0188679 46.6551724 32.7911516 46.8827586 32.7911516 46.8827586 31.1971373 47.1103448 31.1971373 47.1103448 30.9694209 47.337931 30.9694209 47.337931 29.603123 47.5655172 29.603123 47.5655172 29.1476903 47.7931034 29.1476903 47.7931034 28.6922576 48.0206897 28.6922576 48.0206897 28.236825 48.2482759 28.236825 48.2482759 27.7813923 48.4758621 27.7813923 48.4758621 27.3259597 48.7034483 27.3259597 48.7034483 27.0982433 48.9310345 27.0982433 48.9310345 26.870527 49.1586207 26.870527 49.1586207 26.6428107 49.3862069 26.6428107 49.3862069 26.4150943 49.6137931 26.4150943 49.6137931 26.187378 49.8413793 26.187378 49.8413793 25.9596617 50.0689655 25.9596617 50.0689655 25.7319453 50.2965517 25.7319453 50.2965517 25.504229 50.5241379 25.504229 50.5241379 25.2765127 50.9793103 25.2765127 50.9793103 25.0487964 51.2068966 25.0487964 51.2068966 24.82108 51.662069 24.82108 51.662069 24.5933637 52.1172414 24.5933637 52.1172414 24.3656474 52.8 24.3656474 52.8 24.137931 53.2551724 24.137931 53.2551724 23.9102147 53.937931 23.9102147 53.937931 23.6824984 55.0758621 23.6824984 55.0758621 23.454782 57.8068966 23.454782 57.8068966 23.6824984 59.4 23.6824984 59.4 23.9102147 59.8551724 23.9102147 59.8551724 24.137931 60.537931 24.137931 60.537931 24.3656474 60.7655172 24.3656474 60.7655172 24.5933637 60.9931034 24.5933637 60.9931034 25.0487964 61.2206897 25.0487964 61.2206897 25.7319453 61.4482759 25.7319453 61.4482759 25.9596617 61.2206897 25.9596617 61.2206897 26.187378 61.4482759 26.187378 61.4482759 26.6428107 61.2206897 26.6428107 61.2206897 27.0982433 60.9931034 27.0982433 60.9931034 27.553676 60.7655172 27.553676 60.7655172 27.7813923 59.8551724 27.7813923 59.8551724 28.0091087 58.7172414 28.0091087 58.7172414 27.7813923 55.3034483 27.7813923 55.3034483 28.0091087 54.6206897 28.0091087 54.6206897 28.236825 53.937931 28.236825 53.937931 28.4645413 53.7103448 28.4645413 53.7103448 28.6922576 53.2551724 28.6922576 53.2551724 28.919974 53.0275862 28.919974 53.0275862 29.1476903 52.8 29.1476903 52.8 29.603123 52.5724138 29.603123 52.5724138 30.0585556 52.3448276 30.0585556 52.3448276 30.286272 52.1172414 30.286272 52.1172414 30.9694209 51.8896552 30.9694209 51.8896552 31.8802863 51.662069 31.8802863 51.662069 33.4743006 51.8896552 33.4743006 51.8896552 34.3851659 52.1172414 34.3851659 52.1172414 34.8405986 52.3448276 34.8405986 52.3448276 35.0683149 52.1172414 35.0683149 52.1172414 35.2960312 52.5724138 35.2960312 52.5724138 35.7514639 52.8 35.7514639 52.8 35.9791802 53.2551724 35.9791802 53.2551724 36.2068966 53.4827586 36.2068966 53.4827586 36.4346129 53.7103448 36.4346129 53.7103448 36.2068966 53.937931 36.2068966 53.937931 36.4346129 55.7586207 36.4346129 55.7586207 36.2068966 56.2137931 36.2068966 56.2137931 35.9791802 56.4413793 35.9791802 56.4413793 35.7514639 56.6689655 35.7514639 56.6689655 35.5237476 56.8965517 35.5237476 56.8965517 33.9297332 54.8482759 33.9297332 54.8482759 33.7020169 54.6206897 33.7020169 54.6206897 32.7911516 54.3931034 32.7911516 54.3931034 31.4248536 54.6206897 31.4248536 54.6206897 30.7417046 54.8482759 30.7417046 54.8482759 30.9694209 55.5310345 30.9694209 55.5310345 30.7417046 55.9862069 30.7417046 55.9862069 30.5139883 56.2137931 30.5139883 56.2137931 30.7417046 56.4413793 30.7417046 56.4413793 30.5139883 56.8965517 30.5139883 56.8965517 30.286272 58.262069 30.286272 58.262069 30.0585556 59.1724138 30.0585556 59.1724138 29.8308393 60.3103448 29.8308393 60.3103448 29.603123 60.9931034 29.603123 60.9931034 29.8308393 61.4482759 29.8308393 61.4482759 35.2960312 61.2206897 35.2960312 61.2206897 36.6623292 60.9931034 36.6623292 60.9931034 37.3454782 60.7655172 37.3454782 60.7655172 37.8009109 60.537931 37.8009109 60.537931 38.0286272 60.3103448 38.0286272 60.3103448 38.2563435 60.0827586 38.2563435 60.0827586 38.4840599 59.8551724 38.4840599 59.8551724 38.7117762 59.6275862 38.7117762 59.6275862 38.9394925 59.1724138 38.9394925 59.1724138 39.1672088 58.7172414 39.1672088 58.7172414 39.3949252 58.4896552 39.3949252 58.4896552 39.6226415 57.8068966 39.6226415 57.8068966 39.8503578"></polygon>
                <polygon id="Shape" stroke-width="0.66" fill="#FFFFFF" points="21.3931034 21.4053351 21.3931034 20.4944697 21.6206897 20.4944697 21.6206897 20.2667534 22.0758621 20.2667534 22.0758621 20.0390371 22.5310345 20.0390371 22.5310345 19.8113208 23.4413793 19.8113208 23.4413793 20.0390371 23.6689655 20.0390371 23.6689655 29.1476903 23.4413793 29.1476903 23.4413793 29.603123 23.2137931 29.603123 23.2137931 29.8308393 22.9862069 29.8308393 22.9862069 30.286272 22.7586207 30.286272 22.7586207 30.5139883 22.5310345 30.5139883 22.5310345 30.7417046 22.3034483 30.7417046 22.3034483 30.9694209 21.8482759 30.9694209 21.8482759 31.4248536 21.1655172 31.4248536 21.1655172 31.6525699 20.7103448 31.6525699 20.7103448 31.8802863 20.4827586 31.8802863 20.4827586 32.1080026 17.2965517 32.1080026 17.2965517 31.8802863 17.0689655 31.8802863 17.0689655 31.6525699 16.8413793 31.6525699 16.8413793 31.4248536 16.6137931 31.4248536 16.6137931 30.7417046 16.3862069 30.7417046 16.3862069 30.286272 16.1586207 30.286272 16.1586207 29.8308393 15.9310345 29.8308393 15.9310345 29.603123 16.1586207 29.603123 16.1586207 21.8607677 17.0689655 21.8607677 17.0689655 21.6330514 17.5241379 21.6330514 17.5241379 21.4053351 17.7517241 21.4053351 17.7517241 21.6330514 17.9793103 21.6330514 17.9793103 21.4053351 18.2068966 21.4053351 18.2068966 21.8607677 18.4344828 21.8607677 18.4344828 25.504229 18.662069 25.504229 18.662069 26.870527 18.4344828 26.870527 18.4344828 28.6922576 18.662069 28.6922576 18.662069 29.3754066 18.8896552 29.3754066 18.8896552 29.603123 19.1172414 29.603123 19.1172414 29.8308393 20.2551724 29.8308393 20.2551724 29.603123 20.7103448 29.603123 20.7103448 29.1476903 21.1655172 29.1476903 21.1655172 28.4645413 21.3931034 28.4645413"></polygon>
                <polygon id="Shape" stroke-width="0.66" fill="#FFFFFF" points="34.8206897 24.82108 34.5931034 24.82108 34.5931034 24.5933637 34.3655172 24.5933637 34.3655172 24.3656474 34.137931 24.3656474 34.137931 23.6824984 33.9103448 23.6824984 33.9103448 22.9993494 33.6827586 22.9993494 33.6827586 19.8113208 33.9103448 19.8113208 33.9103448 19.1281718 34.137931 19.1281718 34.137931 18.2173064 34.3655172 18.2173064 34.3655172 17.9895901 34.5931034 17.9895901 34.5931034 17.5341574 34.8206897 17.5341574 34.8206897 17.3064411 35.0482759 17.3064411 35.0482759 17.0787248 35.2758621 17.0787248 35.2758621 16.8510085 35.5034483 16.8510085 35.5034483 16.3955758 35.7310345 16.3955758 35.7310345 16.1678595 36.1862069 16.1678595 36.1862069 15.9401431 36.4137931 15.9401431 36.4137931 15.7124268 37.0965517 15.7124268 37.0965517 15.4847105 37.5517241 15.4847105 37.5517241 15.2569941 38.2344828 15.2569941 38.2344828 15.0292778 39.6 15.0292778 39.6 14.8015615 40.9655172 14.8015615 40.9655172 15.0292778 41.4206897 15.0292778 41.4206897 15.2569941 41.8758621 15.2569941 41.8758621 15.4847105 42.1034483 15.4847105 42.1034483 15.7124268 42.3310345 15.7124268 42.3310345 16.1678595 42.5586207 16.1678595 42.5586207 16.3955758 42.3310345 16.3955758 42.3310345 16.8510085 42.1034483 16.8510085 42.1034483 17.0787248 41.8758621 17.0787248 41.8758621 17.3064411 39.1448276 17.3064411 39.1448276 17.5341574 38.462069 17.5341574 38.462069 17.7618738 37.7793103 17.7618738 37.7793103 18.2173064 37.3241379 18.2173064 37.3241379 18.4450228 37.0965517 18.4450228 37.0965517 18.9004554 36.8689655 18.9004554 36.8689655 19.5836044 36.4137931 19.5836044 36.4137931 22.5439167 36.6413793 22.5439167 36.6413793 22.7716331 36.8689655 22.7716331 36.8689655 23.454782 37.0965517 23.454782 37.0965517 23.6824984 37.3241379 23.6824984 37.3241379 23.9102147 37.7793103 23.9102147 37.7793103 24.137931 39.1448276 24.137931 39.1448276 23.9102147 39.6 23.9102147 39.6 23.6824984 40.0551724 23.6824984 40.0551724 21.8607677 39.8275862 21.8607677 39.8275862 21.6330514 39.3724138 21.6330514 39.3724138 21.8607677 38.9172414 21.8607677 38.9172414 21.4053351 38.6896552 21.4053351 38.6896552 20.4944697 38.462069 20.4944697 38.462069 20.2667534 38.6896552 20.2667534 38.6896552 20.0390371 38.9172414 20.0390371 38.9172414 19.8113208 40.0551724 19.8113208 40.0551724 19.5836044 40.737931 19.5836044 40.737931 19.3558881 42.3310345 19.3558881 42.3310345 21.8607677 42.5586207 21.8607677 42.5586207 22.3162004 42.3310345 22.3162004 42.3310345 24.137931 42.1034483 24.137931 42.1034483 24.3656474 41.8758621 24.3656474 41.8758621 24.5933637 41.6482759 24.5933637 41.6482759 24.82108 41.4206897 24.82108 41.4206897 25.2765127 41.1931034 25.2765127 41.1931034 25.504229 40.5103448 25.504229 40.5103448 25.7319453 39.8275862 25.7319453 39.8275862 25.9596617 39.1448276 25.9596617 39.1448276 26.187378 36.4137931 26.187378 36.4137931 25.9596617 35.9586207 25.9596617 35.9586207 25.7319453 35.7310345 25.7319453 35.7310345 25.504229 35.2758621 25.504229 35.2758621 25.2765127 35.0482759 25.2765127 35.0482759 25.0487964 34.8206897 25.0487964"></polygon>
                <polygon id="Shape" stroke-width="0.66" fill="#FFFFFF" points="46.4275862 13.4352635 45.9724138 13.4352635 45.9724138 13.6629798 44.6068966 13.6629798 44.6068966 13.8906962 43.6965517 13.8906962 43.6965517 24.5933637 45.062069 24.5933637 45.062069 24.3656474 45.7448276 24.3656474 45.7448276 24.137931 46.2 24.137931 46.2 24.3656474 46.4275862 24.3656474 46.4275862 24.137931 47.337931 24.137931 47.337931 23.9102147 47.7931034 23.9102147 47.7931034 23.6824984 48.9310345 23.6824984 48.9310345 23.454782 49.3862069 23.454782 49.3862069 23.2270657 49.6137931 23.2270657 49.6137931 22.9993494 49.8413793 22.9993494 49.8413793 22.5439167 50.0689655 22.5439167 50.0689655 22.3162004 49.8413793 22.3162004 49.8413793 22.0884841 50.0689655 22.0884841 50.0689655 21.4053351 49.6137931 21.4053351 49.6137931 21.1776187 48.9310345 21.1776187 48.9310345 21.4053351 47.7931034 21.4053351 47.7931034 21.6330514 48.0206897 21.6330514 48.0206897 21.8607677 46.6551724 21.8607677 46.6551724 21.6330514 46.4275862 21.6330514 46.4275862 21.1776187 46.2 21.1776187 46.2 20.9499024 46.4275862 20.9499024 46.4275862 19.5836044 46.6551724 19.5836044 46.6551724 19.3558881 47.7931034 19.3558881 47.7931034 19.1281718 48.4758621 19.1281718 48.4758621 18.9004554 48.9310345 18.9004554 48.9310345 18.6727391 49.1586207 18.6727391 49.1586207 18.4450228 49.3862069 18.4450228 49.3862069 18.2173064 49.6137931 18.2173064 49.6137931 17.7618738 49.8413793 17.7618738 49.8413793 17.5341574 49.6137931 17.5341574 49.6137931 17.0787248 49.3862069 17.0787248 49.3862069 16.8510085 48.7034483 16.8510085 48.7034483 17.0787248 48.4758621 17.0787248 48.4758621 17.3064411 47.337931 17.3064411 47.337931 17.5341574 46.8827586 17.5341574 46.8827586 17.3064411 46.4275862 17.3064411 46.4275862 15.7124268 46.6551724 15.7124268 46.6551724 15.4847105 47.337931 15.4847105 47.337931 15.2569941 48.4758621 15.2569941 48.4758621 15.0292778 49.1586207 15.0292778 49.1586207 14.8015615 49.3862069 14.8015615 49.3862069 14.5738452 49.8413793 14.5738452 49.8413793 14.3461288 50.0689655 14.3461288 50.0689655 13.4352635 49.8413793 13.4352635 49.8413793 12.7521145 48.4758621 12.7521145 48.4758621 12.9798308 48.2482759 12.9798308 48.2482759 13.2075472 47.5655172 13.2075472 47.5655172 12.9798308 47.337931 12.9798308 47.337931 13.2075472 46.8827586 13.2075472 46.8827586 13.4352635"></polygon>
                <path d="M13.9911621,19.9296602 C33.1066703,12.3949741 37.030255,12.6361658 50.0165929,10.2316572 C51.523507,7.16322428 39.4279095,1.70447004 29.1469922,3.75267173 C17.4877333,6.07547163 10.8500391,19.4920957 13.9911621,19.9296602 Z" id="Path-2" stroke-width="0.66"></path>
                <path d="M20.7658301,54.5688384 C23.8360548,54.1635189 52.8396384,42.5827314 56.0390918,42.5827314 C56.9923532,42.5827314 57.1126482,51.5321519 45.4004598,56.4355008 C26.9755672,64.1491469 17.8348878,54.9557704 20.7658301,54.5688384 Z" id="Path-3" stroke-width="0.66" fill="#FFFFFF"></path>
                <use id="Combined-Shape" mask="url(#mask-2)" stroke-width="1.32" fill="#FFFFFF" xlink:href="#path-1"></use>
                <path d="M51.5083594,12.6903376 C51.5083594,12.6903376 53.7086256,12.4114184 55.0723594,12.0109357 C56.4360933,11.6104529 58.0767773,13.1137143 58.0767773,13.1137143 C58.0767773,13.1137143 58.8178815,14.2953418 58.4523886,15.9096772 C58.0868957,17.5240126 56.8431011,17.7965603 56.8431011,17.7965603 C56.8431011,17.7965603 58.1653232,19.1787963 58.4523888,19.8226065 C58.7394543,20.4664167 59.163957,21.7980226 58.9642969,22.0778213 C58.6275279,22.5497608 57.6684118,22.8874924 56.8431013,22.077821 C56.0177907,21.2681496 54.0669579,19.0709758 54.0669579,19.0709758 C54.0669579,19.0709758 53.798834,20.3249831 53.798834,21.5667379 C53.798834,22.8084927 51.1748145,23.4808007 51.1748145,23.4808007 L51.5083594,12.6903376 Z M54.0243635,14.780857 C54.2966874,14.2603488 55.1239152,14.6776538 55.3888615,14.8534405 C55.6538079,15.0292271 56.031164,15.0352975 55.7168518,16.4902112 C55.1945814,16.6343053 54.6046033,17.3776996 54.2064182,17.1135117 C53.808233,16.8493237 53.7520396,15.3013652 54.0243635,14.780857 Z" id="Combined-Shape-Copy" stroke-width="0.66" fill="#FFFFFF"></path>
                <path d="M25.1083594,19.2941111 C25.1083594,19.2941111 28.1982422,18.0923404 29.8144043,17.6918577 C31.4305664,17.2913749 32.4086426,18.7440116 32.4086426,18.7440116 C32.4086426,18.7440116 33.1885463,19.3806989 32.7554004,20.9950343 C32.3222545,22.6093697 31.0299902,23.8822505 31.0299902,23.8822505 C31.0299902,23.8822505 32.9975328,25.7825699 33.3377344,26.4263801 C33.677936,27.0701903 33.5743518,27.9697131 33.3377344,28.2495117 C32.9386291,28.7214512 32.4086426,29.4912659 31.4305664,28.6815946 C30.4524902,27.8719232 28.1405566,25.6747494 28.1405566,25.6747494 C28.1405566,25.6747494 27.8228027,28.2495115 27.8228027,29.4912662 C27.8228027,30.733021 25.2263086,30.3586564 25.2263086,30.3586564 L25.1083594,19.2941111 Z M28.2050098,20.4101102 C28.4455559,19.7880902 29.1762537,20.2867799 29.4102832,20.4968492 C29.6443127,20.7069186 29.9776348,20.7141728 29.7,22.4528302 C29.2386738,22.6250261 28.7175408,23.5134005 28.3658203,23.1976894 C28.0140998,22.8819784 27.9644636,21.0321302 28.2050098,20.4101102 Z" id="Combined-Shape" stroke-width="0.66" fill="#FFFFFF"></path>
            </g>
            <rect id="yellow" fill="#FAC102" x="90" y="73" width="38" height="29"></rect>
            <rect id="red" fill="#F70E0A" x="47" y="73" width="38" height="29"></rect>
            <rect id="blue" fill="#2B2E99" x="4" y="73" width="38" height="29"></rect>
            <path d="M22.5,72.5 L28.5,47.5" id="Line" stroke="#4A4A4A" stroke-linecap="square" fill="#4A4A4A"></path>
            <path id="Line-decoration-1" d="M28.5,47.5 L23.0624102,57.301664 L28.896734,58.7019017 L28.5,47.5 Z" stroke="#4A4A4A" stroke-linecap="square" fill="#4A4A4A"></path>
            <path d="M66.5,73.5 L66.5,41.5" id="Line" stroke="#4A4A4A" stroke-linecap="square" fill="#4A4A4A"></path>
            <path id="Line-decoration-1" d="M66.5,41.5 L63.5,52.3 L69.5,52.3 L66.5,41.5 Z" stroke="#4A4A4A" stroke-linecap="square" fill="#4A4A4A"></path>
            <path d="M107.5,73.5 L78.5,49.5" id="Line" stroke="#4A4A4A" stroke-linecap="square" fill="#4A4A4A"></path>
            <path id="Line-decoration-1" d="M78.5,49.5 L84.9075555,58.6969143 L88.7329618,54.0745483 L78.5,49.5 Z" stroke="#4A4A4A" stroke-linecap="square" fill="#4A4A4A"></path>
            <text id="2" stroke="#4A4A4A" fill="#FFFFFF" font-family="ChalkboardSE-Bold, Chalkboard SE" font-size="20" font-weight="bold" letter-spacing="2.71111131">
                <tspan x="59.0236953" y="94">2</tspan>
            </text>
            <text id="3" stroke="#4A4A4A" fill="#FFFFFF" font-family="ChalkboardSE-Bold, Chalkboard SE" font-size="20" font-weight="bold" letter-spacing="2.71111131">
                <tspan x="103.023695" y="94">3</tspan>
            </text>
            <text id="1" stroke="#4A4A4A" fill="#FFFFFF" font-family="ChalkboardSE-Bold, Chalkboard SE" font-size="20" font-weight="bold" letter-spacing="2.71111131">
                <tspan x="16.0236953" y="94">1</tspan>
            </text>
        </g>
    </g>
</svg>