<?xml version="1.0" encoding="UTF-8" standalone="no"?>
<svg width="645px" height="645px" viewBox="0 0 645 645" version="1.1" xmlns="http://www.w3.org/2000/svg" xmlns:xlink="http://www.w3.org/1999/xlink">
    <!-- Generator: Sketch 39.1 (31720) - http://www.bohemiancoding.com/sketch -->
    <title>webwheel copy</title>
    <desc>Created with Sketch.</desc>
    <defs></defs>
    <g id="color-wheel" stroke="none" stroke-width="1" fill="none" fill-rule="evenodd">
        <g id="webwheel-copy">
            <g id="mywheel-copy" transform="translate(8.000000, 8.000000)">
                <g id="straight-wings" transform="translate(275.517711, 0.000000)">
                    <path d="M39.4822888,330.449602 L-1.22641623e-14,624.944717 C-1.22641623e-14,624.944717 8.58310627,629.236259 39.4822888,629.236259 C70.3814714,629.236259 78.9645777,624.944706 78.9645777,624.944706 L39.4822888,330.449602 L39.4822888,330.449602 Z" id="Triangle-2-Copy-2" fill="#00FFFF"></path>
                    <path d="M39.4822888,1.10327133e-05 L78.9645777,294.495126 C78.9645777,294.495126 70.3814714,298.786668 39.4822888,298.786668 C8.58310627,298.786668 0,294.495115 0,294.495115 L39.4822888,1.10327133e-05 Z" id="Triangle-2" fill="#FF0000" transform="translate(39.482289, 149.393339) scale(1, -1) translate(-39.482289, -149.393339) "></path>
                </g>
                <g id="165" transform="translate(314.791030, 315.055993) rotate(-195.000000) translate(-314.791030, -315.055993) translate(275.092400, 0.055993)">
                    <path d="M39.4822888,330.449602 L-6.13208114e-14,624.944717 C-6.13208114e-14,624.944717 8.58310627,629.236259 39.4822888,629.236259 C70.3814714,629.236259 78.9645777,624.944706 78.9645777,624.944706 L39.4822888,330.449602 L39.4822888,330.449602 Z" id="Triangle-2-Copy-2" fill="#FF0040"></path>
                    <path d="M39.4822888,1.10327127e-05 L78.9645777,294.495126 C78.9645777,294.495126 70.3814714,298.786668 39.4822888,298.786668 C8.58310627,298.786668 3.04151225e-12,294.495115 3.04151225e-12,294.495115 L39.4822888,1.10327127e-05 Z" id="Triangle-2" fill="#00FFC0" transform="translate(39.482289, 149.393339) scale(1, -1) translate(-39.482289, -149.393339) "></path>
                </g>
                <g id="150" transform="translate(314.812643, 315.108171) rotate(-210.000000) translate(-314.812643, -315.108171) translate(275.114013, 0.108171)">
                    <path d="M39.4822888,330.449602 L6.50000601e-13,624.944717 C6.50000601e-13,624.944717 8.58310627,629.236259 39.4822888,629.236259 C70.3814714,629.236259 78.9645777,624.944706 78.9645777,624.944706 L39.4822888,330.449602 L39.4822888,330.449602 Z" id="Triangle-2-Copy-2" fill="#FF0080"></path>
                    <path d="M39.4822888,1.10327131e-05 L78.9645777,294.495126 C78.9645777,294.495126 70.3814714,298.786668 39.4822888,298.786668 C8.58310627,298.786668 4.90566492e-14,294.495115 4.90566492e-14,294.495115 L39.4822888,1.10327131e-05 Z" id="Triangle-2" fill="#00FF80" transform="translate(39.482289, 149.393339) scale(1, -1) translate(-39.482289, -149.393339) "></path>
                </g>
                <g id="135" transform="translate(314.847024, 315.152976) rotate(-225.000000) translate(-314.847024, -315.152976) translate(275.148393, 0.152976)">
                    <path d="M39.4822888,330.449602 L-1.06698212e-12,624.944717 C-1.06698212e-12,624.944717 8.58310627,629.236259 39.4822888,629.236259 C70.3814714,629.236259 78.9645777,624.944706 78.9645777,624.944706 L39.4822888,330.449602 L39.4822888,330.449602 Z" id="Triangle-2-Copy-2" fill="#FF00C0"></path>
                    <path d="M39.4822888,1.10327135e-05 L78.9645777,294.495126 C78.9645777,294.495126 70.3814714,298.786668 39.4822888,298.786668 C8.58310627,298.786668 -1.61886942e-12,294.495115 -1.61886942e-12,294.495115 L39.4822888,1.10327135e-05 Z" id="Triangle-2" fill="#00FF40" transform="translate(39.482289, 149.393339) scale(1, -1) translate(-39.482289, -149.393339) "></path>
                </g>
                <g id="120" transform="translate(314.891829, 315.187357) rotate(-240.000000) translate(-314.891829, -315.187357) translate(275.193199, 0.187357)">
                    <path d="M39.4822888,330.449602 L-6.13208114e-14,624.944717 C-6.13208114e-14,624.944717 8.58310627,629.236259 39.4822888,629.236259 C70.3814714,629.236259 78.9645777,624.944706 78.9645777,624.944706 L39.4822888,330.449602 L39.4822888,330.449602 Z" id="Triangle-2-Copy-2" fill="#FF00FF"></path>
                    <path d="M39.4822888,1.10327127e-05 L78.9645777,294.495126 C78.9645777,294.495126 70.3814714,298.786668 39.4822888,298.786668 C8.58310627,298.786668 -4.41509842e-13,294.495115 -4.41509842e-13,294.495115 L39.4822888,1.10327127e-05 Z" id="Triangle-2" fill="#00FF00" transform="translate(39.482289, 149.393339) scale(1, -1) translate(-39.482289, -149.393339) "></path>
                </g>
                <g id="105" transform="translate(314.944007, 315.208970) rotate(-255.000000) translate(-314.944007, -315.208970) translate(275.245377, 0.208970)">
                    <path d="M39.4822888,330.449602 L-2.82075733e-13,624.944717 C-2.82075733e-13,624.944717 8.58310627,629.236259 39.4822888,629.236259 C70.3814714,629.236259 78.9645777,624.944706 78.9645777,624.944706 L39.4822888,330.449602 L39.4822888,330.449602 Z" id="Triangle-2-Copy-2" fill="#C000FF"></path>
                    <path d="M39.4822888,1.10327127e-05 L78.9645777,294.495126 C78.9645777,294.495126 70.3814714,298.786668 39.4822888,298.786668 C8.58310627,298.786668 -2.6981157e-13,294.495115 -2.6981157e-13,294.495115 L39.4822888,1.10327127e-05 Z" id="Triangle-2" fill="#40FF00" transform="translate(39.482289, 149.393339) scale(1, -1) translate(-39.482289, -149.393339) "></path>
                </g>
                <g id="90" transform="translate(315.000000, 315.216341) rotate(-270.000000) translate(-315.000000, -315.216341) translate(275.301370, 0.216341)">
                    <path d="M39.4822888,330.449602 L-1.10377461e-13,624.944717 C-1.10377461e-13,624.944717 8.58310627,629.236259 39.4822888,629.236259 C70.3814714,629.236259 78.9645777,624.944706 78.9645777,624.944706 L39.4822888,330.449602 L39.4822888,330.449602 Z" id="Triangle-2-Copy-2" fill="#8000FF"></path>
                    <path d="M39.4822888,1.10327134e-05 L78.9645777,294.495126 C78.9645777,294.495126 70.3814714,298.786668 39.4822888,298.786668 C8.58310627,298.786668 -4.90566492e-14,294.495115 -4.90566492e-14,294.495115 L39.4822888,1.10327134e-05 Z" id="Triangle-2" fill="#80FF00" transform="translate(39.482289, 149.393339) scale(1, -1) translate(-39.482289, -149.393339) "></path>
                </g>
                <g id="75" transform="translate(315.055993, 315.208970) rotate(-285.000000) translate(-315.055993, -315.208970) translate(275.357363, 0.208970)">
                    <path d="M39.4822888,330.449602 L-6.25906702e-14,624.944717 C-6.25906702e-14,624.944717 8.58310627,629.236259 39.4822888,629.236259 C70.3814714,629.236259 78.9645777,624.944706 78.9645777,624.944706 L39.4822888,330.449602 L39.4822888,330.449602 Z" id="Triangle-2-Copy-2" fill="#4000FF"></path>
                    <path d="M39.4822888,1.10327123e-05 L78.9645777,294.495126 C78.9645777,294.495126 70.3814714,298.786668 39.4822888,298.786668 C8.58310627,298.786668 -7.26038407e-12,294.495115 -7.26038407e-12,294.495115 L39.4822888,1.10327123e-05 Z" id="Triangle-2" fill="#C0FF00" transform="translate(39.482289, 149.393339) scale(1, -1) translate(-39.482289, -149.393339) "></path>
                </g>
                <g id="60" transform="translate(315.108171, 315.187357) rotate(-300.000000) translate(-315.108171, -315.187357) translate(275.409541, 0.187357)">
                    <path d="M39.4822888,330.449602 L8.5849136e-14,624.944717 C8.5849136e-14,624.944717 8.58310627,629.236259 39.4822888,629.236259 C70.3814714,629.236259 78.9645777,624.944706 78.9645777,624.944706 L39.4822888,330.449602 L39.4822888,330.449602 Z" id="Triangle-2-Copy-2" fill="#0000FF"></path>
                    <path d="M39.4822888,1.10327131e-05 L78.9645777,294.495126 C78.9645777,294.495126 70.3814714,298.786668 39.4822888,298.786668 C8.58310627,298.786668 -4.90566492e-14,294.495115 -4.90566492e-14,294.495115 L39.4822888,1.10327131e-05 Z" id="Triangle-2" fill="#FFFF00" transform="translate(39.482289, 149.393339) scale(1, -1) translate(-39.482289, -149.393339) "></path>
                </g>
                <g id="45" transform="translate(315.152976, 315.152976) rotate(-315.000000) translate(-315.152976, -315.152976) translate(275.454346, 0.152976)">
                    <path d="M39.4822888,330.449602 L-3.55660706e-13,624.944717 C-3.55660706e-13,624.944717 8.58310627,629.236259 39.4822888,629.236259 C70.3814714,629.236259 78.9645777,624.944706 78.9645777,624.944706 L39.4822888,330.449602 L39.4822888,330.449602 Z" id="Triangle-2-Copy-2" fill="#0040FF"></path>
                    <path d="M39.4822888,1.10327134e-05 L78.9645777,294.495126 C78.9645777,294.495126 70.3814714,298.786668 39.4822888,298.786668 C8.58310627,298.786668 0,294.495115 0,294.495115 L39.4822888,1.10327134e-05 Z" id="Triangle-2" fill="#FFC000" transform="translate(39.482289, 149.393339) scale(1, -1) translate(-39.482289, -149.393339) "></path>
                </g>
                <g id="30" transform="translate(315.187357, 315.108171) rotate(-330.000000) translate(-315.187357, -315.108171) translate(275.488727, 0.108171)">
                    <path d="M39.4822888,330.449602 L1.34905785e-13,624.944717 C1.34905785e-13,624.944717 8.58310627,629.236259 39.4822888,629.236259 C70.3814714,629.236259 78.9645777,624.944706 78.9645777,624.944706 L39.4822888,330.449602 L39.4822888,330.449602 Z" id="Triangle-2-Copy-2" fill="#0080FF"></path>
                    <path d="M39.4822888,1.10327136e-05 L78.9645777,294.495126 C78.9645777,294.495126 70.3814714,298.786668 39.4822888,298.786668 C8.58310627,298.786668 4.90566492e-14,294.495115 4.90566492e-14,294.495115 L39.4822888,1.10327136e-05 Z" id="Triangle-2" fill="#FF8000" transform="translate(39.482289, 149.393339) scale(1, -1) translate(-39.482289, -149.393339) "></path>
                </g>
                <g id="15" transform="translate(315.208970, 315.055993) rotate(-345.000000) translate(-315.208970, -315.055993) translate(275.510340, 0.055993)">
                    <path d="M39.4822888,330.449602 L3.67924869e-14,624.944717 C3.67924869e-14,624.944717 8.58310627,629.236259 39.4822888,629.236259 C70.3814714,629.236259 78.9645777,624.944706 78.9645777,624.944706 L39.4822888,330.449602 L39.4822888,330.449602 Z" id="Triangle-2-Copy-2" fill="#00C0FF"></path>
                    <path d="M39.4822888,1.10327134e-05 L78.9645777,294.495126 C78.9645777,294.495126 70.3814714,298.786668 39.4822888,298.786668 C8.58310627,298.786668 -2.94339895e-13,294.495115 -2.94339895e-13,294.495115 L39.4822888,1.10327134e-05 Z" id="Triangle-2" fill="#FF4000" transform="translate(39.482289, 149.393339) scale(1, -1) translate(-39.482289, -149.393339) "></path>
                </g>
            </g>
        </g>
    </g>
</svg>