<?xml version="1.0" encoding="UTF-8" standalone="no"?>
<svg width="507px" height="560px" viewBox="0 0 507 560" version="1.1" xmlns="http://www.w3.org/2000/svg" xmlns:xlink="http://www.w3.org/1999/xlink" style="background: #FFFFFF;">
    <!-- Generator: Sketch 3.8.3 (29802) - http://www.bohemiancoding.com/sketch -->
    <title>def</title>
    <desc>Created with Sketch.</desc>
    <defs></defs>
    <g id="dataviz" stroke="none" stroke-width="1" fill="none" fill-rule="evenodd">
        <g id="def">
            <rect id="Rectangle-1" fill="#DB0000" x="294" y="165" width="33" height="30"></rect>
            <rect id="Rectangle-1-Copy" fill="#00A02E" x="333" y="165" width="33" height="30"></rect>
            <rect id="Rectangle-1-Copy-2" fill="#00A02E" x="372" y="165" width="33" height="30"></rect>
            <rect id="Rectangle-1-Copy-5" fill="#EACB21" x="294" y="210" width="33" height="30"></rect>
            <rect id="Rectangle-1-Copy-4" fill="#00A02E" x="333" y="210" width="33" height="30"></rect>
            <rect id="Rectangle-1-Copy-3" fill="#00A02E" x="372" y="210" width="33" height="30"></rect>
            <rect id="Rectangle-1-Copy-14" fill="#DB0000" x="294" y="318" width="33" height="30"></rect>
            <rect id="Rectangle-1-Copy-13" fill="#EACB21" x="333" y="318" width="33" height="30"></rect>
            <rect id="Rectangle-1-Copy-12" fill="#EACB21" x="372" y="318" width="33" height="30"></rect>
            <rect id="Rectangle-1-Copy-11" fill="#DB0000" x="294" y="362" width="33" height="30"></rect>
            <rect id="Rectangle-1-Copy-10" fill="#DB0000" x="333" y="362" width="33" height="30"></rect>
            <rect id="Rectangle-1-Copy-9" fill="#EACB21" x="372" y="362" width="33" height="30"></rect>
            <rect id="Rectangle-1-Copy-20" fill="#EACB21" x="294" y="424" width="33" height="30"></rect>
            <rect id="Rectangle-1-Copy-19" fill="#EACB21" x="333" y="424" width="33" height="30"></rect>
            <rect id="Rectangle-1-Copy-18" fill="#EACB21" x="372" y="424" width="33" height="30"></rect>
            <rect id="Rectangle-1-Copy-17" fill="#DB0000" x="294" y="465" width="33" height="30"></rect>
            <rect id="Rectangle-1-Copy-16" fill="#EACB21" x="333" y="465" width="33" height="30"></rect>
            <rect id="Rectangle-1-Copy-15" fill="#DB0000" x="372" y="465" width="33" height="30"></rect>
            <rect id="Rectangle-1-Copy-23" fill="#DB0000" x="294" y="509" width="33" height="30"></rect>
            <rect id="Rectangle-1-Copy-22" fill="#DB0000" x="333" y="509" width="33" height="30"></rect>
            <rect id="Rectangle-1-Copy-21" fill="#DB0000" x="372" y="509" width="33" height="30"></rect>
            <rect id="Rectangle-1-Copy-8" fill="#EACB21" x="294" y="253" width="33" height="30"></rect>
            <rect id="Rectangle-1-Copy-7" fill="#EACB21" x="333" y="253" width="33" height="30"></rect>
            <rect id="Rectangle-1-Copy-6" fill="#00A02E" x="372" y="253" width="33" height="30"></rect>
            <g id="Line-+-Line" transform="translate(201.000000, 165.000000)" stroke="#979797" stroke-linecap="square">
                <path d="M6.5,1.5 L6.5,29.5" id="Line"></path>
                <path d="M6.5,29.5 L40.5,29.5" id="Line"></path>
                <path d="M0.5,17.5 L6.5,17.5" id="tic-"></path>
                <path d="M0.5,1.5 L6.5,1.5" id="tic-top"></path>
            </g>
            <g id="Line-+-Line" transform="translate(201.000000, 210.000000)" stroke="#979797" stroke-linecap="square">
                <path d="M6.5,1.5 L6.5,29.5" id="Line"></path>
                <path d="M6.5,29.5 L40.5,29.5" id="Line"></path>
                <path d="M0.5,17.5 L6.5,17.5" id="tic-"></path>
                <path d="M0.5,1.5 L6.5,1.5" id="tic-top"></path>
            </g>
            <g id="Line-+-Line" transform="translate(201.000000, 252.000000)" stroke="#979797" stroke-linecap="square">
                <path d="M6.5,1.5 L6.5,29.5" id="Line"></path>
                <path d="M6.5,29.5 L40.5,29.5" id="Line"></path>
                <path d="M0.5,17.5 L6.5,17.5" id="tic-"></path>
                <path d="M0.5,1.5 L6.5,1.5" id="tic-top"></path>
            </g>
            <g id="Line-+-Line" transform="translate(201.000000, 318.000000)" stroke="#979797" stroke-linecap="square">
                <path d="M6.5,1.5 L6.5,29.5" id="Line"></path>
                <path d="M6.5,29.5 L40.5,29.5" id="Line"></path>
                <path d="M0.5,17.5 L6.5,17.5" id="tic-"></path>
                <path d="M0.5,1.5 L6.5,1.5" id="tic-top"></path>
            </g>
            <g id="Line-+-Line" transform="translate(201.000000, 362.000000)" stroke="#979797" stroke-linecap="square">
                <path d="M6.5,1.5 L6.5,29.5" id="Line"></path>
                <path d="M6.5,29.5 L40.5,29.5" id="Line"></path>
                <path d="M0.5,17.5 L6.5,17.5" id="tic-"></path>
                <path d="M0.5,1.5 L6.5,1.5" id="tic-top"></path>
            </g>
            <g id="Line-+-Line" transform="translate(201.000000, 422.000000)" stroke="#979797" stroke-linecap="square">
                <path d="M6.5,1.5 L6.5,29.5" id="Line"></path>
                <path d="M6.5,29.5 L40.5,29.5" id="Line"></path>
                <path d="M0.5,17.5 L6.5,17.5" id="tic-"></path>
                <path d="M0.5,1.5 L6.5,1.5" id="tic-top"></path>
            </g>
            <g id="Line-+-Line" transform="translate(201.000000, 464.000000)" stroke="#979797" stroke-linecap="square">
                <path d="M6.5,1.5 L6.5,29.5" id="Line"></path>
                <path d="M6.5,29.5 L40.5,29.5" id="Line"></path>
                <path d="M0.5,17.5 L6.5,17.5" id="tic-"></path>
                <path d="M0.5,1.5 L6.5,1.5" id="tic-top"></path>
            </g>
            <g id="Line-+-Line" transform="translate(201.000000, 508.000000)" stroke="#979797" stroke-linecap="square">
                <path d="M6.5,1.5 L6.5,29.5" id="Line"></path>
                <path d="M6.5,29.5 L40.5,29.5" id="Line"></path>
                <path d="M0.5,17.5 L6.5,17.5" id="tic-"></path>
                <path d="M0.5,1.5 L6.5,1.5" id="tic-top"></path>
            </g>
            <path d="M207.5,347.5 L248.5,335.5" id="Line-Copy-3" stroke="#979797" stroke-linecap="square" fill="#4A4A4A"></path>
            <path id="Line-Copy-3-decoration-1" d="M248.5,335.5 L237.29214,335.654494 L238.977532,341.412919 L248.5,335.5 Z" stroke="#979797" stroke-linecap="square" fill="#4A4A4A"></path>
            <path d="M207.5,391.5 L248.5,379.5" id="Line-Copy-4" stroke="#979797" stroke-linecap="square" fill="#4A4A4A"></path>
            <path id="Line-Copy-4-decoration-1" d="M248.5,379.5 L237.29214,379.654494 L238.977532,385.412919 L248.5,379.5 Z" stroke="#979797" stroke-linecap="square" fill="#4A4A4A"></path>
            <path d="M207.5,439.5 L245.552597,439.5" id="Line-Copy-5" stroke="#979797" stroke-linecap="square" fill="#4A4A4A"></path>
            <path id="Line-Copy-5-decoration-1" d="M245.552597,439.5 L234.752597,436.5 L234.752597,442.5 L245.552597,439.5 Z" stroke="#979797" stroke-linecap="square" fill="#4A4A4A"></path>
            <path d="M207.5,534.5 L245.552597,534.5" id="Line-Copy-6" stroke="#979797" stroke-linecap="square" fill="#4A4A4A"></path>
            <path id="Line-Copy-6-decoration-1" d="M245.552597,534.5 L234.752597,531.5 L234.752597,537.5 L245.552597,534.5 Z" stroke="#979797" stroke-linecap="square" fill="#4A4A4A"></path>
            <path d="M225.5,481.5 L243.5,491.5" id="Line-Copy-7" stroke="#979797" stroke-linecap="square" fill="#4A4A4A"></path>
            <path id="Line-Copy-7-decoration-1" d="M243.5,491.5 L235.51603,483.632585 L232.602173,488.877528 L243.5,491.5 Z" stroke="#979797" stroke-linecap="square" fill="#4A4A4A"></path>
            <path d="M207.5,269.5 L246.5,260.5" id="Line-Copy-2" stroke="#979797" stroke-linecap="square" fill="#4A4A4A"></path>
            <path id="Line-Copy-2-decoration-1" d="M246.5,260.5 L235.301997,260.005309 L236.651154,265.851656 L246.5,260.5 Z" stroke="#979797" stroke-linecap="square" fill="#4A4A4A"></path>
            <path d="M207.5,227.5 L248.5,215.5" id="Line-Copy" stroke="#979797" stroke-linecap="square" fill="#4A4A4A"></path>
            <path id="Line-Copy-decoration-1" d="M248.5,215.5 L237.29214,215.654494 L238.977532,221.412919 L248.5,215.5 Z" stroke="#979797" stroke-linecap="square" fill="#4A4A4A"></path>
            <path d="M207.5,194.5 L245.5,169.5" id="Line" stroke="#979797" stroke-linecap="square" fill="#4A4A4A"></path>
            <path id="Line-decoration-1" d="M245.5,169.5 L234.828646,172.929607 L238.126345,177.942109 L245.5,169.5 Z" stroke="#979797" stroke-linecap="square" fill="#4A4A4A"></path>
            <path d="M208.5,491.5 L225.5,480.5" id="Line" stroke="#979797" stroke-linecap="square"></path>
            <text id="Much-Progress" font-family="HelveticaNeue-Medium, Helvetica Neue" font-size="14" font-weight="400" line-spacing="35" letter-spacing="-0.0700000003" fill="#4A4A4A">
                <tspan x="1.053" y="158">Much Progress</tspan>
            </text>
            <text id="Some-Progress" font-family="HelveticaNeue-Medium, Helvetica Neue" font-size="14" font-weight="400" line-spacing="35" letter-spacing="-0.0700000003" fill="#4A4A4A">
                <tspan x="1.035" y="311">Some Progress</tspan>
            </text>
            <text id="Little-or-No-Progres" font-family="HelveticaNeue-Medium, Helvetica Neue" font-size="14" font-weight="400" line-spacing="35" letter-spacing="-0.0700000003" fill="#4A4A4A">
                <tspan x="1.326" y="415">Little or No Progress</tspan>
            </text>
            <rect id="Rectangle-1-Copy-26" fill="#00A02E" x="291" y="99" width="33" height="30"></rect>
            <rect id="Rectangle-1-Copy-25" fill="#00A02E" x="330" y="99" width="33" height="30"></rect>
            <rect id="Rectangle-1-Copy-24" fill="#00A02E" x="369" y="99" width="33" height="30"></rect>
            <g id="Line-+-Line" transform="translate(201.000000, 97.000000)" stroke="#979797" stroke-linecap="square">
                <path d="M6.5,1.5 L6.5,29.5" id="Line"></path>
                <path d="M6.5,29.5 L40.5,29.5" id="Line"></path>
                <path d="M0.5,17.5 L6.5,17.5" id="tic-"></path>
                <path d="M0.5,1.5 L6.5,1.5" id="tic-top"></path>
            </g>
            <path d="M208.5,98.5 L246.552597,98.5" id="Line-Copy-8" stroke="#979797" stroke-linecap="square" fill="#4A4A4A"></path>
            <path id="Line-Copy-8-decoration-1" d="M246.552597,98.5 L235.752597,95.5 L235.752597,101.5 L246.552597,98.5 Z" stroke="#979797" stroke-linecap="square" fill="#4A4A4A"></path>
            <text id="Consistently-At-Benc" font-family="HelveticaNeue-Medium, Helvetica Neue" font-size="14" font-weight="400" line-spacing="35" letter-spacing="-0.0700000003" fill="#4A4A4A">
                <tspan x="1" y="90">Consistently At Benchmark</tspan>
            </text>
            <text id="28-students" font-family="HelveticaNeue, Helvetica Neue" font-size="14" font-weight="normal" line-spacing="35" letter-spacing="-0.0700000003" fill="#0240FF">
                <tspan x="433.5" y="124">28 students</tspan>
            </text>
            <text id="34-students" font-family="HelveticaNeue, Helvetica Neue" font-size="14" font-weight="normal" line-spacing="35" letter-spacing="-0.0700000003" fill="#0240FF">
                <tspan x="433.5" y="194">34 students</tspan>
            </text>
            <text id="20-students" font-family="HelveticaNeue, Helvetica Neue" font-size="14" font-weight="normal" line-spacing="35" letter-spacing="-0.0700000003" fill="#0240FF">
                <tspan x="433.5" y="237">20 students</tspan>
            </text>
            <text id="15-students" font-family="HelveticaNeue, Helvetica Neue" font-size="14" font-weight="normal" line-spacing="35" letter-spacing="-0.0700000003" fill="#0240FF">
                <tspan x="433.5" y="267">15 students</tspan>
            </text>
            <text id="32-students" font-family="HelveticaNeue, Helvetica Neue" font-size="14" font-weight="normal" line-spacing="35" letter-spacing="-0.0700000003" fill="#0240FF">
                <tspan x="433.5" y="341">32 students</tspan>
            </text>
            <text id="23-students" font-family="HelveticaNeue, Helvetica Neue" font-size="14" font-weight="normal" line-spacing="35" letter-spacing="-0.0700000003" fill="#0240FF">
                <tspan x="433.5" y="377">23 students</tspan>
            </text>
            <text id="43-students" font-family="HelveticaNeue, Helvetica Neue" font-size="14" font-weight="normal" line-spacing="35" letter-spacing="-0.0700000003" fill="#0240FF">
                <tspan x="433.5" y="451">43 students</tspan>
            </text>
            <text id="19-students" font-family="HelveticaNeue, Helvetica Neue" font-size="14" font-weight="normal" line-spacing="35" letter-spacing="-0.0700000003" fill="#0240FF">
                <tspan x="433.5" y="491">19 students</tspan>
            </text>
            <text id="29-students" font-family="HelveticaNeue, Helvetica Neue" font-size="14" font-weight="normal" line-spacing="35" letter-spacing="-0.0700000003" fill="#0240FF">
                <tspan x="433.5" y="537">29 students</tspan>
            </text>
            <text id="Beginning-of-year" transform="translate(350.429688, 61.768667) rotate(-40.000000) translate(-350.429688, -61.768667) " font-family="HelveticaNeue, Helvetica Neue" font-size="11" font-weight="normal" line-spacing="35" letter-spacing="-0.0549999997" fill="#4A4A4A">
                <tspan x="307.914687" y="53.7686673">Beginning of year</tspan>
            </text>
            <text id="Middle-of-year" transform="translate(382.429688, 65.765625) rotate(-40.000000) translate(-382.429688, -65.765625) " font-family="HelveticaNeue, Helvetica Neue" font-size="11" font-weight="normal" line-spacing="35" letter-spacing="-0.0549999997" fill="#4A4A4A">
                <tspan x="347.774187" y="57.765625">Middle of year</tspan>
            </text>
            <text id="End-of-year" transform="translate(415.429688, 70.765625) rotate(-40.000000) translate(-415.429688, -70.765625) " font-family="HelveticaNeue, Helvetica Neue" font-size="11" font-weight="normal" line-spacing="35" letter-spacing="-0.0549999997" fill="#4A4A4A">
                <tspan x="387.720687" y="62.765625">End of year</tspan>
            </text>
            <path d="M-2.22044605e-16,147 L500,147" id="Line" stroke="#D8D8D8" stroke-linecap="square"></path>
            <path d="M-2.22044605e-16,299 L500,299" id="Line-Copy-9" stroke="#D8D8D8" stroke-linecap="square"></path>
            <path d="M-2.22044605e-16,404 L500,404" id="Line-Copy-10" stroke="#D8D8D8" stroke-linecap="square"></path>
            <g id="Group" transform="translate(1.000000, 0.000000)">
                <text id="School-year:-2014-20" font-family="HelveticaNeue, Helvetica Neue" font-size="15" font-weight="normal" letter-spacing="-0.0799023546" fill="#7E7B7F">
                    <tspan x="0" y="41">School year: 2014-2015</tspan>
                </text>
                <text id="DIBELS-Effectiveness" font-family="HelveticaNeue-Bold, Helvetica Neue" font-size="21" font-weight="bold" letter-spacing="-0.09942478" fill="#4A4A4A">
                    <tspan x="1" y="20">DIBELS Effectiveness Report</tspan>
                </text>
            </g>
        </g>
    </g>
</svg>