<?xml version="1.0" encoding="UTF-8" standalone="no"?>
<svg width="353px" height="391px" viewBox="0 0 353 391" version="1.1" xmlns="http://www.w3.org/2000/svg" xmlns:xlink="http://www.w3.org/1999/xlink">
    <!-- Generator: Sketch 41.2 (35397) - http://www.bohemiancoding.com/sketch -->
    <title>braves</title>
    <desc>Created with Sketch.</desc>
    <defs></defs>
    <g id="Page-1" stroke="none" stroke-width="1" fill="none" fill-rule="evenodd">
        <g id="braves">
            <g id="Washington_Redskins_logo">
                <g id="Group" transform="translate(176.250000, 189.500000) scale(1, -1) translate(-176.250000, -189.500000) translate(0.250000, 0.500000)">
                    <path d="M212.5,377.5 C155.375,377.5 106.25,342.875 85,293.375 L64.5,293.375 L64.5,288.875 L83.25,288.875 C77.375,273.5 74,256.75 74,239.25 C74,162.875 135.875,100.5 212.75,100.5 C289.125,100.5 351.5,162.375 351.5,239.25 C351.5,315.625 289.625,378 212.75,378 M75,285 L80.5,281.5 L81.75,285 M75,285 L80.5,281.5 L81.75,285" id="Shape" fill="#FFB612"></path>
                    <polyline id="Shape" fill="#FFFFFF" points="75 285 80.5 281.5 81.75 285 75.125 285"></polyline>
                    <path d="M212.5,120 C278.25,120 331.5,173.25 331.5,239 C331.5,304.75 278.25,358 212.5,358 C146.75,358 93.5,304.75 93.5,239 C93.5,173.25 146.75,120 212.5,120" id="Shape" fill="#FFFFFF"></path>
                    <path d="M137.5,250 C137.5,250 127.75,226.5 128.25,207.875 C128.25,207.875 131.25,214.875 132.375,213.625 C132.375,213.625 123.625,184.25 130.25,167.5 C130.25,167.5 131.625,172.125 134.125,175 C134.125,175 137.75,180.75 139.25,185.5 C139.25,185.5 140,183.5 140.375,180 C140.375,180 143.625,184.125 144.375,186.875 C144.875,189.125 146.375,191.5 147.375,194.375 L148.5,193.75 C148.5,193.75 155.125,201.75 157.625,209.125 C157.625,209.125 159.625,209.375 158.625,203.625 C158.625,203.625 164.125,209 164.25,217.25 L165.375,216 C170,210.25 170,201.375 169.875,195.875 C168.75,178.25 159.75,168.75 148.5,158.5 L149.5,157.625 C166.25,160.75 177.375,162.5 194.375,157.625 C200.875,155.75 216.5,148.625 224.125,143.75 C224.125,143.75 241,136.375 252.875,136.375 C252.875,136.375 253.375,136.125 253.375,136.75 C253.375,136.75 252.125,141.125 253.25,157.5 C253.25,157.5 254.5,165.125 255.5,170.375 C255.5,170.375 256.75,173.875 256.875,181.125 C256.875,181.75 256.25,186.125 259.25,185.625 C265.625,184.75 269.25,186.125 274.25,187 C274.25,187 279.5,188.5 281.625,188.75 C281.625,188.75 286.625,188 288.125,188.5 C289.875,189.125 291.625,190.5 293.875,192.625 C293.875,192.625 296.375,195.25 294.75,201.375 C294.75,201.375 293.125,206.875 294,208.625 C294,208.625 295.5,212.375 297.625,214.5 C297.625,214.5 299.125,217 297,218.375 C297,218.375 295.875,219.625 297.75,220.125 C297.75,220.125 299.125,220 300.125,220.5 C300.125,220.5 300.625,220.75 300.75,221.75 C300.875,222.875 301.375,228.375 297.625,233.125 C297.625,233.125 298.625,232.875 299.5,232.5 C299.5,232.5 304,232.125 306.375,233.25 C308.375,234.375 311.375,235.75 311,242.625 C309.875,248.25 307.625,251.625 305.375,258 C302.75,264.75 302.25,268.125 296.625,272.75 C293.25,274.25 291.75,276.875 294.25,279.375 C296.25,282.375 295.5,287.75 292,291.375 C288.625,294.75 286.125,300 284.875,302.625 C283.25,305.5 281.375,308.5 279.625,310.375 C278,312.5 275.375,313.75 270.875,319.125 C270.875,319.125 268.25,321.5 267.75,324.125 C264,330 253.375,338.375 241.25,339.25 C237.75,339.625 237.75,339.625 235.25,340 C231,341.5 217.75,342 208.75,339.375 C205.875,338.75 200,337.625 200,337.625 C196.875,336.625 192.5,335.75 187.75,332.875 C184.25,331 179,326.625 175,323.875 C170.75,319.625 161.375,313.5 156.125,309.875 C146,302.375 137.25,292.5 132.125,286.375 C132.125,286.375 119.25,270.25 113,242.5 C112.625,238.25 111.5,234.25 112.125,229.5 C112.125,229.5 117.75,241.75 123,245.625 C123,245.625 122.25,243.375 121.875,239.75 C121.875,239.75 124.5,244.75 125.75,245.5 C125.75,245.5 127.75,247.625 130.5,251 C130.5,251 136.375,258.75 138.125,259.625 C136,255.5 135.5,252.875 135.25,248.625 C136.125,249.5 136.75,250.125 137,250.625 C137,250.625 137.5,251.75 138.125,251.5 C138.375,250.75 138,250.25 138,250.25" id="Shape" fill="#000000"></path>
                    <path d="M307.5,237.5 C309,240.625 308.75,243.625 306.625,247.25 C305.375,249.375 304.5,251.75 303.5,254.75 C303.125,256 302.25,258.375 301.25,260.5 C301.125,261.375 299.375,265.25 298.25,266.875 C295.375,271 293.125,271.375 291.5,273 L290.875,273 C289.25,271.875 289.25,269.5 287.875,267.625 C287.75,267.375 287.25,267.125 287,267.375 C286.5,267.625 286.375,268 285.875,268.75 C285.375,269.5 285,269 284.5,268.375 C284.125,268.375 283.875,268.125 283.625,267.875 C283.125,267.375 283.5,267.125 283.875,266.625 C284.25,266.125 283.875,266.125 284.125,265.875 C284,265.625 284,265.625 283.875,265.5 C283.75,265.25 283.25,265.25 282.875,265.375 C282,265.5 282.125,265.5 281.375,265.875 C280.375,266.375 279.875,267.75 279.125,268.125 C278.875,268.25 278.125,268.375 277.5,268 C277,267.75 276.875,267 277.25,266.625 C277.875,266 278.375,265.375 279.125,264.75 C280.125,264 281.125,263.5 281.25,262.5 C281.375,261.25 279.5,260.75 278.625,261.375 C278.125,261.75 277.625,262.125 277.125,262.625 C277,262.75 277,263.125 276.875,263.25 C276.5,263.625 276,263.875 275.75,264.25 C275.375,264.875 274.875,265.5 274.125,265.75 C274,265.75 273.75,266.125 273.75,266.25 C273.375,266.875 273.75,267.5 273.5,268 C273.25,268.375 273.25,269.125 272.625,268.875 C272,268.25 272.125,268.25 271.5,268.375 C270.75,268.5 271.375,270 271.375,269.75 C271.375,269.625 271.375,269.75 271.625,270.25 C271,270.375 270.25,270.875 270.875,271.75 C271.375,272.5 272,271.375 272.125,271.875 C272.25,272 272.625,272.875 272.875,273 C273.5,273.375 273.75,272.875 273.75,272.75 C273.5,272 274.25,271.5 275.125,271.875 C275.25,271.875 275.125,272.5 275.25,272.625 C276,273.875 277.125,274.5 278.25,275.375 C278.375,275.5 278.625,275.5 278.75,275.625 C279.125,276.25 279.5,277.25 278.75,277.625 C278.125,277.875 276.875,277.625 277.125,278.75 C277.25,279.25 277.875,279.5 278.25,279.625 C279.625,280.25 281,280.875 282.375,281.375 C282.75,281.5 283.25,282 283.75,282 C285.5,282.125 285.125,282.125 287.25,281.75 C287.625,281.625 288.375,281.25 288.75,281.125 C289.875,280.75 291.5,280.875 292.25,282.125 C293,283.375 292.75,285.375 292,286.75 C291.125,288.5 289.75,290 288.5,291.125 C287,292.625 285,293.375 284.625,295.5 C284.125,298 282.125,301.375 281,303.5 C279.875,305.625 278.75,307 277.25,308.875 C276.875,309.375 274.75,311.5 274.375,311.875 C271.875,314.25 270.875,315.125 268.125,316.125 C266.75,316.625 261.5,316.25 258.75,316.625 C257.875,316.75 255.25,316.75 254.5,318.25 C253.875,319.5 253,321.375 251.625,322.25 C251.125,322.625 250.375,322.875 249.875,323.125 C247.375,324.375 244.875,326.5 242.125,326.375 C241.125,326.375 242.125,325.25 242.375,325.125 C243.625,324.5 244.125,323.75 244.75,323 C245.5,322.25 247,322.125 248.25,321.625 C249.5,321.125 250.5,320.375 251.625,319.75 C252.75,319.125 254.125,317.25 253,316.5 C251.875,315.75 250.75,316.625 249.375,316.25 C249.125,316.125 248.625,316 247,316 C244.75,315.75 244,316.75 242.375,318 C240.625,319.25 239.625,321.125 238,322.25 C236,323.625 233.875,324.875 231.625,325.625 C231.125,325.75 230.5,325.5 230,325.75 C229.125,326.25 228.625,327.125 227.625,327.25 C225.875,327.375 225.875,327.5 224.25,327.25 C224,327.25 223.375,326.5 223.125,326.5 C222.125,326.5 221,326.75 220.5,326.25 C219.75,325.375 220.625,325.5 221.625,325 C222.25,324.75 223.375,324.125 224.125,324.125 C227,324.125 228.75,324.25 231,323 C231.25,322.875 232.25,321.875 232.375,321.5 C230.25,321.5 226.875,322.375 224.5,322.125 C228.625,322.5 220.25,322 218.5,322.125 C218,322.125 218,321 218.75,320.375 C219,320.25 220.25,320.5 220.375,320 C221.125,320.375 223.25,320.25 223.875,320 C224.875,319.625 224.375,319.75 225.25,319.25 C225.875,319 226.375,318.5 227,318.625 C227.875,318.75 227.875,320 228.75,319.625 C229,319.5 229.75,319.125 229.875,319.125 C234.75,319.25 234.875,317.75 237.125,317.75 C237.75,317.75 238.625,318 239,317.75 C239.875,317.125 240.75,317 242.25,317.625 C242.25,317.625 245.5,308.875 244.625,293 C243.75,286.25 243.375,285 241.875,279.5 C241.875,279.5 239.625,270.75 240.5,264.75 C241.375,244.25 235.125,227.375 228.375,216.125 C225.875,213 224.375,211.375 227,209.125 C232.375,204.25 236.75,203.125 244.375,201.375 C247,200.5 248.75,200.25 251.25,200.25 C255.25,200.25 261.375,198.625 264.25,196.5 C266.875,195.125 274.125,192.375 278.5,193.125 C282.25,192.875 283.5,192.625 285.25,191.875 C286.5,191.25 287.75,191.25 289.25,191.75 C290.5,192.625 289.875,192.25 291.5,193.375 C291.75,194.125 293.875,195 293.375,197.875 C293.25,200 292.375,202.125 292,204.125 C290.75,205.875 290.875,207.125 291.25,209 C292.5,211.5 294,212.875 294.75,214.125 C296.5,216 295.5,217.375 293.125,218 C292,218.5 289.875,218.25 287.625,218.5 C286.375,218.5 285.5,219 283.75,218.625 C283.75,218.625 282.625,217.875 282,217.25 L281.125,217.75 C281.125,217.75 281.875,220 283.5,221.375 C285.125,221.125 287.5,220.875 288.75,221.25 C290.25,221.875 291.875,222.125 293.125,222.625 C295.25,222.875 296.25,222.75 298.75,222.5 C298.75,222.5 300,228 295.625,232.125 C294.625,233.125 293.75,234.375 292.125,234.5 C286.75,233.875 283.75,236 283,236.625 C281.625,236.75 281.25,236.125 280.5,235.25 C278.625,232.125 276.5,231.125 276.5,231.125 L275.375,231.25 C275.375,231.25 276.375,233 278.625,235.75 C279.625,238 281,240.875 282.25,242.25 C283,243.625 283.25,246.625 285.125,247.5 C286,247.5 286.125,247.75 286.875,247.25 C285.5,245.875 281.5,241.125 285.625,238.125 C287.375,236.75 289.875,236.75 290.5,238.25 C290.875,239 291.5,239.625 291.875,239.875 C294,240.25 295.75,239.25 296.5,238.625 C298.25,236.625 299.125,235.75 300,235.375 C300.875,234.625 302.625,234.75 303.5,234.75 C306.25,235.25 307.75,236.75 308.25,237.75" id="Shape" fill="#5B2B2F"></path>
                    <path d="M277.5,271.25 C278.375,270.75 278.75,271 280.375,270.75 C280.375,270.75 281.875,270.5 283.25,271.75 C283.5,272 284.625,272.5 284.625,273 C284.5,275.125 284.75,271.625 284.375,274.875 C284.25,275.5 284.25,276.25 284,276.875 C283.875,277.25 283.25,277.875 282.375,277.625 C282.25,277.625 280.875,276.375 280.75,276.375 C280,274.875 278.75,274.75 278.25,273.75 C277.75,272.875 277.5,272.625 277.25,272.125 C277.125,271.875 277,271.625 277.375,271.375" id="Shape" fill="#5B2B2F"></path>
                    <path d="M291.25,250 C293.75,250.75 294.875,249.625 297.5,247.875 C298,247.5 298.375,246.75 297.625,246.25 C297.375,246.125 296.875,246.125 296.75,246.25 C294.375,248.5 293.625,248.5 291.125,249 C291,249 290.625,249.75 291.25,250" id="Shape" fill="#000000"></path>
                    <path d="M276.25,225 C275.875,223.875 275.5,222.875 275,221.875 C274.5,220.75 274.75,219.5 274,218.5 C273.625,218.125 272.75,218.25 272.625,218.75 C272.125,220.625 272.375,222.75 273.25,224.5 C273.75,225.375 275,225.875 276,225.5 C275.875,225.25 276.25,225.125 276.125,224.875 L276.125,225" id="Shape" fill="#000000"></path>
                    <path d="M252.5,237.5 C251.75,237.75 251.25,238.5 251.375,239.375 C251.625,239.25 251.375,239.625 251.625,239.625 C253.375,239.5 254.875,238.875 256.625,238.75 C258.5,238.75 260.5,239.125 262.25,239.875 C264.375,240.875 266.25,242 268.375,243.375 C269.25,244 270.625,244.375 271.875,244.625 C273.75,245 273.625,246.125 275,246.875 C277,248 276.875,248.875 278,248.5 C278.375,248.375 277.625,247.625 277.375,247.375 C276.625,246.75 275.625,246 275,244.875 C274.875,244.625 273.875,243.5 273.625,243.375 C271.375,241.625 270.875,240.25 269.125,238.125 C268.125,237 267.875,235.375 267.25,234 C266.875,233.25 266.625,232.375 266.125,231.625 C265.875,231.375 265.125,231.5 264.875,231.25 C263.5,229.875 262.125,228.625 261.125,226.875 C261,226.625 260.375,226.625 260.25,226.75 C259.375,228.5 258.125,229.75 256,229.875 C255.625,229.875 255.25,230.75 255.25,231.5 C255.25,231.625 255.125,232 254.875,232 C254.5,232.125 254.375,232.375 254,232.375 C253.625,232.375 253.375,233 253.25,233.25 C252.875,234.625 253,236.125 252.75,237.625 L252.875,237.625" id="Shape" fill="#000000"></path>
                    <path d="M221.25,198.75 C220.875,200.125 218.625,200 217,199.875 C214.5,199.625 212.25,199.25 209.875,197.875 C211.5,200.25 213.375,200.375 217.125,201.875 C218,202.25 217.75,203.625 217.25,204.5 C216.625,205.5 215.875,205.5 215.5,205.625 C212.5,206.25 211.5,205.5 209.875,205.125 C204.25,203.75 198.75,199.5 195.75,195.375 C194.875,194.25 195.125,193 195.375,192.75 C195.875,192 196.875,189.875 197.125,190.125 C199.375,192.625 202.125,194.875 205.125,194.125 C203.875,193.75 199.375,191.5 198,188.125 C197.875,187.875 198.625,186.75 199.375,186.125 C200.5,184.25 200.875,183.5 201.625,183.125 C202,183.125 202.875,184 203.125,184.375 C206.25,188.5 209.375,191 218,192.25 C220.5,192.625 221.875,193.375 222.125,195.625 C222.125,195.625 222.625,196.75 221.625,199" id="Shape" fill="#FFFFFF"></path>
                    <path d="M211.25,185 C211.375,182.875 211.125,181.875 211.625,180.5 C212.25,179.25 213.375,178.125 213.875,176.75 C214.25,175.75 215.5,174.375 215.5,173.75 C216.125,173.125 216.125,172.625 216.125,172.625 C216.875,171.625 219.125,170.5 218.375,169.875 C217.5,169.125 214.75,169.625 213,170 C210.875,170.375 212.125,168.375 212.625,168.25 C214.75,167.375 219.375,167 220.75,166.25 C221.625,165.75 222.875,165 223.25,164.125 C223.5,163.5 224,162.875 224.5,162.375 C226,160.5 226.5,159.625 227.875,158.375 C228.625,157.75 229.5,156.75 229.25,155.875 C229,154.75 228.25,154.625 227.25,154.75 C226.875,154.75 225.875,155.125 224.875,155.5 C222.875,156.125 222.5,156.875 221.125,156.125 C220.375,155.75 221.5,154.375 222.375,154 C225.875,152.125 230.25,152.125 233.625,150.125 C236.625,148.375 238.375,146.375 238.25,142 C238.25,141.875 239.25,141.375 239.375,141.375 C240.375,143 243,141 244.125,141.375 C244.25,141.375 244.25,142.125 244.125,142.375 C243.5,143.25 242.25,143.25 241.75,144.125 C241.125,145 242,146 241.75,146.75 C241.5,147.5 240.125,146.125 239.625,146.75 C237.375,149.125 235.875,151.875 232.875,153.25 C234.125,156.75 234.75,160.75 234.375,162.625 C233.5,163.375 233.125,162.25 233,162 C232.25,161.375 232.625,159.875 231.75,158.75 C231.625,158.625 230.5,158.75 230.25,159 C228.125,160.75 226.25,162.875 225.25,165.375 C225.25,165.5 224.75,166 224.75,166.125 C223.25,168.25 223.375,171.25 225.125,173.375 C225.375,173.625 225.625,174.875 225.375,175.125 C225.125,175.375 224.375,174.875 224.125,174.625 C223.125,173.625 222.375,171.625 220.75,171.875 C218.875,172.125 218.25,173.875 217.125,175.125 C216.75,176.375 216.125,177.125 216.25,177.25 C214.75,179.5 214.625,181.375 213.125,184.125 C212.75,184.75 212.375,185.125 211.75,185.25" id="Shape" fill="#FFFFFF"></path>
                    <path d="M221.25,147.5 C223.125,146.625 221,148.75 221,148.75 C220.25,149.25 218.625,151.875 218.25,152.375 C217.5,153.75 216.875,154.875 216.5,155.875 C215.75,157.625 214.375,158.75 212.125,161 C211,162.125 209.25,164 208.5,165.5 C207.375,167.75 206.75,171.625 204.125,173.5 C202.125,175 202.625,176.625 200.75,179.375 C200.125,180.5 198.625,180.5 197.625,181.625 C195,184.25 196.625,185.25 194.375,187.625 C193.375,188.625 193,188.875 192.125,190.5 C191,192.5 191.875,195.25 190,196.125 C188.375,197 187,197.25 185.875,197.625 C184.125,198.25 181.25,199.625 179.625,200.875 C178,202.125 174.5,205 170.875,208.25 C173.125,190.875 170,176.125 152.875,160.625 C184.75,166.5 198.75,159.125 221.375,147.5" id="Shape" fill="#5B2B2F"></path>
                    <path d="M233.75,170 C233.875,168.625 234.375,168.875 235.125,166.875 C235.5,165.875 236.625,164.25 237.25,163.75 C240.5,161 242.75,156.75 242.5,152.5 C242.625,150.375 242.75,150.5 244.875,149 C245.25,148.75 245.375,148.75 246.5,147.625 C246.875,147.25 250,144 250.375,143.625 C250.25,144.875 250.5,147 250.5,147.75 C250.25,154.375 251.625,161.25 249.375,167.125 C247.75,171.5 243.875,176.375 242.375,180.875 L241.625,183.375 C240.875,186.875 240.75,190.625 240.75,190.625 L236,192.875 C232.25,194.375 228.125,195.75 224.375,197.125 C224.375,195.125 224.625,193.75 223.125,191.75 C224.125,189.375 225,184.125 226.125,182.75 C228.625,180.375 230.625,178.625 232.25,173 C232.625,171.625 233.75,171 233.75,170" id="Shape" fill="#5B2B2F"></path>
                    <path d="M176.25,320 C176.25,320 173.375,320.25 166.75,315.25 C159.375,310.75 149.75,304.25 142.625,295.625 C137.5,290.5 130.25,282.625 127.5,277.125 C127.5,277.125 123.125,270.25 120.375,258.875 C120.375,258.875 121.375,255.25 124.25,260 C129.125,268.375 147.875,296.625 174.75,317.125 L176,317.25 C162.75,305.875 145.5,290.5 128.875,264.25 C128.25,263.25 127.5,261.5 127.375,261.375 C126.625,260 128.5,259.75 127.625,260 C129.125,259.625 129.75,261.75 130.75,262.125 C131.375,262.375 131.625,260.625 132.625,261 C136,262.625 138.625,266.125 140,268.25 C140.125,267.625 140.875,265.875 140.875,265.875 C142.375,265.5 147.25,272.125 149.75,276.625 C150.5,275.75 149.625,273.75 150.5,274.625 C153.375,277.375 156,280.25 157.5,283 C159.25,286.125 161.25,287.5 162,293 C163.125,292.25 163.125,292 163.375,291.75 C164.125,292.625 164.125,293.5 165.25,294.75 C166.5,296.125 166.75,297.25 168.25,298.125 C168.75,298.5 170,300.625 170.25,301.875 C170.5,303 172.875,306.5 173.125,307.75 C175.125,311.375 178.5,313.375 180.875,316.25 C183.125,318.25 181.5,321.75 176.625,319.875" id="Shape" fill="#FFFFFF"></path>
                    <path d="M151.25,210 C152.25,208.875 153.125,210.375 153.125,210.375 C154.75,212.875 155.125,213.5 156.25,216.75 C157,219 157.75,219.75 158.5,228.875 C160.5,225.875 160.75,220.25 160.75,220.25 L161.375,220.375 C161.375,220.375 163.25,225.625 166.375,227.25 C166.375,227.25 166.625,230.75 169.75,234.25 C169.375,236.375 169,238.125 168.625,241.5 C167.375,247.125 166.625,256.625 167.875,263.125 C170.375,249.625 171.875,247.625 171.875,247.625 L172.5,247.375 C173.5,249 173.875,251.875 174.125,254.375 C175.375,259.75 177.625,259.125 177.625,260.25 C176.875,264.625 175.75,271.5 176.5,277.5 C177.875,271 178.625,271.5 179.625,269 C180.875,266 181,269.75 181,269.75 C180.75,273.5 183.375,277.375 180.875,286.25 C179.875,292.375 177.125,305.25 178.25,308.25 C179,311.875 177.625,310.625 177.625,310.625 C177.625,310.625 174,309.75 168.5,294.25 C160.5,268.5 153.5,241 146.125,218.625 C148.375,230.375 160.375,271.625 163.875,286.625 C163.875,286.625 163.375,287.625 162.625,286.5 C161.75,285.5 160.75,284.125 160.25,283.25 C160.375,283.25 159.875,283.125 159.25,282.875 L157.5,280.25 C157.5,280.25 154,275.375 144.375,265.25 C142.75,262.75 142.125,261.5 140.25,257.5 C139.625,256 140.625,255.875 141.625,256.625 C144.25,259.125 144.375,259.125 148,261.875 C148.125,262 151.125,263 151.125,263.125 C150.625,262.5 150.125,262.125 149.875,262 C148.875,261 146.5,258.25 145.75,257.125 C144.125,254.25 142.375,250.75 140,246.5 C137,241.125 134.75,235 134.75,235 C133.25,230.625 133.625,230.25 133.625,230.25 C135.75,229.375 134.625,228.375 134.625,228.375 C133.625,226.625 133.25,225.25 134.875,225.875 C135.875,226.125 136.5,226.625 137,227.125 C137.875,228.125 138.5,228.875 139.125,229.625 C140.125,230.75 139.875,231.125 140.875,232.375 C142.25,233.875 143,235.125 144.375,235.75 C142,232.625 141.875,230.375 141.875,230.375 L142.5,229.625 L142.875,229.375 C142.875,229.375 140.5,226.375 139.375,219.75 C138.875,216.625 139,216.125 138.5,214.375 C138.75,214.625 140.125,214.375 141.375,215.625 C140.875,213.625 140.75,212.625 140.75,212.625 C140.5,211 140.5,211.25 140.5,209.5 C140.5,207.75 140.5,208.5 141.125,206.5 C143.625,207.625 144.25,207.5 146.625,210.25 C147.75,211.375 148.625,213.875 149,213.75 C149.625,213.5 149.125,212 148.875,211.375 C148.5,210.5 148.125,209.875 148,209.25 C147.875,208.875 147.625,208.5 148.125,208 C148.375,207.75 148.25,207.875 148.875,207.875 C149.25,207.875 149.75,208.5 149.75,208.5 C149.75,208.5 150,208.5 150.25,209 C150.375,209.375 150.75,209.625 151,209.875 C151,209.875 151.375,210.25 151.875,210.125" id="Shape" fill="#FFFFFF"></path>
                    <path d="M68.75,277.5 C64.125,270.875 60.75,260.5 59,253 C61.125,254.125 61.25,254 63.25,254.75 C64,258.25 69.5,278.625 68.75,277.625 L68.75,277.5 Z M96.125,47.5 C99,40.625 99.375,34 96.875,21.125 C94.125,23.75 93.875,26.25 91.75,27.5 C91.5,20.125 91.25,17.875 89.75,14.625 C86.75,8.875 86,5.875 85.75,0.25 C80.875,4.375 79.5,10 76.125,13.25 C73.75,15.625 69,20.125 67.25,23.125 C67,19.625 67.25,18.375 65.875,15 C64.75,18.875 64.625,20.125 61.875,23.375 C58.375,28.375 50.5,39.25 48.625,51 C48.25,53 47.125,58.75 45.875,66.625 C44.875,64 43.25,61.875 41.5,61.375 C40.625,61 40.625,62.125 40.625,62.125 C41.375,64.625 41.625,67.5 41.375,69.625 C41,72.75 40.125,79.625 38.625,81.375 L37.875,81.375 C38,76.75 36.25,74.625 35,73 C34.875,76.625 35,79.5 34.125,81.375 C33.75,82.625 32.75,83.75 32.5,82.5 C31.75,78.875 31.5,78.125 31.5,74.75 C31.25,69.625 31.25,68 30.625,63.75 C30.375,60.625 29.375,56.875 26.5,53 C26,56.375 23.875,59.125 23.875,59.125 C23.875,55 24.75,49 22.25,45.75 C19.125,41.5 18.75,39.375 17.75,36.25 C17.375,39.875 16.25,38.75 15.625,40.75 C13.375,31.125 6.375,23.875 3.75,22.125 C5.5,26.125 6.875,30.625 7.125,33.375 C7.125,33.375 6.75,43.875 5.125,49.75 C1.25,68.25 -0.625,110.875 2.375,127 C9.375,184.75 39.125,237.625 64.5,285.75 L61.375,285.75 L61.375,296.875 L64.75,296.875 L69.375,307.125 L72.375,304.75 L78.625,323.875 L81.375,309.875 L93.375,319.25 L83.625,297.125 L87,297.125 C86.5,296 85.875,294.875 85.375,293.625 L64.875,293.625 L64.875,289.125 L83.625,289.125 C83.25,288 82.875,286.875 82.375,285.75 L75.75,285.75 L81.25,282.25 C80.875,281.125 80.5,280 80.25,279 L77.875,280.625 C76.875,276.125 73.625,260.75 74.375,251.625 C83,243.25 89.375,235.25 88.375,217.25 C88.375,217.25 89,216.875 85.25,218 C87.125,216 87.625,214.5 89.25,211.125 C90,205.625 90.375,200.75 90,195.625 C90,195.625 90.375,183.125 90.875,179.125 C92.625,178.5 91.625,174 91.75,168.125 C91.75,168.125 91.625,164.5 91,161.625 C87.5,164.5 87.75,164.25 86.75,164 C87.625,161.125 88.125,161.125 89.875,158.875 C89.875,142.125 90.5,124.75 91.625,117.125 C92.125,111.625 93.125,105.25 93.625,103.25 C94.5,100.75 94.5,98.5 97,93.125 C96.125,93.125 93.75,93 92.25,95.125 C94.5,90.875 94.5,91.75 95.875,90.375 L97.875,75.75 L95.625,73.25 L98.75,71.25 C98.75,71.25 98,64.625 98.875,58.5 C99.25,55.625 100.125,52.875 102.125,48.875 C98,48.75 97.375,52.125 97.375,52.125 C96.25,53.375 94.25,56.25 93.75,56.25 C93.5,52.125 95.75,50.625 96.75,48.25 L96.125,47.5 Z" id="Shape" fill="#000000"></path>
                    <g transform="translate(3.750000, 70.000000)" id="Shape" fill="#FFFFFF">
                        <path d="M31.25,35 C31,41 30.125,46.75 29.5,50.5 C28.875,52 29.5,52.375 30.375,52.625 C30.625,52.75 33.75,56.75 33.75,58.875 C31.125,57 30.375,56.625 27.875,54.875 C27.625,61 24.875,70.5 22,78 C25.125,75.125 27.125,72 28.125,69.25 C29.25,75.5 29.625,79.125 29.875,82.125 C28.375,87.625 25.375,99.625 25.625,108.5 C27.5,102 29.125,95 31,90.75 C31.875,93.875 32.5,99.375 33.625,104 C35.125,105.125 37,106.25 37.625,107.25 C37,108.25 34.625,106.375 34.25,106.25 C34.5,110.625 35.25,119.125 32.25,132.875 L32.625,133.25 C33.875,132.625 35.5,130.125 36,127.5 C38.5,130.5 40.25,145.125 41,150.875 C38.375,150.875 37,147.875 35.25,148.25 C35.5,150.125 35.625,149.25 36.375,150.875 C37.125,152.875 38.75,154.875 39.5,157.5 C41,159.75 41,162.5 41.25,165 C41.25,167.375 41,170.875 43,174 C43.375,172.75 43.125,171.875 44.125,169.25 C44.125,169.25 48.125,177.875 50.25,179.875 C53.125,192.125 59.875,206 66.125,215 L63.125,215 C59.625,210.25 35.375,164.5 33,156.25 C14.375,118.875 2.375,81.625 0.125,44.875 C0.25,43.625 0.25,44.375 0.875,43.375 C1.375,42.375 1.125,41.125 1.5,40 C1.875,40.5 2.625,40.75 2.625,41.375 C3.125,39.125 1.625,37.125 2.375,34.875 C3.25,35.625 4.5,35.875 5.25,36.875 C5.125,36 5,35.125 4.875,34.375 C4.625,32.875 5.25,31.375 5.375,29.875 C5.625,28 8,26.5 7.375,24.625 C6.25,21.5 5.625,18.25 6.625,15.375 C6.875,14.75 7.125,13.75 7.875,13.375 C8.375,13.125 9.25,13.125 9.75,13.375 C10,13.5 10.25,14 10.375,14.375 C10.625,15.75 10,17 10.25,18.25 C10.625,20 10.875,21.625 11.875,23 C12.125,23.25 12.875,23.125 13.125,22.75 C13.875,21.125 13.5,19.25 14.5,17.875 C14.875,17.375 16,17 16.5,17.625 C17.875,18.875 17.375,20.75 17.5,22.375 C17.75,25 16.5,26.5 16.25,29.125 C15.875,31.625 16.375,32 17.25,33.125 C18.125,30.75 18.125,28.25 19.875,26.125 C20.25,25.625 20.875,25.625 21.25,25.875 C22.5,27 22.25,29.25 21.375,30.75 C20,33 18.875,36.625 21.375,38.75 C21.25,37.625 21.25,36.25 21.875,35.375 C22.75,34.25 24.25,31.75 24.375,29.375 C24.5,28.5 25.625,28.25 26.375,28.875 C26.5,29 26.375,29.5 26.75,29.625 C28,29.75 28.5,28.375 28.5,27.375 C29,27.375 29.625,27.25 29.875,27.5 C31,28.625 30.75,31.5 30.75,33.125 C30.875,36.125 31.5,35 32,35.25"></path>
                        <path d="M82.5,21.25 C83.25,20.5 85.25,21.5 85.875,20.625 C85.75,21.125 85.625,21.625 85.375,22 C80.125,28.25 75.25,34.75 75.5,39.625 C79,34.5 82,31.5 84.75,29.5 L84.875,30.5 C82.875,43.25 82.875,48.875 81.875,60.875 C78.75,63.375 71.75,71 73.125,77.5 C75.5,73 78.25,69.5 80.75,68 L81.75,67.25 C81.5,69.5 81.875,82.375 81.875,86.25 C80.125,88.625 78.125,91.5 76.625,94.25 C75.25,97.125 73.625,99.875 69.75,104.5 C66.5,109.375 61.5,113.625 61.5,113.625 C61.5,113.625 62.5,113.5 63,113.5 C64.5,113 66.375,112.375 69.125,110.5 C70.125,110.125 71.625,108.125 74.125,105.75 C75.875,104.125 76,103 76.875,102.5 C78.375,101.125 80.375,99.375 82.25,98 L82.875,98 C83.25,96.375 83.125,108.5 83.125,108.5 C81,112 79.375,116.125 77.5,120.875 C77.25,122.625 78.5,119.875 80.875,118.625 C81.625,121.125 80.25,133.625 80.125,142.125 C79.375,144.75 69.5,158.625 69,162.125 C72.375,156.625 76.875,155.875 78.625,153.75 C79,153.375 79.125,153.25 79.625,153.5 C79.375,167.75 73,174.625 67.125,179.75 C66.25,192.875 70.625,211.625 70.625,211.625 L68.25,213.125 C57.25,167.5 52.125,140.375 51,106.5 C49.75,71.625 53,37.25 61.375,5.125 C61.75,3.875 62.125,2.625 62.5,1.375 C62.75,1 63.125,0.625 63.625,0.875 C64.25,1.125 64.375,1.875 64.375,2.375 C64.75,4.625 65,7 66,8.875 C66.125,9 66.5,9.5 66.75,9.75 C67.5,10.75 67.75,11.875 68,13.25 C68,13.625 68.375,13.875 68.5,14.125 C69.25,14.75 70,13.875 70.375,13.25 C71.125,12.25 70.75,11 71.375,10 C73,7.375 74.875,5.25 76.875,3 C77.375,2.5 78.25,1.75 79.25,2.125 C79.5,2.25 79.875,2.5 79.875,2.625 C80.25,3.625 79.375,4.625 79,5.5 C78.375,6.75 77.125,8.375 77.875,9.75 C78.125,10.125 79.125,9 79.625,9.5 C80.125,10 80.125,10.875 80,11.625 C79.75,12.5 79.375,13.375 79,14.125 C77.625,17.125 76,19.875 75.125,22.875 C75,23.25 74.875,23.75 74.875,24.25 C75.375,23.125 76.625,22.375 77.125,21.375 C77.25,21.125 77.625,20.875 77.75,20.625 C78.5,19.625 79.75,19.25 80.25,18.25 C80.875,16.875 81,13.875 83,14.25 C83.625,14.375 84.75,15 84.25,16 C83.875,16.875 83.75,17.75 83.125,18.375 C82.625,19 81.75,19.375 81.375,20 C80.75,21.125 80.25,22.625 80.875,23.875 C81,22.75 81.875,22.125 82.625,21.375"></path>
                        <path d="M41.25,7.5 C42.375,12.375 43.375,16.875 46.125,21.125 C46.375,21.625 46.875,21.75 47.25,22.125 C47.5,19.375 47.125,16.625 48.875,14.125 C49.625,13 50.75,13.25 52,13.25 C52.75,10.625 54.625,8.625 55.375,6 C55.5,5.5 56.125,5.125 56.75,5.375 C57.75,5.75 58.75,6.25 59.25,7.25 C59.25,7.25 59.375,7.375 59.375,7.5 C50.25,37.75 47.875,78.75 49.375,113.625 C51.125,139.25 53,158.125 58.75,181.125 C58.75,181.125 56.875,180.375 55.875,180 C53.875,179 53.125,178 51,175.375 C50.125,173.5 49,172.75 48.375,170.625 C45.875,165.5 45.375,161.625 44.125,158 L45,158.125 C47.75,161.75 52,165 53,166 L54.375,166.75 C52.375,161.625 49.75,160.375 47,155.75 C43.375,148.125 39.75,119.625 38.125,111.75 L39.875,112.375 C41,113 42.875,114.875 48.375,116.875 C51.25,119.125 39.125,106.5 37.5,102.25 C36,91.25 33.75,73.125 33.375,65 L34,65.125 C34.875,65.75 41.5,73.75 44.125,74.75 L45,75.625 C43.625,73.5 38.875,64.375 38,61.375 C37,58.5 35.75,55.5 34.625,52.75 C34.25,51.875 33.75,51.25 34,50.25 C34,44.5 34.625,39 35.125,36.125 L35.875,35.125 C36.5,36.625 39.25,39.5 41,40.375 L41.125,39.5 C39.625,35.875 37.625,32.5 36.875,30.625 C36.875,23.625 37.75,15 39.25,8.125 C39.375,7.125 40.625,7.25 41.25,7.75 L41.625,8"></path>
                    </g>
                    <path d="M92.5,43.75 C90.5,48.25 87.25,54.5 89.5,63.625 C90.875,60.375 91.875,60.5 94.125,60 C94.5,63.375 94,68.125 94.125,68.75 C93.25,70.25 91.25,72.125 91.25,72.125 L93.375,76.25 C94.375,80.375 92.375,83.625 92.625,84.25 C91.625,86.625 90.875,88.625 90.375,90.125 C90,91.375 87.75,90.125 86.875,90.875 C86.125,91.625 85.25,92.25 85.125,93.375 C84.5,92 85,90.625 85.625,89.5 C86,88.875 86.75,88.5 87.375,87.875 C88,87.25 88.125,86.375 88.5,85.5 C89,84.375 87.875,83.875 87.25,83.75 C85.25,83.375 85.125,86.375 84.5,87.75 C84,88.75 82.75,89.125 82,90.125 C81.875,90.375 81.5,90.625 81.375,90.875 C80.75,91.875 79.625,92.625 79.125,93.75 C79,93.25 79.25,92.75 79.375,92.375 C80.375,89.25 82,86.5 83.25,83.625 C83.625,82.75 84,82 84.25,81.125 C84.5,80.375 84.375,79.5 83.875,79 C83.375,78.5 82.375,79.625 82.25,79.25 C81.5,77.875 82.625,76.375 83.375,75.125 C83.875,74.25 84.75,73.25 84.25,72.25 C84.125,72 83.875,71.75 83.625,71.75 C82.625,71.5 81.75,72.125 81.25,72.625 C79.125,74.875 77.375,77 75.75,79.625 C75.125,80.625 75.5,81.875 74.75,82.875 C74.375,83.5 73.625,84.375 72.875,83.75 C72.625,83.5 72.375,83.25 72.375,82.875 C72.125,81.625 71.875,80.375 71.125,79.375 C70.875,79.125 70.5,78.625 70.375,78.5 C69.25,76.5 69.125,74.25 68.75,72 C68.625,71.5 68.5,70.75 68,70.5 C67.5,70.25 67.125,70.625 66.875,71 C67.125,70.125 67.375,69.25 67.625,68.5 C67.625,68.375 67.625,68.25 67.75,68.25 C68,67.5 68.125,66.75 68.375,66 C68.375,65.875 68.5,65.75 68.5,65.625 C68.75,64.875 68.875,64.25 69,63.75 L69,63.5 C69.125,62.875 69.25,62.375 69.25,62.125 C69,62.5 68.875,63 68.625,63.5 C68.5,63.625 68.5,63.875 68.375,64.125 C68.25,64.5 68.125,64.875 67.875,65.25 C67.75,65.5 67.75,65.75 67.625,66 C67.5,66.25 67.375,66.5 67.375,66.875 C66.125,70.125 64.875,73.5 63.875,77.125 C63.875,77 63.75,77 63.75,76.875 C63.125,75.875 62.25,75.5 61.25,75 C60.75,74.75 60.125,75.25 60,75.625 C59.375,78.375 57.375,80.375 56.625,83 C55.5,83 54.375,82.75 53.5,83.875 C51.875,86.375 52.125,89.125 51.875,91.875 C51.5,91.5 51,91.375 50.75,90.875 C48.125,86.625 47,82.125 45.875,77.25 C45.625,76.25 45.5,75.875 45.25,75 C44.625,73.125 45.625,72.875 46.625,74.125 C48.375,76.375 48,74.5 48.125,74 C48.5,70.75 50.25,67.5 51,62 C51.625,56.625 52.75,51.25 53.25,48.625 C54.75,39.875 60.625,30.875 64.125,28.625 C63.75,32.25 65,33.625 64.75,36.5 L65.5,36.625 C65.625,31.75 69.375,25.375 73.5,21.875 C76.875,17.875 78.75,17.125 81.625,13 C82.5,11.625 83.125,11 83.875,9.875 C85.375,13.125 88.25,18.75 88.25,24.875 C88.25,29.625 88.125,35 86.875,39.25 C89.375,38.125 92.25,34 94.375,30.5 C95.625,33.25 95,40.625 93,44.375" id="Shape" fill="#FFB612"></path>
                    <path d="M3.75,115 C3.875,113.75 3.875,114.5 4.5,113.5 C5,112.5 4.75,111.25 5.125,110.125 C5.5,110.625 6.25,110.875 6.25,111.5 C6.75,109.25 5.25,107.25 6,105 C6.875,105.75 8.125,106 8.875,107 C8.75,106.125 8.625,105.25 8.5,104.5 C8.25,103 8.875,101.5 9,100 C9.25,98.125 11.625,96.625 11,94.75 C9.875,91.625 9.25,88.375 10.25,85.5 C10.5,84.875 10.75,83.875 11.5,83.5 C12,83.25 12.875,83.25 13.375,83.5 C13.625,83.625 13.875,84.125 14,84.5 C14.25,85.875 13.625,87.125 13.875,88.375 C14.25,90.125 14.5,91.75 15.5,93.125 C15.75,93.375 16.5,93.25 16.75,92.875 C17.5,91.25 17.125,89.375 18.125,88 C18.5,87.5 19.625,87.125 20.125,87.75 C21.5,89 21,90.875 21.125,92.5 C21.375,95.125 20.125,96.625 19.875,99.25 C19.5,101.75 20,102.125 20.875,103.25 C21.75,100.875 21.75,98.375 23.5,96.25 C23.875,95.75 24.5,95.75 24.875,96 C26.125,97.125 25.875,99.375 25,100.875 C23.625,103.125 22.5,106.75 25,108.875 C24.875,107.75 24.875,106.375 25.5,105.5 C26.375,104.375 27.875,101.875 28,99.5 C28.125,98.625 29.25,98.375 30,99 C30.125,99.125 30,99.625 30.375,99.75 C31.625,99.875 32.125,98.5 32.125,97.5 C32.625,97.5 33.25,97.375 33.5,97.625 C34.625,98.75 34.375,101.625 34.375,103.25 C34.5,106.25 35.25,105.125 35.75,105.375 C35.75,105.375 36,104 35.625,99.875 C36,94.75 35.5,88.125 34.125,86.625 C32.875,87.875 32.75,89 31,89.5 C26.5,87.375 26.75,68.125 27,65.125 C26.875,64.375 25.875,65.125 25.875,65.125 C23.375,67.625 22.25,70.75 21.5,72.5 C21.5,72.5 20.5,73.625 20.5,72.5 C19.25,68.375 19.625,57.25 20.25,54.625 C20.875,51.375 20.375,49.5 18.875,46.5 C18.625,45.625 18,45.5 18,46.625 C17.875,47.875 17,48.5 16.625,49.75 C16.625,49.75 15.625,51.625 15.375,49.75 C14.5,45 11.875,39.125 10.875,37.375 L10.125,37 C10.375,41.5 9,48.625 8,53.75 C5.75,67.25 3.5,80 3.5,98.5 C3.5,106.875 4,115.75 4,115.75 L4.25,115.5" id="Shape" fill="#FFB612"></path>
                    <g transform="translate(68.750000, 296.250000)" id="Shape" fill="#FFFFFF">
                        <path d="M12.5,8.75 L13.25,5.5 L16.875,12.625 L12.5,8.875 M0,0 L2,4.875 L7.625,0 M0,0 L2,4.875 L7.625,0"></path>
                        <polyline points="0 0 2 4.875 7.625 0 0 0"></polyline>
                        <polyline points="6.25 5 8.875 14.25 10.75 1.125 6.375 5"></polyline>
                        <path d="M148.75,22.5 C148.375,23 146.75,22.75 146.5,23.375 C146.375,23.75 146.125,24.375 145.875,24.5 C145.375,24.875 144.75,24.375 144.125,24.25 C143.25,24.125 142.375,24.25 141.5,24.625 C140,22.875 136,24 134,23.875 C133.75,23.875 135.25,23 135.5,22.875 C136.875,21.75 139,21.875 140.625,21.75 C140.875,21.75 141.375,22 141.625,22 C143.375,22.25 145.125,21.625 147,21.375 C147.625,21.25 149.375,21.875 148.875,22.5"></path>
                        <path d="M176.25,20 L172.125,22.375 C171.875,22.75 171.5,23.25 171.125,23.625 C170.125,24.5 169.75,25.5 168.625,26.25 C167.25,27.125 166,28.375 164.375,29 L163.875,29 C163.75,29 163.75,29.125 163.75,29.25 L163.375,29.25 C163.125,29.5 162.875,29.625 162.625,29.75 C161.75,30 160.875,29.5 160.125,30.125 C159.75,30.5 159.25,30.75 158.75,31 C157.5,31.75 156.125,31.375 154.75,31.125 C154.5,31.125 154.125,30.75 153.75,30.5 C153.25,30.125 152.375,30.875 151.75,30.625 C151.125,30.375 150.5,29.75 151.125,29.125 C151.75,28.5 152.5,28.125 153.375,27.875 C155.875,27.25 158.375,27.875 160.625,26.875 C161.25,26.625 162.125,26.25 162.375,25.375 C162.125,25.375 161.875,25.125 161.75,25.25 C161.25,25.625 160.625,25.625 160,25.75 C156.125,26.125 152.25,26.375 148.5,25.875 C148.5,24.875 148.875,23.875 149.75,23.75 C151,23.625 152.25,24 153.375,23.875 C154.625,23.75 156,23 157.25,22.25 C157.375,22.125 157.75,22.125 157.875,22.25 C158.5,22.5 158.875,23.25 159.5,23 C159.875,22.875 160.25,22.625 160.75,22.625 C161.625,22.5 162.25,22.625 163.125,22.5 C164.875,22.25 166.375,21 168.25,21.25 C169.625,21.5 170.125,21 170.875,20.375 C170.5,20.75 173.375,18.75 173.625,19.25 C173.75,19.5 176.5,19.625 176.625,20"></path>
                        <path d="M186.25,21.25 C185.125,22 185,23.375 184.375,24.375 C183.875,25.125 183.25,25.875 182.625,26.25 C179.375,28 175.5,31 173,30.75 C172.25,30.625 171.875,29.875 172.375,29.375 C173.25,28.5 174.75,28.25 174.875,26.875 C178.125,25.25 184,24.125 183.75,20.5 C183.75,20.125 185.875,21.25 186.375,21.125"></path>
                    </g>
                    <g transform="translate(6.250000, 82.500000)" id="Shape" fill="#FFB612">
                        <path d="M15,33.75 C15.125,33.375 15.75,33.625 15.375,33.125 C16.25,33.125 17.125,33 17.875,33.25 C18.25,33.375 18.5,34 18.625,34.375 C18.875,35.625 19.375,37 18.375,37.875 C17.375,38.625 17.625,39.875 17,40.375 C16.75,40.625 16,40.875 15.625,41.25 C15.25,41.625 14.75,40.875 14.75,40.5 C14.75,39.625 15.375,38.625 15.375,37.625 C15.375,36.125 14.625,35.75 15.125,33.75"></path>
                        <path d="M5,46.25 C4.875,47.875 4.375,50.25 6.75,49.5 C7.5,49.25 7.75,48.125 7.75,47.625 C7.75,46.125 8.125,45 8.75,43.625 C9.125,42.875 8.5,42.25 8.125,41.75 C7.125,40.375 5.25,39.625 4.125,41 C3.5,41.875 2.625,43.125 3.25,44.25 C3.75,45.125 4.125,45.625 4.875,46.375"></path>
                        <path d="M7.5,30 C6.25,31.875 6.875,33.5 8.375,34.625 C9.375,35.375 10.5,34.875 10.75,34 C11.25,32.375 12,30.875 12.5,29.25 C13,27.5 10.875,25.875 9.375,26.625 C8.25,27.125 8.375,29 7.625,30"></path>
                        <path d="M8.75,22.5 C8.125,22.75 8.125,22.125 7.75,21.875 C7.125,21.375 7.125,20.125 6.625,19.5 C5.625,18.125 5.875,16.125 6.25,14.875 C6.5,14 7.875,12.625 9,12.75 C10.875,12.875 12.125,16.25 10.75,17.125 C9,18.25 9.625,20.875 8.875,22.375 C8.875,22.5 8.375,22.375 8.125,22.375"></path>
                        <path d="M21.25,26.25 C20.75,26.875 20.75,27.75 21.25,28.125 C21.75,28.5 22.625,28.375 23.125,27.875 C23.25,27.75 23.75,27.375 23.875,27.25 C25.375,26 26.375,24.375 25.5,22.625 C25.25,22.125 24.375,21.625 23.75,22.125 C23.25,22.5 22.625,22.5 22.25,23.125 C21.75,24.125 21.875,25.25 21.125,26.25"></path>
                        <path d="M3.75,37.5 C3.5,38.375 2.75,38 2.25,37.25 C1.25,35.75 0.75,34.25 0.625,32 C0.875,30.75 2.75,30.5 3.625,31 C5.625,32.25 4.25,37.125 4.125,36.5 C4.25,36.875 3.75,37.625 3.75,37.5"></path>
                        <path d="M43.75,23.75 C43.375,24.125 42.625,23.75 42.625,23.25 C42.5,21.75 42.5,19.125 44.625,19.5 C45.375,19.625 45.875,20.5 45.75,21.25 C45.5,22.375 44.625,23.125 43.75,23.75"></path>
                        <path d="M48.75,18.75 C48.25,19.25 47.25,19.25 46.875,18.875 C46.125,18.25 45.75,17 46,16 C46.375,14.875 46.625,13.75 47.5,12.875 C48,12.375 49.125,11.75 49.375,12.125 C50,13 50.625,14.375 50.375,15.625 C50.125,16.875 49.625,17.875 48.75,18.75"></path>
                        <path d="M68.75,20 C68.375,20 67.875,19.875 67.75,19.625 C67,18.375 67.875,17 68.875,16.375 C70,15.875 71.375,17.625 70.5,18.75 C70,19.375 69.125,20 68.25,20"></path>
                        <path d="M58.75,7.5 C58.375,7.75 57.75,9 58,9.875 C58.25,10.625 59.125,11 60,10.875 C60.875,10.75 61.375,10.125 61.875,9.5 C63.125,7.875 63.5,5.25 61.875,3.875 C61.25,3.25 60,3.5 59.5,4.25 C58.875,5.25 59.375,6.125 58.875,7.125 C59,7.125 58.75,7.5 58.75,7.5"></path>
                        <path d="M71.25,6.25 C70.125,7.125 70.625,9 69.375,9.75 C68.625,10.25 67.75,10.375 67.125,9.75 C66.5,9.125 66.5,8.25 66.25,7.375 C66.125,6.875 66.5,6.375 66.625,6 C67.5,4.125 69.875,4 71.625,3 C71.875,2.875 72.375,3.375 72.5,3.625 C73,4.625 72.125,5.625 71.375,6.25"></path>
                        <path d="M52.5,8.75 C51.875,9.5 50.875,9.25 50.25,8.875 C50,8.75 49.875,8.375 49.875,8.125 C49.875,6.25 49.25,4.375 49.875,2.625 C50.25,1.625 51.25,0.375 52.375,0.875 C53.25,1.25 53.75,2.25 53.5,3.375 C53,5.25 53.75,7.375 52.5,8.875"></path>
                        <path d="M60,30 C59.75,30.875 58.875,31.5 59.25,32.375 C59.375,32.625 59.875,32.5 60.125,32.625 C61.125,32.875 62.375,32.75 63,32 C63.5,31.5 63.875,30.75 64.375,30.125 C64.875,29.375 64.875,28.5 65.25,27.75 C65.625,26.875 65.25,25.875 64.5,25.5 C63.75,25 63.375,24.625 62.25,25.125 C61.75,25.375 61.5,26.25 61.375,26.625 C61.125,27.125 61.125,28.5 60.75,29 C60.375,29.375 60.25,29.5 60,30"></path>
                        <path d="M58.75,26.25 C58.375,26.625 58,26.625 57.625,26.625 C57.5,26.625 57,26.625 57,26.25 C57.125,24.5 55.125,23.75 54.5,22.375 C53.875,21 55.125,19.625 56.125,18.75 C57,18 58.25,18.5 59.25,18.875 C60.875,19.375 61.125,21.625 60.75,23.25 C60.5,24.375 59.75,25.5 58.75,26.375"></path>
                    </g>
                </g>
            </g>
            <g id="Group-2" transform="translate(84.000000, 315.000000)" stroke="#E2AC11" font-weight="normal" font-family="Pythagoras" stroke-width="2.5" fill="#571C1E" font-size="64">
                <text id="BRA">
                    <tspan x="0" y="61">BRA</tspan>
                </text>
                <text id="VES">
                    <tspan x="131" y="59">VES</tspan>
                </text>
            </g>
            <text id="Washington" stroke="#E2AC11" stroke-width="2" font-family="Pythagoras" font-size="37" font-weight="normal" letter-spacing="-1.20736837" fill="#571C1E">
                <tspan x="84" y="315">WASHINGTO</tspan>
                <tspan x="310.192685" y="315" letter-spacing="-1.17559552">N</tspan>
            </text>
        </g>
    </g>
</svg>