<?xml version="1.0" encoding="UTF-8" standalone="no"?>
<svg width="865px" height="500px" viewBox="0 0 865 500" version="1.1" xmlns="http://www.w3.org/2000/svg" xmlns:xlink="http://www.w3.org/1999/xlink">
    <!-- Generator: Sketch 39.1 (31720) - http://www.bohemiancoding.com/sketch -->
    <title>1839</title>
    <desc>Created with Sketch.</desc>
    <defs>
        <radialGradient cx="50%" cy="50%" fx="50%" fy="50%" r="77.2401486%" id="radialGradient-1">
            <stop stop-color="#FFFFFF" offset="0%"></stop>
            <stop stop-color="#EED5BB" offset="100%"></stop>
        </radialGradient>
        <filter x="-50%" y="-50%" width="200%" height="200%" filterUnits="objectBoundingBox" id="filter-2">
            <feGaussianBlur stdDeviation="1.97782629" in="SourceGraphic"></feGaussianBlur>
        </filter>
        <filter x="-50%" y="-50%" width="200%" height="200%" filterUnits="objectBoundingBox" id="filter-3">
            <feGaussianBlur stdDeviation="1.97782629" in="SourceGraphic"></feGaussianBlur>
        </filter>
        <ellipse id="path-4" cx="108.486928" cy="163.900948" rx="12.941613" ry="12.9393505"></ellipse>
        <filter x="-50%" y="-50%" width="200%" height="200%" filterUnits="objectBoundingBox" id="filter-5">
            <feOffset dx="0" dy="2" in="SourceAlpha" result="shadowOffsetOuter1"></feOffset>
            <feGaussianBlur stdDeviation="2" in="shadowOffsetOuter1" result="shadowBlurOuter1"></feGaussianBlur>
            <feColorMatrix values="0 0 0 0 0   0 0 0 0 0   0 0 0 0 0  0 0 0 0.5 0" type="matrix" in="shadowBlurOuter1"></feColorMatrix>
        </filter>
        <rect id="path-6" x="43.6925484" y="28.2904392" width="23.8863287" height="26.7526882" rx="4"></rect>
        <mask id="mask-7" maskContentUnits="userSpaceOnUse" maskUnits="objectBoundingBox" x="0" y="0" width="23.8863287" height="26.7526882" fill="white">
            <use xlink:href="#path-6"></use>
        </mask>
        <ellipse id="path-8" cx="26.3179571" cy="11.0287782" rx="11.0307067" ry="11.0287782"></ellipse>
        <filter x="-50%" y="-50%" width="200%" height="200%" filterUnits="objectBoundingBox" id="filter-9">
            <feOffset dx="0" dy="2" in="SourceAlpha" result="shadowOffsetOuter1"></feOffset>
            <feGaussianBlur stdDeviation="2" in="shadowOffsetOuter1" result="shadowBlurOuter1"></feGaussianBlur>
            <feColorMatrix values="0 0 0 0 0   0 0 0 0 0   0 0 0 0 0  0 0 0 0.5 0" type="matrix" in="shadowBlurOuter1"></feColorMatrix>
        </filter>
    </defs>
    <g id="Page-1" stroke="none" stroke-width="1" fill="none" fill-rule="evenodd">
        <g id="1839">
            <g id="background" fill="url(#radialGradient-1)">
                <rect x="0" y="0" width="865" height="500"></rect>
            </g>
            <g id="group" transform="translate(122.000000, 124.000000)">
                <ellipse id="front-shadow" fill="#BAB0B0" filter="url(#filter-2)" cx="486.014575" cy="284.568692" rx="90.1236738" ry="4.62091887"></ellipse>
                <ellipse id="back-shadow" fill="#BAB0B0" filter="url(#filter-3)" cx="141.239859" cy="284.568692" rx="113.531718" ry="4.62091887"></ellipse>
                <g id="left-pedal" transform="translate(305.587057, 143.057858) scale(1, -1) translate(-305.587057, -143.057858) translate(178.587057, 57.557858)">
                    <path d="M242.290055,58.0094711 L0.560408014,132.534817" id="Line-Copy-3" stroke="#4A4A4A" stroke-width="5" stroke-linecap="square"></path>
                    <path d="M245.634141,169.866102 L245.634141,7.43906967" id="Line" stroke="#4A4A4A" stroke-width="6" stroke-linecap="square" transform="translate(246.029186, 88.379416) scale(1, -1) translate(-246.029186, -88.379416) "></path>
                    <rect id="Rectangle-52-Copy" fill="#88684A" transform="translate(241.225285, 6.657024) scale(1, -1) rotate(-97.000000) translate(-241.225285, -6.657024) " x="235.989401" y="-5.32439805" width="10.4717665" height="23.9628437" rx="5.23588327"></rect>
                </g>
                <g id="saddle" transform="translate(163.382488, 77.391705)">
                    <path d="M116.420718,59.9515511 C131.707968,55.1742854 177.008152,73.606748 190.468337,53.2633791 C208.621947,25.826492 175.181086,20.777972 175.181086,20.777972" id="Path-64" stroke="#1A1A1A" stroke-width="4" transform="translate(156.144307, 41.918940) scale(-1, -1) translate(-156.144307, -41.918940) "></path>
                    <path d="M151.642632,26.0326765 C154.807132,13.2616506 155.471812,-14.8719596 155.471812,-14.8719596 C155.801423,-23.1319622 157.031235,-23.1944996 158.396608,-15.0375378 C158.396608,-15.0375378 160.003475,0.681304887 165.986352,13.8895155 C171.969229,27.0977261 171.543891,28.9121148 171.543891,28.9121148 C173.646249,36.9021026 169.518864,46.7055212 162.336368,50.8022454 L150.778011,57.3948568 C143.590478,61.4944543 140.266685,58.5935563 143.260834,50.8868857 C143.260834,50.8868857 148.478132,38.8037023 151.642632,26.0326765 Z" fill="#3C1E1C" transform="translate(157.126903, 19.071660) rotate(-275.000000) translate(-157.126903, -19.071660) "></path>
                    <ellipse id="Oval-130-Copy-3" fill="#4A4A4A" transform="translate(15.764977, 18.631336) rotate(-347.000000) translate(-15.764977, -18.631336) " cx="15.764977" cy="18.6313364" rx="13.8540707" ry="6.21044547"></ellipse>
                </g>
                <g id="backwheel" transform="translate(219.841198, 147.964457) rotate(-357.000000) translate(-219.841198, -147.964457) translate(7.341198, 11.464457)">
                    <ellipse id="rim" stroke="#4A4A4A" stroke-width="7" cx="134.176595" cy="138.323778" rx="133.763441" ry="133.740056"></ellipse>
                    <path d="M170.24779,89.5719402 L142.199372,132.126779" id="Line-Copy-8" stroke="#4A4A4A" stroke-width="5" stroke-linecap="square"></path>
                    <path d="M134.718894,7.87506574 L134.718894,272.578392" id="Line" stroke="#1A1A1A" stroke-width="4" stroke-linecap="square"></path>
                    <path d="M199.048834,21.7719401 L68.1517531,253.947056" id="Line-Copy-4" stroke="#1A1A1A" stroke-width="4" stroke-linecap="square"></path>
                    <path d="M251.598758,63.8118786 L21.3345488,203.308039" id="Line-Copy-5" stroke="#1A1A1A" stroke-width="4" stroke-linecap="square"></path>
                    <path d="M232.489695,35.148284 C232.489695,35.148284 261.631016,60.9455222 273.096453,85.3095743 C284.561891,109.673626 285.517344,135.470865 285.517344,135.470865 L232.489695,135.470861 L232.489695,35.148284 Z" id="Rectangle-79" fill="#88684A"></path>
                    <path d="M1.7477592,137.859498 L266.847782,137.859498" id="Line" stroke="#1A1A1A" stroke-width="4" stroke-linecap="square"></path>
                    <path d="M11.7800173,81.0100353 L254.465117,190.887147" id="Line-Copy-6" stroke="#1A1A1A" stroke-width="4" stroke-linecap="square"></path>
                    <path d="M59.5526747,29.4155653 L212.425179,243.437071" id="Line-Copy-7" stroke="#1A1A1A" stroke-width="4" stroke-linecap="square"></path>
                    <ellipse id="Oval-130-Copy" fill="#4A4A4A" transform="translate(418.203381, 147.915753) rotate(-2.000000) translate(-418.203381, -147.915753) " cx="418.203381" cy="147.915753" rx="5.73271889" ry="7.64362519"></ellipse>
                </g>
                <g id="frontwheel" transform="translate(481.987843, 170.515387) rotate(-342.000000) translate(-481.987843, -170.515387) translate(370.487843, 59.515387)">
                    <ellipse id="rim" stroke="#4A4A4A" stroke-width="7" cx="109.16062" cy="112.534599" rx="108.824494" ry="108.805469"></ellipse>
                    <path d="M109.601812,6.40683315 L109.601812,221.758692" id="Line" stroke="#1A1A1A" stroke-width="4" stroke-linecap="square"></path>
                    <path d="M161.938035,17.7127648 L55.445494,206.600994" id="Line-Copy-4" stroke="#1A1A1A" stroke-width="4" stroke-linecap="square"></path>
                    <path d="M199.04883,54.2573471 L17.356921,165.40315" id="Line-Copy-5" stroke="#1A1A1A" stroke-width="4" stroke-linecap="square"></path>
                    <path d="M5.09184522,112.156879 L217.0965,112.156879" id="Line" stroke="#1A1A1A" stroke-width="4" stroke-linecap="square"></path>
                    <path d="M9.58374286,65.9064694 L207.022468,155.298018" id="Line-Copy-6" stroke="#1A1A1A" stroke-width="4" stroke-linecap="square"></path>
                    <path d="M48.4496337,23.9313073 L172.820484,198.050498" id="Line-Copy-7" stroke="#1A1A1A" stroke-width="4" stroke-linecap="square"></path>
                </g>
                <g id="body" transform="translate(133.763441, 16.242704)">
                    <polyline id="Line" stroke="#979797" stroke-width="2" stroke-linecap="square" points="166.726575 164.815668 280.903226 51.59447 273.737327 0.477726575 283.769585 33.4408602"></polyline>
                    <rect id="Rectangle-64-Copy" fill="#88684A" transform="translate(339.445933, 24.906880) rotate(-281.000000) translate(-339.445933, -24.906880) " x="331.324581" y="13.9191688" width="16.2427035" height="21.9754224" rx="4"></rect>
                    <path d="M5.73271889,126.119818 C-18.1536098,89.3348694 50.6390147,116.087556 86.4685076,126.119816 C122.298,136.152075 154.250758,135.178793 194.434713,111.310292 C215.319898,98.9048913 256.539174,56.3717356 276.125964,44.9062978 C295.712753,33.4408601 340.141318,24.3640553 340.141318,24.3640553" id="Path-63" stroke="#88684A" stroke-width="20"></path>
                    <path d="M157.172043,133.285714 C157.172043,133.285714 154.737281,147.169681 157.172043,153.35023 C158.877578,157.679666 169.592934,164.815668 169.592934,164.815668" id="Line" stroke="#574432" stroke-width="3" stroke-linecap="square"></path>
                </g>
                <g id="handle" transform="translate(369.760369, 13.376344)">
                    <path d="M110.216194,162.992796 L55.4162826,47.7726575" id="Line" stroke="#88684A" stroke-width="8" stroke-linecap="square"></path>
                    <g id="Oval-10">
                        <use fill="black" fill-opacity="1" filter="url(#filter-5)" xlink:href="#path-4"></use>
                        <use fill="#1A1A1A" fill-rule="evenodd" xlink:href="#path-4"></use>
                    </g>
                    <path d="M49.2058372,35.8294931 C49.2058372,35.8294931 49.6670132,11.1853225 42.9953917,5.25499232 C38.2015754,0.99382228 14.8095238,5.25499232 14.8095238,5.25499232" id="Line" stroke="#1A1A1A" stroke-width="3" stroke-linecap="square"></path>
                    <use id="Rectangle-64" stroke="#88684A" mask="url(#mask-7)" stroke-width="2" fill="#88684A" transform="translate(55.635713, 41.666783) rotate(-293.000000) translate(-55.635713, -41.666783) " xlink:href="#path-6"></use>
                    <rect id="Rectangle-51" fill="#88684A" x="0" y="0" width="38.218126" height="7.64362519" rx="3.8218126"></rect>
                </g>
                <g id="back-attacher" transform="translate(119.097294, 133.784894)">
                    <path d="M284.581662,56.8280089 L0.812076698,56.8280089" id="Line" stroke="#4A4A4A" stroke-width="5" stroke-linecap="square"></path>
                    <path d="M21.0199689,18.1536098 L4.63388929,48.2289309" id="Line-Copy" stroke="#4A4A4A" stroke-width="5" stroke-linecap="square"></path>
                    <g id="Oval-10">
                        <use fill="black" fill-opacity="1" filter="url(#filter-9)" xlink:href="#path-8"></use>
                        <use fill="#1A1A1A" fill-rule="evenodd" xlink:href="#path-8"></use>
                    </g>
                </g>
                <g id="right-pedal" transform="translate(106.055300, 64.015361)">
                    <path d="M284.725038,193.956989 L318.165899,0" id="Line-Copy-2" stroke="#4A4A4A" stroke-width="6" stroke-linecap="square"></path>
                    <ellipse id="Oval-130" fill="#4A4A4A" transform="translate(296.318924, 126.119816) rotate(-355.000000) translate(-296.318924, -126.119816) " cx="296.318924" cy="126.119816" rx="5.73271889" ry="7.64362519"></ellipse>
                    <ellipse id="Oval-130-Copy-2" fill="#4A4A4A" cx="13.8540707" cy="124.686636" rx="13.8540707" ry="6.21044547"></ellipse>
                    <rect id="Rectangle-52" fill="#88684A" transform="translate(282.146387, 193.550255) rotate(-100.000000) translate(-282.146387, -193.550255) " x="276.910503" y="181.568833" width="10.4717665" height="23.9628437" rx="5.23588327"></rect>
                </g>
            </g>
        </g>
    </g>
</svg>