<?xml version="1.0" encoding="UTF-8" standalone="no"?>
<svg width="865px" height="500px" viewBox="0 0 865 500" version="1.1" xmlns="http://www.w3.org/2000/svg" xmlns:xlink="http://www.w3.org/1999/xlink">
    <!-- Generator: Sketch 39.1 (31720) - http://www.bohemiancoding.com/sketch -->
    <title>1885</title>
    <desc>Created with Sketch.</desc>
    <defs>
        <radialGradient cx="50%" cy="50%" fx="50%" fy="50%" r="77.2401486%" id="radialGradient-1">
            <stop stop-color="#FFFFFF" offset="0%"></stop>
            <stop stop-color="#EED5BB" offset="100%"></stop>
        </radialGradient>
        <filter x="-50%" y="-50%" width="200%" height="200%" filterUnits="objectBoundingBox" id="filter-2">
            <feGaussianBlur stdDeviation="1.97782629" in="SourceGraphic"></feGaussianBlur>
        </filter>
        <filter x="-50%" y="-50%" width="200%" height="200%" filterUnits="objectBoundingBox" id="filter-3">
            <feGaussianBlur stdDeviation="1.97782629" in="SourceGraphic"></feGaussianBlur>
        </filter>
        <ellipse id="path-4" cx="153.997646" cy="153.792694" rx="150.645018" ry="150.618682"></ellipse>
        <mask id="mask-5" maskContentUnits="userSpaceOnUse" maskUnits="objectBoundingBox" x="-7" y="-7" width="315.290037" height="315.237364">
            <rect x="-3.64737284" y="-3.82598778" width="315.290037" height="315.237364" fill="white"></rect>
            <use xlink:href="#path-4" fill="black"></use>
        </mask>
        <ellipse id="path-6" cx="153.997646" cy="153.792207" rx="153.429241" ry="153.402418"></ellipse>
        <mask id="mask-7" maskContentUnits="userSpaceOnUse" maskUnits="objectBoundingBox" x="0" y="0" width="306.858482" height="306.804836" fill="white">
            <use xlink:href="#path-6"></use>
        </mask>
        <ellipse id="path-8" cx="75.0696466" cy="75.5545638" rx="72.0000017" ry="72.0000017"></ellipse>
        <mask id="mask-9" maskContentUnits="userSpaceOnUse" maskUnits="objectBoundingBox" x="-7" y="-7" width="158.000003" height="158.000003">
            <rect x="-3.93035508" y="-3.44543794" width="158.000003" height="158.000003" fill="white"></rect>
            <use xlink:href="#path-8" fill="black"></use>
        </mask>
        <ellipse id="path-10" cx="75.5266796" cy="75.5134975" rx="75.5266796" ry="75.5134756"></ellipse>
        <mask id="mask-11" maskContentUnits="userSpaceOnUse" maskUnits="objectBoundingBox" x="0" y="0" width="151.053359" height="151.026951" fill="white">
            <use xlink:href="#path-10"></use>
        </mask>
    </defs>
    <g id="Page-1" stroke="none" stroke-width="1" fill="none" fill-rule="evenodd">
        <g id="1885">
            <g id="background" fill="url(#radialGradient-1)">
                <rect x="0" y="0" width="865" height="500"></rect>
            </g>
            <g id="group" transform="translate(202.000000, 46.000000)">
                <ellipse id="back-shadow" fill="#BAB0B0" filter="url(#filter-2)" cx="387.772619" cy="394.279688" rx="77.7958208" ry="4.48850453"></ellipse>
                <ellipse id="front-shadow" fill="#BAB0B0" filter="url(#filter-3)" cx="147.865426" cy="395.207762" rx="127.447793" ry="4.48850453"></ellipse>
                <g id="backwheel" transform="translate(0.851548, 81.670534)">
                    <use id="tire" stroke="#1A1A1A" mask="url(#mask-5)" stroke-width="14" xlink:href="#path-4"></use>
                    <use id="rim" stroke="#88684A" mask="url(#mask-7)" stroke-width="8" xlink:href="#path-6"></use>
                    <g id="spokes-copy-4" transform="translate(154.175140, 153.617079) rotate(-337.500000) translate(-154.175140, -153.617079) translate(139.789989, 3.269052)" stroke="#88684A">
                        <polygon id="Triangle-3" points="12.9628401 204.368126 25.3275976 300.169811 0.598082617 300.169811"></polygon>
                        <polygon id="Triangle-3-Copy" transform="translate(15.341543, 47.579371) scale(1, -1) translate(-15.341543, -47.579371) " points="15.3415425 -0.321471389 27.7063 95.4802134 2.97678502 95.4802134"></polygon>
                        <polygon id="Triangle-105" points="15.2576187 91.4565802 22.6455782 131.754541 7.86965925 131.754541"></polygon>
                        <polygon id="Triangle-105-Copy" transform="translate(12.717656, 189.716465) scale(-1, -1) translate(-12.717656, -189.716465) " points="12.7176559 169.567484 20.1056154 209.865445 5.32969643 209.865445"></polygon>
                    </g>
                    <g id="spokes-copy-8" transform="translate(154.261788, 153.101856) rotate(-315.000000) translate(-154.261788, -153.101856) translate(139.876637, 2.753828)" stroke="#88684A">
                        <polygon id="Triangle-3" points="13.283065 204.867189 25.6478225 300.668874 0.918307536 300.668874"></polygon>
                        <polygon id="Triangle-3-Copy" transform="translate(15.661767, 48.078434) scale(1, -1) translate(-15.661767, -48.078434) " points="15.6617674 0.177591278 28.0265249 95.9792761 3.29700994 95.9792761"></polygon>
                        <polygon id="Triangle-105" points="15.5778436 91.9556429 22.9658031 132.253604 8.18988417 132.253604"></polygon>
                        <polygon id="Triangle-105-Copy" transform="translate(13.037881, 190.215527) scale(-1, -1) translate(-13.037881, -190.215527) " points="13.0378808 170.066547 20.4258403 210.364508 5.64992135 210.364508"></polygon>
                    </g>
                    <g id="spokes-copy-9" transform="translate(154.348523, 153.572329) rotate(-292.500000) translate(-154.348523, -153.572329) translate(140.427410, 2.760264)" stroke="#88684A">
                        <polygon id="Triangle-3" points="12.5349588 205.144259 24.8997163 300.945944 0.170201274 300.945944"></polygon>
                        <polygon id="Triangle-3-Copy" transform="translate(14.913661, 48.355504) scale(1, -1) translate(-14.913661, -48.355504) " points="14.9136612 0.454661486 27.2784187 96.2563463 2.54890368 96.2563463"></polygon>
                        <polygon id="Triangle-105" points="14.8297374 92.2327131 22.2176968 132.530674 7.44177791 132.530674"></polygon>
                        <polygon id="Triangle-105-Copy" transform="translate(12.289775, 190.492598) scale(-1, -1) translate(-12.289775, -190.492598) " points="12.2897745 170.343617 19.677734 210.641578 4.90181509 210.641578"></polygon>
                    </g>
                    <g id="spokes-copy-10" transform="translate(154.299395, 153.622330) rotate(-270.000000) translate(-154.299395, -153.622330) translate(140.378282, 2.810265)" stroke="#88684A">
                        <polygon id="Triangle-3" points="12.6188156 205.131014 24.9835731 300.932698 0.254058113 300.932698"></polygon>
                        <polygon id="Triangle-3-Copy" transform="translate(14.997518, 48.342258) scale(1, -1) translate(-14.997518, -48.342258) " points="14.997518 0.441416101 27.3622755 96.2431009 2.63276052 96.2431009"></polygon>
                        <polygon id="Triangle-105" points="14.9135942 92.2194677 22.3015537 132.517428 7.52563475 132.517428"></polygon>
                        <polygon id="Triangle-105-Copy" transform="translate(12.373631, 190.479352) scale(-1, -1) translate(-12.373631, -190.479352) " points="12.3736314 170.330372 19.7615908 210.628332 4.98567193 210.628332"></polygon>
                    </g>
                    <g id="spokes-copy-11" transform="translate(154.422114, 153.629051) rotate(-247.500000) translate(-154.422114, -153.629051) translate(140.501001, 3.281023)" stroke="#88684A">
                        <polygon id="Triangle-3" points="12.7819744 204.787726 25.1467319 300.589411 0.417216896 300.589411"></polygon>
                        <polygon id="Triangle-3-Copy" transform="translate(15.160677, 47.998971) scale(1, -1) translate(-15.160677, -47.998971) " points="15.1606768 0.0981287121 27.5254343 95.8998135 2.7959193 95.8998135"></polygon>
                        <polygon id="Triangle-105" points="15.076753 91.8761803 22.4647124 132.174141 7.68879353 132.174141"></polygon>
                        <polygon id="Triangle-105-Copy" transform="translate(12.536790, 190.136065) scale(-1, -1) translate(-12.536790, -190.136065) " points="12.5367902 169.987084 19.9247496 210.285045 5.14883071 210.285045"></polygon>
                    </g>
                    <g id="spokes-copy-12" transform="translate(154.486294, 153.861722) rotate(-225.000000) translate(-154.486294, -153.861722) translate(140.101143, 3.049657)" stroke="#88684A">
                        <polygon id="Triangle-3" points="13.283065 205.394838 25.6478225 301.196523 0.918307536 301.196523"></polygon>
                        <polygon id="Triangle-3-Copy" transform="translate(15.661767, 48.606083) scale(1, -1) translate(-15.661767, -48.606083) " points="15.6617674 0.705240925 28.0265249 96.5069257 3.29700994 96.5069257"></polygon>
                        <polygon id="Triangle-105" points="15.5778436 92.4832925 22.9658031 132.781253 8.18988417 132.781253"></polygon>
                        <polygon id="Triangle-105-Copy" transform="translate(13.037881, 190.743177) scale(-1, -1) translate(-13.037881, -190.743177) " points="13.0378808 170.594197 20.4258403 210.892157 5.64992135 210.892157"></polygon>
                    </g>
                    <g id="spokes-copy-13" transform="translate(154.084448, 153.929263) rotate(-202.500000) translate(-154.084448, -153.929263) translate(140.163334, 3.117198)" stroke="#88684A">
                        <polygon id="Triangle-3" points="12.6300507 205.211558 24.9948082 301.013243 0.265293194 301.013243"></polygon>
                        <polygon id="Triangle-3-Copy" transform="translate(15.008753, 48.422803) scale(1, -1) translate(-15.008753, -48.422803) " points="15.0087531 0.521960618 27.3735106 96.3236454 2.6439956 96.3236454"></polygon>
                        <polygon id="Triangle-105" points="14.9248293 92.3000122 22.3127887 132.597973 7.53686983 132.597973"></polygon>
                        <polygon id="Triangle-105-Copy" transform="translate(12.384866, 190.559897) scale(-1, -1) translate(-12.384866, -190.559897) " points="12.3848665 170.410916 19.7728259 210.708877 4.99690701 210.708877"></polygon>
                    </g>
                    <g id="spokes-copy-14" transform="translate(153.920839, 153.854349) rotate(-180.000000) translate(-153.920839, -153.854349) translate(139.999725, 3.042284)" stroke="#88684A">
                        <polygon id="Triangle-3" points="12.6188156 205.131014 24.9835731 300.932698 0.254058113 300.932698"></polygon>
                        <polygon id="Triangle-3-Copy" transform="translate(14.997518, 48.342258) scale(1, -1) translate(-14.997518, -48.342258) " points="14.997518 0.441416101 27.3622755 96.2431009 2.63276052 96.2431009"></polygon>
                        <polygon id="Triangle-105" points="14.9135942 92.2194677 22.3015537 132.517428 7.52563475 132.517428"></polygon>
                        <polygon id="Triangle-105-Copy" transform="translate(12.373631, 190.479352) scale(-1, -1) translate(-12.373631, -190.479352) " points="12.3736314 170.330372 19.7615908 210.628332 4.98567193 210.628332"></polygon>
                    </g>
                </g>
                <g id="body" transform="translate(231.554524, 117.865429) scale(1, -1) translate(-231.554524, -117.865429) translate(76.102088, 4.640371)" stroke="#88684A">
                    <path d="M0.928074246,137.354988 C3.24825995,143.851508 38.0510441,160.092807 82.5986079,160.092807 C127.146172,160.092807 153.647189,144.836759 170.301624,133.178654" id="Path-63" stroke-width="7"></path>
                    <path d="M0.464037123,17.1693735 L71.9257541,137.819026" id="Line" stroke-width="5" stroke-linecap="square" transform="translate(36.194896, 77.494200) scale(-1, 1) translate(-36.194896, -77.494200) "></path>
                    <path d="M88.6310905,179.118329 L203.712297,17.1693735" id="Line" stroke-width="5" stroke-linecap="square" transform="translate(146.171694, 98.143852) scale(-1, 1) translate(-146.171694, -98.143852) "></path>
                    <path d="M183.758701,175.406032 L203.712297,19.4895592" id="Line" stroke-width="4" stroke-linecap="square" transform="translate(193.735499, 97.447796) scale(-1, 1) translate(-193.735499, -97.447796) "></path>
                    <path d="M310.440835,225.986079 L175.87007,0.464037123" id="Line" stroke-width="7" stroke-linecap="square" transform="translate(243.155452, 113.225058) scale(-1, 1) translate(-243.155452, -113.225058) "></path>
                </g>
                <g id="frontwheel" transform="translate(311.832947, 240.686750)">
                    <use id="tire" stroke="#1A1A1A" mask="url(#mask-9)" stroke-width="14" xlink:href="#path-8"></use>
                    <use id="rim" stroke="#88684A" mask="url(#mask-11)" stroke-width="10" xlink:href="#path-10"></use>
                    <g id="Triangle-19-+-Triangle-19-Copy" transform="translate(63.032523, 3.396777)" stroke="#88684A">
                        <path d="M12.5290023,81.6705336 L25.0580046,143.193866 C25.0580046,143.193866 16.6753891,145.050015 12.1414914,145.050015 C8.32272087,145.050015 0,143.193866 0,143.193866 L12.5290023,81.6705336 Z" id="Triangle-19"></path>
                        <path d="M12.5290023,0 L25.0580046,61.5233325 C25.0580046,61.5233325 16.6379278,63.379481 12.1414914,63.379481 C8.28525954,63.379481 0,61.5233325 0,61.5233325 L12.5290023,0 Z" id="Triangle-19-Copy" transform="translate(12.529002, 31.689740) scale(1, -1) translate(-12.529002, -31.689740) "></path>
                    </g>
                    <g id="Triangle-19-+-Triangle-19-Copy-4" transform="translate(74.986551, 76.076056) rotate(-45.000000) translate(-74.986551, -76.076056) translate(61.993511, 2.294153)" stroke="#88684A">
                        <path d="M12.9906958,82.5326517 L25.5196981,144.055984 C25.5196981,144.055984 17.1043673,146.680975 12.6031848,146.680975 C8.75169904,146.680975 0.461693441,144.055984 0.461693441,144.055984 L12.9906958,82.5326517 Z" id="Triangle-19"></path>
                        <path d="M12.9906958,0.86211804 L25.5196981,62.3854505 C25.5196981,62.3854505 17.4418904,64.3541933 13.2594324,64.3541933 C9.08922221,64.3541933 0.461693441,62.3854505 0.461693441,62.3854505 L12.9906958,0.86211804 Z" id="Triangle-19-Copy" transform="translate(12.990696, 32.608156) scale(1, -1) translate(-12.990696, -32.608156) "></path>
                    </g>
                    <g id="Triangle-19-+-Triangle-19-Copy-3" transform="translate(74.986551, 75.419808) rotate(-315.000000) translate(-74.986551, -75.419808) translate(61.993511, 1.637906)" stroke="#88684A">
                        <path d="M13.3911204,83.9930629 L25.9201227,145.516395 C25.9201227,145.516395 16.9408291,147.485138 13.0036094,147.485138 C8.58816086,147.485138 0.86211804,145.516395 0.86211804,145.516395 L13.3911204,83.9930629 Z" id="Triangle-19"></path>
                        <path d="M13.3911204,0.466380805 L25.9201227,61.9897133 C25.9201227,61.9897133 17.5013739,64.6147036 13.0036094,64.6147036 C9.14870568,64.6147036 0.86211804,61.9897133 0.86211804,61.9897133 L13.3911204,0.466380805 Z" id="Triangle-19-Copy" transform="translate(13.391120, 32.540542) scale(1, -1) translate(-13.391120, -32.540542) "></path>
                    </g>
                    <g id="Triangle-19-+-Triangle-19-Copy-2" transform="translate(74.633451, 76.102088) rotate(-270.000000) translate(-74.633451, -76.102088) translate(62.104448, 2.320186)" stroke="#88684A">
                        <path d="M12.5290023,81.6705336 L25.0580046,143.593368 C25.0580046,143.593368 16.9130946,146.701468 12.5290023,146.701468 C8.5604264,146.701468 0,143.593368 0,143.593368 L12.5290023,81.6705336 Z" id="Triangle-19"></path>
                        <path d="M12.5290023,0 L25.0580046,61.9228346 C25.0580046,61.9228346 16.4599334,62.8509097 12.5290023,62.8509097 C8.10726514,62.8509097 0,61.9228346 0,61.9228346 L12.5290023,0 Z" id="Triangle-19-Copy" transform="translate(12.529002, 31.425455) scale(1, -1) translate(-12.529002, -31.425455) "></path>
                    </g>
                </g>
                <path d="M387.314927,318.499335 L387.314927,234.044578" id="Line" stroke="#88684A" stroke-width="7" stroke-linecap="square"></path>
                <g id="back-attacher" transform="translate(154.268936, 234.583437) rotate(-42.000000) translate(-154.268936, -234.583437) translate(134.779377, 215.093878)">
                    <ellipse id="Oval-73-Copy" fill="#3C1E1C" cx="19.3226118" cy="19.8509288" rx="19.025522" ry="19.025522"></ellipse>
                    <ellipse id="Oval-10" fill="#786E7B" cx="19.9141464" cy="19.6143519" rx="7.00232026" ry="7.00109607"></ellipse>
                </g>
                <g id="right-pedal" transform="translate(105.800464, 146.635731)">
                    <path d="M0.464037123,86.774942 C0.464037123,86.774942 47.7958237,127.610209 68.9095128,98.3758701 C84.9093539,76.2222439 108.090249,37.6758428 117.032009,19.853594 C119.889962,14.1572704 118.793503,9.74477958 118.793503,9.74477958" id="Line" stroke="#88684A" stroke-width="5" stroke-linecap="square"></path>
                    <path d="M268.677494,63.5730858 C268.677494,63.5730858 126.516143,64.0580859 48.2598608,67.74942 C28.1402734,68.6984571 0.464037123,86.7749419 0.464037123,86.7749419" id="Line" stroke="#88684A" stroke-width="5" stroke-linecap="square"></path>
                    <path d="M126.585096,9.02221816 C128.826787,8.5440834 130.256298,6.32600559 129.780168,4.0782393 L129.780168,4.0782393 C129.303068,1.82588993 127.098955,0.387625411 124.857361,0.865739569 L114.374898,3.10156571 C112.133207,3.57970047 110.703696,5.79777829 111.179826,8.04554458 L111.179826,8.04554458 C111.656926,10.2978939 113.861039,11.7361585 116.102633,11.2580443 L126.585096,9.02221816 L126.585096,9.02221816 Z" id="Rectangle-52" fill="#3C1E1C"></path>
                </g>
                <g id="frontattacher" transform="translate(387.291712, 315.999115) rotate(-5.000000) translate(-387.291712, -315.999115) translate(371.509260, 300.221853)">
                    <ellipse id="Oval-73" fill="#3C1E1C" cx="15.6707501" cy="15.8631767" rx="15.3182618" ry="15.3132251"></ellipse>
                    <ellipse id="Oval-10" fill="#4A4A4A" cx="15.7160104" cy="16.3317089" rx="4.22296801" ry="4.64486637"></ellipse>
                </g>
                <g id="saddle" transform="translate(150.884417, 67.161382) scale(-1, -1) rotate(-343.000000) translate(-150.884417, -67.161382) translate(118.384417, 53.161382)" fill="#3C1E1C">
                    <path d="M6.95719995,27.716003 C2.81408526,27.1297148 0.952186013,25.431078 0.952186012,23.0294679 C0.95218601,17.4403696 17.6607718,15.8960839 29.2190451,11.9564096 C48.2710847,5.46246099 58.8512384,-2.10477382 62.5467905,1.72137853 C66.2423426,5.54753087 63.5918144,9.1307669 62.5467912,10.1774775 C58.738254,13.9921642 43.0074085,22.7070747 29.2190451,25.778875 C21.3554786,27.5307366 12.4560648,28.4941422 6.95719995,27.716003 Z" id="Rectangle-3"></path>
                </g>
                <g id="handle" transform="translate(220.954322, 0.000000)" fill="#3C1E1C">
                    <rect id="Rectangle-51" x="0" y="0" width="37.1351802" height="7.42459397" rx="3.71229698"></rect>
                </g>
            </g>
        </g>
    </g>
</svg>