<?xml version="1.0" encoding="UTF-8" standalone="no"?>
<svg width="536px" height="701px" viewBox="0 0 536 701" version="1.1" xmlns="http://www.w3.org/2000/svg" xmlns:xlink="http://www.w3.org/1999/xlink">
    <!-- Generator: Sketch 39.1 (31720) - http://www.bohemiancoding.com/sketch -->
    <title>dirty</title>
    <desc>Created with Sketch.</desc>
    <defs>
        <radialGradient cx="52.7259827%" cy="36.6966881%" fx="52.7259827%" fy="36.6966881%" r="35.8596346%" id="radialGradient-1">
            <stop stop-color="#FBDA49" offset="0%"></stop>
            <stop stop-color="#F6B323" offset="100%"></stop>
        </radialGradient>
    </defs>
    <g id="Page-3" stroke="none" stroke-width="1" fill="none" fill-rule="evenodd">
        <g id="dirty">
            <rect id="Rectangle-1" fill="url(#radialGradient-1)" x="0" y="0" width="536" height="700.330017"></rect>
            <g id="graphic" transform="translate(152.000000, 192.000000)">
                <polygon id="glass" fill="#9ACDBD" transform="translate(115.500000, 83.000000) scale(1, -1) translate(-115.500000, -83.000000) " points="115.5 4 231 162 0 162"></polygon>
                <polygon id="stem" fill="#9ACDBD" points="115.5 72 125.486093 153.190503 121.671745 284.559497 109.328255 284.559497 105.513907 153.190503"></polygon>
                <polygon id="joiner" fill="#9ACDBD" points="115.5 269 131.192433 284.201626 125.198457 308.798374 105.801543 308.798374 99.8075675 284.201626"></polygon>
                <path d="M177.058038,300 C164.727056,291.715729 137.166584,285 115.5,285 C93.8334163,285 66.2729439,291.715729 53.9419619,300 C41.61098,308.284271 69.1714524,315 115.5,315 C161.828548,315 189.38902,308.284271 177.058038,300 Z" id="base" fill="#9ACDBD"></path>
                <ellipse id="rim" stroke="#FFFFFF" fill="#8FE0C7" transform="translate(115.500000, 5.000000) scale(1, -1) translate(-115.500000, -5.000000) " cx="115.5" cy="5" rx="113.5" ry="5"></ellipse>
                <polygon id="fluid" fill="#04D090" points="49 59.0000063 115.39179 149.061654 181.995162 59"></polygon>
                <path d="M182.339996,59 C182.339996,61.209139 152.490821,63 115.669998,63 C78.8491749,63 49,61.209139 49,59 C49,56.790861 78.8491749,55 115.669998,55 C152.490821,55 182.339996,56.790861 182.339996,59 Z" id="drink-surface" fill="#2FD5A1"></path>
                <ellipse id="Oval-12" fill="#2E6352" transform="translate(130.204781, 84.913198) rotate(23.000000) translate(-130.204781, -84.913198) " cx="130.204781" cy="84.9131975" rx="24" ry="31"></ellipse>
                <ellipse id="Oval-13" fill="#411F14" cx="142" cy="70.5" rx="9" ry="9.5"></ellipse>
            </g>
            <text id="With-olive-juice.-Us" font-family="LucidaGrande, Lucida Grande" font-size="28" font-weight="normal" line-spacing="36" fill="#FFFFFF">
                <tspan x="94" y="575">With olive juice. Usually </tspan>
                <tspan x="94" y="611">for martinis.</tspan>
            </text>
            <text id="Dirty" font-family="LucidaGrande-Bold, Lucida Grande" font-size="72" font-weight="bold" fill="#FFFFFF">
                <tspan x="175" y="138">Dirty</tspan>
            </text>
        </g>
    </g>
</svg>