<?xml version="1.0" encoding="UTF-8" standalone="no"?>
<svg width="536px" height="701px" viewBox="0 0 536 701" version="1.1" xmlns="http://www.w3.org/2000/svg" xmlns:xlink="http://www.w3.org/1999/xlink">
    <!-- Generator: Sketch 39.1 (31720) - http://www.bohemiancoding.com/sketch -->
    <title>rocks</title>
    <desc>Created with Sketch.</desc>
    <defs>
        <radialGradient cx="52.7259827%" cy="36.6966881%" fx="52.7259827%" fy="36.6966881%" r="35.8596346%" id="radialGradient-1">
            <stop stop-color="#FBDA49" offset="0%"></stop>
            <stop stop-color="#F6B323" offset="100%"></stop>
        </radialGradient>
        <polygon id="path-2" points="0.419351875 12.6976452 46.2425664 0.419351875 58.5208598 46.2425664 12.6976452 58.5208598"></polygon>
        <mask id="mask-3" maskContentUnits="userSpaceOnUse" maskUnits="objectBoundingBox" x="0" y="0" width="58.1015079" height="58.1015079" fill="white">
            <use xlink:href="#path-2"></use>
        </mask>
        <polygon id="path-4" points="18.6883598 20.4312653 64.5115743 8.15297198 76.7898677 53.9761865 30.9666531 66.2544799"></polygon>
        <mask id="mask-5" maskContentUnits="userSpaceOnUse" maskUnits="objectBoundingBox" x="0" y="0" width="58.1015079" height="58.1015079" fill="white">
            <use xlink:href="#path-4"></use>
        </mask>
        <polygon id="path-6" points="20.1259256 20.8447089 32.3452376 65.4092592 12.9380953 56.065079 2.15634922 12.9380952"></polygon>
        <mask id="mask-7" maskContentUnits="userSpaceOnUse" maskUnits="objectBoundingBox" x="0" y="0" width="30.1888884" height="52.471164" fill="white">
            <use xlink:href="#path-6"></use>
        </mask>
        <polygon id="path-8" points="0.403222956 12.2092742 44.4640062 0.403222956 56.2700575 44.4640062 12.2092742 56.2700575"></polygon>
        <mask id="mask-9" maskContentUnits="userSpaceOnUse" maskUnits="objectBoundingBox" x="0" y="0" width="55.8668345" height="55.8668345" fill="white">
            <use xlink:href="#path-8"></use>
        </mask>
        <polygon id="path-10" points="17.9695767 19.6454474 62.0303599 7.83939613 73.8364112 51.9001794 29.775628 63.7062306"></polygon>
        <mask id="mask-11" maskContentUnits="userSpaceOnUse" maskUnits="objectBoundingBox" x="0" y="0" width="55.8668345" height="55.8668345" fill="white">
            <use xlink:href="#path-10"></use>
        </mask>
        <polygon id="path-12" points="19.3518515 20.0429893 31.10119 62.8935185 12.4404762 53.9087298 2.07341271 12.4404762"></polygon>
        <mask id="mask-13" maskContentUnits="userSpaceOnUse" maskUnits="objectBoundingBox" x="0" y="0" width="29.0277773" height="50.4530423" fill="white">
            <use xlink:href="#path-12"></use>
        </mask>
        <polygon id="path-14" points="17.9695767 19.6454474 62.0303599 7.83939613 73.8364112 51.9001794 29.775628 63.7062306"></polygon>
        <mask id="mask-15" maskContentUnits="userSpaceOnUse" maskUnits="objectBoundingBox" x="0" y="0" width="55.8668345" height="55.8668345" fill="white">
            <use xlink:href="#path-14"></use>
        </mask>
        <polygon id="path-16" points="19.3518515 20.0429893 31.10119 62.8935185 12.4404762 53.9087298 2.07341271 12.4404762"></polygon>
        <mask id="mask-17" maskContentUnits="userSpaceOnUse" maskUnits="objectBoundingBox" x="0" y="0" width="29.0277773" height="50.4530423" fill="white">
            <use xlink:href="#path-16"></use>
        </mask>
    </defs>
    <g id="Page-3" stroke="none" stroke-width="1" fill="none" fill-rule="evenodd">
        <g id="rocks">
            <rect id="Rectangle-1" fill="url(#radialGradient-1)" x="0" y="0" width="536" height="700.330017"></rect>
            <text id="With-ice." font-family="LucidaGrande, Lucida Grande" font-size="28" font-weight="normal" line-spacing="36" fill="#FFFFFF">
                <tspan x="207.900024" y="569">With ice.</tspan>
            </text>
            <text id="Rocks" font-family="LucidaGrande-Bold, Lucida Grande" font-size="72" font-weight="bold" fill="#FFFFFF">
                <tspan x="163" y="138">Rocks</tspan>
            </text>
            <g transform="translate(164.000000, 225.000000)">
                <path d="M196.590747,5.97142857 C203.367158,5.97142857 208.293002,11.2192093 207.594062,17.697286 L185.086766,236.088428 C184.450653,242.564441 179.757394,247.814286 174.579315,247.814286 L33.2171861,247.814286 C28.0494631,247.814286 23.3464301,242.566505 22.7105837,236.088428 L0.219093182,17.697286 C-0.479155369,11.2212738 4.43326598,5.97142857 11.2232562,5.97142857 L196.590747,5.97142857 Z" id="Rectangle-1" fill="#9ACDBD"></path>
                <path d="M206.507143,10.45 C206.507143,4.67862436 160.723462,-1.17608286e-14 104.246429,-1.17608286e-14 C47.7693956,-1.17608286e-14 1.98571429,4.67862436 1.98571429,10.45 C1.98571429,16.2213756 47.7693956,20.9 104.246429,20.9 C160.723462,20.9 206.507143,16.2213756 206.507143,10.45 Z" id="Oval-1" stroke="#FFFFFF" fill="#9AD3C1"></path>
                <ellipse id="Oval-2" fill="#9ACDBD" cx="105.995018" cy="230.868574" rx="76.6050034" ry="14.9285714"></ellipse>
                <path d="M183.706671,121.128636 L174.197823,213.708725 C173.452764,220.41902 167.846309,225.858789 161.661796,225.858789 C161.661796,225.858789 125.40892,218.703571 102.447944,218.703571 C85.8624951,218.703571 43.0225208,225.858789 43.0225208,225.858789 C36.8467742,225.858789 31.2429515,220.417065 30.5123215,213.708725 L21.1873737,121.128636 C20.5740177,114.418341 25.923024,108.978571 33.1490244,108.978571 L96.2066326,108.978571 L171.767462,108.978571 C178.98322,108.978571 184.332289,114.420296 183.706671,121.128636 Z" id="Rectangle-1" fill="#04D090"></path>
                <ellipse id="Oval-2" fill="#46D2A6" cx="103.5" cy="111.964286" rx="77.6285714" ry="7.46428571"></ellipse>
                <g id="Group" style="mix-blend-mode: soft-light;" transform="translate(100.514286, 86.585714)" stroke="#7AD2B6" fill="#FFFFFF">
                    <use id="Rectangle-1" mask="url(#mask-3)" stroke-width="2" xlink:href="#path-2"></use>
                    <use id="Rectangle-1" mask="url(#mask-5)" stroke-width="2" xlink:href="#path-4"></use>
                    <use id="Rectangle-3" mask="url(#mask-7)" stroke-width="2" fill-opacity="0.998188406" xlink:href="#path-6"></use>
                    <polygon id="Path-11" points="45.2833333 1.43756614 62.534127 9.34417989 20.844709 21.5634921 3.59391534 13.6568783"></polygon>
                </g>
                <g id="Group" style="mix-blend-mode: soft-light;" transform="translate(61.714006, 142.374498) rotate(-325.000000) translate(-61.714006, -142.374498) translate(24.714006, 110.374498)" stroke="#7AD2B6" fill="#FFFFFF">
                    <use id="Rectangle-1" mask="url(#mask-9)" stroke-width="2" xlink:href="#path-8"></use>
                    <use id="Rectangle-1" mask="url(#mask-11)" stroke-width="2" xlink:href="#path-10"></use>
                    <use id="Rectangle-3" mask="url(#mask-13)" stroke-width="2" fill-opacity="0.998188406" xlink:href="#path-12"></use>
                    <polygon id="Path-11" points="43.5416667 1.38227513 60.1289683 8.98478836 20.0429894 20.734127 3.45568783 13.1316138"></polygon>
                </g>
                <g id="Group" style="mix-blend-mode: soft-light;" transform="translate(113.964006, 169.245927) rotate(-325.000000) translate(-113.964006, -169.245927) translate(76.964006, 137.245927)" fill="#FFFFFF">
                    <polygon id="Rectangle-1" points="0.403222956 12.2092742 44.4640062 0.403222956 56.2700575 44.4640062 12.2092742 56.2700575"></polygon>
                    <use id="Rectangle-1" stroke="#7AD2B6" mask="url(#mask-15)" stroke-width="2" xlink:href="#path-14"></use>
                    <use id="Rectangle-3" stroke="#7AD2B6" mask="url(#mask-17)" stroke-width="2" fill-opacity="0.998188406" xlink:href="#path-16"></use>
                    <polygon id="Path-11" stroke="#7AD2B6" points="43.5416667 1.38227513 60.1289683 8.98478836 20.0429894 20.734127 3.45568783 13.1316138"></polygon>
                </g>
            </g>
        </g>
    </g>
</svg>