<?xml version="1.0" encoding="UTF-8" standalone="no"?>
<svg width="536px" height="701px" viewBox="0 0 536 701" version="1.1" xmlns="http://www.w3.org/2000/svg" xmlns:xlink="http://www.w3.org/1999/xlink">
    <!-- Generator: Sketch 39.1 (31720) - http://www.bohemiancoding.com/sketch -->
    <title>shaken</title>
    <desc>Created with Sketch.</desc>
    <defs>
        <radialGradient cx="52.7259827%" cy="36.6966881%" fx="52.7259827%" fy="36.6966881%" r="35.8596346%" id="radialGradient-1">
            <stop stop-color="#FBDA49" offset="0%"></stop>
            <stop stop-color="#F6B323" offset="100%"></stop>
        </radialGradient>
        <path d="M6.88876795,0.303376565 C6.88876795,0.303376565 66.1385134,5 95.9410015,5 C127.082137,5 189.106614,0.290432945 189.106614,0.290432945 C191.265424,0.130031259 193.191762,1.78171458 193.410992,3.99087588 L195.050209,20.5091241 C195.268937,22.713224 193.648896,24.6428806 191.429897,24.8164606 C191.429897,24.8164606 126.943065,30 95.8876484,30 C64.4165016,30 4.52925304,24.8357703 4.52925304,24.8357703 C2.32790137,24.6503295 0.720779794,22.7182854 0.940009792,20.5091241 L2.57922714,3.99087588 C2.79795486,1.78677599 4.73400326,0.13763623 6.88876795,0.303376565 Z" id="path-2"></path>
        <mask id="mask-3" maskContentUnits="userSpaceOnUse" maskUnits="objectBoundingBox" x="0" y="0" width="194.149994" height="29.7203272" fill="white">
            <use xlink:href="#path-2"></use>
        </mask>
    </defs>
    <g id="Page-3" stroke="none" stroke-width="1" fill="none" fill-rule="evenodd">
        <g id="shaken">
            <rect id="Rectangle-1-Copy-2" fill="url(#radialGradient-1)" x="0" y="0" width="536" height="700.330017"></rect>
            <text id="Vigorously-shaken-be" font-family="LucidaGrande, Lucida Grande" font-size="28" font-weight="normal" line-spacing="36" fill="#FFFFFF">
                <tspan x="74" y="579">Vigorously shaken before </tspan>
                <tspan x="74" y="615">served. For incorporating </tspan>
                <tspan x="74" y="651">citrus juice. </tspan>
            </text>
            <text id="Shaken" font-family="LucidaGrande-Bold, Lucida Grande" font-size="72" font-weight="bold" fill="#FFFFFF">
                <tspan x="135" y="138">Shaken</tspan>
            </text>
            <g id="graphic" transform="translate(170.000000, 183.000000)">
                <rect id="Rectangle-10" fill="#F52365" x="59.1770335" y="0" width="76.5358852" height="64" rx="14"></rect>
                <rect id="Rectangle-11" fill="#F52365" x="9.44976077" y="51" width="177.990431" height="88" rx="44"></rect>
                <path d="M18.4725102,161 L176.864079,161 C182.841594,161 187.205535,163.668817 186.609,166.973234 L157.89564,326.026766 C157.300096,329.325692 153.637839,332 149.705656,332 L45.630933,332 C41.7032735,332 38.0374846,329.331183 37.4409499,326.026766 L8.72758957,166.973234 C8.1320463,163.674308 12.4881118,161 18.4725102,161 Z" id="Rectangle-10" fill="#F52365"></path>
                <path d="M65,5.61859797 C65.5127616,4.59307473 66.9233967,3.27530918 68.1630074,2.70558907 C68.1630074,2.70558907 70.868203,1.23751387 73.3559333,0.976412812 C79.9161463,0.287882177 89.8989414,0.976412824 97.0310777,0.976412824 C103.622921,0.976412824 117.636033,0.312355874 122.563096,0.976412824 C124.623445,1.2541013 126.054237,2.43439962 126.054237,2.43439962 C127.202703,3.16746057 128.910441,4.53844663 129.879997,5.50800288 L128.244313,3.87231898 C129.208757,4.83676223 128.889828,5.61859797 127.522244,5.61859797 L67.4683479,5.61859797 C66.105117,5.61859797 65.496835,4.62492801 65.928437,3.76172389 L65,5.61859797 Z" id="Rectangle-21" fill="#FBBBCF"></path>
                <path d="M2,128 C2,118.377346 5.9304424,97.8979404 5.9304424,97.8979404 C6.52114275,94.6405979 9.68135539,92 12.9963917,92 L182.003608,92 C185.315324,92 188.506942,94.6283406 189.112767,97.8955071 C189.112767,97.8955071 193,117.098049 193,128 C193,138.434503 186.158994,172.12419 186.158994,172.12419 C185.518899,175.36931 182.321196,178 179.001441,178 L15.9985589,178 C12.6856463,178 9.45955002,175.366716 8.8066413,172.119416 C8.8066413,172.119416 2,139.7138 2,128 Z" id="Rectangle-14" fill="#F52365"></path>
                <g id="rim" transform="translate(0.000000, 97.000000)">
                    <use id="Rectangle-15" stroke="#FBBBCF" mask="url(#mask-3)" stroke-width="4" fill="#F52365" xlink:href="#path-2"></use>
                    <path d="M95.3602219,13.9999999 C126.419695,13.9999999 193,9.04381358 193,9.04381358 L193,17.9514216 C193,17.9514216 127.452758,22.9999999 95.3602219,22.9999999 C65.2509136,22.9999999 2.25,17.9514218 2.25,17.9514218 L4,9.04381358 C4,9.04381358 66.1059852,13.9999999 95.3602219,13.9999999 Z" id="Rectangle-15-Copy" fill="#FBBBCF"></path>
                </g>
                <g id="right-shine" transform="translate(103.000000, 12.000000)" fill="#FBBBCF">
                    <path d="M14,4.00228529 C14,2.89645364 14.8880473,1.99999997 16.0066239,1.99999997 C16.0066239,1.99999997 19.8073892,2 22,2 C24.3477033,2 28.1225857,0.621849298 28.1225857,0.621849298 C29.159453,0.278411414 30,0.900345519 30,2.00746124 L30,32.9925388 C30,34.101229 29.1054862,35 28.0059397,35 L15.9940603,35 C14.8927712,35 14,34.1002151 14,32.9977147 L14,4.00228529 Z" id="Rectangle-22"></path>
                    <path d="M50.0923556,125 C61.8983211,123.66975 80.1011404,119.965253 80.1011404,119.965253 C82.8067043,119.432159 84.7026605,121.224757 84.3339648,123.958467 C84.3339648,123.958467 82.4945035,137.887998 81.4370632,144.074399 C80.2361032,151.197761 77.1984397,165.695648 77.1984397,165.695648 C76.6053897,168.625161 73.9366455,171 71.237948,171 L20.9552539,171 C18.2547688,171 15.9489838,168.592117 15.8051585,165.622248 L15.8051585,130.993952 C15.8051585,127.683584 18.4862222,125.086029 21.8057907,125.178877 C21.8057907,125.178877 41.8736869,125.926047 50.0923556,125 Z" id="Rectangle-18-Copy"></path>
                    <path d="M8.92526524,164.207104 C8.68264505,161.450959 10.7056701,159.445442 13.4655733,159.729901 L64.3563502,164.975129 C67.1065133,165.258583 69.3036906,167.723327 69.2636508,170.496377 L67.2442437,310.355106 C67.2043079,313.120952 64.9413802,315.228493 62.1802505,315.041542 C62.1802505,315.041542 48.6809756,314.362595 39.0828025,312.379547 C29.4846293,310.3965 26.5018457,309.671688 26.5018457,309.671688 C23.812847,309.060895 21.4369323,306.338631 21.1936802,303.575307 L8.92526524,164.207104 Z" id="Rectangle-12-Copy" transform="translate(39.084864, 237.378049) scale(-1, 1) rotate(-6.000000) translate(-39.084864, -237.378049) "></path>
                    <path d="M24.7451764,58.8333333 C29.9356225,51.7530325 36.4367322,48.5748447 36.4367322,48.5748447 C38.7968418,47.1527972 42.9464103,46 45.7029049,46 L76.7699041,46 C79.5273603,46 81.1332657,48.1528298 80.3941488,50.8014489 L77.7606344,62.0428509 C77.4517318,64.7806088 77.2013168,69.2428186 77.2013168,72.007679 L77.2013168,75.9992188 C77.2013168,78.761074 74.9605107,80.9134899 72.2039533,80.8070684 L21.7600838,78.8595983 C19.0001161,78.7530451 17.296267,76.5017744 18.0423208,73.8429899 C18.0423208,73.8429899 19.5547304,65.9136341 24.7451764,58.8333333 Z" id="Rectangle-20-Copy" transform="translate(48.881360, 63.405425) scale(-1, 1) translate(-48.881360, -63.405425) "></path>
                </g>
            </g>
        </g>
    </g>
</svg>