<?xml version="1.0" encoding="UTF-8" standalone="no"?>
<svg width="536px" height="701px" viewBox="0 0 536 701" version="1.1" xmlns="http://www.w3.org/2000/svg" xmlns:xlink="http://www.w3.org/1999/xlink">
    <!-- Generator: Sketch 39.1 (31720) - http://www.bohemiancoding.com/sketch -->
    <title>stirred</title>
    <desc>Created with Sketch.</desc>
    <defs>
        <radialGradient cx="52.7259827%" cy="36.6966881%" fx="52.7259827%" fy="36.6966881%" r="35.8596346%" id="radialGradient-1">
            <stop stop-color="#FBDA49" offset="0%"></stop>
            <stop stop-color="#F6B323" offset="100%"></stop>
        </radialGradient>
        <radialGradient cx="50%" cy="0%" fx="50%" fy="0%" r="100%" id="radialGradient-2">
            <stop stop-color="#D7C7C7" offset="0%"></stop>
            <stop stop-color="#AD9595" offset="100%"></stop>
        </radialGradient>
    </defs>
    <g id="Page-3" stroke="none" stroke-width="1" fill="none" fill-rule="evenodd">
        <g id="stirred">
            <rect id="Rectangle-1-Copy-2" fill="url(#radialGradient-1)" x="0" y="0" width="536" height="700.330017"></rect>
            <text id="Stirred-with-a-spoon" font-family="LucidaGrande, Lucida Grande" font-size="28" font-weight="normal" line-spacing="36" fill="#FFFFFF">
                <tspan x="81" y="575">Stirred with a spoon. For </tspan>
                <tspan x="81" y="611">combining alcohols without </tspan>
                <tspan x="81" y="647">changing their structure.</tspan>
            </text>
            <text id="Stirred" font-family="LucidaGrande-Bold, Lucida Grande" font-size="72" font-weight="bold" fill="#FFFFFF">
                <tspan x="148" y="138">Stirred</tspan>
            </text>
            <g id="graphic-copy" transform="translate(164.000000, 117.000000)">
                <ellipse id="bottom" fill="#C268EC" cx="101.449974" cy="384.117544" rx="73.0400009" ry="15.0075586"></ellipse>
                <path d="M197.530381,157.003023 C204.342646,157.003023 209.294552,162.27857 208.591914,168.790922 L185.965532,388.337573 C185.326054,394.84785 180.607962,400.125472 175.402486,400.125472 L33.2924093,400.125472 C28.0973439,400.125472 23.3694271,394.849926 22.7302164,388.337573 L0.119723304,168.790922 C-0.582219683,162.280646 4.35619332,157.003023 11.1821094,157.003023 L197.530381,157.003023 Z" id="glass" fill="#C268EC"></path>
                <path d="M207.499244,161.505291 C207.499244,155.703379 161.473321,151 104.697468,151 C47.9216146,151 1.89569161,155.703379 1.89569161,161.505291 C1.89569161,167.307203 47.9216146,172.010582 104.697468,172.010582 C161.473321,172.010582 207.499244,167.307203 207.499244,161.505291 Z" id="rim" stroke="#FFFFFF" fill="#C26FE7"></path>
                <path d="M184.578135,272.769528 L175.018976,365.839459 C174.269974,372.585258 168.633855,378.053809 162.41662,378.053809 C162.41662,378.053809 125.97193,370.860733 102.889468,370.860733 C86.2162649,370.860733 43.1496241,378.053809 43.1496241,378.053809 C36.9412016,378.053809 31.307729,372.583293 30.5732332,365.839459 L21.1989471,272.769528 C20.5823458,266.023729 25.9596538,260.555178 33.223887,260.555178 L96.6151333,260.555178 L172.575755,260.555178 C179.829692,260.555178 185.207063,266.025694 184.578135,272.769528 Z" id="liquid" fill="#9D09E0"></path>
                <ellipse id="drink-surface-copy" fill="#B338EB" cx="103.94709" cy="263.556689" rx="78.0393046" ry="7.50377929"></ellipse>
                <g id="spoon" transform="translate(158.486935, 204.640096) rotate(-339.000000) translate(-158.486935, -204.640096) translate(107.986935, 5.640096)">
                    <polygon fill="#C7B7B7" transform="translate(69.832400, 162.246634) rotate(9.000000) translate(-69.832400, -162.246634) " points="66.2092686 -0.708367978 73.4555308 -0.708367978 73.4555308 318.853323 66.5483653 325.201636"></polygon>
                    <ellipse id="Oval-19-Copy-2" fill="#C7B7B7" transform="translate(37.501717, 351.605511) rotate(19.000000) translate(-37.501717, -351.605511) " cx="37.5017169" cy="351.605511" rx="15.5" ry="38.75"></ellipse>
                    <ellipse id="Oval-19" fill="#C7B7B7" transform="translate(32.117187, 348.687500) rotate(19.000000) translate(-32.117187, -348.687500) " cx="32.1171875" cy="348.6875" rx="18" ry="45"></ellipse>
                    <ellipse id="Oval-19-Copy" fill="url(#radialGradient-2)" transform="translate(31.617187, 347.437500) rotate(19.000000) translate(-31.617187, -347.437500) " cx="31.6171875" cy="347.4375" rx="15.5" ry="38.75"></ellipse>
                    <rect id="Rectangle-28" fill="#78757A" transform="translate(93.406023, 13.286453) rotate(-351.000000) translate(-93.406023, -13.286453) " x="87.9060231" y="0.786453434" width="11" height="25" rx="3"></rect>
                </g>
                <path d="M184.578135,272.769528 L175.018976,365.839459 C174.269974,372.585258 168.633855,378.053809 162.41662,378.053809 C162.41662,378.053809 125.97193,370.860733 102.889468,370.860733 C86.2162649,370.860733 43.1496241,378.053809 43.1496241,378.053809 C36.9412016,378.053809 31.307729,372.583293 30.5732332,365.839459 L21.1989471,272.769528 C20.5823458,266.023729 25.9596538,260.555178 33.223887,260.555178 L96.6151333,260.555178 L172.575755,260.555178 C179.829692,260.555178 185.207063,266.025694 184.578135,272.769528 Z" id="liquid-copy" fill="#9D09E0" opacity="0.216359608"></path>
                <path d="M33.2924079,168.790922 C55.0112165,172.125349 89.8842853,168.790922 109.000004,168.790922 C127.474525,168.790922 166.028172,172.256902 185.965534,168.790922 C197.554575,166.776244 192.000004,166 192.000004,166 C198.812268,166 209.294552,162.27857 208.591914,168.790922 L185.965532,388.337573 C185.326054,394.84785 180.607962,400.125472 175.402486,400.125472 L33.2924093,400.125472 C28.0973439,400.125472 23.3694271,394.849926 22.7302164,388.337573 L0.119723304,168.790922 C-0.582219683,162.280646 4.35619332,157.003023 11.1821094,157.003023 C11.1821094,157.003023 17.6278215,166.385984 33.2924079,168.790922 Z" id="glass-copy-2" fill="#C268EC" opacity="0.365263526"></path>
            </g>
        </g>
    </g>
</svg>