<?xml version="1.0" encoding="UTF-8" standalone="no"?>
<svg width="245px" height="233px" viewBox="0 0 245 233" version="1.1" xmlns="http://www.w3.org/2000/svg" xmlns:xlink="http://www.w3.org/1999/xlink">
    <!-- Generator: Sketch 39.1 (31720) - http://www.bohemiancoding.com/sketch -->
    <title>thumb1</title>
    <desc>Created with Sketch.</desc>
    <defs>
        <radialGradient cx="52.7259827%" cy="36.6966881%" fx="52.7259827%" fy="36.6966881%" r="35.8596346%" id="radialGradient-1">
            <stop stop-color="#FBDA49" offset="0%"></stop>
            <stop stop-color="#F6B323" offset="100%"></stop>
        </radialGradient>
    </defs>
    <g id="Page-3" stroke="none" stroke-width="1" fill="none" fill-rule="evenodd">
        <g id="thumb1">
            <rect id="Rectangle-1" fill="url(#radialGradient-1)" x="0.273854248" y="0" width="244.452292" height="233"></rect>
            <g id="graphic" transform="translate(66.701571, 80.491758)">
                <polygon id="glass" fill="#9ACDBD" transform="translate(55.798429, 40.019338) scale(1, -1) translate(-55.798429, -40.019338) " points="55.7984293 1.92864279 111.596859 78.1100328 0 78.1100328"></polygon>
                <polygon id="stem" fill="#9ACDBD" points="55.7984293 34.7155701 60.6227438 73.8624397 58.7800197 137.203405 52.816839 137.203405 50.9741148 73.8624397"></polygon>
                <polygon id="joiner" fill="#9ACDBD" points="55.7984293 129.701227 63.379495 137.030854 60.4837856 148.890439 51.1130731 148.890439 48.2173636 137.030854"></polygon>
                <path d="M85.5373197,144.648209 C79.5801818,140.653859 66.2656271,137.415798 55.7984293,137.415798 C45.3312316,137.415798 32.0166769,140.653859 26.059539,144.648209 C20.1024011,148.642559 33.4169558,151.880619 55.7984293,151.880619 C78.1799028,151.880619 91.4944575,148.642559 85.5373197,144.648209 Z" id="base" fill="#9ACDBD"></path>
                <ellipse id="rim" stroke="#FFFFFF" stroke-width="0.64" fill="#8FE0C7" transform="translate(55.798429, 2.410803) scale(1, -1) translate(-55.798429, -2.410803) " cx="55.7984293" cy="2.41080348" rx="54.8322228" ry="2.41080348"></ellipse>
                <polygon id="fluid" fill="#04D090" points="23.6720609 28.4474841 55.7461529 71.8716708 87.9224603 28.4474811"></polygon>
                <path d="M88.0890511,28.4474811 C88.0890511,29.5126411 73.6688166,30.3761239 55.880556,30.3761239 C38.0922954,30.3761239 23.6720609,29.5126411 23.6720609,28.4474811 C23.6720609,27.3823211 38.0922954,26.5188383 55.880556,26.5188383 C73.6688166,26.5188383 88.0890511,27.3823211 88.0890511,28.4474811 Z" id="drink-surface" fill="#2FD5A1"></path>
                <ellipse id="Oval-12" fill="#2E6352" transform="translate(62.902358, 40.941806) rotate(23.000000) translate(-62.902358, -40.941806) " cx="62.9023575" cy="40.9418065" rx="11.5944788" ry="14.9469816"></ellipse>
                <ellipse id="Oval-13" fill="#411F14" cx="68.6006663" cy="33.9923291" rx="4.34792956" ry="4.58052662"></ellipse>
            </g>
            <text id="Dirty" font-family="LucidaGrande, Lucida Grande" font-size="46.08" font-weight="normal" fill="#FFFFFF">
                <tspan x="63.5706806" y="56">Dirty</tspan>
            </text>
        </g>
    </g>
</svg>