<?xml version="1.0" encoding="UTF-8" standalone="no"?>
<svg width="536px" height="701px" viewBox="0 0 536 701" version="1.1" xmlns="http://www.w3.org/2000/svg" xmlns:xlink="http://www.w3.org/1999/xlink">
    <!-- Generator: Sketch 39.1 (31720) - http://www.bohemiancoding.com/sketch -->
    <title>up</title>
    <desc>Created with Sketch.</desc>
    <defs>
        <radialGradient cx="52.7259827%" cy="36.6966881%" fx="52.7259827%" fy="36.6966881%" r="35.8596346%" id="radialGradient-1">
            <stop stop-color="#FBDA49" offset="0%"></stop>
            <stop stop-color="#F6B323" offset="100%"></stop>
        </radialGradient>
        <filter x="-50%" y="-50%" width="200%" height="200%" filterUnits="objectBoundingBox" id="filter-2">
            <feGaussianBlur stdDeviation="7" in="SourceGraphic"></feGaussianBlur>
        </filter>
        <filter x="-50%" y="-50%" width="200%" height="200%" filterUnits="objectBoundingBox" id="filter-3">
            <feGaussianBlur stdDeviation="7" in="SourceGraphic"></feGaussianBlur>
        </filter>
    </defs>
    <g id="Page-3" stroke="none" stroke-width="1" fill="none" fill-rule="evenodd">
        <g id="up">
            <rect id="Rectangle-1" fill="url(#radialGradient-1)" x="0" y="0" width="536" height="700.330017"></rect>
            <g id="graphic" transform="translate(152.000000, 193.000000)">
                <polygon id="glass" fill="#B323F5" transform="translate(115.500000, 83.000000) scale(1, -1) translate(-115.500000, -83.000000) " points="115.5 4 231 162 0 162"></polygon>
                <polygon id="stem" fill="#B323F5" points="115.5 72 125.486093 153.190503 121.671745 284.559497 109.328255 284.559497 105.513907 153.190503"></polygon>
                <polygon id="joiner" fill="#B323F5" points="115.5 269 131.192433 284.201626 125.198457 308.798374 105.801543 308.798374 99.8075675 284.201626"></polygon>
                <path d="M177.058038,300 C164.727056,291.715729 137.166584,285 115.5,285 C93.8334163,285 66.2729439,291.715729 53.9419619,300 C41.61098,308.284271 69.1714524,315 115.5,315 C161.828548,315 189.38902,308.284271 177.058038,300 Z" id="base" fill="#B323F5"></path>
                <ellipse id="rim" stroke="#FFFFFF" fill="#C95CFB" transform="translate(115.500000, 5.000000) scale(1, -1) translate(-115.500000, -5.000000) " cx="115.5" cy="5" rx="113.5" ry="5"></ellipse>
                <polygon id="fluid" fill="#9D09E0" points="49 59.0000063 115.39179 149.061654 181.995162 59"></polygon>
                <path d="M182.339996,59 C182.339996,61.209139 152.490821,63 115.669998,63 C78.8491749,63 49,61.209139 49,59 C49,56.790861 78.8491749,55 115.669998,55 C152.490821,55 182.339996,56.790861 182.339996,59 Z" id="drink-surface" fill="#B323F5"></path>
                <path d="M63.7230356,79 C81.0887774,57.3122131 116.660042,13.5 116.660042,13.5 L222.5,155 C222.5,155 201.121801,150.703742 179.514528,149.5 C157.265016,148.260479 135.034292,149.971011 116.66004,149.5 C101.499871,149.11138 71.1691987,149.424235 51.0823245,149.5 C26.7193737,149.591894 6,155 6,155 C6,155 46.1242113,100.97888 63.7230356,79 Z" id="frost" fill="#FFFFFF" opacity="0.750361438" filter="url(#filter-2)" transform="translate(114.250000, 84.250000) scale(1, -1) translate(-114.250000, -84.250000) "></path>
                <path d="M177.058038,300 C164.727056,291.715729 137.166584,285 115.5,285 C93.8334163,285 66.2729439,291.715729 53.9419619,300 C41.61098,308.284271 69.1714524,315 115.5,315 C161.828548,315 189.38902,308.284271 177.058038,300 Z" id="base-frost" fill="#FFFFFF" opacity="0.77047577" filter="url(#filter-3)"></path>
            </g>
            <text id="In-a-stemmed-glass." font-family="LucidaGrande, Lucida Grande" font-size="28" font-weight="normal" line-spacing="36" fill="#FFFFFF">
                <tspan x="46" y="575">In a stemmed glass. Implies </tspan>
                <tspan x="46" y="611">chilled because the stem helps </tspan>
                <tspan x="46" y="647">keep it cold.</tspan>
            </text>
            <text id="Up" font-family="LucidaGrande-Bold, Lucida Grande" font-size="72" font-weight="bold" fill="#FFFFFF">
                <tspan x="219" y="138">Up</tspan>
            </text>
        </g>
    </g>
</svg>